<?xml version="1.0" encoding="UTF-8" standalone="no"?>
<svg
   xmlns:dc="http://purl.org/dc/elements/1.1/"
   xmlns:cc="http://creativecommons.org/ns#"
   xmlns:rdf="http://www.w3.org/1999/02/22-rdf-syntax-ns#"
   xmlns:svg="http://www.w3.org/2000/svg"
   xmlns="http://www.w3.org/2000/svg"
   xmlns:sodipodi="http://sodipodi.sourceforge.net/DTD/sodipodi-0.dtd"
   xmlns:inkscape="http://www.inkscape.org/namespaces/inkscape"
   height="1450"
   id="Layer_1"
   version="1.1"
   viewBox="0 0 1450 1450"
   width="1450"
   xml:space="preserve"
   sodipodi:docname="Home_icon.svg"
   inkscape:version="0.92.3 (2405546, 2018-03-11)"><metadata
     id="metadata831"><rdf:RDF><cc:Work
         rdf:about=""><dc:format>image/svg+xml</dc:format><dc:type
           rdf:resource="http://purl.org/dc/dcmitype/StillImage" /><dc:title></dc:title></cc:Work></rdf:RDF></metadata><defs
     id="defs829" /><sodipodi:namedview
     pagecolor="#ffffff"
     bordercolor="#666666"
     borderopacity="1"
     objecttolerance="10"
     gridtolerance="10"
     guidetolerance="10"
     inkscape:pageopacity="0"
     inkscape:pageshadow="2"
     inkscape:window-width="1920"
     inkscape:window-height="1057"
     id="namedview827"
     showgrid="false"
     inkscape:zoom="0.30659708"
     inkscape:cx="530.08753"
     inkscape:cy="722.5716"
     inkscape:window-x="1912"
     inkscape:window-y="-8"
     inkscape:window-maximized="1"
     inkscape:current-layer="Layer_1" /><path
     style="opacity:1;fill:#2b90ff;fill-opacity:1;stroke-width:1.002092;stroke-miterlimit:4;stroke-dasharray:none;paint-order:markers stroke fill"
     d="m 338.59107,1270.6508 c -3.8311,-2.3559 -9.20013,-8.0098 -11.93114,-12.5231 -4.74368,-7.8299 -4.99749,-19.1254 -5.68198,-252.7848 l -0.71647,-244.58917 h -59.86432 c -49.02368,0 -61.46012,-0.74394 -68.67702,-4.15367 -18.93509,-8.98308 -22.46819,-36.86226 -7.09489,-55.98774 4.46374,-5.57956 123.63126,-125.44082 264.81669,-266.43 225.76862,-225.45126 257.8739,-256.55419 266.43619,-258.10407 21.85066,-3.96768 19.58851,-5.82753 145.43614,119.66288 64.92873,64.74145 118.9172,117.71004 119.97428,117.71004 1.05702,0 1.92185,-30.55737 1.92185,-67.9094 0,-64.71045 0.26658,-68.39296 5.73702,-78.11998 9.58853,-17.06105 16.54788,-18.80931 71.03478,-17.85458 46.3698,0.80593 47.59,0.99192 54.6062,7.458 14.5644,13.44673 14.4473,12.11384 14.4473,164.98128 v 141.28675 l 65.2304,64.93984 c 35.8767,35.71536 68.6874,69.58946 72.9127,75.28061 13.6499,18.36914 8.8452,44.38227 -9.836,53.24756 -6.7939,3.22374 -20.3375,4.02968 -68.3892,4.02968 h -59.9179 l -0.058,241.93577 c -0.056,231.9359 -0.2604,242.3945 -5.0941,253.0266 -8.8433,19.4789 -8.357,19.3983 -118.0043,19.3983 h -96.9066 v -174.5719 c 0,-165.88019 -0.25418,-175.32209 -5.14497,-189.53129 -10.09869,-29.3485 -31.13734,-52.3177 -60.81207,-66.3782 l -17.56103,-8.3197 -91.47218,-0.8679 c -64.35752,-0.62 -95.79481,0 -106.05471,2.2938 -33.54749,7.3278 -60.58107,28.7223 -76.18472,60.2902 l -9.98473,20.198 -0.73427,178.44659 -0.73427,178.4404 h -97.36598 c -85.31441,-0.062 -98.22814,-0.62 -104.33162,-4.4017 z"
     id="path861"
     inkscape:connector-curvature="0" /><path
     style="opacity:1;fill:#bfc6e0;fill-opacity:0;stroke-width:0.00963074;stroke-miterlimit:4;stroke-dasharray:none;paint-order:markers stroke fill"
     d="m 2.2087127,1450.8478 c -0.3829125,-0.015 -0.3879998,-0.016 -0.4823518,-0.092 -0.052447,-0.043 -0.1186464,-0.1221 -0.1471108,-0.1769 -0.049124,-0.095 -0.052675,-0.1626 -0.069907,-1.3365 -0.00998,-0.6801 -0.019036,-2.4598 -0.020114,-3.9547 l -0.00196,-2.718 -0.98740137,-0.01 c -1.08642091,-0.01 -1.10246503,-0.012 -1.23484429,-0.1695 -0.0366818,-0.043 -0.0805871,-0.1213 -0.0975674,-0.1728 -0.0419922,-0.1272 -0.0173742,-0.3578 0.0529057,-0.4956 0.10104331,-0.1981 8.04325789,-8.1275 8.47173399,-8.4581 0.1771531,-0.1366 0.3128534,-0.1592 0.4778121,-0.079 0.1819774,0.088 0.5287225,0.4151 2.2842342,2.1542 1.158071,1.1473 1.672048,1.6404 1.684748,1.6164 0.01005,-0.019 0.02513,-0.5047 0.03351,-1.0793 0.01594,-1.0931 0.02008,-1.1329 0.137657,-1.3209 0.103221,-0.165 0.224768,-0.2012 0.720093,-0.2143 0.231333,-0.01 0.582634,-3e-4 0.780669,0.013 0.333825,0.023 0.36669,0.029 0.45101,0.094 0.147196,0.1123 0.193499,0.2415 0.22092,0.6164 0.0132,0.1804 0.02433,1.2269 0.02474,2.3255 l 7.44e-4,1.9975 1.103779,1.1128 c 1.210834,1.2208 1.241014,1.258 1.239944,1.5287 -6.99e-4,0.1767 -0.06784,0.33 -0.183075,0.4179 -0.130139,0.099 -0.331671,0.1175 -1.300653,0.1181 l -0.859995,5e-4 -0.0012,3.4846 c -6.34e-4,1.9165 -0.01053,3.6968 -0.02199,3.9563 -0.01918,0.4344 -0.02604,0.482 -0.08666,0.6016 -0.04693,0.093 -0.09222,0.1424 -0.157762,0.1735 -0.138967,0.066 -0.673978,0.089 -2.05677,0.09 l -1.215895,7e-4 -0.0076,-2.8475 c -0.0071,-2.6805 -0.01033,-2.8558 -0.05426,-2.9877 -0.08132,-0.2442 -0.227548,-0.491 -0.39822,-0.6719 -0.189637,-0.2012 -0.356778,-0.3211 -0.6599449,-0.4734 l -0.2138039,-0.1075 -1.5444076,-0 c -1.7381098,-0 -1.6816381,-0.01 -2.0884413,0.1894 -0.3637584,0.1783 -0.6358317,0.475 -0.8797869,0.9594 l -0.092318,0.1834 v 1.7291 c 0,0.9511 -0.0076,2.2471 -0.016895,2.8801 l -0.016895,1.1508 -1.1998387,-0 c -0.6599111,-0 -1.3739857,-0.011 -1.5868325,-0.02 z"
     id="path825"
     inkscape:connector-curvature="0" /><path
     style="opacity:1;fill:#bfc6e0;fill-opacity:0;stroke-width:0.00963074;stroke-miterlimit:4;stroke-dasharray:none;paint-order:markers stroke fill"
     d="m 2.2087127,1450.8478 c -0.3829125,-0.015 -0.3879998,-0.016 -0.4823518,-0.092 -0.052447,-0.043 -0.1186464,-0.1221 -0.1471108,-0.1769 -0.049124,-0.095 -0.052675,-0.1626 -0.069907,-1.3365 -0.00998,-0.6801 -0.019036,-2.4598 -0.020114,-3.9547 l -0.00196,-2.718 -0.98740137,-0.01 c -1.08642091,-0.01 -1.10246503,-0.012 -1.23484429,-0.1695 -0.0366818,-0.043 -0.0805871,-0.1213 -0.0975674,-0.1728 -0.0419922,-0.1272 -0.0173742,-0.3578 0.0529057,-0.4956 0.10104331,-0.1981 8.04325789,-8.1275 8.47173399,-8.4581 0.1771531,-0.1366 0.3128534,-0.1592 0.4778121,-0.079 0.1819774,0.088 0.5287225,0.4151 2.2842342,2.1542 1.158071,1.1473 1.672048,1.6404 1.684748,1.6164 0.01005,-0.019 0.02513,-0.5047 0.03351,-1.0793 0.01594,-1.0931 0.02008,-1.1329 0.137657,-1.3209 0.103221,-0.165 0.224768,-0.2012 0.720093,-0.2143 0.231333,-0.01 0.582634,-3e-4 0.780669,0.013 0.333825,0.023 0.36669,0.029 0.45101,0.094 0.147196,0.1123 0.193499,0.2415 0.22092,0.6164 0.0132,0.1804 0.02433,1.2269 0.02474,2.3255 l 7.44e-4,1.9975 1.103779,1.1128 c 1.210834,1.2208 1.241014,1.258 1.239944,1.5287 -6.99e-4,0.1767 -0.06784,0.33 -0.183075,0.4179 -0.130139,0.099 -0.331671,0.1175 -1.300653,0.1181 l -0.859995,5e-4 -0.0012,3.4846 c -6.34e-4,1.9165 -0.01053,3.6968 -0.02199,3.9563 -0.01918,0.4344 -0.02604,0.482 -0.08666,0.6016 -0.04693,0.093 -0.09222,0.1424 -0.157762,0.1735 -0.138967,0.066 -0.673978,0.089 -2.05677,0.09 l -1.215895,7e-4 -0.0076,-2.8475 c -0.0071,-2.6805 -0.01033,-2.8558 -0.05426,-2.9877 -0.08132,-0.2442 -0.227548,-0.491 -0.39822,-0.6719 -0.189637,-0.2012 -0.356778,-0.3211 -0.6599449,-0.4734 l -0.2138039,-0.1075 -1.5444076,-0 c -1.7381098,-0 -1.6816381,-0.01 -2.0884413,0.1894 -0.3637584,0.1783 -0.6358317,0.475 -0.8797869,0.9594 l -0.092318,0.1834 v 1.7291 c 0,0.9511 -0.0076,2.2471 -0.016895,2.8801 l -0.016895,1.1508 -1.1998387,-0 c -0.6599111,-0 -1.3739857,-0.011 -1.5868325,-0.02 z"
     id="path827"
     inkscape:connector-curvature="0" /><path
     style="opacity:1;fill:#bfc6e0;fill-opacity:0;stroke-width:0.00963074;stroke-miterlimit:4;stroke-dasharray:none;paint-order:markers stroke fill"
     d="m 2.2087127,1450.8478 c -0.3829125,-0.015 -0.3879998,-0.016 -0.4823518,-0.092 -0.052447,-0.043 -0.1186464,-0.1221 -0.1471108,-0.1769 -0.049124,-0.095 -0.052675,-0.1626 -0.069907,-1.3365 -0.00998,-0.6801 -0.019036,-2.4598 -0.020114,-3.9547 l -0.00196,-2.718 -0.98740137,-0.01 c -1.08642091,-0.01 -1.10246503,-0.012 -1.23484429,-0.1695 -0.0366818,-0.043 -0.0805871,-0.1213 -0.0975674,-0.1728 -0.0419922,-0.1272 -0.0173742,-0.3578 0.0529057,-0.4956 0.10104331,-0.1981 8.04325789,-8.1275 8.47173399,-8.4581 0.1771531,-0.1366 0.3128534,-0.1592 0.4778121,-0.079 0.1819774,0.088 0.5287225,0.4151 2.2842342,2.1542 1.158071,1.1473 1.672048,1.6404 1.684748,1.6164 0.01005,-0.019 0.02513,-0.5047 0.03351,-1.0793 0.01594,-1.0931 0.02008,-1.1329 0.137657,-1.3209 0.103221,-0.165 0.224768,-0.2012 0.720093,-0.2143 0.231333,-0.01 0.582634,-3e-4 0.780669,0.013 0.333825,0.023 0.36669,0.029 0.45101,0.094 0.147196,0.1123 0.193499,0.2415 0.22092,0.6164 0.0132,0.1804 0.02433,1.2269 0.02474,2.3255 l 7.44e-4,1.9975 1.103779,1.1128 c 1.210834,1.2208 1.241014,1.258 1.239944,1.5287 -6.99e-4,0.1767 -0.06784,0.33 -0.183075,0.4179 -0.130139,0.099 -0.331671,0.1175 -1.300653,0.1181 l -0.859995,5e-4 -0.0012,3.4846 c -6.34e-4,1.9165 -0.01053,3.6968 -0.02199,3.9563 -0.01918,0.4344 -0.02604,0.482 -0.08666,0.6016 -0.04693,0.093 -0.09222,0.1424 -0.157762,0.1735 -0.138967,0.066 -0.673978,0.089 -2.05677,0.09 l -1.215895,7e-4 -0.0076,-2.8475 c -0.0071,-2.6805 -0.01033,-2.8558 -0.05426,-2.9877 -0.08132,-0.2442 -0.227548,-0.491 -0.39822,-0.6719 -0.189637,-0.2012 -0.356778,-0.3211 -0.6599449,-0.4734 l -0.2138039,-0.1075 -1.5444076,-0 c -1.7381098,-0 -1.6816381,-0.01 -2.0884413,0.1894 -0.3637584,0.1783 -0.6358317,0.475 -0.8797869,0.9594 l -0.092318,0.1834 v 1.7291 c 0,0.9511 -0.0076,2.2471 -0.016895,2.8801 l -0.016895,1.1508 -1.1998387,-0 c -0.6599111,-0 -1.3739857,-0.011 -1.5868325,-0.02 z"
     id="path829"
     inkscape:connector-curvature="0" /><path
     style="opacity:1;fill:#bfc6e0;fill-opacity:0;stroke-width:0.00963074;stroke-miterlimit:4;stroke-dasharray:none;paint-order:markers stroke fill"
     d="m 2.2087127,1450.8478 c -0.3829125,-0.015 -0.3879998,-0.016 -0.4823518,-0.092 -0.052447,-0.043 -0.1186464,-0.1221 -0.1471108,-0.1769 -0.049124,-0.095 -0.052675,-0.1626 -0.069907,-1.3365 -0.00998,-0.6801 -0.019036,-2.4598 -0.020114,-3.9547 l -0.00196,-2.718 -0.98740137,-0.01 c -1.08642091,-0.01 -1.10246503,-0.012 -1.23484429,-0.1695 -0.0366818,-0.043 -0.0805871,-0.1213 -0.0975674,-0.1728 -0.0419922,-0.1272 -0.0173742,-0.3578 0.0529057,-0.4956 0.10104331,-0.1981 8.04325789,-8.1275 8.47173399,-8.4581 0.1771531,-0.1366 0.3128534,-0.1592 0.4778121,-0.079 0.1819774,0.088 0.5287225,0.4151 2.2842342,2.1542 1.158071,1.1473 1.672048,1.6404 1.684748,1.6164 0.01005,-0.019 0.02513,-0.5047 0.03351,-1.0793 0.01594,-1.0931 0.02008,-1.1329 0.137657,-1.3209 0.103221,-0.165 0.224768,-0.2012 0.720093,-0.2143 0.231333,-0.01 0.582634,-3e-4 0.780669,0.013 0.333825,0.023 0.36669,0.029 0.45101,0.094 0.147196,0.1123 0.193499,0.2415 0.22092,0.6164 0.0132,0.1804 0.02433,1.2269 0.02474,2.3255 l 7.44e-4,1.9975 1.103779,1.1128 c 1.210834,1.2208 1.241014,1.258 1.239944,1.5287 -6.99e-4,0.1767 -0.06784,0.33 -0.183075,0.4179 -0.130139,0.099 -0.331671,0.1175 -1.300653,0.1181 l -0.859995,5e-4 -0.0012,3.4846 c -6.34e-4,1.9165 -0.01053,3.6968 -0.02199,3.9563 -0.01918,0.4344 -0.02604,0.482 -0.08666,0.6016 -0.04693,0.093 -0.09222,0.1424 -0.157762,0.1735 -0.138967,0.066 -0.673978,0.089 -2.05677,0.09 l -1.215895,7e-4 -0.0076,-2.8475 c -0.0071,-2.6805 -0.01033,-2.8558 -0.05426,-2.9877 -0.08132,-0.2442 -0.227548,-0.491 -0.39822,-0.6719 -0.189637,-0.2012 -0.356778,-0.3211 -0.6599449,-0.4734 l -0.2138039,-0.1075 -1.5444076,-0 c -1.7381098,-0 -1.6816381,-0.01 -2.0884413,0.1894 -0.3637584,0.1783 -0.6358317,0.475 -0.8797869,0.9594 l -0.092318,0.1834 v 1.7291 c 0,0.9511 -0.0076,2.2471 -0.016895,2.8801 l -0.016895,1.1508 -1.1998387,-0 c -0.6599111,-0 -1.3739857,-0.011 -1.5868325,-0.02 z"
     id="path831"
     inkscape:connector-curvature="0" /></svg>