<?xml version="1.0" encoding="UTF-8" standalone="no"?>
<svg
   xmlns:dc="http://purl.org/dc/elements/1.1/"
   xmlns:cc="http://creativecommons.org/ns#"
   xmlns:rdf="http://www.w3.org/1999/02/22-rdf-syntax-ns#"
   xmlns:svg="http://www.w3.org/2000/svg"
   xmlns="http://www.w3.org/2000/svg"
   xmlns:sodipodi="http://sodipodi.sourceforge.net/DTD/sodipodi-0.dtd"
   xmlns:inkscape="http://www.inkscape.org/namespaces/inkscape"
   height="16px"
   id="Layer_1"
   style="enable-background:new 0 0 16 16;"
   version="1.1"
   viewBox="0 0 16 16"
   width="16px"
   xml:space="preserve"
   sodipodi:docname="Home_icon.svg"
   inkscape:version="0.92.3 (2405546, 2018-03-11)"><metadata
     id="metadata831"><rdf:RDF><cc:Work
         rdf:about=""><dc:format>image/svg+xml</dc:format><dc:type
           rdf:resource="http://purl.org/dc/dcmitype/StillImage" /><dc:title></dc:title></cc:Work></rdf:RDF></metadata><defs
     id="defs829" /><sodipodi:namedview
     pagecolor="#ffffff"
     bordercolor="#666666"
     borderopacity="1"
     objecttolerance="10"
     gridtolerance="10"
     guidetolerance="10"
     inkscape:pageopacity="0"
     inkscape:pageshadow="2"
     inkscape:window-width="1920"
     inkscape:window-height="1057"
     id="namedview827"
     showgrid="false"
     inkscape:zoom="39.244426"
     inkscape:cx="5.3604306"
     inkscape:cy="7.5012481"
     inkscape:window-x="1912"
     inkscape:window-y="-8"
     inkscape:window-maximized="1"
     inkscape:current-layer="Layer_1" /><path
     style="opacity:1;fill:#2b90ff;fill-opacity:1;stroke-width:0.01616406;stroke-miterlimit:4;stroke-dasharray:none;paint-order:markers stroke fill"
     d="M 1.7671019,16.802027 C 1.7053049,16.763673 1.6187009,16.672771 1.5746487,16.600018 1.4981317,16.473653 1.4940374,16.291499 1.4829963,12.52245 L 1.471439,8.577158 H 0.50580946 c -0.79076745,0 -0.99137121,-0.012216 -1.10778205,-0.067455 -0.30542892,-0.1449365 -0.362419,-0.5946408 -0.11444275,-0.9030601 0.0720015,-0.089551 1.99421114,-2.0234911 4.27157664,-4.2976436 3.6417192,-3.63658101 4.1595875,-4.13824961 4.2976998,-4.16326201 0.3524581,-0.063831 0.315969,-0.093854 2.3459309,1.93020611 1.047321,1.0442769 1.918172,1.8986854 1.935223,1.8986854 0.01705,0 0.031,-0.4929469 0.031,-1.0954376 0,-1.04383534 0.0043,-1.10319367 0.09254,-1.26008917 0.154666,-0.27518946 0.266923,-0.30340958 1.145813,-0.28804388 0.74796,0.0130775 0.767643,0.0157641 0.880816,0.12029421 0.234928,0.21698403 0.233039,0.19540905 0.233039,2.66122414 v 2.279065 l 1.052187,1.0474738 c 0.578702,0.5761106 1.107949,1.1225318 1.176104,1.2142686 0.220178,0.2963644 0.142677,0.7159398 -0.158657,0.8589319 -0.109588,0.052 -0.32805,0.064841 -1.103139,0.064841 h -0.966495 l -9.41e-4,3.9025252 c -9.02e-4,3.741253 -0.0042,3.90992 -0.08217,4.081451 -0.142645,0.314189 -0.134801,0.3129 -1.903446,0.3129 h -1.563134 v -2.815952 c 0,-2.675699 -0.0041,-2.827967 -0.08299,-3.057147 C 10.721647,10.527453 10.382287,10.157037 9.9036242,9.930242 L 9.6203592,9.7960288 8.1448841,9.7818458 C 7.1067769,9.771867 6.5996835,9.7828895 6.4341882,9.8190342 5.8930565,9.9372155 5.4569964,10.282271 5.2053046,10.791454 l -0.1610569,0.325824 -0.011844,2.878379 -0.011844,2.878377 -1.5705439,-0.0011 c -1.3761484,-9.95e-4 -1.584451,-0.0097 -1.6829021,-0.07087 z"
     id="path861"
     inkscape:connector-curvature="0" /></svg>