<?xml version="1.0" encoding="UTF-8" standalone="no"?>
<svg
   xmlns:dc="http://purl.org/dc/elements/1.1/"
   xmlns:cc="http://creativecommons.org/ns#"
   xmlns:rdf="http://www.w3.org/1999/02/22-rdf-syntax-ns#"
   xmlns:svg="http://www.w3.org/2000/svg"
   xmlns="http://www.w3.org/2000/svg"
   xmlns:sodipodi="http://sodipodi.sourceforge.net/DTD/sodipodi-0.dtd"
   xmlns:inkscape="http://www.inkscape.org/namespaces/inkscape"
   height="16px"
   id="Layer_1"
   style="enable-background:new 0 0 16 16;"
   version="1.1"
   viewBox="0 0 16 16"
   width="16px"
   xml:space="preserve"
   sodipodi:docname="Home_icon.svg"
   inkscape:version="0.92.3 (2405546, 2018-03-11)"><metadata
     id="metadata831"><rdf:RDF><cc:Work
         rdf:about=""><dc:format>image/svg+xml</dc:format><dc:type
           rdf:resource="http://purl.org/dc/dcmitype/StillImage" /><dc:title></dc:title></cc:Work></rdf:RDF></metadata><defs
     id="defs829" /><sodipodi:namedview
     pagecolor="#ffffff"
     bordercolor="#666666"
     borderopacity="1"
     objecttolerance="10"
     gridtolerance="10"
     guidetolerance="10"
     inkscape:pageopacity="0"
     inkscape:pageshadow="2"
     inkscape:window-width="1920"
     inkscape:window-height="1057"
     id="namedview827"
     showgrid="false"
     inkscape:zoom="39.244426"
     inkscape:cx="5.4878372"
     inkscape:cy="7.5012481"
     inkscape:window-x="1912"
     inkscape:window-y="-8"
     inkscape:window-maximized="1"
     inkscape:current-layer="Layer_1" /><path
     style="opacity:1;fill:#2b90ff;fill-opacity:1;stroke-width:0.01616406;stroke-miterlimit:4;stroke-dasharray:none;paint-order:markers stroke fill"
     d="M 1.7671019,16.802027 C 1.7053049,16.763673 1.6187009,16.672771 1.5746487,16.600018 1.4981317,16.473653 1.4940374,16.291499 1.4829963,12.52245 L 1.471439,8.577158 H 0.50580946 c -0.79076745,0 -0.99137121,-0.012216 -1.10778205,-0.067455 -0.30542892,-0.1449365 -0.362419,-0.5946408 -0.11444275,-0.9030601 0.0720015,-0.089551 1.99421114,-2.0234911 4.27157664,-4.2976436 3.6417192,-3.63658101 4.1595875,-4.13824961 4.2976998,-4.16326201 0.3524581,-0.063831 0.315969,-0.093854 2.3459309,1.93020611 1.047321,1.0442769 1.918172,1.8986854 1.935223,1.8986854 0.01705,0 0.031,-0.4929469 0.031,-1.0954376 0,-1.04383534 0.0043,-1.10319367 0.09254,-1.26008917 0.154666,-0.27518946 0.266923,-0.30340958 1.145813,-0.28804388 0.74796,0.0130775 0.767643,0.0157641 0.880816,0.12029421 0.234928,0.21698403 0.233039,0.19540905 0.233039,2.66122414 v 2.279065 l 1.052187,1.0474738 c 0.578702,0.5761106 1.107949,1.1225318 1.176104,1.2142686 0.220178,0.2963644 0.142677,0.7159398 -0.158657,0.8589319 -0.109588,0.052 -0.32805,0.064841 -1.103139,0.064841 h -0.966495 l -9.41e-4,3.9025252 c -9.02e-4,3.741253 -0.0042,3.90992 -0.08217,4.081451 -0.142645,0.314189 -0.134801,0.3129 -1.903446,0.3129 h -1.563134 v -2.815952 c 0,-2.675699 -0.0041,-2.827967 -0.08299,-3.057147 C 10.721647,10.527453 10.382287,10.157037 9.9036242,9.930242 L 9.6203592,9.7960288 8.1448841,9.7818458 C 7.1067769,9.771867 6.5996835,9.7828895 6.4341882,9.8190342 5.8930565,9.9372155 5.4569964,10.282271 5.2053046,10.791454 l -0.1610569,0.325824 -0.011844,2.878379 -0.011844,2.878377 -1.5705439,-0.0011 c -1.3761484,-9.95e-4 -1.584451,-0.0097 -1.6829021,-0.07087 z"
     id="path861"
     inkscape:connector-curvature="0" /><path
     style="opacity:1;fill:#bfc6e0;fill-opacity:0;stroke-width:0.00963074;stroke-miterlimit:4;stroke-dasharray:none;paint-order:markers stroke fill"
     d="M 2.2087127,16.847835 C 1.8258002,16.832615 1.8207129,16.831635 1.7263609,16.755265 1.6739139,16.712815 1.6077145,16.633209 1.5792501,16.57836 1.5301261,16.4837 1.5265751,16.415813 1.5093431,15.241948 1.4993631,14.561771 1.4903071,12.782137 1.4892291,11.287206 L 1.4872691,8.5691537 0.49986773,8.5601632 C -0.58655318,8.5502713 -0.6025973,8.54807 -0.73497656,8.3907462 -0.77165833,8.3471523 -0.81556366,8.2693886 -0.83254397,8.2179378 -0.87453612,8.0907003 -0.84991821,7.8600599 -0.77963829,7.722275 -0.67859498,7.5241776 7.2636196,-0.40520911 7.6920957,-0.73577606 c 0.1771531,-0.13667255 0.3128534,-0.15920947 0.4778121,-0.0793543 0.1819774,0.0880938 0.5287225,0.41511107 2.2842342,2.15427516 1.158071,1.1472865 1.672048,1.6403976 1.684748,1.6163498 0.01005,-0.019033 0.02513,-0.5047353 0.03351,-1.0793392 0.01594,-1.09309019 0.02008,-1.13288203 0.137657,-1.32084274 0.103221,-0.16501309 0.224768,-0.20119035 0.720093,-0.21432748 0.231333,-0.006135 0.582634,-2.5915e-4 0.780669,0.0130587 0.333825,0.0224496 0.36669,0.029269 0.45101,0.0935834 0.147196,0.11227158 0.193499,0.24145159 0.22092,0.61633572 0.0132,0.180426 0.02433,1.2269138 0.02474,2.3255281 l 7.44e-4,1.9974812 1.103779,1.1128354 c 1.210834,1.2207696 1.241014,1.2579787 1.239944,1.5287206 -6.99e-4,0.1767094 -0.06784,0.329938 -0.183075,0.4178346 -0.130139,0.099263 -0.331671,0.117567 -1.300653,0.1181358 l -0.859995,5.047e-4 -0.0012,3.4845716 c -6.34e-4,1.916514 -0.01053,3.696848 -0.02199,3.956299 -0.01918,0.434385 -0.02604,0.48201 -0.08666,0.601627 -0.04693,0.09261 -0.09222,0.142424 -0.157762,0.173526 -0.138967,0.06594 -0.673978,0.08941 -2.05677,0.09019 l -1.215895,6.94e-4 -0.0076,-2.847539 c -0.0071,-2.680443 -0.01033,-2.855762 -0.05426,-2.987685 -0.08132,-0.244224 -0.227548,-0.490957 -0.39822,-0.67193 C 10.318239,10.16362 10.151098,10.043739 9.8479311,9.8913825 L 9.6341272,9.7839352 8.0897196,9.7796507 C 6.3516098,9.7748289 6.4080815,9.7697061 6.0012783,9.9691072 5.6375199,10.147409 5.3654466,10.444114 5.1214914,10.928545 l -0.092318,0.183319 v 1.729183 c 0,0.951051 -0.0076,2.247062 -0.016895,2.880026 l -0.016895,1.150843 -1.1998387,-0.0043 c -0.6599111,-0.0024 -1.3739857,-0.01127 -1.5868325,-0.01973 z"
     id="path825"
     inkscape:connector-curvature="0" /><path
     style="opacity:1;fill:#bfc6e0;fill-opacity:0;stroke-width:0.00963074;stroke-miterlimit:4;stroke-dasharray:none;paint-order:markers stroke fill"
     d="M 2.2087127,16.847835 C 1.8258002,16.832615 1.8207129,16.831635 1.7263609,16.755265 1.6739139,16.712815 1.6077145,16.633209 1.5792501,16.57836 1.5301261,16.4837 1.5265751,16.415813 1.5093431,15.241948 1.4993631,14.561771 1.4903071,12.782137 1.4892291,11.287206 L 1.4872691,8.5691537 0.49986773,8.5601632 C -0.58655318,8.5502713 -0.6025973,8.54807 -0.73497656,8.3907462 -0.77165833,8.3471523 -0.81556366,8.2693886 -0.83254397,8.2179378 -0.87453612,8.0907003 -0.84991821,7.8600599 -0.77963829,7.722275 -0.67859498,7.5241776 7.2636196,-0.40520911 7.6920957,-0.73577606 c 0.1771531,-0.13667255 0.3128534,-0.15920947 0.4778121,-0.0793543 0.1819774,0.0880938 0.5287225,0.41511107 2.2842342,2.15427516 1.158071,1.1472865 1.672048,1.6403976 1.684748,1.6163498 0.01005,-0.019033 0.02513,-0.5047353 0.03351,-1.0793392 0.01594,-1.09309019 0.02008,-1.13288203 0.137657,-1.32084274 0.103221,-0.16501309 0.224768,-0.20119035 0.720093,-0.21432748 0.231333,-0.006135 0.582634,-2.5915e-4 0.780669,0.0130587 0.333825,0.0224496 0.36669,0.029269 0.45101,0.0935834 0.147196,0.11227158 0.193499,0.24145159 0.22092,0.61633572 0.0132,0.180426 0.02433,1.2269138 0.02474,2.3255281 l 7.44e-4,1.9974812 1.103779,1.1128354 c 1.210834,1.2207696 1.241014,1.2579787 1.239944,1.5287206 -6.99e-4,0.1767094 -0.06784,0.329938 -0.183075,0.4178346 -0.130139,0.099263 -0.331671,0.117567 -1.300653,0.1181358 l -0.859995,5.047e-4 -0.0012,3.4845716 c -6.34e-4,1.916514 -0.01053,3.696848 -0.02199,3.956299 -0.01918,0.434385 -0.02604,0.48201 -0.08666,0.601627 -0.04693,0.09261 -0.09222,0.142424 -0.157762,0.173526 -0.138967,0.06594 -0.673978,0.08941 -2.05677,0.09019 l -1.215895,6.94e-4 -0.0076,-2.847539 c -0.0071,-2.680443 -0.01033,-2.855762 -0.05426,-2.987685 -0.08132,-0.244224 -0.227548,-0.490957 -0.39822,-0.67193 C 10.318239,10.16362 10.151098,10.043739 9.8479311,9.8913825 L 9.6341272,9.7839352 8.0897196,9.7796507 C 6.3516098,9.7748289 6.4080815,9.7697061 6.0012783,9.9691072 5.6375199,10.147409 5.3654466,10.444114 5.1214914,10.928545 l -0.092318,0.183319 v 1.729183 c 0,0.951051 -0.0076,2.247062 -0.016895,2.880026 l -0.016895,1.150843 -1.1998387,-0.0043 c -0.6599111,-0.0024 -1.3739857,-0.01127 -1.5868325,-0.01973 z"
     id="path827"
     inkscape:connector-curvature="0" /><path
     style="opacity:1;fill:#bfc6e0;fill-opacity:0;stroke-width:0.00963074;stroke-miterlimit:4;stroke-dasharray:none;paint-order:markers stroke fill"
     d="M 2.2087127,16.847835 C 1.8258002,16.832615 1.8207129,16.831635 1.7263609,16.755265 1.6739139,16.712815 1.6077145,16.633209 1.5792501,16.57836 1.5301261,16.4837 1.5265751,16.415813 1.5093431,15.241948 1.4993631,14.561771 1.4903071,12.782137 1.4892291,11.287206 L 1.4872691,8.5691537 0.49986773,8.5601632 C -0.58655318,8.5502713 -0.6025973,8.54807 -0.73497656,8.3907462 -0.77165833,8.3471523 -0.81556366,8.2693886 -0.83254397,8.2179378 -0.87453612,8.0907003 -0.84991821,7.8600599 -0.77963829,7.722275 -0.67859498,7.5241776 7.2636196,-0.40520911 7.6920957,-0.73577606 c 0.1771531,-0.13667255 0.3128534,-0.15920947 0.4778121,-0.0793543 0.1819774,0.0880938 0.5287225,0.41511107 2.2842342,2.15427516 1.158071,1.1472865 1.672048,1.6403976 1.684748,1.6163498 0.01005,-0.019033 0.02513,-0.5047353 0.03351,-1.0793392 0.01594,-1.09309019 0.02008,-1.13288203 0.137657,-1.32084274 0.103221,-0.16501309 0.224768,-0.20119035 0.720093,-0.21432748 0.231333,-0.006135 0.582634,-2.5915e-4 0.780669,0.0130587 0.333825,0.0224496 0.36669,0.029269 0.45101,0.0935834 0.147196,0.11227158 0.193499,0.24145159 0.22092,0.61633572 0.0132,0.180426 0.02433,1.2269138 0.02474,2.3255281 l 7.44e-4,1.9974812 1.103779,1.1128354 c 1.210834,1.2207696 1.241014,1.2579787 1.239944,1.5287206 -6.99e-4,0.1767094 -0.06784,0.329938 -0.183075,0.4178346 -0.130139,0.099263 -0.331671,0.117567 -1.300653,0.1181358 l -0.859995,5.047e-4 -0.0012,3.4845716 c -6.34e-4,1.916514 -0.01053,3.696848 -0.02199,3.956299 -0.01918,0.434385 -0.02604,0.48201 -0.08666,0.601627 -0.04693,0.09261 -0.09222,0.142424 -0.157762,0.173526 -0.138967,0.06594 -0.673978,0.08941 -2.05677,0.09019 l -1.215895,6.94e-4 -0.0076,-2.847539 c -0.0071,-2.680443 -0.01033,-2.855762 -0.05426,-2.987685 -0.08132,-0.244224 -0.227548,-0.490957 -0.39822,-0.67193 C 10.318239,10.16362 10.151098,10.043739 9.8479311,9.8913825 L 9.6341272,9.7839352 8.0897196,9.7796507 C 6.3516098,9.7748289 6.4080815,9.7697061 6.0012783,9.9691072 5.6375199,10.147409 5.3654466,10.444114 5.1214914,10.928545 l -0.092318,0.183319 v 1.729183 c 0,0.951051 -0.0076,2.247062 -0.016895,2.880026 l -0.016895,1.150843 -1.1998387,-0.0043 c -0.6599111,-0.0024 -1.3739857,-0.01127 -1.5868325,-0.01973 z"
     id="path829"
     inkscape:connector-curvature="0" /><path
     style="opacity:1;fill:#bfc6e0;fill-opacity:0;stroke-width:0.00963074;stroke-miterlimit:4;stroke-dasharray:none;paint-order:markers stroke fill"
     d="M 2.2087127,16.847835 C 1.8258002,16.832615 1.8207129,16.831635 1.7263609,16.755265 1.6739139,16.712815 1.6077145,16.633209 1.5792501,16.57836 1.5301261,16.4837 1.5265751,16.415813 1.5093431,15.241948 1.4993631,14.561771 1.4903071,12.782137 1.4892291,11.287206 L 1.4872691,8.5691537 0.49986773,8.5601632 C -0.58655318,8.5502713 -0.6025973,8.54807 -0.73497656,8.3907462 -0.77165833,8.3471523 -0.81556366,8.2693886 -0.83254397,8.2179378 -0.87453612,8.0907003 -0.84991821,7.8600599 -0.77963829,7.722275 -0.67859498,7.5241776 7.2636196,-0.40520911 7.6920957,-0.73577606 c 0.1771531,-0.13667255 0.3128534,-0.15920947 0.4778121,-0.0793543 0.1819774,0.0880938 0.5287225,0.41511107 2.2842342,2.15427516 1.158071,1.1472865 1.672048,1.6403976 1.684748,1.6163498 0.01005,-0.019033 0.02513,-0.5047353 0.03351,-1.0793392 0.01594,-1.09309019 0.02008,-1.13288203 0.137657,-1.32084274 0.103221,-0.16501309 0.224768,-0.20119035 0.720093,-0.21432748 0.231333,-0.006135 0.582634,-2.5915e-4 0.780669,0.0130587 0.333825,0.0224496 0.36669,0.029269 0.45101,0.0935834 0.147196,0.11227158 0.193499,0.24145159 0.22092,0.61633572 0.0132,0.180426 0.02433,1.2269138 0.02474,2.3255281 l 7.44e-4,1.9974812 1.103779,1.1128354 c 1.210834,1.2207696 1.241014,1.2579787 1.239944,1.5287206 -6.99e-4,0.1767094 -0.06784,0.329938 -0.183075,0.4178346 -0.130139,0.099263 -0.331671,0.117567 -1.300653,0.1181358 l -0.859995,5.047e-4 -0.0012,3.4845716 c -6.34e-4,1.916514 -0.01053,3.696848 -0.02199,3.956299 -0.01918,0.434385 -0.02604,0.48201 -0.08666,0.601627 -0.04693,0.09261 -0.09222,0.142424 -0.157762,0.173526 -0.138967,0.06594 -0.673978,0.08941 -2.05677,0.09019 l -1.215895,6.94e-4 -0.0076,-2.847539 c -0.0071,-2.680443 -0.01033,-2.855762 -0.05426,-2.987685 -0.08132,-0.244224 -0.227548,-0.490957 -0.39822,-0.67193 C 10.318239,10.16362 10.151098,10.043739 9.8479311,9.8913825 L 9.6341272,9.7839352 8.0897196,9.7796507 C 6.3516098,9.7748289 6.4080815,9.7697061 6.0012783,9.9691072 5.6375199,10.147409 5.3654466,10.444114 5.1214914,10.928545 l -0.092318,0.183319 v 1.729183 c 0,0.951051 -0.0076,2.247062 -0.016895,2.880026 l -0.016895,1.150843 -1.1998387,-0.0043 c -0.6599111,-0.0024 -1.3739857,-0.01127 -1.5868325,-0.01973 z"
     id="path831"
     inkscape:connector-curvature="0" /></svg>