<?xml version="1.0" encoding="UTF-8" standalone="no"?>
<!-- Created with Inkscape (http://www.inkscape.org/) -->

<svg
   xmlns:dc="http://purl.org/dc/elements/1.1/"
   xmlns:cc="http://creativecommons.org/ns#"
   xmlns:rdf="http://www.w3.org/1999/02/22-rdf-syntax-ns#"
   xmlns:svg="http://www.w3.org/2000/svg"
   xmlns="http://www.w3.org/2000/svg"
   xmlns:sodipodi="http://sodipodi.sourceforge.net/DTD/sodipodi-0.dtd"
   xmlns:inkscape="http://www.inkscape.org/namespaces/inkscape"
   width="1450"
   height="1450"
   viewBox="0 0 383.64582 383.64584"
   version="1.1"
   id="svg8"
   inkscape:version="0.92.3 (2405546, 2018-03-11)"
   sodipodi:docname="Work_icon.svg">
  <defs
     id="defs2" />
  <sodipodi:namedview
     id="base"
     pagecolor="#ffffff"
     bordercolor="#666666"
     borderopacity="1.0"
     inkscape:pageopacity="0.0"
     inkscape:pageshadow="2"
     inkscape:zoom="0.49497475"
     inkscape:cx="-449.0139"
     inkscape:cy="309.65432"
     inkscape:document-units="mm"
     inkscape:current-layer="layer1"
     showgrid="false"
     inkscape:snap-global="false"
     inkscape:window-width="1920"
     inkscape:window-height="1057"
     inkscape:window-x="1912"
     inkscape:window-y="-8"
     inkscape:window-maximized="1"
     units="px" />
  <metadata
     id="metadata5">
    <rdf:RDF>
      <cc:Work
         rdf:about="">
        <dc:format>image/svg+xml</dc:format>
        <dc:type
           rdf:resource="http://purl.org/dc/dcmitype/StillImage" />
        <dc:title></dc:title>
      </cc:Work>
    </rdf:RDF>
  </metadata>
  <g
     inkscape:label="Layer 1"
     inkscape:groupmode="layer"
     id="layer1"
     transform="translate(0,86.64585)">
    <path
       style="fill:#2b90ff;fill-opacity:1;stroke-width:0.76825982"
       d="m 193.66575,-32.519863 c -51.57069,0 -55.52288,0.12397 -58.38785,1.38227 -5.24397,2.35545 -8.84781,5.28117 -10.99561,8.93707 -2.05172,3.48358 -2.06411,3.63855 -2.31205,20.6052117 l -0.24795,17.0937363 h 10.80841 10.80779 V 2.0537747 -11.390873 h 50.32105 50.32106 V 2.0537747 15.498425 h 10.80964 10.80841 l -0.24794,-17.0937363 c -0.24794,-16.9641817 -0.24794,-17.1210117 -2.31206,-20.6052117 -2.1447,-3.65095 -5.75225,-6.58162 -10.99746,-8.93707 -2.86373,-1.2893 -6.81717,-1.38227 -58.38785,-1.38227 z m 0,53.34594 c -72.179,0 -144.356746,0.309928 -147.115726,0.886393 -0.062,0.01674 -0.12397,0.03967 -0.24794,0.05703 V 95.393367 H 193.64591 337.32392 V 21.529613 c -15.23294,-0.495884 -79.38604,-0.706635 -143.678,-0.706635 z M 46.321924,109.99219 v 131.94416 c 6.11796,0.8616 27.89036,0.89879 147.120056,0.92978 104.34078,0.026 133.9221,0.0205 143.90177,-0.55787 V 109.99653 h -45.72669 -64.53371 v 16.13358 16.13359 H 193.66451 160.24503 V 126.13011 109.99653 H 95.711334 Z m 120.454516,0.37192 -0.18596,11.49087 c -0.12397,6.31942 -0.0391,11.94212 0.18596,12.49441 0.30993,0.80581 5.67167,0.96077 27.10254,0.79961 l 26.71635,-0.18595 V 122.6707 110.37898 h -26.88929 z m -64.61924,32.91491 c 0.18595,0.002 0.24794,0.036 0.30992,0.12397 0.12397,0.062 0.65085,0.91119 0.98557,1.47525 0.0514,0.062 0.12397,0.18596 0.18596,0.24794 0.0508,0.0608 0.24794,0.55787 0.4339,1.05996 0.75622,1.97733 0.89259,2.28726 1.09714,2.62198 0.062,0.12397 0.18596,0.24794 0.18596,0.30993 0.0118,0.0322 0.12397,0.18596 0.30992,0.37191 0.18596,0.18596 0.30993,0.30993 0.30993,0.37192 0.026,0.062 0.4339,0.49588 0.49589,0.49588 0.0415,0.0118 0.12397,0.062 0.24794,0.12397 0.062,0.062 0.30993,0.18596 0.49588,0.30993 0.18596,0.12397 0.4339,0.18595 0.49589,0.24794 0.062,0.0483 0.18595,0.062 0.18595,0.062 0.0205,-0.006 0.24794,0.0465 0.49589,0.12397 0.24794,0.062 0.43389,0.12397 0.49588,0.12397 0.0328,-0.0118 0.30993,0.0217 0.61985,0.062 0.62606,0.12397 1.01037,0.062 1.53724,-0.0298 0.98557,-0.24794 1.48766,-0.4339 1.97734,-0.78721 0.37191,-0.24795 1.19632,-1.09715 1.37608,-1.36988 0.062,-0.12397 0.18596,-0.30993 0.24794,-0.37192 0.062,-0.062 0.18596,-0.24794 0.24794,-0.37191 0.062,-0.12397 0.18596,-0.30993 0.24794,-0.37191 0.062,-0.062 0.12398,-0.18596 0.18596,-0.24794 0.0576,-0.12397 0.76862,-1.16533 1.18392,-1.67981 0.30993,-0.37191 0.8554,-0.96078 0.94218,-0.98557 0.0347,-0.0118 0.062,-0.062 0.12397,-0.12397 0.062,-0.18596 0.37192,-0.18596 0.61986,-0.12397 0.12397,0.0576 0.37191,0.12397 0.49588,0.18596 0.12397,0.0341 0.30993,0.062 0.37192,0.12397 0.0614,0.031 0.24794,0.12397 0.37191,0.12397 0.12397,0.0546 0.30993,0.12397 0.37191,0.12397 0.12397,0.062 0.24794,0.49588 0.30993,1.00416 0.0297,0.24794 0.062,0.55787 0.12397,0.67564 0.0459,0.24795 0.018,0.83681 -0.0601,1.2955 -0.0143,0.062 -0.0205,0.18596 -0.009,0.24794 0.0205,0.062 -0.12398,0.8492 -0.12398,0.99177 -0.0149,0.0409 -0.0223,0.24794 -0.0198,0.4339 0.006,0.18596 -0.0149,0.49588 -0.0415,0.65705 -0.0266,0.18595 -0.0428,0.37191 -0.0347,0.49588 0.009,0.12397 0.0192,0.24794 0.0285,0.37191 0.0477,0.67564 0.062,0.8802 0.30993,1.56204 0.18595,0.61985 0.30993,0.79341 0.49588,1.15293 0.37191,0.55787 1.09715,1.2831 1.39468,1.37607 0.062,0.0205 0.18595,0.12397 0.24794,0.18596 0.12397,0.12397 1.09714,0.66944 1.17772,0.64465 0.026,-0.009 0.18596,0.0421 0.37191,0.12397 0.30993,0.12397 1.17153,0.24794 1.76039,0.24794 0.4339,-0.002 1.50625,-0.30993 2.04552,-0.55787 0.63225,-0.30992 1.39468,-0.71903 1.58063,-0.8616 0.18596,-0.12397 0.61986,-0.37191 1.33889,-0.68184 0.55787,-0.24794 2.07651,-0.73762 2.21288,-0.71283 0.0583,0.0118 0.18596,0.12397 0.30993,0.24794 0.12397,0.12397 0.30993,0.37192 0.55787,0.55787 0.55787,0.55787 0.67564,0.88639 0.4339,1.38228 -0.062,0.12397 -0.12398,0.30993 -0.12398,0.30993 -0.002,0.18595 -0.72523,1.66121 -0.98556,1.99593 -0.062,0.12397 -0.18596,0.24794 -0.18596,0.30993 -0.0322,0.0614 -0.12397,0.18595 -0.24794,0.30992 -0.12397,0.12397 -0.24794,0.30993 -0.30993,0.4339 -0.062,0.12397 -0.18596,0.24794 -0.18596,0.24794 -0.12397,0.0316 -0.8554,1.58063 -0.98557,2.01453 -0.18595,0.61986 -0.18595,0.70044 -0.18595,1.2955 -0.009,0.8306 0.0576,1.2831 0.24794,1.78518 0.18596,0.4339 0.24794,0.55787 0.55787,1.05375 0.062,0.12397 0.18596,0.30993 0.24794,0.4339 0.062,0.12397 0.18596,0.30993 0.24794,0.37191 0.062,0.12398 0.18596,0.24795 0.18596,0.30993 0.036,0.062 0.24794,0.24794 0.49588,0.49589 0.24795,0.18595 0.4339,0.37191 0.4339,0.37191 0.009,0.0204 0.18596,0.12397 0.30993,0.18596 0.18596,0.062 0.30993,0.18595 0.30993,0.18595 0.0118,0.0322 0.12397,0.062 0.61985,0.18596 0.0521,0.0149 0.18596,0.0583 0.37191,0.12397 0.49589,0.12397 2.1633,0.24794 2.75836,0.12397 0.24794,-0.0353 1.13433,-0.0223 1.38847,0.018 0.062,0.0149 0.18596,0.0118 0.24794,-0.009 0.12398,-0.0291 0.64465,0.031 1.60543,0.18596 0.18595,0.0236 0.4339,0.062 0.55787,0.12397 l 0.24794,0.12397 0.12397,0.4339 c 0.12397,0.43389 0.37191,1.45046 0.37191,1.61782 0.001,0.12397 -0.49588,0.63225 -0.63845,0.67564 -0.0366,0.0118 -0.18595,0.12397 -0.37191,0.30993 -0.18596,0.18595 -0.37191,0.37191 -0.4339,0.43389 -0.062,0.062 -0.18595,0.12398 -0.24794,0.18596 -0.062,0.0205 -0.12397,0.062 -0.12397,0.12397 -0.0174,0.031 -0.24794,0.18596 -0.49588,0.30993 -0.84301,0.4339 -0.94218,0.49588 -1.36988,0.74383 -0.24795,0.12397 -0.55787,0.30992 -0.70664,0.37191 -0.24794,0.12397 -0.62605,0.37191 -0.79961,0.55787 -0.12397,0.12397 -0.37191,0.30993 -0.49588,0.49588 -0.12398,0.12397 -0.4339,0.4339 -0.78102,0.99797 -0.24794,0.37191 -0.55787,1.43806 -0.61986,2.30586 -0.062,0.93598 0.18596,2.24387 0.65705,3.13026 0.24794,0.4339 0.49588,0.79342 0.61985,0.8926 0.044,0.0304 0.18596,0.12397 0.24795,0.24794 0.18595,0.24794 1.13433,0.88639 1.60542,1.14053 0.37191,0.18596 0.30993,0.18596 1.48145,0.76242 1.14673,0.55787 1.59303,0.83061 1.76039,0.99797 0.062,0.062 0.18596,0.18595 0.30993,0.24794 0.12397,0.0564 0.24794,0.18596 0.37191,0.30993 0.30993,0.24794 0.30993,0.49588 0.18596,1.02896 -0.0508,0.18595 -0.12397,0.55787 -0.12397,0.73142 -0.026,0.18596 -0.12397,0.4339 -0.12397,0.55787 l -0.12398,0.18596 -0.77481,0.24794 c -0.4339,0.12397 -0.8802,0.24794 -1.01037,0.24794 -0.12397,0.009 -0.37191,0.0353 -0.49588,0.0601 -0.67564,0.12398 -0.99177,0.12398 -1.80378,0.0527 -0.24794,-0.0173 -0.4339,-0.0143 -0.49588,0.006 -0.062,0.0198 -0.24794,0.0409 -0.37192,0.0446 -0.99176,0.0236 -2.47322,0.4339 -3.11787,0.8616 -0.66944,0.4339 -0.69423,0.4339 -1.13433,1.02896 -0.4339,0.55787 -1.01656,1.6984 -1.15913,2.26247 -0.24794,1.02276 -0.24794,1.63642 -0.0304,2.57859 0.18596,0.66945 0.67564,1.7108 1.10334,2.28107 0.24794,0.37191 0.55787,0.76242 1.04136,1.43806 0.18595,0.24795 0.30992,0.49589 0.37191,0.55787 0.18596,0.30993 0.67564,1.24591 0.81201,1.66741 0.12397,0.4339 0.12397,0.4339 0.0347,0.65085 -0.12397,0.18596 -0.4339,0.65085 -0.49588,0.66324 -0.0143,0.006 -0.18596,0.18596 -0.30993,0.37192 -0.24794,0.37191 -0.30993,0.37191 -0.55787,0.4339 -0.18596,0.0502 -0.30993,0.0403 -0.55787,-0.0521 -0.18595,-0.062 -0.4339,-0.12397 -0.55787,-0.18596 -0.12397,-0.0229 -0.24794,-0.062 -0.30993,-0.062 -0.0533,-0.0236 -0.30992,-0.12397 -0.55786,-0.18596 -0.30993,-0.062 -0.67565,-0.24794 -0.96078,-0.4339 -0.4339,-0.24794 -0.81201,-0.4339 -1.86576,-0.94838 -0.12397,-0.0601 -0.30993,-0.12397 -0.4339,-0.18595 -0.12397,-0.0329 -0.30993,-0.12397 -0.4339,-0.18596 -0.12397,-0.0552 -0.37191,-0.12397 -0.49588,-0.12397 -0.18596,-0.0205 -0.4339,-0.0607 -0.64465,-0.062 -0.49589,-0.062 -1.06615,-0.0161 -1.85957,0.24795 -0.70663,0.24794 -1.05995,0.37191 -1.59922,0.79341 -0.12397,0.12397 -0.30993,0.24794 -0.37191,0.30993 -0.0409,0.0533 -0.12398,0.12397 -0.12398,0.12397 -0.12397,0.0304 -0.68184,0.61985 -0.71903,0.70043 -0.0173,0.0421 -0.12397,0.18596 -0.24794,0.30993 -0.12397,0.12397 -0.24794,0.37191 -0.30993,0.55787 -0.0539,0.12397 -0.12397,0.30993 -0.18595,0.30993 -0.062,0.0229 -0.18596,0.37191 -0.18596,0.4339 0.009,0.031 -0.0316,0.24794 -0.062,0.55787 -0.062,0.37191 -0.12398,0.65704 -0.062,1.22111 0.0378,1.07855 0.062,1.63022 0.18596,2.11371 0.12397,0.49588 0.24794,1.31409 0.18595,1.46905 -0.0173,0.12397 -0.0285,0.55787 -0.0192,0.76242 0.0229,0.4339 -0.003,0.8802 -0.062,1.20252 -0.062,0.30993 -0.062,0.37191 -0.30993,0.49588 -0.12397,0.062 -0.55787,0.24795 -0.98557,0.4339 l -0.76862,0.30993 -0.18595,-0.062 h 0.002 c -0.12397,-0.0459 -0.30993,-0.18595 -0.4339,-0.30992 -0.12397,-0.12397 -0.30993,-0.30993 -0.4339,-0.37192 -0.12397,-0.062 -0.30993,-0.24794 -0.4339,-0.37191 -0.12397,-0.12397 -0.30992,-0.30993 -0.4339,-0.49588 -0.12397,-0.12397 -0.24794,-0.30993 -0.37191,-0.37192 -0.062,-0.062 -0.24794,-0.30992 -0.37191,-0.55786 -0.12397,-0.18596 -0.24794,-0.4339 -0.30993,-0.49589 -0.062,-0.062 -0.12397,-0.18595 -0.12397,-0.24794 -0.0143,-0.0459 -0.062,-0.12397 -0.18596,-0.18596 -0.062,-0.062 -0.18595,-0.12397 -0.18595,-0.18595 -0.0149,-0.0403 -0.062,-0.12397 -0.12397,-0.18596 -0.057,-0.057 -0.12397,-0.18596 -0.18596,-0.24794 -0.0471,-0.062 -0.30993,-0.37191 -0.61985,-0.63845 -0.49589,-0.4339 -0.62606,-0.55787 -1.19013,-0.8554 -0.30992,-0.18596 -1.00416,-0.4339 -1.16532,-0.4339 -0.062,-0.003 -0.37192,-0.0428 -0.65705,-0.062 -0.79341,-0.12397 -1.15913,-0.062 -2.37404,0.30993 -0.61986,0.18596 -1.12814,0.37192 -1.2955,0.49589 -0.37191,0.18595 -1.12194,0.93598 -1.38847,1.35128 -0.37192,0.55787 -1.07855,2.08271 -1.03516,2.21288 0.0118,0.0328 -0.0378,0.18596 -0.12397,0.30993 -0.062,0.12397 -0.12397,0.37191 -0.18596,0.4339 -0.062,0.4339 -1.02896,2.33065 -1.41947,2.83893 -0.24794,0.30993 -0.4339,0.37191 -0.8554,0.30993 -0.18595,-0.0291 -0.43389,-0.0533 -0.49588,-0.0527 -0.4339,0.002 -0.89879,-0.062 -1.10334,-0.18595 -0.18596,-0.12398 -0.97937,-2.54141 -0.94218,-2.96911 0.009,-0.12397 -0.006,-0.30993 -0.0328,-0.37191 -0.0291,-0.062 -0.0502,-0.24794 -0.0496,-0.30993 0.003,-0.30993 -0.24794,-1.44426 -0.4339,-2.21288 -0.24794,-0.81201 -0.309926,-1.01656 -0.824406,-1.73559 -0.24794,-0.37192 -1.07854,-1.07855 -1.53104,-1.3079 -0.78102,-0.37191 -1.95874,-0.75002 -2.59719,-0.78102 -0.92978,-0.0459 -1.92155,0.18596 -2.73356,0.63846 -0.24794,0.12397 -0.49588,0.24794 -0.61985,0.30992 -0.062,0.0236 -0.18596,0.12397 -0.24795,0.12397 -0.0545,0.0601 -0.12397,0.12397 -0.18595,0.12397 -0.0552,0.0198 -0.12397,0.062 -0.12397,0.12398 -0.0502,0.12397 -0.18596,0.24794 -0.55787,0.55786 -0.062,0.062 -0.24795,0.18596 -0.30993,0.24795 -0.4339,0.43389 -0.61986,0.61985 -0.8554,0.78101 -0.18596,0.12397 -0.37191,0.24795 -0.4339,0.37192 -0.37191,0.30992 -0.49588,0.43389 -0.75622,0.55787 -0.30993,0.18595 -1.08475,0.55787 -1.21492,0.61985 -0.12397,0.0409 -0.49588,-0.12397 -0.81821,-0.37191 -0.18595,-0.12397 -0.30992,-0.18596 -0.30992,-0.18596 -0.0198,0.006 -0.12397,-0.049 -0.18596,-0.12397 -0.062,-0.062 -0.18596,-0.18596 -0.24794,-0.18596 -0.18596,-0.062 -0.24794,-0.37191 -0.24794,-0.76242 0.006,-0.18595 0.0298,-0.37191 0.0515,-0.4339 0.0229,-0.0514 0.062,-0.37191 0.12397,-0.68803 0.049,-0.30993 0.12397,-0.70044 0.18595,-0.83061 0.057,-0.12397 0.062,-0.24794 0.062,-0.30993 -0.0118,-0.0359 0.062,-0.30992 0.18595,-0.55787 0.30993,-0.67564 0.55787,-1.32029 0.55787,-1.58063 0.0112,-0.062 0.0527,-0.18595 0.062,-0.24794 0.0415,-0.062 0.12397,-0.37191 0.12397,-0.61985 0.062,-0.49589 0.12397,-0.66325 0.18596,-0.78102 0.0173,-0.0459 0.0111,-0.24794 -0.0124,-0.37191 -0.0229,-0.18596 -0.049,-0.4339 -0.0552,-0.49589 -0.0173,-0.30992 -0.24794,-1.07235 -0.4339,-1.48145 -0.18595,-0.4339 -0.55787,-1.04136 -0.63225,-1.08475 -0.0335,-0.0173 -0.062,-0.0589 -0.062,-0.12397 -0.0118,-0.0353 -0.18596,-0.24794 -0.4339,-0.49588 -0.24794,-0.24794 -0.4339,-0.4339 -0.4339,-0.49588 -0.0453,-0.12398 -1.40707,-0.89879 -1.82857,-1.02277 -0.18596,-0.0508 -0.4339,-0.12397 -0.49589,-0.12397 -0.18595,-0.0527 -1.02276,-0.062 -1.6798,-0.036 -0.49589,0.026 -1.08475,0.12397 -2.44843,0.55787 -0.88019,0.24794 -1.36988,0.37191 -1.59922,0.37191 -0.49589,0.0291 -1.07855,0.0558 -1.38848,0.062 -0.61985,0.0143 -0.55787,0.0304 -0.96077,-0.55787 -0.12397,-0.18596 -0.24795,-0.37191 -0.30993,-0.4339 -0.0409,-0.039 -0.12397,-0.24794 -0.24794,-0.49588 l -0.18596,-0.4339 0.18596,-0.24794 c 0.12397,-0.12397 0.18595,-0.30993 0.18595,-0.30993 -0.009,-0.0304 0.4339,-0.63225 0.91119,-1.22111 0.062,-0.12397 0.18596,-0.18596 0.24794,-0.24795 0.0583,-0.0205 0.12397,-0.0595 0.12397,-0.062 0.0205,-0.062 0.55787,-0.61986 0.76242,-0.70664 0.12398,-0.062 0.4339,-0.30992 0.55787,-0.49588 0.0316,-0.0384 0.18596,-0.18596 0.30993,-0.24794 0.37191,-0.37191 0.55787,-0.55787 0.68184,-0.72523 0.062,-0.12397 0.18596,-0.24794 0.24794,-0.30993 0.12397,-0.12397 0.30993,-0.43389 0.55787,-0.94837 0.18596,-0.37192 0.30993,-0.79962 0.37192,-1.15293 0.0229,-0.18596 0.062,-0.55787 0.062,-0.73763 0.0514,-0.37191 0.0285,-0.55787 -0.18596,-1.57443 -0.18595,-0.8616 -0.55786,-1.74179 -0.92978,-2.16949 -0.30993,-0.37192 -0.89259,-0.94838 -1.07855,-1.04756 -0.12397,-0.0558 -0.24794,-0.18595 -0.30992,-0.24794 -0.062,-0.062 -0.18596,-0.12397 -0.30993,-0.18596 -0.062,-0.0298 -0.30993,-0.12397 -0.49588,-0.18595 -0.4339,-0.18596 -0.99177,-0.37192 -1.36988,-0.4339 -0.18596,-0.0335 -0.4339,-0.12397 -0.55787,-0.12397 -0.12397,-0.0514 -0.4339,-0.12397 -0.72523,-0.18596 -0.24794,-0.0403 -0.61986,-0.12397 -0.75003,-0.18596 -0.12397,-0.0483 -0.30992,-0.062 -0.30992,-0.062 -0.30993,0.002 -2.08891,-0.8306 -2.21289,-1.02895 -0.0545,-0.062 -0.062,-0.30993 -0.12397,-0.55787 -0.0118,-0.24795 -0.039,-0.55787 -0.0589,-0.63845 -0.0198,-0.12398 -0.0198,-0.18596 -0.001,-0.24795 0.0204,-0.0229 0.0174,-0.12397 -0.006,-0.18595 -0.0527,-0.18596 -0.004,-0.4339 0.12397,-0.55787 0.049,-0.0601 0.30993,-0.24794 0.61985,-0.4339 0.49589,-0.24794 0.61986,-0.30993 1.81618,-0.69424 2.85753,-0.87399 3.50838,-1.09714 3.97327,-1.35748 0.61985,-0.37191 0.91738,-0.55787 1.07235,-0.80581 0.062,-0.12397 0.12397,-0.18596 0.18595,-0.24794 0.12397,-0.0403 0.55787,-0.82441 0.8554,-1.48765 0.062,-0.18596 0.37192,-1.15293 0.30993,-1.19632 -0.0112,-0.0359 0.0434,-0.49589 0.062,-0.8554 0.062,-0.4339 -0.0254,-1.00417 -0.30993,-1.86577 -0.30993,-0.86779 -0.49588,-1.30169 -0.83681,-1.54344 -0.12397,-0.062 -0.30992,-0.30992 -0.37191,-0.43389 -0.12397,-0.18596 -0.30993,-0.37192 -0.49588,-0.49589 -0.18596,-0.12397 -0.4339,-0.37191 -0.55787,-0.49588 -0.12397,-0.12397 -0.30993,-0.30993 -0.4339,-0.37191 -0.062,-0.0434 -0.24794,-0.18596 -0.37191,-0.30993 -0.12397,-0.12397 -0.30993,-0.30993 -0.49589,-0.4339 -0.12397,-0.12397 -0.37191,-0.37191 -0.49588,-0.49588 -0.12397,-0.12398 -0.24794,-0.24795 -0.24794,-0.24795 -0.0229,-0.002 -0.0496,-0.0304 -0.0601,-0.0614 -0.0112,-0.031 -0.062,-0.12397 -0.12397,-0.18595 -0.37191,-0.37192 -0.69424,-0.91739 -0.71283,-1.20872 -0.009,-0.12397 0.49588,-1.15293 0.76862,-1.59923 0.18595,-0.30992 0.18595,-0.30992 0.90499,-0.30992 0.18595,-0.002 0.37191,-0.0118 0.49588,-0.018 0.12397,-0.006 0.24794,0.009 0.30993,0.0304 0.0545,0.0229 0.12397,0.0341 0.12397,0.0236 0.0291,-0.009 0.24794,0.001 0.4339,0.0229 0.18595,0.0229 0.43389,0.0316 0.43389,0.0211 0.036,-0.0118 0.18596,0.0198 0.30993,0.062 0.12397,0.0508 0.37192,0.12397 0.49589,0.12397 0.12397,0.0298 0.43389,0.12397 0.63845,0.18596 0.55787,0.18595 1.64881,0.37191 2.00833,0.37191 0.0601,0.003 0.24794,0.0112 0.43389,0.0167 0.79962,0.0341 1.01657,0.006 1.69841,-0.18596 0.37191,-0.12397 0.74382,-0.24794 0.843,-0.30993 0.12397,-0.062 0.24794,-0.18595 0.37191,-0.18595 0.12397,-0.0533 0.18596,-0.12397 0.24794,-0.18596 0.049,-0.0595 0.18596,-0.18596 0.30993,-0.30993 0.24794,-0.18595 0.55787,-0.49588 0.71283,-0.71283 0.0608,-0.062 0.18596,-0.18596 0.24795,-0.30993 0.062,-0.062 0.18595,-0.24794 0.30992,-0.43389 0.12397,-0.18596 0.18596,-0.37192 0.24795,-0.4339 0.12397,-0.24795 0.43389,-1.02896 0.43389,-1.12814 0,-0.062 0.0285,-0.24794 0.062,-0.37191 0.12397,-0.37191 0.12397,-0.49589 0.0378,-1.15913 -0.0552,-0.49588 -0.12397,-0.72523 -0.37191,-1.63022 -0.18596,-0.55787 -0.4339,-1.19632 -0.49589,-1.38847 -0.24794,-0.55787 -0.61985,-1.51865 -0.81201,-2.47942 -0.24794,-1.17773 -0.24794,-1.22731 0.18596,-1.62402 0.4339,-0.4339 0.90499,-0.72523 1.24591,-0.8802 l 0.30993,-0.12397 0.76242,0.37192 c 0.97317,0.49588 1.77278,1.05375 2.20048,1.51244 0.30993,0.37191 0.4339,0.4339 0.65085,0.61986 0.12397,0.062 0.24794,0.18595 0.37191,0.30992 0.12397,0.12398 0.30993,0.24795 0.4339,0.30993 0.12397,0.062 0.30993,0.18596 0.4339,0.30993 0.24794,0.18596 0.30993,0.24794 0.97937,0.49588 0.61985,0.24794 0.66324,0.24794 1.24591,0.37192 0.82441,0.12397 1.36368,0.0465 2.47322,-0.30993 0.63845,-0.18596 0.99797,-0.37191 1.23971,-0.49589 0.18595,-0.12397 0.37191,-0.18595 0.4339,-0.24794 0.062,-0.0298 0.37191,-0.30992 0.79961,-0.74382 0.24794,-0.24795 0.55787,-0.77482 0.75002,-1.15293 0.24795,-0.55787 0.30993,-0.76862 0.37192,-1.07235 0.0397,-0.18596 0.062,-0.37191 0.12397,-0.4339 0.0143,-0.062 0.0341,-0.18596 0.0421,-0.24794 0.009,-0.062 0.031,-0.12397 0.0539,-0.18596 0.0229,-0.026 0.031,-0.062 0.018,-0.12397 -0.0143,-0.0453 -0.0112,-0.18596 0.006,-0.30993 0.0174,-0.12397 0.0217,-0.24794 0.013,-0.30992 -0.009,-0.0328 0.018,-0.18596 0.057,-0.30993 0.0409,-0.12397 0.062,-0.30993 0.0601,-0.4339 -0.0347,-0.37191 0.0118,-0.8368 0.12397,-1.35748 0.062,-0.30993 0.12397,-0.62606 0.12397,-0.72523 0.009,-0.12397 0.0459,-0.24794 0.062,-0.30993 0.0384,-0.062 0.062,-0.18596 0.062,-0.24794 0.0434,-0.37191 0.309926,-1.09095 0.495886,-1.17773 0.12397,-0.062 0.49588,-0.18595 0.99796,-0.24794 0.49589,-0.0607 0.73143,-0.062 0.89879,-0.062 z m 4.40097,15.49885 c -0.062,0.0118 -0.24795,0.0149 -0.37192,0.009 -0.12397,-0.006 -0.49588,0.0174 -0.81821,0.0515 -0.8306,0.062 -1.05375,0.12397 -1.33888,0.12397 -0.12397,10e-4 -0.30993,0.0223 -0.37191,0.0496 -0.062,0.026 -0.24795,0.049 -0.37192,0.0483 -0.49588,-0.002 -2.70256,0.55787 -3.942266,0.99796 -0.94218,0.30993 -2.29347,0.89879 -2.80175,1.15913 -0.18595,0.062 -0.4339,0.24794 -0.55787,0.30993 -0.12397,0.062 -0.37191,0.18596 -0.49588,0.30993 -0.12397,0.12397 -0.49589,0.30993 -0.75003,0.49588 -0.24794,0.18596 -0.55786,0.37191 -0.66944,0.49589 -0.18596,0.18595 -0.61985,0.49588 -0.77482,0.61985 -0.18595,0.12397 -0.55787,0.4339 -0.76242,0.64465 -0.12397,0.12397 -0.24794,0.24794 -0.30993,0.30993 -0.18595,0.18595 -1.40707,1.34508 -1.54963,1.54963 -0.062,0.062 -0.18596,0.24795 -0.24794,0.30993 -0.062,0.062 -0.18596,0.24794 -0.30993,0.37191 -0.12397,0.12397 -0.18596,0.30993 -0.18596,0.30993 -0.0204,0.006 -0.18596,0.18596 -0.30993,0.4339 -0.12397,0.24794 -0.37191,0.49588 -0.43389,0.61985 -0.062,0.12398 -0.24795,0.30993 -0.30993,0.49589 -0.062,0.12397 -0.24794,0.4339 -0.37191,0.63225 -0.30993,0.49588 -0.55787,0.89259 -0.83061,1.42567 -0.12397,0.24794 -0.37191,0.65704 -0.49588,0.90498 -0.12398,0.24795 -0.24795,0.49589 -0.24795,0.61986 -0.0143,0.062 -0.062,0.24794 -0.18595,0.4339 -0.062,0.18595 -0.12397,0.30992 -0.12397,0.30992 0.009,0.0229 -0.0558,0.18596 -0.12397,0.37192 -0.062,0.18595 -0.12398,0.37191 -0.12398,0.4339 0.0149,0.0446 0.003,0.12397 -0.0254,0.18595 -0.0291,0.0465 -0.0465,0.12397 -0.0391,0.12397 0.009,0.0229 -0.0298,0.18596 -0.062,0.37192 -0.0508,0.18595 -0.12397,0.43389 -0.12397,0.61985 -0.0329,0.18596 -0.12397,0.4339 -0.12397,0.55787 -0.0453,0.12397 -0.12397,0.37191 -0.12397,0.55787 -0.0298,0.18596 -0.062,0.4339 -0.12397,0.49588 -0.062,0.18596 -0.12397,0.55787 -0.062,0.65705 0.0229,0.062 -0.0378,0.68804 -0.12397,1.04755 -0.0291,0.18596 -0.0136,0.75623 0.0211,0.8616 0.0341,0.12397 0.0515,0.73763 0.0285,1.01037 -0.0173,0.18595 0.001,0.55787 0.0508,0.91738 0.036,0.24794 0.062,0.79961 0.0601,1.14053 -0.003,0.30993 0.0496,0.68804 0.18595,1.38848 0.062,0.37191 0.18596,0.88639 0.24794,1.10954 0.18596,0.8492 1.59923,4.66131 1.81618,4.87826 0.0601,0.0601 0.12397,0.18595 0.12397,0.24794 0.0229,0.062 0.12397,0.24794 0.18596,0.30993 0.18595,0.30992 0.61985,0.92358 0.63225,1.04135 0.0359,0.12397 0.30993,0.49589 0.55787,0.78722 0.12397,0.12397 0.30993,0.37191 0.4339,0.61985 0.30992,0.4339 0.30992,0.49589 0.76242,0.93599 0.12397,0.12397 0.37191,0.37191 0.49588,0.55786 0.12397,0.12398 0.30993,0.37192 0.4339,0.4339 0.12397,0.12397 0.24794,0.18596 0.24794,0.24794 0.0229,0.062 0.18596,0.24795 0.55787,0.55787 0.18596,0.12397 0.37191,0.30993 0.4339,0.37192 0.062,0.062 0.18596,0.18595 0.24794,0.24794 0.12397,0.062 0.69424,0.55787 0.71283,0.62605 0.006,0.0198 0.18596,0.12397 0.30993,0.24794 0.18596,0.12398 0.30993,0.18596 0.37191,0.24795 0.0118,0.0384 0.12398,0.12397 0.24795,0.18595 0.12397,0.0576 0.30992,0.18596 0.37191,0.24794 0.55787,0.4339 2.77075,1.59923 3.71293,1.95875 0.24794,0.12397 0.63225,0.24794 0.79961,0.37191 0.18596,0.062 0.30993,0.12397 0.37192,0.12397 0.062,-0.0229 0.433886,0.0558 0.495876,0.12397 0.0409,0.0291 0.8678,0.18596 0.90499,0.18596 0.0143,-0.006 0.12397,0.031 0.24794,0.062 0.12397,0.049 0.4339,0.12397 0.65085,0.12397 0.24794,0.0366 0.49588,0.12397 0.65704,0.12397 0.12397,0.0353 0.30993,0.0607 0.37192,0.0552 0.062,-0.006 0.43389,0.0403 0.8554,0.12397 0.37191,0.0601 0.75002,0.12397 0.79961,0.062 0.0471,-0.0149 0.37191,0.008 0.67564,0.0508 0.30993,0.0428 0.62605,0.062 0.66944,0.0539 0.0421,-0.0143 0.12397,-0.0143 0.18596,-0.003 0.12397,0.0205 0.24794,0.0124 1.07235,-0.0583 0.18595,-0.0143 0.37191,-0.0316 0.49588,-0.0359 0.12397,-0.006 0.4339,-0.0576 0.79961,-0.12397 0.30993,-0.0589 0.81821,-0.12398 1.07235,-0.18596 0.24795,-0.0397 0.66325,-0.12397 0.91739,-0.18596 0.24794,-0.0471 0.61985,-0.12397 0.76242,-0.12397 0.37191,-0.062 2.08891,-0.65704 2.5414,-0.87399 l -0.003,0.002 c 0.18595,-0.062 0.63225,-0.30993 0.97937,-0.4339 1.14053,-0.49589 1.94634,-0.92979 2.1261,-1.07855 0.18595,-0.12397 0.55787,-0.4339 0.74382,-0.49588 0.37192,-0.18596 0.8864,-0.55787 1.14054,-0.79962 0.12397,-0.12397 0.4339,-0.37191 0.66324,-0.55787 0.24794,-0.18595 0.49589,-0.37191 0.55787,-0.49588 0.12397,-0.12397 0.24794,-0.24794 0.37191,-0.37191 0.062,-0.12397 0.18596,-0.18596 0.24795,-0.18596 0.0316,-0.0112 0.24794,-0.18596 0.43389,-0.4339 0.18596,-0.24794 0.4339,-0.4339 0.4339,-0.4339 0.0614,-0.0198 0.12397,-0.12397 0.49589,-0.55787 0.18595,-0.18595 0.30992,-0.37191 0.37191,-0.37191 0.0291,-0.009 0.12397,-0.12397 0.12397,-0.18595 0.12397,-0.18596 0.24794,-0.37192 0.4339,-0.55787 0.062,-0.062 0.66324,-0.96078 1.09714,-1.64262 0.12397,-0.18596 0.79961,-1.45046 0.92358,-1.7046 0.12398,-0.30993 0.37192,-0.79962 0.4339,-1.02276 0.0595,-0.12397 0.12397,-0.30993 0.12397,-0.37192 0.062,-0.12397 0.4339,-1.22731 0.49589,-1.53104 0.0359,-0.12397 0.12397,-0.37191 0.12397,-0.4339 0.062,-0.18595 0.37191,-1.2707 0.4339,-1.65501 0.0173,-0.12397 0.062,-0.37191 0.12397,-0.49588 0.062,-0.37191 0.12397,-0.77482 0.12397,-0.8554 -0.0205,-0.0608 0.12397,-0.92359 0.18596,-1.01656 0.0149,-0.0328 0.0143,-0.12397 -0.006,-0.18596 -0.0298,-0.062 -0.0198,-0.37191 0.0266,-0.75622 0.026,-0.24794 0.0267,-0.61986 0.006,-0.89259 -0.0118,-0.18596 -0.0359,-0.4339 -0.0508,-0.65705 -0.0149,-0.18596 -0.0378,-0.49588 -0.0496,-0.62605 -0.0118,-0.12397 -0.0124,-0.30993 -0.002,-0.37192 0.0527,-0.18595 -0.0322,-0.77481 -0.37191,-2.36784 -0.12397,-0.65085 -0.61985,-2.1323 -1.01036,-3.11787 -0.18596,-0.4339 -0.49589,-1.15293 -0.67564,-1.66121 -0.4339,-0.99797 -0.68804,-1.63642 -0.8926,-1.99593 -0.062,-0.12398 -0.18595,-0.37192 -0.24794,-0.49589 -0.062,-0.12397 -0.18595,-0.37191 -0.24794,-0.4339 -0.062,-0.062 -0.18596,-0.24794 -0.30993,-0.43389 -0.18595,-0.24795 -0.24794,-0.37192 -0.55787,-0.67565 -0.30992,-0.30992 -0.49588,-0.55787 -0.55787,-0.74382 -0.0496,-0.12397 -0.12397,-0.18596 -0.12397,-0.18596 -0.0298,-6.2e-4 -0.062,-0.0428 -0.062,-0.12397 -0.0174,-0.0515 -0.12397,-0.18596 -0.30993,-0.30993 -0.12397,-0.12397 -0.24794,-0.18595 -0.24794,-0.24794 -0.009,-0.0291 -0.12397,-0.12397 -0.24794,-0.30993 -0.12397,-0.12397 -0.37192,-0.37191 -0.55787,-0.55787 -0.37192,-0.37191 -0.49589,-0.49588 -1.2707,-1.09714 -0.30993,-0.24794 -0.55787,-0.4339 -0.61986,-0.49588 -0.0527,-0.0496 -0.18596,-0.12397 -0.30993,-0.24794 -0.12397,-0.062 -0.4339,-0.24795 -0.68184,-0.4339 -0.55787,-0.37192 -1.43806,-0.874 -1.76038,-1.05376 -0.12398,-0.062 -0.37192,-0.18595 -0.4339,-0.30992 -0.12397,-0.062 -0.24795,-0.12397 -0.24795,-0.12397 -0.0198,0.006 -0.18595,-0.0576 -0.37191,-0.12398 -0.91118,-0.43389 -1.90915,-0.8306 -2.49181,-0.94837 -0.18596,-0.0322 -0.37192,-0.062 -0.4339,-0.12397 -0.18596,-0.062 -0.68184,-0.18596 -0.84301,-0.18596 -0.062,10e-4 -0.24794,-0.0316 -0.37191,-0.062 -0.12397,-0.0415 -0.49588,-0.12397 -0.74382,-0.12397 -0.24795,-0.0316 -0.55787,-0.062 -0.61986,-0.12397 -0.062,-0.031 -0.24794,-0.062 -0.4339,-0.062 -0.18595,-0.0118 -0.49588,-0.0434 -0.69423,-0.062 -0.4339,-0.0577 -1.23352,-0.12397 -1.3141,-0.062 -0.026,0.009 -0.12397,0.002 -0.18595,-0.0118 -0.062,-0.0149 -0.24795,-0.018 -0.30993,-0.006 z m 55.45717,7.84922 c 0.12397,10e-4 0.18595,0.026 0.24794,0.062 0.062,0.0583 0.49588,0.66944 0.72523,1.08474 0.0378,0.062 0.12397,0.12397 0.12397,0.18596 0.0378,0.0452 0.18595,0.37191 0.30993,0.78102 0.55787,1.45666 0.65704,1.686 0.81201,1.93394 0.062,0.12398 0.12397,0.18596 0.12397,0.24795 0.009,0.0236 0.12397,0.12397 0.24794,0.24794 0.12397,0.12397 0.24794,0.24794 0.24794,0.24794 0.0192,0.0576 0.30993,0.37191 0.37191,0.37191 0.0304,0.009 0.12397,0.0583 0.18596,0.12397 0.062,0.0539 0.24794,0.12398 0.37191,0.24795 0.12397,0.062 0.30993,0.12397 0.37192,0.18595 0.062,0.0353 0.12397,0.0608 0.12397,0.0558 0.0155,-0.003 0.18595,0.0335 0.30992,0.062 0.18596,0.0533 0.30993,0.062 0.37192,0.062 0.0242,-0.009 0.24794,0.0149 0.4339,0.0496 0.43389,0.062 0.74382,0.062 1.12813,-0.0242 0.72523,-0.18595 1.09714,-0.30993 1.45666,-0.55787 0.24794,-0.18595 0.88639,-0.80581 1.01656,-1.01036 0.0608,-0.062 0.12397,-0.18596 0.18596,-0.24794 0.0477,-0.0558 0.12397,-0.18596 0.18595,-0.24794 0.0514,-0.12398 0.12398,-0.18596 0.18596,-0.24795 0.049,-0.0508 0.12397,-0.12397 0.12397,-0.18595 0.0421,-0.12397 0.55787,-0.8554 0.8678,-1.23971 0.24794,-0.30993 0.63225,-0.70664 0.69424,-0.72523 0.0254,-0.009 0.0589,-0.0453 0.062,-0.062 0.049,-0.12397 0.24794,-0.12397 0.4339,-0.062 0.12397,0.0422 0.24794,0.12397 0.37191,0.12397 0.12397,0.0266 0.24794,0.062 0.24794,0.062 0.0453,0.0236 0.18596,0.062 0.30993,0.12397 0.12397,0.0403 0.24794,0.062 0.24794,0.12397 0.062,0.0545 0.18596,0.37191 0.24795,0.74383 0.0217,0.18595 0.0558,0.37191 0.062,0.49588 0.0335,0.18596 0.0136,0.61985 -0.0434,0.95458 -0.0105,0.062 -0.0161,0.12397 -0.007,0.18595 0.0149,0.0465 -0.062,0.63225 -0.12397,0.73143 -0.0105,0.0298 -0.0173,0.18596 -0.0149,0.30993 0.004,0.12397 -0.0105,0.37191 -0.0304,0.49588 -0.0192,0.12397 -0.0322,0.24794 -0.0266,0.37192 0.006,0.062 0.0143,0.18595 0.0211,0.30992 0.0347,0.49589 0.062,0.65085 0.24795,1.15293 0.12397,0.4339 0.18595,0.55787 0.37191,0.8492 0.24794,0.4339 0.80581,0.94838 1.02276,1.01037 0.0514,0.0143 0.12397,0.062 0.18596,0.12397 0.12397,0.12397 0.81201,0.49588 0.86779,0.49588 0.0192,-0.006 0.12397,0.0316 0.24794,0.062 0.24795,0.12397 0.8616,0.18596 1.2955,0.18596 0.30993,-0.002 1.10954,-0.24794 1.50625,-0.4339 0.4339,-0.24794 1.02276,-0.55787 1.16533,-0.63225 0.12397,-0.12397 0.43389,-0.24794 0.98556,-0.49589 0.4339,-0.18595 1.53105,-0.55787 1.63022,-0.55787 0.0428,0.009 0.12397,0.062 0.18596,0.18596 0.062,0.062 0.24794,0.30993 0.37191,0.4339 0.4339,0.4339 0.49589,0.65705 0.30993,1.02276 -0.0502,0.12397 -0.062,0.18596 -0.062,0.24794 -0.001,0.12397 -0.55787,1.22731 -0.72523,1.46906 -0.0614,0.062 -0.12397,0.18595 -0.12397,0.24794 -0.0236,0.0453 -0.12397,0.12397 -0.18595,0.24794 -0.062,0.062 -0.18596,0.24794 -0.24795,0.30993 -0.0589,0.12397 -0.12397,0.18596 -0.12397,0.18596 -0.062,0.0229 -0.62605,1.16532 -0.72523,1.48765 -0.12397,0.4339 -0.12397,0.49588 -0.12397,0.95457 -0.006,0.61986 0.0428,0.94218 0.18596,1.3141 0.12397,0.30992 0.18596,0.43389 0.37191,0.77481 0.0508,0.062 0.12397,0.18596 0.18596,0.30993 0.0471,0.062 0.12397,0.18596 0.18595,0.24794 0.0533,0.062 0.12398,0.18596 0.12398,0.18596 0.026,0.0465 0.18595,0.18596 0.37191,0.37191 0.18595,0.12397 0.30993,0.24794 0.30993,0.30993 0.006,0.0143 0.12397,0.062 0.24794,0.12397 0.12397,0.062 0.24794,0.12397 0.24794,0.12397 0.009,0.0236 0.12397,0.057 0.4339,0.12397 0.0378,0.0118 0.12397,0.0421 0.24794,0.062 0.37191,0.12397 1.59304,0.18596 2.02694,0.12397 0.18595,-0.026 0.8368,-0.0186 1.02895,0.0105 0.062,0.0118 0.12398,0.01 0.18596,-0.004 0.062,-0.0205 0.49588,0.0223 1.18392,0.12397 0.12397,0.0174 0.30993,0.062 0.4339,0.12398 l 0.18596,0.062 0.12397,0.30992 c 0.12397,0.30993 0.30993,1.07235 0.30993,1.19632 6.2e-4,0.062 -0.37192,0.49589 -0.49589,0.49589 -0.0267,0.009 -0.12397,0.12397 -0.30992,0.24794 -0.12398,0.12397 -0.24795,0.24794 -0.30993,0.30993 -0.0533,0.0483 -0.12397,0.12397 -0.18596,0.12397 -0.0477,0.0143 -0.12397,0.0471 -0.12397,0.062 -0.0118,0.0236 -0.18596,0.12397 -0.37192,0.18595 -0.62605,0.30993 -0.70043,0.37192 -1.01036,0.55787 -0.18595,0.12397 -0.43389,0.24794 -0.49588,0.30993 -0.18596,0.12397 -0.4339,0.30993 -0.61986,0.4339 -0.12397,0.12397 -0.24795,0.24794 -0.37191,0.37191 -0.12398,0.062 -0.30993,0.30993 -0.55788,0.73763 -0.18595,0.24794 -0.37191,1.05995 -0.4339,1.6984 -0.0558,0.68804 0.12398,1.65502 0.49589,2.30586 0.18596,0.30993 0.37192,0.55787 0.4339,0.65705 0.0328,0.0236 0.12398,0.12397 0.18595,0.18596 0.12398,0.18595 0.83682,0.65084 1.18393,0.843 0.30992,0.18596 0.24794,0.12397 1.09094,0.55787 0.843,0.4339 1.17772,0.61985 1.2955,0.73763 0.0471,0.0483 0.12397,0.12397 0.24794,0.18595 0.062,0.0421 0.18596,0.12397 0.30993,0.24794 0.18595,0.18596 0.24794,0.37192 0.12398,0.75623 -0.0378,0.18595 -0.062,0.37191 -0.12398,0.55787 -0.0205,0.12397 -0.062,0.30992 -0.12397,0.43389 l -0.062,0.18596 -0.55787,0.18596 c -0.30993,0.062 -0.65085,0.18595 -0.74382,0.18595 -0.12398,0.006 -0.24795,0.0267 -0.37192,0.0446 -0.49588,0.062 -0.73143,0.062 -1.33269,0.0391 -0.18595,-0.0118 -0.30992,-0.0112 -0.37191,0.003 -0.0483,0.0143 -0.18596,0.0291 -0.24794,0.0316 -0.73143,0.0174 -1.82237,0.30992 -2.29966,0.63225 -0.49589,0.30993 -0.49589,0.37191 -0.83061,0.76242 -0.30992,0.4339 -0.75002,1.24591 -0.8554,1.66121 -0.18595,0.75622 -0.18595,1.20872 -0.0242,1.90295 0.12397,0.49589 0.49588,1.26451 0.81201,1.67981 0.18595,0.24794 0.4339,0.55787 0.76242,1.05995 0.12397,0.18596 0.24794,0.37192 0.30993,0.4339 0.12397,0.18596 0.49588,0.91739 0.61985,1.22731 0.12397,0.30993 0.12397,0.30993 0.0273,0.49589 -0.062,0.12397 -0.30993,0.49588 -0.37192,0.49588 -0.0118,0.003 -0.12397,0.12397 -0.24794,0.24794 -0.18596,0.24795 -0.24794,0.24795 -0.4339,0.30993 -0.12397,0.0372 -0.24794,0.0291 -0.4339,-0.0391 -0.12397,-0.0465 -0.30992,-0.12397 -0.43389,-0.12397 -0.12398,-0.0174 -0.18596,-0.0459 -0.24795,-0.062 -0.0397,-0.0173 -0.24794,-0.062 -0.43389,-0.12397 -0.18596,-0.0558 -0.49589,-0.18595 -0.70664,-0.30992 -0.30993,-0.18596 -0.61985,-0.30993 -1.37608,-0.70044 -0.12397,-0.0446 -0.24794,-0.12397 -0.30992,-0.12397 -0.062,-0.0236 -0.24795,-0.062 -0.30993,-0.12397 -0.062,-0.0409 -0.24794,-0.062 -0.37191,-0.12397 -0.12398,-0.0143 -0.37192,-0.0446 -0.49589,-0.062 -0.37191,-0.062 -0.78721,-0.0118 -1.36988,0.18596 -0.49588,0.18595 -0.78101,0.30992 -1.17772,0.55787 -0.12397,0.062 -0.24794,0.18595 -0.24794,0.24794 -0.0304,0.0391 -0.062,0.062 -0.12397,0.062 -0.062,0.0236 -0.49589,0.4339 -0.55787,0.49589 -0.013,0.031 -0.12397,0.12397 -0.18596,0.24794 -0.12397,0.12397 -0.18596,0.30993 -0.24794,0.37191 -0.0403,0.12397 -0.12397,0.18596 -0.12397,0.24794 -0.0514,0.0174 -0.12397,0.24795 -0.12397,0.30993 0.006,0.0229 -0.0242,0.18596 -0.062,0.37191 -0.062,0.24795 -0.062,0.49589 -0.062,0.89879 0.0273,0.79342 0.062,1.20252 0.12397,1.55584 0.062,0.37191 0.18595,0.96697 0.12397,1.07855 -0.013,0.12397 -0.0217,0.4339 -0.0155,0.55787 0.0174,0.30992 -0.002,0.65084 -0.0508,0.88639 -0.049,0.24794 -0.062,0.24794 -0.18595,0.37191 -0.062,0.0539 -0.4339,0.18596 -0.72523,0.30993 l -0.55787,0.18596 -0.12397,-0.0614 0.001,0.003 c -0.062,-0.0335 -0.24795,-0.12397 -0.30993,-0.18596 -0.062,-0.062 -0.24794,-0.18595 -0.30993,-0.24794 -0.062,-0.062 -0.24794,-0.18596 -0.30993,-0.30993 -0.062,-0.12397 -0.24794,-0.24794 -0.30992,-0.37191 -0.062,-0.062 -0.18596,-0.24794 -0.24795,-0.30993 -0.0607,-0.062 -0.18595,-0.24794 -0.24794,-0.4339 -0.062,-0.18595 -0.18595,-0.30992 -0.24794,-0.37191 -0.0483,-0.0558 -0.12397,-0.12397 -0.12397,-0.18595 -0.0105,-0.0341 -0.062,-0.12398 -0.12397,-0.12398 -0.0576,-0.0465 -0.12397,-0.12397 -0.12397,-0.12397 -0.0105,-0.0298 -0.0521,-0.062 -0.12397,-0.12397 -0.0421,-0.0422 -0.12397,-0.12397 -0.12397,-0.18595 -0.0347,-0.062 -0.24795,-0.24795 -0.4339,-0.49589 -0.37192,-0.30992 -0.4339,-0.4339 -0.8802,-0.63225 -0.24794,-0.12397 -0.74382,-0.30993 -0.8616,-0.30993 -0.0601,-0.002 -0.30992,-0.031 -0.49588,-0.062 -0.55787,-0.062 -0.8554,-0.0539 -1.74799,0.24794 -0.4339,0.12397 -0.8306,0.30993 -0.95458,0.37191 -0.24794,0.12397 -0.8244,0.68804 -1.02276,0.99177 -0.24794,0.37191 -0.79341,1.53104 -0.76242,1.63022 0.009,0.0229 -0.0298,0.12397 -0.062,0.24794 -0.0527,0.12397 -0.12397,0.24794 -0.12397,0.30993 -0.0508,0.30993 -0.75623,1.717 -1.04756,2.09511 -0.18596,0.18595 -0.30993,0.24794 -0.63225,0.18595 -0.12397,-0.0205 -0.30993,-0.0384 -0.37191,-0.0378 -0.37192,0.002 -0.66325,-0.0583 -0.81201,-0.12397 -0.18596,-0.12397 -0.71903,-1.87196 -0.69424,-2.18809 0.007,-0.062 -0.004,-0.18595 -0.0236,-0.24794 -0.0217,-0.062 -0.0366,-0.18595 -0.0359,-0.24794 0.002,-0.24794 -0.18595,-1.05995 -0.30992,-1.63022 -0.18596,-0.61985 -0.24795,-0.75002 -0.61986,-1.2769 -0.18596,-0.24794 -0.79341,-0.79341 -1.12813,-0.96697 -0.55787,-0.30993 -1.44427,-0.55787 -1.91536,-0.55787 -0.68803,-0.0335 -1.41327,0.12397 -2.01452,0.49588 -0.18596,0.12397 -0.37192,0.18596 -0.4339,0.24794 -0.0527,0.0174 -0.12397,0.062 -0.18596,0.12397 -0.0403,0.044 -0.12397,0.062 -0.12397,0.12398 -0.0409,0.0143 -0.12397,0.062 -0.12397,0.12397 -0.0372,0.062 -0.12397,0.18595 -0.4339,0.4339 -0.062,0.0545 -0.18596,0.12397 -0.24794,0.18595 -0.30993,0.30993 -0.4339,0.4339 -0.63225,0.55787 -0.12397,0.062 -0.24795,0.18596 -0.30993,0.24794 -0.30993,0.24794 -0.37191,0.30993 -0.55787,0.4339 -0.18596,0.12397 -0.79961,0.4339 -0.89259,0.4339 -0.062,0.0304 -0.37191,-0.12397 -0.61986,-0.30993 -0.12397,-0.062 -0.24794,-0.18595 -0.24794,-0.12397 -0.0155,0.003 -0.062,-0.0353 -0.12397,-0.062 -0.062,-0.0558 -0.12397,-0.12398 -0.18595,-0.12398 -0.12398,-0.062 -0.18596,-0.30992 -0.18596,-0.55786 0.004,-0.12398 0.0211,-0.30993 0.0372,-0.30993 0.0174,-0.0378 0.0601,-0.24794 0.12397,-0.49589 0.0359,-0.24794 0.12397,-0.49588 0.12397,-0.61985 0.0421,-0.12397 0.062,-0.18596 0.0601,-0.24794 -0.009,-0.026 0.057,-0.18596 0.12397,-0.4339 0.24794,-0.49588 0.37191,-0.97317 0.4339,-1.16533 0.009,-0.0459 0.0384,-0.12397 0.062,-0.18595 0.0304,-0.062 0.062,-0.24795 0.12397,-0.4339 0.0589,-0.37192 0.062,-0.49589 0.12397,-0.55787 0.0124,-0.0341 0.009,-0.18596 -0.007,-0.30993 -0.0174,-0.12397 -0.0372,-0.30993 -0.0421,-0.37191 -0.013,-0.24794 -0.18596,-0.79342 -0.30993,-1.09095 -0.12397,-0.30992 -0.4339,-0.76862 -0.4339,-0.79961 -0.0248,-0.0118 -0.0514,-0.0446 -0.0601,-0.062 -0.008,-0.026 -0.12397,-0.18595 -0.30992,-0.37191 -0.18596,-0.18595 -0.30993,-0.30993 -0.30993,-0.37191 -0.0335,-0.12397 -1.03516,-0.66325 -1.35128,-0.75003 -0.12397,-0.0372 -0.30993,-0.062 -0.37192,-0.12397 -0.12397,-0.0384 -0.75622,-0.0533 -1.23971,-0.0273 -0.37191,0.0205 -0.79961,0.12397 -1.80377,0.37191 -0.65085,0.18596 -1.01037,0.24795 -1.17773,0.30993 -0.37191,0.0205 -0.79961,0.0409 -1.02276,0.0465 -0.4339,0.0118 -0.4339,0.0236 -0.70663,-0.4339 -0.062,-0.12397 -0.18596,-0.30993 -0.24794,-0.30993 -0.0298,-0.0285 -0.12398,-0.18595 -0.18596,-0.37191 l -0.12397,-0.30993 0.12397,-0.18595 c 0.062,-0.12397 0.18596,-0.18596 0.12397,-0.24794 -0.006,-0.0236 0.30993,-0.49589 0.67564,-0.90499 0.062,-0.062 0.12397,-0.18596 0.18596,-0.18596 0.0434,-0.0149 0.062,-0.0453 0.062,-0.062 0.0155,-0.0607 0.4339,-0.4339 0.55787,-0.49589 0.12397,-0.062 0.30993,-0.24794 0.37192,-0.37191 0.0236,-0.0291 0.12397,-0.12397 0.18595,-0.18596 0.30993,-0.24794 0.4339,-0.37191 0.49589,-0.55787 0.0521,-0.062 0.12397,-0.18595 0.18595,-0.24794 0.12397,-0.12397 0.24794,-0.30993 0.4339,-0.69424 0.12397,-0.30992 0.24794,-0.61985 0.24794,-0.8492 0.0174,-0.12397 0.0496,-0.37191 0.062,-0.55787 0.0384,-0.30992 0.0211,-0.4339 -0.12397,-1.15913 -0.12397,-0.63845 -0.4339,-1.28309 -0.68184,-1.59922 -0.24795,-0.30993 -0.65705,-0.70044 -0.79342,-0.77482 -0.062,-0.0409 -0.18595,-0.12397 -0.24794,-0.18596 -0.0496,-0.0496 -0.12397,-0.12397 -0.18596,-0.12397 -0.062,-0.0198 -0.24794,-0.062 -0.37191,-0.12397 -0.30993,-0.12397 -0.73143,-0.24794 -1.01036,-0.30993 -0.12397,-0.0229 -0.30993,-0.062 -0.37191,-0.12397 -0.12398,-0.0378 -0.37192,-0.062 -0.55787,-0.12397 -0.18596,-0.0297 -0.4339,-0.062 -0.55787,-0.12397 -0.12397,-0.0359 -0.24795,-0.062 -0.24795,-0.062 -0.24794,0.002 -1.53724,-0.61986 -1.63021,-0.76242 -0.0403,-0.062 -0.062,-0.18596 -0.062,-0.4339 -0.008,-0.18596 -0.0273,-0.37192 -0.0421,-0.49589 -0.0149,-0.062 -0.0155,-0.12397 -0.001,-0.18595 0.0149,-0.0174 0.0124,-0.062 -0.004,-0.12397 -0.0391,-0.12398 -0.003,-0.30993 0.062,-0.4339 0.0359,-0.044 0.24794,-0.18596 0.4339,-0.30993 0.37191,-0.18596 0.43389,-0.24794 1.33888,-0.49588 2.10751,-0.64466 2.5848,-0.81202 2.92572,-0.99797 0.4339,-0.24795 0.67564,-0.4339 0.78721,-0.61986 0.0533,-0.062 0.12397,-0.18596 0.12397,-0.18596 0.062,-0.0298 0.4339,-0.61985 0.63226,-1.09714 0.057,-0.12397 0.24794,-0.8492 0.24794,-0.88019 -0.009,-0.026 0.0316,-0.37191 0.062,-0.63225 0.0508,-0.30993 -0.0192,-0.73763 -0.24794,-1.37608 -0.18596,-0.63845 -0.37191,-0.96078 -0.61985,-1.13434 -0.062,-0.062 -0.24795,-0.18595 -0.30993,-0.30992 -0.062,-0.12397 -0.24794,-0.30993 -0.37191,-0.37192 -0.12397,-0.062 -0.30993,-0.24794 -0.4339,-0.37191 -0.12397,-0.12397 -0.24794,-0.24794 -0.30993,-0.24794 -0.062,-0.0322 -0.18596,-0.12397 -0.30993,-0.24794 -0.062,-0.062 -0.24794,-0.24794 -0.37191,-0.30993 -0.12397,-0.12397 -0.24794,-0.24794 -0.37191,-0.37191 -0.062,-0.12397 -0.18596,-0.18596 -0.18596,-0.18596 -0.0174,-0.002 -0.0372,-0.0236 -0.0453,-0.0453 -0.008,-0.0229 -0.0545,-0.062 -0.12397,-0.12397 -0.24794,-0.24794 -0.49588,-0.67564 -0.49588,-0.88639 -0.006,-0.12397 0.37191,-0.8492 0.55787,-1.17773 0.12397,-0.24794 0.12397,-0.18595 0.66944,-0.24794 0.12397,-0.002 0.30993,-0.009 0.37191,-0.0118 0.062,-0.003 0.18596,0.006 0.24794,0.0236 0.0397,0.0174 0.062,0.0254 0.12397,0.0167 0.0217,-0.006 0.18596,0.002 0.30993,0.018 0.12397,0.0174 0.30993,0.0236 0.30993,0.0149 0.0266,-0.009 0.12397,0.0136 0.24794,0.0515 0.12397,0.0372 0.24794,0.062 0.37191,0.12397 0.062,0.0229 0.30993,0.062 0.49589,0.12397 0.4339,0.12397 1.21491,0.24794 1.48145,0.24794 0.044,0.002 0.18596,0.009 0.30993,0.0118 0.61985,0.026 0.75002,0.003 1.25211,-0.18595 0.24794,-0.062 0.55786,-0.18596 0.61985,-0.24794 0.062,-0.0459 0.18596,-0.12397 0.24794,-0.12397 0.062,-0.0397 0.12397,-0.12398 0.18596,-0.12398 0.036,-0.0446 0.12397,-0.12397 0.24794,-0.18595 0.18596,-0.12397 0.37191,-0.37192 0.49588,-0.49589 0.0446,-0.062 0.12398,-0.18595 0.18596,-0.18595 0.0527,-0.0527 0.12397,-0.18596 0.24794,-0.30993 0.062,-0.12397 0.12397,-0.24794 0.18596,-0.30993 0.12397,-0.18595 0.30993,-0.75622 0.30993,-0.8306 0,-0.0471 0.0217,-0.18596 0.0483,-0.24794 0.062,-0.24795 0.062,-0.37192 0.0267,-0.8554 -0.0403,-0.37192 -0.062,-0.55787 -0.30993,-1.20252 -0.12397,-0.4339 -0.30993,-0.8802 -0.37191,-1.02276 -0.18596,-0.4339 -0.4339,-1.11574 -0.61986,-1.82857 -0.18595,-0.8678 -0.18595,-0.90499 0.12397,-1.19632 0.30993,-0.30993 0.66945,-0.55787 0.91739,-0.65085 l 0.18596,-0.12397 0.55787,0.30992 c 0.71903,0.37192 1.30789,0.77482 1.61782,1.11574 0.24794,0.24794 0.30992,0.30993 0.49588,0.4339 0.062,0.0539 0.18596,0.18596 0.24794,0.24794 0.062,0.062 0.18596,0.18596 0.30993,0.24795 0.062,0.0539 0.24794,0.18595 0.30993,0.24794 0.18595,0.12397 0.24794,0.18595 0.71903,0.37191 0.4339,0.18596 0.49588,0.18596 0.91738,0.24794 0.61986,0.062 1.00417,0.0341 1.82238,-0.24794 0.49588,-0.12397 0.73143,-0.24794 0.91118,-0.37191 0.12397,-0.062 0.24795,-0.12397 0.30993,-0.18596 0.062,-0.0204 0.30993,-0.24794 0.61986,-0.55787 0.18595,-0.18596 0.43389,-0.55787 0.55787,-0.8492 0.18595,-0.4339 0.24794,-0.55787 0.30992,-0.79341 0.0291,-0.12397 0.062,-0.30993 0.062,-0.30993 0.0112,-0.0471 0.0242,-0.12397 0.0304,-0.18596 0.006,-0.0483 0.0236,-0.12397 0.0403,-0.12397 0.0174,-0.0198 0.0229,-0.062 0.0136,-0.12397 -0.0112,-0.0341 -0.009,-0.12397 0.004,-0.24794 0.013,-0.062 0.0167,-0.18596 0.0105,-0.18596 -0.006,-0.0229 0.013,-0.12397 0.0421,-0.24794 0.0298,-0.12397 0.0496,-0.24794 0.0434,-0.30993 -0.0254,-0.24794 0.009,-0.61985 0.12398,-0.99796 0.0496,-0.24795 0.062,-0.4339 0.12397,-0.55787 0.006,-0.062 0.0335,-0.18596 0.0614,-0.24794 0.0285,-0.0483 0.0564,-0.12398 0.0614,-0.18596 0.0322,-0.30993 0.24794,-0.79961 0.37191,-0.8678 0.12397,-0.0595 0.37191,-0.12397 0.73763,-0.18595 0.37191,-0.0446 0.55787,-0.062 0.66324,-0.062 z m 3.24803,11.4202 c -0.062,0.009 -0.18595,0.0105 -0.24794,0.004 -0.062,-0.002 -0.37191,0.013 -0.61985,0.0391 -0.61986,0.0608 -0.77482,0.062 -0.98557,0.062 -0.12397,6.2e-4 -0.24794,0.018 -0.30993,0.0372 -0.0607,0.0204 -0.18596,0.0353 -0.30993,0.0347 -0.37191,-0.002 -1.98973,0.4339 -2.90712,0.73763 -0.69423,0.24794 -1.686,0.66325 -2.06411,0.8554 -0.12397,0.062 -0.30993,0.18596 -0.4339,0.18596 -0.12397,0.0471 -0.24794,0.12397 -0.37191,0.24794 -0.12397,0.062 -0.37192,0.24794 -0.55787,0.37191 -0.18596,0.12397 -0.4339,0.30993 -0.49589,0.37191 -0.12397,0.12398 -0.43389,0.37192 -0.55787,0.4339 -0.12397,0.062 -0.43389,0.30993 -0.55786,0.49589 -0.062,0.062 -0.18596,0.18595 -0.24795,0.24794 -0.18595,0.12397 -1.03515,0.99177 -1.14053,1.14053 -0.0477,0.062 -0.12397,0.18596 -0.18596,0.18596 -0.0502,0.0502 -0.12397,0.18595 -0.24794,0.30993 -0.062,0.12397 -0.12397,0.18595 -0.12397,0.18595 -0.0149,0.003 -0.12397,0.12397 -0.24794,0.30993 -0.12397,0.18596 -0.24794,0.37191 -0.30993,0.4339 -0.062,0.062 -0.18595,0.24794 -0.18595,0.37191 -0.0546,0.12397 -0.18596,0.30993 -0.30993,0.49588 -0.24794,0.37192 -0.4339,0.65705 -0.61986,1.04756 -0.12397,0.18596 -0.24794,0.49588 -0.37191,0.66944 -0.12397,0.18596 -0.18596,0.37192 -0.18596,0.4339 -0.0105,0.0577 -0.062,0.18596 -0.12397,0.30993 -0.0614,0.12397 -0.12397,0.24794 -0.12397,0.24794 0.006,0.0174 -0.0422,0.12397 -0.12397,0.30993 -0.062,0.12397 -0.12397,0.30993 -0.12397,0.30993 0.0112,0.0335 0.001,0.062 -0.0192,0.12397 -0.0217,0.0335 -0.0341,0.062 -0.0285,0.12397 0.006,0.0174 -0.0223,0.12397 -0.0589,0.24794 -0.0372,0.12397 -0.062,0.30993 -0.12398,0.4339 -0.0242,0.12397 -0.062,0.30992 -0.12397,0.37191 -0.0335,0.062 -0.062,0.30993 -0.12397,0.4339 -0.0217,0.12397 -0.0614,0.30993 -0.062,0.37191 -0.0583,0.12397 -0.12397,0.4339 -0.062,0.49589 0.0174,0.0496 -0.0266,0.49588 -0.062,0.76861 -0.0211,0.12397 -0.0105,0.55787 0.0155,0.63845 0.0248,0.062 0.0378,0.55787 0.0205,0.74383 -0.0124,0.12397 0.001,0.4339 0.0378,0.67564 0.0266,0.18596 0.0465,0.61986 0.0434,0.843 -0.002,0.24795 0.0378,0.49589 0.12397,1.02276 0.0607,0.30993 0.12397,0.65085 0.18596,0.81821 0.12397,0.62606 1.17772,3.434 1.33888,3.59516 0.0446,0.044 0.062,0.12397 0.12397,0.18596 0.0174,0.0527 0.062,0.18595 0.12397,0.24794 0.18596,0.18595 0.4339,0.68184 0.49589,0.76862 0.0267,0.062 0.24794,0.37191 0.4339,0.55787 0.062,0.062 0.18595,0.24794 0.30992,0.4339 0.18596,0.30992 0.24795,0.37191 0.55787,0.68803 0.12397,0.12398 0.24794,0.30993 0.37192,0.37192 0.062,0.12397 0.24794,0.24794 0.30992,0.30992 0.062,0.062 0.18596,0.18596 0.18596,0.18596 0.0174,0.0514 0.12397,0.18596 0.4339,0.37191 0.12397,0.12398 0.24794,0.24795 0.30993,0.30993 0.0508,0.0595 0.12397,0.12397 0.18595,0.18596 0.12397,0.062 0.49589,0.4339 0.49589,0.4339 0.004,0.0143 0.12397,0.062 0.24794,0.18595 0.12397,0.062 0.24794,0.18596 0.24794,0.18596 0.009,0.0285 0.062,0.062 0.18596,0.12397 0.062,0.0421 0.24794,0.12397 0.30992,0.18596 0.4339,0.30992 2.03933,1.17772 2.73976,1.44426 0.18596,0.062 0.49589,0.18595 0.61986,0.24794 0.12397,0.062 0.24794,0.12397 0.30992,0.12397 0.0508,-0.0173 0.30993,0.0409 0.37192,0.062 0.0304,0.0204 0.63845,0.12397 0.66944,0.12397 0.0105,-0.002 0.12397,0.0229 0.18596,0.0589 0.062,0.0353 0.30992,0.062 0.49588,0.12397 0.18596,0.026 0.37191,0.062 0.49588,0.12398 0.12398,0.026 0.24795,0.0446 0.30993,0.0409 0.0583,-0.003 0.30993,0.0285 0.63225,0.062 0.30993,0.0446 0.55787,0.062 0.61986,0.0614 0.0347,-0.0112 0.24794,0.006 0.49588,0.0378 0.24794,0.0316 0.4339,0.0508 0.49589,0.0403 0.031,-0.0112 0.12397,-0.0124 0.12397,-0.003 0.062,0.0149 0.18595,0.009 0.78721,-0.0434 0.12397,-0.0118 0.30993,-0.0223 0.37192,-0.0254 0.062,-0.003 0.30992,-0.0415 0.61985,-0.062 0.24794,-0.0434 0.61985,-0.12397 0.78722,-0.12397 0.18595,-0.0291 0.49588,-0.062 0.67564,-0.12397 0.18595,-0.0347 0.4339,-0.062 0.55787,-0.12397 0.30992,-0.0533 1.54344,-0.49589 1.87196,-0.64465 h -0.007 c 0.12397,-0.062 0.49588,-0.24794 0.72523,-0.30993 0.843,-0.37191 1.43186,-0.68184 1.56203,-0.79341 0.12398,-0.12397 0.4339,-0.30993 0.55787,-0.37192 0.24795,-0.18595 0.65085,-0.43389 0.83681,-0.55787 0.12397,-0.12397 0.30992,-0.24794 0.49588,-0.37191 0.18596,-0.12397 0.37191,-0.24794 0.4339,-0.37191 0.062,-0.062 0.18596,-0.18596 0.24794,-0.24794 0.062,-0.062 0.12397,-0.12397 0.18596,-0.12397 0.0229,-0.009 0.18595,-0.12397 0.30993,-0.30993 0.12397,-0.18596 0.30992,-0.30993 0.30992,-0.30993 0.0453,-0.0143 0.12397,-0.062 0.37192,-0.4339 0.12397,-0.12397 0.24794,-0.30992 0.24794,-0.30992 0.0217,-0.006 0.062,-0.062 0.12397,-0.12398 0.062,-0.12397 0.18596,-0.30992 0.30993,-0.43389 0.0527,-0.0545 0.49588,-0.70664 0.81201,-1.20872 0.062,-0.12397 0.55787,-1.07235 0.68184,-1.25831 0.12397,-0.18595 0.24794,-0.61985 0.30992,-0.75622 0.0434,-0.12397 0.12397,-0.24794 0.12397,-0.24794 0.0459,-0.062 0.30993,-0.90499 0.37192,-1.12814 0.026,-0.12397 0.062,-0.24794 0.12397,-0.30992 0.0564,-0.12397 0.24794,-0.93598 0.30993,-1.22112 0.0118,-0.062 0.0521,-0.24794 0.062,-0.37191 0.062,-0.24794 0.12397,-0.55787 0.12397,-0.63225 -0.0142,-0.0446 0.062,-0.68184 0.12397,-0.75003 0.0118,-0.0229 0.0118,-0.062 -0.003,-0.12397 -0.0229,-0.062 -0.0149,-0.24794 0.0198,-0.55787 0.0205,-0.18595 0.0205,-0.4339 0.006,-0.65704 -0.009,-0.12397 -0.026,-0.30993 -0.0372,-0.49589 -0.0118,-0.12397 -0.0285,-0.37191 -0.0359,-0.4339 -0.009,-0.12397 -0.008,-0.24794 0,-0.24794 0.039,-0.12397 -0.0242,-0.55786 -0.24795,-1.74179 -0.12397,-0.49588 -0.4339,-1.56823 -0.74382,-2.29346 -0.12397,-0.30993 -0.37192,-0.8492 -0.49589,-1.22731 -0.30992,-0.73763 -0.49588,-1.20252 -0.65704,-1.47526 -0.0521,-0.062 -0.12397,-0.24794 -0.18596,-0.37191 -0.0533,-0.12397 -0.12397,-0.24794 -0.18596,-0.30993 -0.0533,-0.0589 -0.12397,-0.18595 -0.24794,-0.30992 -0.12397,-0.18596 -0.18595,-0.30993 -0.37191,-0.49589 -0.18596,-0.24794 -0.37191,-0.4339 -0.4339,-0.55787 -0.0366,-0.062 -0.062,-0.12397 -0.12397,-0.12397 -0.0223,0 -0.0508,-0.031 -0.062,-0.062 -0.013,-0.0378 -0.12398,-0.12397 -0.18596,-0.18596 -0.12397,-0.062 -0.18596,-0.18595 -0.18596,-0.18595 -0.007,-0.0205 -0.062,-0.12397 -0.18595,-0.18596 -0.12398,-0.062 -0.30993,-0.24794 -0.4339,-0.4339 -0.24794,-0.24794 -0.37192,-0.37191 -0.93598,-0.80581 -0.18596,-0.18595 -0.4339,-0.30993 -0.4339,-0.37191 -0.0391,-0.0366 -0.12397,-0.12397 -0.24794,-0.18596 -0.12397,-0.0539 -0.30993,-0.18595 -0.49589,-0.30992 -0.4339,-0.24795 -1.05995,-0.64465 -1.29549,-0.77482 -0.12398,-0.0552 -0.24795,-0.12397 -0.37192,-0.18596 -0.062,-0.062 -0.18595,-0.12397 -0.18595,-0.12397 -0.0155,0.003 -0.12397,-0.0422 -0.24795,-0.12397 -0.66944,-0.30993 -1.40707,-0.61986 -1.83477,-0.70044 -0.12397,-0.0229 -0.24794,-0.0614 -0.30992,-0.062 -0.12397,-0.0583 -0.49589,-0.12397 -0.61986,-0.12397 -0.0546,0.001 -0.18595,-0.0236 -0.30993,-0.0539 -0.12397,-0.031 -0.37191,-0.062 -0.55786,-0.12397 -0.18596,-0.0236 -0.37192,-0.0614 -0.4339,-0.062 -0.0508,-0.0229 -0.18596,-0.0484 -0.30993,-0.057 -0.12397,-0.009 -0.37191,-0.0322 -0.49588,-0.0539 -0.30993,-0.0422 -0.91119,-0.062 -0.96698,-0.0614 -0.0192,0.006 -0.062,0.002 -0.12397,-0.009 -0.062,-0.0118 -0.18596,-0.0105 -0.24794,-0.002 z"
       id="path826"
       inkscape:connector-curvature="0" />
    <path
       style="opacity:0.79820628;fill:#000000;fill-opacity:1;stroke-width:0.03745269;stroke-miterlimit:4;stroke-dasharray:none;paint-order:markers stroke fill"
       d=""
       id="path1384"
       inkscape:connector-curvature="0" />
    <path
       style="opacity:0.79820628;fill:#000000;fill-opacity:1;stroke-width:0.03745269;stroke-miterlimit:4;stroke-dasharray:none;paint-order:markers stroke fill"
       d=""
       id="path1388"
       inkscape:connector-curvature="0" />
    <path
       style="opacity:0.79820628;fill:#000000;fill-opacity:1;stroke-width:0.03745269;stroke-miterlimit:4;stroke-dasharray:none;paint-order:markers stroke fill"
       d=""
       id="path1406"
       inkscape:connector-curvature="0" />
    <path
       style="opacity:0.79820628;fill:#000000;fill-opacity:1;stroke-width:0.03745269;stroke-miterlimit:4;stroke-dasharray:none;paint-order:markers stroke fill"
       d="m -1.7538329,109.94277 c 0,-0.094 0.2966243,-0.14137 0.349504,-0.0558 0.03221,0.0521 -0.033248,0.0948 -0.1454679,0.0948 -0.1122204,0 -0.2040361,-0.0175 -0.2040361,-0.0389 z"
       id="path1386"
       inkscape:connector-curvature="0" />
  </g>
</svg>
