<?xml version="1.0" encoding="UTF-8" standalone="no"?>
<!-- Created with Inkscape (http://www.inkscape.org/) -->

<svg
   xmlns:dc="http://purl.org/dc/elements/1.1/"
   xmlns:cc="http://creativecommons.org/ns#"
   xmlns:rdf="http://www.w3.org/1999/02/22-rdf-syntax-ns#"
   xmlns:svg="http://www.w3.org/2000/svg"
   xmlns="http://www.w3.org/2000/svg"
   xmlns:sodipodi="http://sodipodi.sourceforge.net/DTD/sodipodi-0.dtd"
   xmlns:inkscape="http://www.inkscape.org/namespaces/inkscape"
   width="1450"
   height="1450"
   viewBox="0 0 383.64582 383.64584"
   version="1.1"
   id="svg8"
   inkscape:version="0.92.3 (2405546, 2018-03-11)"
   sodipodi:docname="Work_icon_after.svg">
  <defs
     id="defs2" />
  <sodipodi:namedview
     id="base"
     pagecolor="#ffffff"
     bordercolor="#666666"
     borderopacity="1.0"
     inkscape:pageopacity="0.0"
     inkscape:pageshadow="2"
     inkscape:zoom="0.35"
     inkscape:cx="-371.39765"
     inkscape:cy="267.20244"
     inkscape:document-units="mm"
     inkscape:current-layer="layer1"
     showgrid="false"
     inkscape:snap-global="false"
     inkscape:window-width="1920"
     inkscape:window-height="1057"
     inkscape:window-x="1912"
     inkscape:window-y="-8"
     inkscape:window-maximized="1"
     units="px" />
  <metadata
     id="metadata5">
    <rdf:RDF>
      <cc:Work
         rdf:about="">
        <dc:format>image/svg+xml</dc:format>
        <dc:type
           rdf:resource="http://purl.org/dc/dcmitype/StillImage" />
        <dc:title></dc:title>
      </cc:Work>
    </rdf:RDF>
  </metadata>
  <g
     inkscape:label="Layer 1"
     inkscape:groupmode="layer"
     id="layer1"
     transform="translate(0,86.64585)">
    <path
       style="fill:#ff7e00;fill-opacity:1;stroke-width:0.76825982"
       d="m 193.66575,-32.51987 c -51.57069,0 -55.52288,0.123976 -58.38785,1.38227 -5.24397,2.355453 -8.8478,5.281175 -10.9956,8.937077 -2.05172,3.483575 -2.06412,3.638549 -2.31206,20.6052088 L 121.7223,15.498424 h 10.8084 10.80779 V 2.0537756 -11.390873 h 50.32106 50.32105 V 2.0537756 15.498424 h 10.80964 10.80842 l -0.24794,-17.0937382 c -0.24794,-16.9641808 -0.24794,-17.1210098 -2.31206,-20.6052088 -2.1447,-3.650953 -5.75225,-6.581624 -10.99747,-8.937077 -2.86373,-1.289293 -6.81716,-1.38227 -58.38785,-1.38227 z m 0,53.345944 c -72.179,0 -144.356749,0.309928 -147.115725,0.886393 -0.06198,0.01672 -0.123976,0.03967 -0.247942,0.05702 V 95.393373 H 193.64591 337.32393 V 21.529611 C 322.09099,21.033726 257.93787,20.822976 193.64591,20.822976 Z M 46.321926,109.99219 v 131.94416 c 6.117959,0.8616 27.890358,0.89879 147.120044,0.92978 104.3408,0.026 133.92212,0.0205 143.90178,-0.55787 V 109.99653 h -45.72668 -64.53371 v 16.13357 16.13359 H 193.66451 160.24503 V 126.1301 109.99653 H 95.711334 Z m 120.454514,0.37191 -0.18595,11.49087 c -0.12397,6.31942 -0.0391,11.94212 0.18595,12.49442 0.30993,0.8058 5.67168,0.96077 27.10253,0.7996 l 26.71637,-0.18595 V 122.6707 110.37898 h -26.8893 z m -64.61924,32.91491 c 0.18596,0.002 0.24794,0.036 0.30993,0.12397 0.12398,0.062 0.65084,0.91119 0.98557,1.47526 0.0514,0.062 0.12397,0.18595 0.18596,0.24794 0.0508,0.0607 0.24793,0.55786 0.43389,1.05995 0.75622,1.97733 0.89259,2.28726 1.09714,2.62199 0.062,0.12397 0.18596,0.24794 0.18596,0.30993 0.0118,0.0323 0.12397,0.18595 0.30993,0.3719 0.18595,0.18597 0.30992,0.30993 0.30992,0.37192 0.026,0.062 0.4339,0.49589 0.49589,0.49589 0.0415,0.0117 0.12397,0.062 0.24794,0.12396 0.062,0.062 0.30993,0.18596 0.49588,0.30993 0.18596,0.12398 0.4339,0.18596 0.49589,0.24794 0.062,0.0484 0.18595,0.062 0.18595,0.062 0.0205,-0.007 0.24795,0.0465 0.49589,0.12398 0.24794,0.062 0.4339,0.12396 0.49588,0.12396 0.0328,-0.0117 0.30993,0.0217 0.61986,0.062 0.62605,0.12398 1.01036,0.062 1.53724,-0.0297 0.98557,-0.24794 1.48765,-0.43389 1.97733,-0.78721 0.37192,-0.24794 1.19632,-1.09714 1.37608,-1.36988 0.062,-0.12397 0.18596,-0.30993 0.24794,-0.37191 0.062,-0.062 0.18596,-0.24794 0.24795,-0.37192 0.062,-0.12397 0.18595,-0.30992 0.24794,-0.37191 0.062,-0.062 0.12397,-0.18595 0.18595,-0.24794 0.0576,-0.12398 0.76862,-1.16533 1.18393,-1.6798 0.30992,-0.37192 0.8554,-0.96078 0.94218,-0.98557 0.0347,-0.0117 0.062,-0.062 0.12397,-0.12398 0.062,-0.18595 0.37191,-0.18595 0.61985,-0.12397 0.12397,0.0576 0.37191,0.12397 0.49588,0.18596 0.12398,0.0341 0.30993,0.062 0.37192,0.12396 0.0614,0.0309 0.24794,0.12398 0.37191,0.12398 0.12397,0.0545 0.30993,0.12397 0.37191,0.12397 0.12397,0.062 0.24795,0.49588 0.30993,1.00417 0.0297,0.24793 0.062,0.55786 0.12397,0.67564 0.0459,0.24794 0.018,0.8368 -0.0601,1.29549 -0.0143,0.062 -0.0205,0.18596 -0.009,0.24794 0.0205,0.062 -0.12396,0.8492 -0.12396,0.99177 -0.0149,0.0409 -0.0223,0.24794 -0.0198,0.4339 0.006,0.18596 -0.0149,0.49589 -0.0415,0.65704 -0.0266,0.18597 -0.0428,0.37192 -0.0347,0.49589 0.009,0.12397 0.0192,0.24794 0.0285,0.37192 0.0477,0.67564 0.062,0.88018 0.30992,1.56203 0.18596,0.61985 0.30993,0.79341 0.49589,1.15293 0.37191,0.55786 1.09714,1.2831 1.39467,1.37607 0.062,0.0204 0.18596,0.12398 0.24794,0.18597 0.12398,0.12396 1.09715,0.66944 1.17773,0.64464 0.026,-0.009 0.18596,0.0421 0.37191,0.12397 0.30993,0.12397 1.17153,0.24795 1.7604,0.24795 0.43389,-0.002 1.50623,-0.30993 2.04551,-0.55788 0.63226,-0.30992 1.39467,-0.71903 1.58063,-0.86159 0.18595,-0.12398 0.61985,-0.37192 1.33888,-0.68185 0.55788,-0.24794 2.07653,-0.73762 2.21289,-0.71282 0.0583,0.0117 0.18595,0.12396 0.30992,0.24794 0.12397,0.12396 0.30993,0.37191 0.55787,0.55786 0.55787,0.55787 0.67565,0.8864 0.43391,1.38228 -0.062,0.12397 -0.12398,0.30993 -0.12398,0.30993 -0.002,0.18595 -0.72523,1.66121 -0.98557,1.99593 -0.062,0.12398 -0.18594,0.24794 -0.18594,0.30993 -0.0322,0.0614 -0.12399,0.18595 -0.24796,0.30992 -0.12397,0.12398 -0.24794,0.30993 -0.30993,0.43391 -0.062,0.12396 -0.18595,0.24794 -0.18595,0.24794 -0.12397,0.0316 -0.8554,1.58063 -0.98557,2.01452 -0.18595,0.61986 -0.18595,0.70045 -0.18595,1.2955 -0.009,0.83061 0.0576,1.2831 0.24795,1.78518 0.18594,0.4339 0.24793,0.55787 0.55785,1.05376 0.062,0.12396 0.18596,0.30993 0.24795,0.43389 0.062,0.12398 0.18596,0.30993 0.24794,0.37192 0.062,0.12397 0.18595,0.24794 0.18595,0.30993 0.036,0.062 0.24795,0.24793 0.49589,0.49588 0.24794,0.18596 0.4339,0.37191 0.4339,0.37191 0.009,0.0204 0.18595,0.12397 0.30992,0.18596 0.18596,0.062 0.30993,0.18595 0.30993,0.18595 0.0118,0.0323 0.12397,0.062 0.61986,0.18596 0.0521,0.0149 0.18595,0.0583 0.37192,0.12397 0.49587,0.12398 2.16328,0.24794 2.75835,0.12398 0.24794,-0.0353 1.13433,-0.0223 1.38847,0.018 0.062,0.0148 0.18595,0.0117 0.24795,-0.009 0.12396,-0.0291 0.64464,0.0309 1.60542,0.18595 0.18595,0.0236 0.43389,0.062 0.55786,0.12397 l 0.24795,0.12398 0.12398,0.43389 c 0.12396,0.4339 0.3719,1.45047 0.3719,1.61783 9.5e-4,0.12396 -0.49588,0.63224 -0.63845,0.67564 -0.0366,0.0117 -0.18595,0.12396 -0.37191,0.30993 -0.18596,0.18595 -0.37191,0.37191 -0.43389,0.43389 -0.062,0.062 -0.18597,0.12397 -0.24795,0.18596 -0.062,0.0204 -0.12398,0.062 -0.12398,0.12396 -0.0174,0.031 -0.24793,0.18597 -0.49587,0.30993 -0.84301,0.4339 -0.94219,0.49589 -1.36989,0.74383 -0.24794,0.12398 -0.55787,0.30993 -0.70663,0.37192 -0.24795,0.12396 -0.62606,0.37191 -0.7996,0.55786 -0.12399,0.12398 -0.37193,0.30993 -0.4959,0.49588 -0.12396,0.12398 -0.43389,0.43391 -0.78102,0.99797 -0.24793,0.37192 -0.55786,1.43807 -0.61985,2.30586 -0.062,0.93599 0.18595,2.24388 0.65705,3.13027 0.24794,0.4339 0.49588,0.79342 0.61986,0.89259 0.044,0.0304 0.18595,0.12397 0.24793,0.24795 0.18596,0.24794 1.13435,0.88638 1.60543,1.14053 0.37192,0.18595 0.30992,0.18595 1.48145,0.76242 1.14674,0.55786 1.59304,0.83061 1.7604,0.99797 0.062,0.062 0.18594,0.18595 0.30991,0.24794 0.12397,0.0564 0.24794,0.18595 0.37193,0.30993 0.30993,0.24794 0.30993,0.49588 0.18594,1.02895 -0.0508,0.18596 -0.12397,0.55787 -0.12397,0.73143 -0.026,0.18596 -0.12397,0.4339 -0.12397,0.55787 l -0.12397,0.18596 -0.77481,0.24794 c -0.43391,0.12397 -0.8802,0.24794 -1.01036,0.24794 -0.12398,0.009 -0.37191,0.0353 -0.4959,0.0601 -0.67564,0.12397 -0.99176,0.12397 -1.80377,0.0527 -0.24794,-0.0173 -0.43389,-0.0143 -0.49588,0.007 -0.062,0.0199 -0.24794,0.0409 -0.37192,0.0447 -0.99177,0.0236 -2.47321,0.4339 -3.11786,0.8616 -0.66945,0.43389 -0.69425,0.43389 -1.13434,1.02895 -0.4339,0.55787 -1.01657,1.6984 -1.15913,2.26247 -0.24793,1.02276 -0.24793,1.63642 -0.0304,2.57859 0.18595,0.66945 0.67565,1.71081 1.10333,2.28107 0.24796,0.37191 0.55789,0.76243 1.04136,1.43806 0.18596,0.24794 0.30993,0.4959 0.37191,0.55787 0.18597,0.30993 0.67565,1.24591 0.81202,1.66741 0.12397,0.4339 0.12397,0.4339 0.0347,0.65085 -0.12397,0.18596 -0.4339,0.65085 -0.49589,0.66325 -0.0143,0.006 -0.18595,0.18595 -0.30992,0.37191 -0.24795,0.37191 -0.30993,0.37191 -0.55787,0.4339 -0.18596,0.0503 -0.30993,0.0403 -0.55787,-0.0521 -0.18596,-0.062 -0.4339,-0.12396 -0.55787,-0.18595 -0.12397,-0.0229 -0.24795,-0.062 -0.30993,-0.062 -0.0533,-0.0236 -0.30993,-0.12397 -0.55787,-0.18594 -0.30993,-0.062 -0.67564,-0.24795 -0.96077,-0.43391 -0.4339,-0.24793 -0.81201,-0.4339 -1.86577,-0.94837 -0.12397,-0.0601 -0.30992,-0.12398 -0.4339,-0.18596 -0.12397,-0.0329 -0.30992,-0.12397 -0.43389,-0.18595 -0.12397,-0.0552 -0.37192,-0.12398 -0.49589,-0.12398 -0.18596,-0.0205 -0.4339,-0.0607 -0.64465,-0.062 -0.49588,-0.062 -1.06615,-0.0161 -1.85956,0.24795 -0.70664,0.24795 -1.05995,0.37191 -1.59923,0.79341 -0.12397,0.12397 -0.30992,0.24795 -0.37191,0.30993 -0.0409,0.0533 -0.12397,0.12397 -0.12397,0.12397 -0.12397,0.0304 -0.68184,0.61985 -0.71903,0.70043 -0.0174,0.0422 -0.12397,0.18597 -0.24794,0.30993 -0.12398,0.12398 -0.24795,0.37191 -0.30993,0.55786 -0.0539,0.12397 -0.12397,0.30993 -0.18596,0.30993 -0.062,0.0229 -0.18595,0.37191 -0.18595,0.4339 0.009,0.031 -0.0316,0.24794 -0.062,0.55787 -0.062,0.37191 -0.12396,0.65704 -0.062,1.22111 0.0379,1.07856 0.062,1.63022 0.18596,2.1137 0.12397,0.49589 0.24794,1.3141 0.18595,1.46907 -0.0174,0.12396 -0.0285,0.55786 -0.0192,0.76242 0.0229,0.43389 -0.003,0.88019 -0.062,1.20251 -0.062,0.30993 -0.062,0.37191 -0.30992,0.49588 -0.12397,0.062 -0.55788,0.24796 -0.98557,0.4339 l -0.76862,0.30993 -0.18596,-0.062 h 0.002 c -0.12398,-0.0459 -0.30992,-0.18595 -0.4339,-0.30992 -0.12397,-0.12396 -0.30993,-0.30993 -0.4339,-0.37192 -0.12398,-0.062 -0.30992,-0.24794 -0.4339,-0.3719 -0.12397,-0.12398 -0.30993,-0.30993 -0.4339,-0.49589 -0.12396,-0.12396 -0.24794,-0.30993 -0.3719,-0.37192 -0.062,-0.062 -0.24796,-0.30992 -0.37192,-0.55787 -0.12398,-0.18595 -0.24794,-0.43388 -0.30993,-0.49588 -0.062,-0.062 -0.12398,-0.18596 -0.12398,-0.24793 -0.0143,-0.0459 -0.062,-0.12398 -0.18594,-0.18597 -0.062,-0.062 -0.18597,-0.12396 -0.18597,-0.18595 -0.0149,-0.0403 -0.062,-0.12398 -0.12396,-0.18596 -0.057,-0.057 -0.12398,-0.18596 -0.18596,-0.24794 -0.0471,-0.062 -0.30993,-0.37192 -0.61986,-0.63845 -0.49588,-0.4339 -0.62604,-0.55786 -1.19011,-0.8554 -0.30993,-0.18596 -1.00418,-0.43389 -1.16534,-0.43389 -0.062,-0.003 -0.37191,-0.0428 -0.65705,-0.062 -0.79341,-0.12397 -1.15912,-0.062 -2.37404,0.30993 -0.61985,0.18596 -1.12813,0.37191 -1.29549,0.49588 -0.37191,0.18596 -1.12194,0.93599 -1.38847,1.35129 -0.37192,0.55787 -1.07856,2.08271 -1.03516,2.21288 0.0118,0.0328 -0.0378,0.18596 -0.12398,0.30993 -0.062,0.12397 -0.12397,0.37191 -0.18595,0.4339 -0.062,0.43389 -1.02896,2.33065 -1.41946,2.83893 -0.24794,0.30993 -0.43391,0.37191 -0.85541,0.30993 -0.18595,-0.0291 -0.43389,-0.0533 -0.49588,-0.0527 -0.4339,0.002 -0.89879,-0.062 -1.10335,-0.18596 -0.18595,-0.12397 -0.97936,-2.5414 -0.94217,-2.9691 0.01,-0.12397 -0.006,-0.30993 -0.0328,-0.37191 -0.0291,-0.062 -0.0502,-0.24795 -0.0496,-0.30993 0.003,-0.30993 -0.24795,-1.44426 -0.43391,-2.21288 -0.24793,-0.81201 -0.309919,-1.01656 -0.824397,-1.7356 -0.247942,-0.37191 -1.078547,-1.07854 -1.531037,-1.30789 -0.781022,-0.37191 -1.958754,-0.75002 -2.597198,-0.78102 -0.92978,-0.0459 -1.921557,0.18596 -2.73356,0.63845 -0.247942,0.12397 -0.495884,0.24795 -0.61985,0.30993 -0.06198,0.0236 -0.185963,0.12397 -0.247942,0.12397 -0.0545,0.0601 -0.123976,0.12397 -0.185963,0.12397 -0.05517,0.0198 -0.123967,0.062 -0.123967,0.12397 -0.05025,0.12398 -0.185963,0.24795 -0.557872,0.55787 -0.06198,0.062 -0.247942,0.18596 -0.30993,0.24795 -0.433896,0.43389 -0.61985,0.61985 -0.855396,0.78101 -0.185954,0.12397 -0.371918,0.24794 -0.433896,0.37192 -0.371918,0.30992 -0.495884,0.43389 -0.756231,0.55786 -0.30993,0.18596 -1.084736,0.55787 -1.21491,0.61986 -0.123966,0.0409 -0.495884,-0.12397 -0.818209,-0.37191 -0.185954,-0.12397 -0.30993,-0.18596 -0.30993,-0.18596 -0.01978,0.006 -0.123966,-0.049 -0.185954,-0.12397 -0.06198,-0.062 -0.185954,-0.18596 -0.247942,-0.18596 -0.185954,-0.062 -0.247942,-0.37191 -0.247942,-0.76242 0.0057,-0.18596 0.02971,-0.37191 0.05138,-0.4339 0.0229,-0.0515 0.06198,-0.37191 0.123976,-0.68804 0.04901,-0.30992 0.123966,-0.70043 0.185954,-0.8306 0.05696,-0.12397 0.06198,-0.24794 0.06198,-0.30993 -0.01183,-0.0359 0.06198,-0.30993 0.185963,-0.55787 0.309921,-0.67564 0.557872,-1.32029 0.557872,-1.58063 0.01117,-0.062 0.05271,-0.18595 0.06198,-0.24794 0.04154,-0.062 0.123976,-0.37191 0.123976,-0.61985 0.06198,-0.49589 0.123976,-0.66325 0.185954,-0.78102 0.01741,-0.0459 0.01117,-0.24794 -0.01239,-0.37191 -0.0229,-0.18596 -0.04901,-0.4339 -0.05517,-0.49589 -0.01741,-0.30993 -0.247942,-1.07234 -0.433896,-1.48145 -0.185954,-0.4339 -0.557862,-1.04136 -0.632255,-1.08475 -0.0335,-0.0173 -0.06198,-0.0589 -0.06198,-0.12397 -0.01183,-0.0353 -0.185963,-0.24794 -0.433896,-0.49588 -0.247942,-0.24794 -0.433906,-0.43389 -0.433906,-0.49589 -0.04523,-0.12397 -1.40707,-0.89879 -1.828571,-1.02276 -0.185954,-0.0508 -0.433896,-0.12397 -0.495874,-0.12397 -0.185964,-0.0527 -1.022776,-0.062 -1.679814,-0.0359 -0.495893,0.026 -1.084745,0.12397 -2.448431,0.55787 -0.880188,0.24794 -1.369874,0.37191 -1.599222,0.37191 -0.495884,0.0291 -1.078548,0.0558 -1.388477,0.062 -0.619851,0.0142 -0.557872,0.0304 -0.96077,-0.55786 -0.123976,-0.18596 -0.247951,-0.37191 -0.30993,-0.4339 -0.04088,-0.0391 -0.123966,-0.24795 -0.247942,-0.49588 l -0.185954,-0.4339 0.185954,-0.24794 c 0.123976,-0.12397 0.185954,-0.30992 0.185954,-0.30992 -0.0095,-0.0304 0.433897,-0.63225 0.911187,-1.22111 0.06198,-0.12398 0.185964,-0.18596 0.247942,-0.24795 0.05829,-0.0204 0.123966,-0.0595 0.123966,-0.062 0.02053,-0.062 0.557872,-0.61986 0.76242,-0.70664 0.123976,-0.062 0.433906,-0.30992 0.557872,-0.49588 0.0316,-0.0384 0.185963,-0.18596 0.30993,-0.24794 0.371908,-0.37192 0.557872,-0.55787 0.681838,-0.72523 0.06198,-0.12397 0.185963,-0.24794 0.247942,-0.30993 0.123976,-0.12397 0.30993,-0.43391 0.557872,-0.94838 0.185963,-0.37191 0.30993,-0.79962 0.371917,-1.15293 0.0229,-0.18596 0.06198,-0.55788 0.06198,-0.73763 0.05138,-0.37191 0.02848,-0.55787 -0.185954,-1.57443 -0.185964,-0.8616 -0.557882,-1.7418 -0.92979,-2.16949 -0.30993,-0.37191 -0.892593,-0.94838 -1.078547,-1.04756 -0.123976,-0.0558 -0.247942,-0.18596 -0.309921,-0.24794 -0.06198,-0.062 -0.185963,-0.12397 -0.309929,-0.18596 -0.06198,-0.0297 -0.30993,-0.12396 -0.495894,-0.18595 -0.433887,-0.18596 -0.991759,-0.37192 -1.369874,-0.4339 -0.185954,-0.0335 -0.433896,-0.12397 -0.557863,-0.12397 -0.123975,-0.0515 -0.433905,-0.12397 -0.725232,-0.18596 -0.247942,-0.0403 -0.61986,-0.12397 -0.750033,-0.18595 -0.123967,-0.0484 -0.309921,-0.062 -0.309921,-0.062 -0.30993,0.002 -2.088909,-0.83061 -2.212875,-1.02897 -0.0546,-0.062 -0.06198,-0.30992 -0.123985,-0.55786 -0.01183,-0.24794 -0.03908,-0.55787 -0.05886,-0.63845 -0.01987,-0.12398 -0.01987,-0.18596 -9.46e-4,-0.24794 0.02053,-0.0229 0.01741,-0.12398 -0.0057,-0.18596 -0.05271,-0.18596 -0.0038,-0.4339 0.123967,-0.55787 0.04901,-0.0602 0.30993,-0.24794 0.619859,-0.4339 0.495885,-0.24794 0.619851,-0.30993 1.816176,-0.69424 2.857526,-0.87399 3.508375,-1.09714 3.97327,-1.35748 0.61986,-0.37192 0.917384,-0.55787 1.072349,-0.80581 0.06198,-0.12397 0.123967,-0.18596 0.185954,-0.24794 0.123976,-0.0403 0.557872,-0.82441 0.855407,-1.48766 0.06198,-0.18595 0.371908,-1.15293 0.309929,-1.19631 -0.01116,-0.036 0.04343,-0.49589 0.06198,-0.8554 0.06198,-0.4339 -0.02536,-1.00417 -0.30993,-1.86577 -0.30993,-0.8678 -0.495884,-1.30169 -0.836803,-1.54344 -0.123966,-0.062 -0.30993,-0.30992 -0.371918,-0.43389 -0.123966,-0.18596 -0.30992,-0.37191 -0.495874,-0.49589 -0.185964,-0.12396 -0.433906,-0.37191 -0.557872,-0.49588 -0.123976,-0.12397 -0.309921,-0.30993 -0.433906,-0.37191 -0.06198,-0.0434 -0.247932,-0.18596 -0.371908,-0.30993 -0.123966,-0.12398 -0.30993,-0.30993 -0.495875,-0.4339 -0.123975,-0.12397 -0.371927,-0.37191 -0.495893,-0.49588 -0.123967,-0.12398 -0.247942,-0.24794 -0.247942,-0.24794 -0.0229,-0.002 -0.04958,-0.0304 -0.06009,-0.0614 -0.01117,-0.031 -0.06198,-0.12398 -0.123976,-0.18596 -0.371908,-0.37191 -0.694224,-0.91738 -0.712827,-1.20872 -0.0095,-0.12397 0.495893,-1.15293 0.768617,-1.59922 0.185964,-0.30993 0.185964,-0.30993 0.904989,-0.30993 0.185964,-0.002 0.371918,-0.0117 0.495884,-0.018 0.123966,-0.006 0.247951,0.009 0.30993,0.0304 0.0545,0.0229 0.123966,0.0341 0.123966,0.0236 0.02914,-0.009 0.247942,9.4e-4 0.433906,0.0229 0.185954,0.0229 0.433896,0.0316 0.433896,0.0211 0.03586,-0.0117 0.185963,0.0199 0.30993,0.062 0.123975,0.0508 0.371908,0.12397 0.495884,0.12397 0.123966,0.0298 0.433896,0.12397 0.638444,0.18595 0.557871,0.18596 1.648814,0.37191 2.008336,0.37191 0.06009,0.003 0.247942,0.0112 0.433897,0.0168 0.799616,0.0341 1.016559,0.007 1.698397,-0.18595 0.371918,-0.12397 0.743836,-0.24794 0.843001,-0.30993 0.123976,-0.062 0.247942,-0.18596 0.371927,-0.18596 0.123967,-0.0533 0.185945,-0.12396 0.247933,-0.18595 0.04901,-0.0595 0.185954,-0.18595 0.30993,-0.30993 0.247942,-0.18595 0.557862,-0.49588 0.712837,-0.71283 0.06065,-0.062 0.185944,-0.18596 0.247932,-0.30993 0.06198,-0.062 0.185964,-0.24794 0.30993,-0.43389 0.123976,-0.18597 0.185954,-0.37192 0.247942,-0.4339 0.123976,-0.24795 0.433906,-1.02896 0.433906,-1.12814 0,-0.062 0.02848,-0.24794 0.06198,-0.37192 0.123976,-0.37191 0.123976,-0.49587 0.03785,-1.15913 -0.05517,-0.49587 -0.123975,-0.72522 -0.371908,-1.63021 -0.185954,-0.55787 -0.433906,-1.19632 -0.495884,-1.38848 -0.247942,-0.55787 -0.61986,-1.51864 -0.812012,-2.47942 -0.247951,-1.17772 -0.247951,-1.22731 0.185954,-1.62402 0.433897,-0.43389 0.904989,-0.72522 1.245908,-0.88019 l 0.30993,-0.12397 0.76242,0.37192 c 0.973165,0.49588 1.77279,1.05375 2.200489,1.51244 0.30992,0.37192 0.433886,0.4339 0.650839,0.61986 0.123976,0.062 0.247942,0.18595 0.371918,0.30992 0.123976,0.12397 0.30992,0.24794 0.433896,0.30993 0.123976,0.062 0.30993,0.18595 0.433896,0.30993 0.247952,0.18595 0.30993,0.24794 0.979373,0.49588 0.619859,0.24794 0.663244,0.24794 1.245907,0.37191 0.824408,0.12398 1.363677,0.0465 2.473223,-0.30992 0.638453,-0.18596 0.997966,-0.37192 1.23971,-0.49588 0.185954,-0.12398 0.371917,-0.18597 0.433896,-0.24795 0.06198,-0.0298 0.371908,-0.30993 0.799616,-0.74382 0.247932,-0.24794 0.557862,-0.77483 0.750024,-1.15293 0.247942,-0.55787 0.30993,-0.76862 0.371908,-1.07235 0.03974,-0.18596 0.06198,-0.37192 0.123976,-0.43391 0.01429,-0.062 0.03406,-0.18595 0.04211,-0.24794 0.0095,-0.062 0.03104,-0.12397 0.05394,-0.18595 0.0229,-0.026 0.03104,-0.062 0.01798,-0.12397 -0.01429,-0.0452 -0.01117,-0.18596 0.0057,-0.30993 0.01732,-0.12397 0.02167,-0.24794 0.01296,-0.30993 -0.0095,-0.0328 0.01798,-0.18595 0.05696,-0.30993 0.04088,-0.12397 0.06198,-0.30992 0.06009,-0.4339 -0.03473,-0.3719 0.01183,-0.8368 0.123967,-1.35747 0.06198,-0.30993 0.123975,-0.62606 0.123975,-0.72524 0.0095,-0.12396 0.04589,-0.24794 0.06198,-0.30992 0.03842,-0.062 0.06198,-0.18596 0.06198,-0.24795 0.04343,-0.37191 0.309917,-1.09094 0.495887,-1.17772 0.12396,-0.062 0.49588,-0.18595 0.99796,-0.24794 0.49589,-0.0607 0.73143,-0.062 0.89879,-0.062 z m 4.40097,15.49885 c -0.062,0.0117 -0.24794,0.0148 -0.37192,0.009 -0.12397,-0.006 -0.49588,0.0173 -0.8182,0.0515 -0.8306,0.062 -1.05375,0.12398 -1.33888,0.12398 -0.12398,9.4e-4 -0.30993,0.0223 -0.37192,0.0496 -0.062,0.026 -0.24794,0.0489 -0.37192,0.0483 -0.49587,-0.002 -2.70256,0.55787 -3.94227,0.99797 -0.942175,0.30993 -2.293466,0.89879 -2.801745,1.15913 -0.185954,0.062 -0.433896,0.24794 -0.557872,0.30993 -0.123966,0.062 -0.371908,0.18595 -0.495884,0.30992 -0.123966,0.12397 -0.495875,0.30993 -0.750015,0.49588 -0.247951,0.18596 -0.557871,0.37192 -0.669452,0.49588 -0.185954,0.18597 -0.61985,0.49589 -0.774815,0.61986 -0.185954,0.12397 -0.557862,0.4339 -0.762429,0.64465 -0.123966,0.12397 -0.247932,0.24795 -0.309911,0.30992 -0.185963,0.18596 -1.40707,1.3451 -1.54964,1.54964 -0.06198,0.062 -0.185963,0.24795 -0.247942,0.30993 -0.06198,0.062 -0.185963,0.24795 -0.30993,0.37191 -0.123975,0.12398 -0.185963,0.30993 -0.185963,0.30993 -0.02044,0.006 -0.185945,0.18596 -0.309921,0.4339 -0.123975,0.24794 -0.371917,0.49588 -0.433896,0.61986 -0.06198,0.12396 -0.247942,0.30992 -0.30993,0.49588 -0.06198,0.12397 -0.247942,0.4339 -0.371908,0.63225 -0.30993,0.49588 -0.557872,0.89259 -0.830615,1.42567 -0.123966,0.24794 -0.371908,0.65704 -0.495884,0.90498 -0.123966,0.24795 -0.247932,0.49589 -0.247932,0.61986 -0.01429,0.062 -0.06198,0.24794 -0.185964,0.4339 -0.06198,0.18595 -0.123966,0.30993 -0.123966,0.30993 0.0095,0.0229 -0.05583,0.18595 -0.123976,0.37191 -0.06198,0.18596 -0.123966,0.37191 -0.123966,0.4339 0.01495,0.0447 0.0028,0.12397 -0.02536,0.18596 -0.02914,0.0465 -0.04646,0.12396 -0.03908,0.12396 0.0095,0.0229 -0.02981,0.18596 -0.06198,0.37192 -0.05081,0.18595 -0.123976,0.4339 -0.123976,0.61985 -0.03283,0.18596 -0.123975,0.4339 -0.123975,0.55787 -0.04533,0.12397 -0.123967,0.37192 -0.123967,0.55787 -0.02981,0.18596 -0.06198,0.4339 -0.123976,0.49589 -0.06198,0.18595 -0.123966,0.55786 -0.06198,0.65704 0.0229,0.062 -0.03785,0.68804 -0.123976,1.04755 -0.02914,0.18597 -0.01363,0.75622 0.0211,0.86161 0.03406,0.12396 0.05148,0.73763 0.02848,1.01036 -0.01741,0.18595 9.46e-4,0.55787 0.05081,0.91738 0.03596,0.24794 0.06198,0.79962 0.06009,1.14054 -0.0028,0.30992 0.04958,0.68803 0.185954,1.38848 0.06198,0.3719 0.185954,0.88638 0.247942,1.10953 0.185954,0.8492 1.599223,4.66131 1.816175,4.87826 0.06009,0.0601 0.123967,0.18595 0.123967,0.24794 0.0229,0.062 0.123975,0.24794 0.185963,0.30992 0.185954,0.30993 0.61986,0.92359 0.632246,1.04136 0.03586,0.12398 0.30993,0.49589 0.557872,0.78721 0.123966,0.12398 0.30993,0.37192 0.433896,0.61986 0.30993,0.43391 0.30993,0.4959 0.76242,0.93598 0.123976,0.12398 0.371908,0.37193 0.495884,0.55787 0.123976,0.12398 0.30993,0.37192 0.433896,0.43391 0.123985,0.12397 0.247952,0.18595 0.247952,0.24793 0.0229,0.062 0.185954,0.24795 0.557871,0.55788 0.185945,0.12397 0.371909,0.30993 0.433887,0.37192 0.06198,0.062 0.185964,0.18595 0.247942,0.24794 0.123976,0.062 0.694243,0.55787 0.712837,0.62605 0.0057,0.0198 0.185954,0.12397 0.30993,0.24794 0.185954,0.12397 0.30992,0.18596 0.371918,0.24794 0.01183,0.0384 0.123966,0.12398 0.247932,0.18596 0.123976,0.0576 0.30993,0.18596 0.371908,0.24794 0.557872,0.4339 2.770766,1.59923 3.712933,1.95874 0.247951,0.12397 0.632265,0.24795 0.799625,0.37192 0.185945,0.062 0.309921,0.12397 0.371908,0.12397 0.06198,-0.0229 0.433898,0.0558 0.495878,0.12397 0.0409,0.0291 0.8678,0.18595 0.90499,0.18595 0.0143,-0.006 0.12397,0.031 0.24794,0.062 0.12397,0.049 0.4339,0.12397 0.65085,0.12397 0.24794,0.0366 0.49588,0.12397 0.65705,0.12397 0.12397,0.0353 0.30992,0.0607 0.37191,0.0552 0.062,-0.006 0.4339,0.0403 0.8554,0.12396 0.37191,0.0601 0.75002,0.12397 0.79961,0.062 0.0471,-0.0148 0.37192,0.008 0.67565,0.0508 0.30992,0.0428 0.62605,0.062 0.66943,0.0539 0.0421,-0.0143 0.12398,-0.0143 0.18596,-0.003 0.12397,0.0205 0.24795,0.0124 1.07235,-0.0583 0.18596,-0.0143 0.37192,-0.0316 0.49589,-0.036 0.12397,-0.006 0.43388,-0.0576 0.7996,-0.12397 0.30993,-0.0589 0.81821,-0.12396 1.07235,-0.18595 0.24795,-0.0396 0.66325,-0.12397 0.91739,-0.18595 0.24794,-0.0471 0.61986,-0.12398 0.76243,-0.12398 0.37191,-0.062 2.0889,-0.65705 2.5414,-0.874 l -0.003,0.002 c 0.18594,-0.062 0.63224,-0.30993 0.97937,-0.4339 1.14053,-0.49588 1.94634,-0.92978 2.1261,-1.07854 0.18596,-0.12398 0.55787,-0.4339 0.74381,-0.49589 0.37193,-0.18595 0.88641,-0.55787 1.14055,-0.79961 0.12396,-0.12397 0.43389,-0.37191 0.66323,-0.55787 0.24794,-0.18596 0.4959,-0.37191 0.55787,-0.49588 0.12398,-0.12398 0.24795,-0.24795 0.37192,-0.37192 0.062,-0.12397 0.18596,-0.18596 0.24794,-0.18596 0.0316,-0.0112 0.24795,-0.18595 0.4339,-0.43389 0.18595,-0.24795 0.4339,-0.4339 0.4339,-0.4339 0.0614,-0.0198 0.12396,-0.12398 0.49589,-0.55787 0.18594,-0.18597 0.30992,-0.37191 0.37191,-0.37191 0.029,-0.009 0.12396,-0.12398 0.12396,-0.18596 0.12398,-0.18597 0.24795,-0.37191 0.43391,-0.55788 0.062,-0.062 0.66323,-0.96077 1.09714,-1.64261 0.12397,-0.18596 0.79962,-1.45046 0.92358,-1.7046 0.12398,-0.30993 0.37192,-0.79961 0.4339,-1.02276 0.0595,-0.12397 0.12397,-0.30993 0.12397,-0.37191 0.062,-0.12398 0.43389,-1.22732 0.49589,-1.53105 0.0359,-0.12397 0.12396,-0.37191 0.12396,-0.4339 0.062,-0.18595 0.37191,-1.27069 0.43391,-1.65501 0.0174,-0.12396 0.062,-0.37191 0.12397,-0.49588 0.062,-0.37191 0.12396,-0.77482 0.12396,-0.8554 -0.0204,-0.0607 0.12398,-0.92358 0.18597,-1.01657 0.0148,-0.0328 0.0143,-0.12396 -0.006,-0.18595 -0.0298,-0.062 -0.0198,-0.37191 0.0267,-0.75622 0.026,-0.24795 0.0267,-0.61985 0.006,-0.8926 -0.0118,-0.18595 -0.0359,-0.43389 -0.0508,-0.65704 -0.0149,-0.18596 -0.0379,-0.49589 -0.0496,-0.62605 -0.0118,-0.12398 -0.0124,-0.30993 -0.002,-0.37192 0.0527,-0.18595 -0.0322,-0.77481 -0.37192,-2.36784 -0.12397,-0.65085 -0.61985,-2.1323 -1.01036,-3.11787 -0.18596,-0.4339 -0.49588,-1.15293 -0.67564,-1.66121 -0.4339,-0.99797 -0.68804,-1.63641 -0.89259,-1.99594 -0.062,-0.12396 -0.18596,-0.3719 -0.24795,-0.49588 -0.062,-0.12397 -0.18595,-0.37191 -0.24794,-0.4339 -0.062,-0.062 -0.18595,-0.24794 -0.30991,-0.43389 -0.18597,-0.24794 -0.24796,-0.37192 -0.55788,-0.67565 -0.30993,-0.30992 -0.49589,-0.55786 -0.55787,-0.74383 -0.0496,-0.12396 -0.12397,-0.18595 -0.12397,-0.18595 -0.0298,-5.3e-4 -0.062,-0.0428 -0.062,-0.12397 -0.0174,-0.0515 -0.12397,-0.18595 -0.30993,-0.30993 -0.12397,-0.12396 -0.24795,-0.18595 -0.24795,-0.24794 -0.009,-0.0291 -0.12396,-0.12397 -0.24793,-0.30993 -0.12397,-0.12397 -0.37192,-0.37191 -0.55787,-0.55786 -0.37191,-0.37192 -0.49588,-0.49589 -1.2707,-1.09715 -0.30993,-0.24794 -0.55787,-0.4339 -0.61986,-0.49589 -0.0527,-0.0496 -0.18595,-0.12396 -0.30992,-0.24793 -0.12397,-0.062 -0.4339,-0.24795 -0.68185,-0.4339 -0.55786,-0.37191 -1.43806,-0.87399 -1.76038,-1.05375 -0.12397,-0.062 -0.37191,-0.18596 -0.4339,-0.30993 -0.12397,-0.062 -0.24794,-0.12398 -0.24794,-0.12398 -0.0198,0.006 -0.18596,-0.0576 -0.37192,-0.12396 -0.91118,-0.43391 -1.90915,-0.83061 -2.49181,-0.94839 -0.18596,-0.0323 -0.37191,-0.062 -0.4339,-0.12396 -0.18596,-0.062 -0.68184,-0.18597 -0.843,-0.18597 -0.062,9.5e-4 -0.24794,-0.0316 -0.37191,-0.062 -0.12398,-0.0415 -0.49589,-0.12397 -0.74383,-0.12397 -0.24794,-0.0316 -0.55787,-0.062 -0.61986,-0.12397 -0.062,-0.0309 -0.24794,-0.062 -0.43389,-0.062 -0.18596,-0.0117 -0.49589,-0.0434 -0.69424,-0.062 -0.4339,-0.0576 -1.2335,-0.12398 -1.31409,-0.062 -0.026,0.009 -0.12397,0.002 -0.18596,-0.0117 -0.062,-0.0148 -0.24794,-0.018 -0.30993,-0.007 z m 55.45717,7.84923 c 0.12397,9.4e-4 0.18596,0.026 0.24794,0.062 0.062,0.0583 0.49589,0.66944 0.72523,1.08473 0.0379,0.062 0.12397,0.12398 0.12397,0.18597 0.0377,0.0452 0.18596,0.3719 0.30993,0.78101 0.55787,1.45666 0.65705,1.68601 0.81201,1.93394 0.062,0.12398 0.12397,0.18597 0.12397,0.24795 0.009,0.0236 0.12397,0.12397 0.24794,0.24795 0.12397,0.12396 0.24794,0.24793 0.24794,0.24793 0.0192,0.0576 0.30993,0.37192 0.37192,0.37192 0.0304,0.009 0.12397,0.0583 0.18595,0.12397 0.062,0.0539 0.24795,0.12397 0.37192,0.24793 0.12397,0.062 0.30993,0.12398 0.37191,0.18597 0.062,0.0353 0.12397,0.0608 0.12397,0.0558 0.0155,-0.003 0.18596,0.0335 0.30993,0.062 0.18595,0.0533 0.30992,0.062 0.37191,0.062 0.0242,-0.009 0.24794,0.0149 0.4339,0.0496 0.4339,0.062 0.74383,0.062 1.12814,-0.0241 0.72523,-0.18596 1.09714,-0.30993 1.45665,-0.55788 0.24795,-0.18595 0.8864,-0.8058 1.01657,-1.01036 0.0607,-0.062 0.12397,-0.18595 0.18595,-0.24794 0.0477,-0.0558 0.12397,-0.18595 0.18596,-0.24794 0.0514,-0.12397 0.12397,-0.18596 0.18596,-0.24794 0.049,-0.0508 0.12397,-0.12398 0.12397,-0.18596 0.0421,-0.12397 0.55787,-0.8554 0.86779,-1.23971 0.24795,-0.30993 0.63226,-0.70664 0.69424,-0.72523 0.0254,-0.009 0.0589,-0.0452 0.062,-0.062 0.049,-0.12396 0.24794,-0.12396 0.4339,-0.062 0.12397,0.0421 0.24794,0.12397 0.37191,0.12397 0.12397,0.0267 0.24794,0.062 0.24794,0.062 0.0453,0.0236 0.18595,0.062 0.30993,0.12397 0.12397,0.0403 0.24794,0.062 0.24794,0.12397 0.062,0.0545 0.18596,0.37192 0.24794,0.74383 0.0217,0.18596 0.0558,0.37191 0.062,0.49588 0.0335,0.18596 0.0136,0.61986 -0.0434,0.95458 -0.0105,0.062 -0.0161,0.12397 -0.007,0.18595 0.0149,0.0465 -0.062,0.63226 -0.12397,0.73144 -0.0105,0.0297 -0.0174,0.18595 -0.0149,0.30993 0.004,0.12396 -0.0105,0.3719 -0.0304,0.49588 -0.0192,0.12397 -0.0322,0.24794 -0.0267,0.37191 0.006,0.062 0.0143,0.18595 0.0211,0.30993 0.0347,0.49588 0.062,0.65085 0.24795,1.15293 0.12396,0.43389 0.18595,0.55786 0.37191,0.8492 0.24794,0.43389 0.80581,0.94837 1.02275,1.01036 0.0515,0.0143 0.12398,0.062 0.18596,0.12397 0.12396,0.12397 0.81201,0.49589 0.8678,0.49589 0.0192,-0.007 0.12397,0.0316 0.24794,0.062 0.24794,0.12396 0.8616,0.18595 1.2955,0.18595 0.30993,-0.002 1.10954,-0.24794 1.50625,-0.4339 0.43388,-0.24794 1.02275,-0.55787 1.16531,-0.63225 0.12398,-0.12398 0.43391,-0.24794 0.98557,-0.49588 0.43391,-0.18596 1.53106,-0.55788 1.63023,-0.55788 0.0428,0.009 0.12397,0.062 0.18596,0.18597 0.062,0.062 0.24794,0.30992 0.37191,0.43389 0.43389,0.4339 0.49589,0.65705 0.30993,1.02276 -0.0503,0.12397 -0.062,0.18595 -0.062,0.24794 -9.5e-4,0.12398 -0.55787,1.22732 -0.72523,1.46906 -0.0614,0.062 -0.12397,0.18596 -0.12397,0.24794 -0.0236,0.0452 -0.12398,0.12397 -0.18595,0.24794 -0.062,0.062 -0.18597,0.24795 -0.24796,0.30993 -0.0589,0.12397 -0.12396,0.18596 -0.12396,0.18596 -0.062,0.0229 -0.62605,1.16533 -0.72523,1.48765 -0.12397,0.4339 -0.12397,0.49588 -0.12397,0.95457 -0.006,0.61986 0.0428,0.94219 0.18595,1.3141 0.12398,0.30993 0.18596,0.43389 0.37192,0.77482 0.0508,0.062 0.12397,0.18595 0.18595,0.30992 0.0471,0.062 0.12398,0.18596 0.18596,0.24794 0.0533,0.062 0.12397,0.18597 0.12397,0.18597 0.026,0.0465 0.18596,0.18595 0.37191,0.37191 0.18596,0.12397 0.30993,0.24794 0.30993,0.30992 0.006,0.0143 0.12398,0.062 0.24794,0.12397 0.12398,0.062 0.24795,0.12398 0.24795,0.12398 0.009,0.0236 0.12396,0.0571 0.43389,0.12396 0.0378,0.0118 0.12398,0.0421 0.24795,0.062 0.3719,0.12398 1.59303,0.18596 2.02692,0.12398 0.18596,-0.026 0.83681,-0.0186 1.02896,0.0105 0.062,0.0118 0.12397,0.01 0.18595,-0.004 0.062,-0.0204 0.49589,0.0223 1.18392,0.12396 0.12398,0.0173 0.30993,0.062 0.43391,0.12398 l 0.18595,0.062 0.12398,0.30992 c 0.12397,0.30993 0.30992,1.07235 0.30992,1.19632 5.3e-4,0.062 -0.37192,0.49589 -0.49588,0.49589 -0.0266,0.009 -0.12397,0.12396 -0.30992,0.24794 -0.12398,0.12396 -0.24796,0.24794 -0.30993,0.30993 -0.0533,0.0483 -0.12397,0.12396 -0.18597,0.12396 -0.0477,0.0143 -0.12396,0.0471 -0.12396,0.062 -0.0118,0.0236 -0.18597,0.12398 -0.37191,0.18596 -0.62606,0.30993 -0.70044,0.37191 -1.01037,0.55787 -0.18596,0.12397 -0.43389,0.24794 -0.49589,0.30993 -0.18595,0.12396 -0.43389,0.30993 -0.61986,0.43389 -0.12396,0.12398 -0.24793,0.24795 -0.3719,0.37192 -0.12397,0.062 -0.30993,0.30992 -0.55788,0.73762 -0.18594,0.24794 -0.3719,1.05995 -0.43389,1.69841 -0.0558,0.68802 0.12397,1.65501 0.49589,2.30586 0.18595,0.30992 0.37191,0.55786 0.4339,0.65705 0.0328,0.0236 0.12396,0.12396 0.18595,0.18595 0.12397,0.18595 0.8368,0.65085 1.18393,0.843 0.30992,0.18596 0.24793,0.12397 1.09093,0.55787 0.843,0.4339 1.17773,0.61985 1.2955,0.73763 0.0471,0.0483 0.12398,0.12397 0.24795,0.18596 0.062,0.0421 0.18596,0.12396 0.30993,0.24794 0.18595,0.18595 0.24794,0.37192 0.12396,0.75622 -0.0378,0.18595 -0.062,0.37191 -0.12396,0.55787 -0.0205,0.12397 -0.062,0.30992 -0.12397,0.4339 l -0.062,0.18595 -0.55786,0.18596 c -0.30993,0.062 -0.65086,0.18596 -0.74384,0.18596 -0.12396,0.006 -0.24794,0.0267 -0.37191,0.0446 -0.49588,0.062 -0.73143,0.062 -1.33268,0.0391 -0.18596,-0.0118 -0.30993,-0.0112 -0.37192,0.003 -0.0483,0.0143 -0.18595,0.0291 -0.24793,0.0316 -0.73143,0.0173 -1.82238,0.30992 -2.29967,0.63225 -0.49589,0.30993 -0.49589,0.37191 -0.8306,0.76242 -0.30993,0.4339 -0.75003,1.24591 -0.85541,1.66121 -0.18595,0.75623 -0.18595,1.20873 -0.0242,1.90296 0.12397,0.49588 0.49587,1.2645 0.81201,1.6798 0.18595,0.24795 0.4339,0.55788 0.76242,1.05996 0.12397,0.18595 0.24793,0.37191 0.30993,0.43389 0.12397,0.18597 0.49587,0.9174 0.61985,1.22733 0.12397,0.30992 0.12397,0.30992 0.0273,0.49587 -0.062,0.12398 -0.30993,0.49589 -0.37193,0.49589 -0.0118,0.003 -0.12396,0.12396 -0.24793,0.24794 -0.18595,0.24794 -0.24794,0.24794 -0.4339,0.30993 -0.12397,0.0372 -0.24795,0.0291 -0.43389,-0.039 -0.12397,-0.0465 -0.30993,-0.12396 -0.4339,-0.12396 -0.12398,-0.0174 -0.18596,-0.0459 -0.24795,-0.062 -0.0397,-0.0174 -0.24794,-0.062 -0.43389,-0.12398 -0.18596,-0.0558 -0.49589,-0.18595 -0.70664,-0.30992 -0.30993,-0.18596 -0.61985,-0.30993 -1.37608,-0.70044 -0.12397,-0.0446 -0.24794,-0.12397 -0.30992,-0.12397 -0.062,-0.0236 -0.24795,-0.062 -0.30993,-0.12397 -0.062,-0.0409 -0.24794,-0.062 -0.37191,-0.12397 -0.12397,-0.0143 -0.37192,-0.0446 -0.49589,-0.062 -0.37191,-0.062 -0.78721,-0.0118 -1.36988,0.18596 -0.49588,0.18596 -0.78101,0.30993 -1.17772,0.55787 -0.12397,0.062 -0.24794,0.18595 -0.24794,0.24794 -0.0304,0.0391 -0.062,0.062 -0.12397,0.062 -0.062,0.0236 -0.49589,0.43389 -0.55787,0.49588 -0.013,0.031 -0.12397,0.12397 -0.18596,0.24794 -0.12397,0.12397 -0.18596,0.30993 -0.24794,0.37191 -0.0403,0.12398 -0.12397,0.18596 -0.12397,0.24795 -0.0514,0.0174 -0.12397,0.24794 -0.12397,0.30992 0.006,0.0229 -0.0242,0.18596 -0.062,0.37192 -0.062,0.24794 -0.062,0.49588 -0.062,0.89879 0.0273,0.79341 0.062,1.20251 0.12399,1.55583 0.062,0.37191 0.18594,0.96698 0.12396,1.07855 -0.013,0.12397 -0.0217,0.4339 -0.0155,0.55787 0.0174,0.30993 -0.002,0.65085 -0.0508,0.88639 -0.049,0.24794 -0.062,0.24794 -0.18595,0.37191 -0.062,0.0539 -0.4339,0.18596 -0.72523,0.30993 l -0.55788,0.18596 -0.12396,-0.0614 9.4e-4,0.003 c -0.062,-0.0335 -0.24794,-0.12397 -0.30993,-0.18596 -0.062,-0.062 -0.24794,-0.18595 -0.30992,-0.24794 -0.062,-0.062 -0.24795,-0.18595 -0.30993,-0.30993 -0.062,-0.12397 -0.24794,-0.24794 -0.30993,-0.37191 -0.062,-0.062 -0.18596,-0.24794 -0.24794,-0.30993 -0.0608,-0.062 -0.18596,-0.24794 -0.24794,-0.43389 -0.062,-0.18596 -0.18595,-0.30993 -0.24795,-0.37192 -0.0483,-0.0558 -0.12397,-0.12397 -0.12397,-0.18595 -0.0105,-0.0341 -0.062,-0.12397 -0.12396,-0.12397 -0.0576,-0.0465 -0.12398,-0.12398 -0.12398,-0.12398 -0.0105,-0.0297 -0.0521,-0.062 -0.12397,-0.12397 -0.0421,-0.0421 -0.12397,-0.12397 -0.12397,-0.18595 -0.0347,-0.062 -0.24793,-0.24794 -0.4339,-0.49589 -0.37191,-0.30992 -0.43389,-0.4339 -0.88019,-0.63225 -0.24795,-0.12397 -0.74383,-0.30993 -0.8616,-0.30993 -0.0601,-0.002 -0.30993,-0.031 -0.49587,-0.062 -0.55788,-0.062 -0.85541,-0.0539 -1.74799,0.24794 -0.43391,0.12396 -0.83062,0.30993 -0.95459,0.37191 -0.24794,0.12397 -0.82441,0.68804 -1.02276,0.99176 -0.24794,0.37192 -0.79342,1.53105 -0.76242,1.63023 0.009,0.0229 -0.0298,0.12397 -0.062,0.24794 -0.0527,0.12396 -0.12397,0.24794 -0.12397,0.30993 -0.0508,0.30993 -0.75622,1.717 -1.04754,2.0951 -0.18597,0.18596 -0.30993,0.24795 -0.63227,0.18596 -0.12397,-0.0205 -0.30992,-0.0384 -0.37191,-0.0378 -0.37191,0.002 -0.66324,-0.0583 -0.81201,-0.12396 -0.18595,-0.12398 -0.71902,-1.87197 -0.69424,-2.1881 0.007,-0.062 -0.004,-0.18594 -0.0235,-0.24794 -0.0217,-0.062 -0.0366,-0.18594 -0.0359,-0.24793 0.002,-0.24794 -0.18597,-1.05995 -0.30993,-1.63022 -0.18597,-0.61985 -0.24794,-0.75003 -0.61986,-1.27691 -0.18596,-0.24793 -0.79341,-0.79341 -1.12813,-0.96697 -0.55787,-0.30993 -1.44426,-0.55787 -1.91535,-0.55787 -0.68805,-0.0335 -1.41327,0.12398 -2.01454,0.49589 -0.18595,0.12396 -0.37191,0.18596 -0.43389,0.24794 -0.0527,0.0174 -0.12397,0.062 -0.18597,0.12397 -0.0403,0.044 -0.12396,0.062 -0.12396,0.12398 -0.0409,0.0143 -0.12397,0.062 -0.12397,0.12397 -0.0372,0.062 -0.12397,0.18595 -0.4339,0.43389 -0.062,0.0545 -0.18596,0.12398 -0.24795,0.18596 -0.30993,0.30993 -0.43389,0.43389 -0.63224,0.55787 -0.12397,0.062 -0.24794,0.18595 -0.30993,0.24794 -0.30993,0.24794 -0.37191,0.30993 -0.55787,0.4339 -0.18595,0.12396 -0.79961,0.43389 -0.8926,0.43389 -0.062,0.0304 -0.37191,-0.12396 -0.61984,-0.30993 -0.12398,-0.062 -0.24795,-0.18594 -0.24795,-0.12396 -0.0155,0.003 -0.062,-0.0353 -0.12398,-0.062 -0.062,-0.0558 -0.12396,-0.12398 -0.18594,-0.12398 -0.12398,-0.062 -0.18596,-0.30993 -0.18596,-0.55787 0.004,-0.12397 0.0211,-0.30993 0.0372,-0.30993 0.0174,-0.0377 0.0601,-0.24793 0.12398,-0.49588 0.036,-0.24795 0.12397,-0.49589 0.12397,-0.61985 0.0421,-0.12398 0.062,-0.18597 0.0601,-0.24795 -0.009,-0.026 0.057,-0.18596 0.12397,-0.43389 0.24794,-0.49589 0.37191,-0.97318 0.4339,-1.16534 0.009,-0.0459 0.0384,-0.12396 0.062,-0.18594 0.0304,-0.062 0.062,-0.24795 0.12398,-0.43391 0.059,-0.37192 0.062,-0.49588 0.12397,-0.55787 0.0124,-0.0341 0.009,-0.18595 -0.007,-0.30993 -0.0174,-0.12397 -0.0372,-0.30993 -0.0421,-0.37191 -0.013,-0.24793 -0.18596,-0.79342 -0.30993,-1.09094 -0.12397,-0.30992 -0.4339,-0.76863 -0.4339,-0.79962 -0.0248,-0.0118 -0.0514,-0.0446 -0.0601,-0.062 -0.008,-0.026 -0.12398,-0.18596 -0.30993,-0.37191 -0.18595,-0.18596 -0.30992,-0.30992 -0.30992,-0.37192 -0.0335,-0.12397 -1.03516,-0.66325 -1.35129,-0.75002 -0.12398,-0.0372 -0.30993,-0.062 -0.37191,-0.12398 -0.12397,-0.0384 -0.75623,-0.0533 -1.23971,-0.0272 -0.37192,0.0205 -0.79962,0.12397 -1.80378,0.37192 -0.65086,0.18595 -1.01036,0.24794 -1.17772,0.30993 -0.37192,0.0205 -0.79963,0.0409 -1.02276,0.0465 -0.4339,0.0118 -0.4339,0.0236 -0.70665,-0.43391 -0.062,-0.12397 -0.18595,-0.30993 -0.24793,-0.30993 -0.0298,-0.0285 -0.12397,-0.18594 -0.18596,-0.37191 l -0.12397,-0.30993 0.12397,-0.18594 c 0.062,-0.12398 0.18596,-0.18597 0.12396,-0.24794 -0.006,-0.0236 0.30993,-0.4959 0.67564,-0.90499 0.062,-0.062 0.12399,-0.18597 0.18597,-0.18597 0.0434,-0.0148 0.062,-0.0452 0.062,-0.062 0.0155,-0.0607 0.4339,-0.4339 0.55787,-0.49589 0.12396,-0.062 0.30992,-0.24794 0.37191,-0.37191 0.0236,-0.0291 0.12397,-0.12396 0.18596,-0.18596 0.30992,-0.24793 0.43389,-0.37191 0.49587,-0.55786 0.0521,-0.062 0.12398,-0.18596 0.18597,-0.24795 0.12396,-0.12397 0.24794,-0.30993 0.43389,-0.69424 0.12398,-0.30992 0.24795,-0.61985 0.24795,-0.8492 0.0174,-0.12396 0.0496,-0.37191 0.062,-0.55787 0.0384,-0.30992 0.0211,-0.4339 -0.12398,-1.15913 -0.12397,-0.63845 -0.4339,-1.28308 -0.68184,-1.59922 -0.24794,-0.30993 -0.65704,-0.70044 -0.79341,-0.77482 -0.062,-0.0409 -0.18596,-0.12397 -0.24794,-0.18596 -0.0496,-0.0496 -0.12397,-0.12397 -0.18596,-0.12397 -0.062,-0.0198 -0.24794,-0.062 -0.37192,-0.12397 -0.30992,-0.12397 -0.73142,-0.24793 -1.01036,-0.30993 -0.12397,-0.0229 -0.30993,-0.062 -0.37191,-0.12397 -0.12397,-0.0379 -0.37191,-0.062 -0.55787,-0.12396 -0.18596,-0.0298 -0.4339,-0.062 -0.55787,-0.12398 -0.12397,-0.036 -0.24794,-0.062 -0.24794,-0.062 -0.24794,0.002 -1.53724,-0.61986 -1.63022,-0.76243 -0.0403,-0.062 -0.062,-0.18595 -0.062,-0.43389 -0.008,-0.18597 -0.0273,-0.37192 -0.0421,-0.4959 -0.0149,-0.062 -0.0155,-0.12396 -9.5e-4,-0.18594 0.0149,-0.0174 0.0124,-0.062 -0.004,-0.12398 -0.0391,-0.12397 -0.003,-0.30993 0.062,-0.43389 0.0359,-0.044 0.24794,-0.18597 0.43391,-0.30993 0.37191,-0.18597 0.43389,-0.24794 1.33888,-0.49589 2.10751,-0.64464 2.5848,-0.812 2.92572,-0.99796 0.43389,-0.24794 0.67564,-0.4339 0.78721,-0.61985 0.0533,-0.062 0.12397,-0.18596 0.12397,-0.18596 0.062,-0.0297 0.4339,-0.61986 0.63226,-1.09715 0.057,-0.12396 0.24794,-0.8492 0.24794,-0.88019 -0.009,-0.026 0.0316,-0.37191 0.062,-0.63225 0.0508,-0.30993 -0.0192,-0.73763 -0.24794,-1.37607 -0.18595,-0.63846 -0.37191,-0.96078 -0.61985,-1.13434 -0.062,-0.062 -0.24795,-0.18595 -0.30993,-0.30993 -0.062,-0.12397 -0.24795,-0.30993 -0.37191,-0.37191 -0.12397,-0.062 -0.30993,-0.24794 -0.4339,-0.37192 -0.12397,-0.12396 -0.24794,-0.24794 -0.30993,-0.24794 -0.062,-0.0323 -0.18595,-0.12396 -0.30992,-0.24794 -0.062,-0.062 -0.24795,-0.24794 -0.37193,-0.30993 -0.12396,-0.12397 -0.24793,-0.24794 -0.3719,-0.37191 -0.062,-0.12397 -0.18596,-0.18595 -0.18596,-0.18595 -0.0173,-0.002 -0.0372,-0.0236 -0.0453,-0.0452 -0.008,-0.0229 -0.0545,-0.062 -0.12397,-0.12398 -0.24794,-0.24794 -0.49588,-0.67564 -0.49588,-0.88639 -0.006,-0.12397 0.3719,-0.8492 0.55787,-1.17773 0.12396,-0.24794 0.12396,-0.18595 0.66944,-0.24794 0.12397,-0.002 0.30993,-0.009 0.37191,-0.0118 0.062,-0.003 0.18596,0.007 0.24795,0.0236 0.0397,0.0173 0.062,0.0254 0.12397,0.0167 0.0217,-0.006 0.18595,0.002 0.30992,0.018 0.12396,0.0173 0.30993,0.0236 0.30993,0.0149 0.0267,-0.009 0.12396,0.0136 0.24794,0.0515 0.12397,0.0372 0.24795,0.062 0.37192,0.12398 0.062,0.0229 0.30992,0.062 0.49588,0.12397 0.4339,0.12397 1.21491,0.24794 1.48145,0.24794 0.044,0.002 0.18596,0.009 0.30993,0.0118 0.61986,0.026 0.75003,0.003 1.25211,-0.18596 0.24794,-0.062 0.55787,-0.18595 0.61985,-0.24794 0.062,-0.0459 0.18596,-0.12398 0.24793,-0.12398 0.062,-0.0396 0.12398,-0.12396 0.18597,-0.12396 0.0359,-0.0447 0.12396,-0.12398 0.24794,-0.18596 0.18595,-0.12397 0.37192,-0.37191 0.49589,-0.49588 0.0446,-0.062 0.12397,-0.18596 0.18595,-0.18596 0.0527,-0.0527 0.12396,-0.18596 0.24794,-0.30992 0.062,-0.12398 0.12398,-0.24795 0.18595,-0.30993 0.12398,-0.18596 0.30993,-0.75623 0.30993,-0.83061 0,-0.0471 0.0217,-0.18595 0.0484,-0.24794 0.062,-0.24794 0.062,-0.37191 0.0266,-0.8554 -0.0403,-0.37192 -0.062,-0.55787 -0.30993,-1.20252 -0.12397,-0.4339 -0.30993,-0.8802 -0.37191,-1.02276 -0.18597,-0.4339 -0.43391,-1.11574 -0.61985,-1.82857 -0.18597,-0.8678 -0.18597,-0.90499 0.12396,-1.19633 0.30992,-0.30992 0.66945,-0.55787 0.91739,-0.65084 l 0.18595,-0.12397 0.55787,0.30993 c 0.71904,0.37191 1.3079,0.77481 1.61783,1.11573 0.24793,0.24795 0.30993,0.30993 0.49587,0.4339 0.062,0.0539 0.18597,0.18596 0.24795,0.24794 0.062,0.062 0.18596,0.18597 0.30993,0.24794 0.062,0.0539 0.24794,0.18597 0.30993,0.24795 0.18596,0.12397 0.24794,0.18596 0.71903,0.37191 0.4339,0.18596 0.49588,0.18596 0.91738,0.24795 0.61985,0.062 1.00417,0.0341 1.82238,-0.24795 0.49587,-0.12397 0.73143,-0.24794 0.91118,-0.37191 0.12398,-0.062 0.24795,-0.12397 0.30992,-0.18596 0.062,-0.0204 0.30993,-0.24794 0.61986,-0.55787 0.18596,-0.18595 0.43391,-0.55786 0.55788,-0.8492 0.18594,-0.43389 0.24794,-0.55787 0.30992,-0.79342 0.0291,-0.12396 0.062,-0.30992 0.062,-0.30992 0.0112,-0.0471 0.0242,-0.12397 0.0304,-0.18595 0.006,-0.0483 0.0236,-0.12398 0.0403,-0.12398 0.0174,-0.0199 0.0229,-0.062 0.0137,-0.12397 -0.0112,-0.0341 -0.009,-0.12397 0.004,-0.24794 0.013,-0.062 0.0168,-0.18596 0.0105,-0.18596 -0.006,-0.0229 0.013,-0.12397 0.0422,-0.24794 0.0298,-0.12397 0.0496,-0.24794 0.0434,-0.30992 -0.0254,-0.24794 0.009,-0.61986 0.12399,-0.99797 0.0496,-0.24795 0.062,-0.4339 0.12396,-0.55787 0.006,-0.062 0.0335,-0.18595 0.0614,-0.24794 0.0285,-0.0483 0.0564,-0.12398 0.0614,-0.18596 0.0322,-0.30993 0.24795,-0.79961 0.37191,-0.8678 0.12398,-0.0595 0.37191,-0.12396 0.73763,-0.18595 0.37192,-0.0447 0.55787,-0.062 0.66325,-0.062 z m 3.24804,11.4202 c -0.062,0.009 -0.18596,0.0105 -0.24794,0.005 -0.062,-0.003 -0.37193,0.013 -0.61986,0.0391 -0.61985,0.0607 -0.77482,0.062 -0.98557,0.062 -0.12397,6.2e-4 -0.24794,0.018 -0.30993,0.0372 -0.0607,0.0204 -0.18595,0.0353 -0.30992,0.0347 -0.37191,-0.002 -1.98974,0.4339 -2.90712,0.73763 -0.69424,0.24794 -1.68601,0.66324 -2.06412,0.8554 -0.12397,0.062 -0.30993,0.18596 -0.4339,0.18596 -0.12397,0.0471 -0.24794,0.12396 -0.37191,0.24794 -0.12397,0.062 -0.37191,0.24794 -0.55787,0.37191 -0.18595,0.12397 -0.4339,0.30993 -0.49588,0.37191 -0.12397,0.12397 -0.4339,0.37191 -0.55787,0.4339 -0.12397,0.062 -0.4339,0.30993 -0.55787,0.49588 -0.062,0.062 -0.18596,0.18596 -0.24794,0.24795 -0.18596,0.12397 -1.03516,0.99176 -1.14053,1.14053 -0.0477,0.062 -0.12398,0.18596 -0.18596,0.18596 -0.0502,0.0502 -0.12397,0.18595 -0.24795,0.30993 -0.062,0.12396 -0.12397,0.18595 -0.12397,0.18595 -0.0148,0.003 -0.12397,0.12398 -0.24794,0.30993 -0.12397,0.18595 -0.24794,0.37191 -0.30992,0.4339 -0.062,0.062 -0.18596,0.24794 -0.18596,0.37191 -0.0546,0.12397 -0.18596,0.30992 -0.30993,0.49589 -0.24795,0.37191 -0.4339,0.65704 -0.61985,1.04755 -0.12397,0.18595 -0.24795,0.49588 -0.37192,0.66944 -0.12397,0.18595 -0.18595,0.37192 -0.18595,0.4339 -0.0105,0.0576 -0.062,0.18596 -0.12397,0.30992 -0.0614,0.12398 -0.12397,0.24795 -0.12397,0.24795 0.006,0.0173 -0.0422,0.12397 -0.12397,0.30993 -0.062,0.12396 -0.12398,0.30993 -0.12398,0.30993 0.0112,0.0335 9.5e-4,0.062 -0.0192,0.12396 -0.0217,0.0335 -0.0341,0.062 -0.0285,0.12398 0.006,0.0173 -0.0223,0.12396 -0.059,0.24794 -0.0372,0.12397 -0.062,0.30992 -0.12397,0.4339 -0.0242,0.12396 -0.062,0.30993 -0.12397,0.37191 -0.0335,0.062 -0.062,0.30993 -0.12398,0.4339 -0.0217,0.12397 -0.0614,0.30992 -0.062,0.37191 -0.0583,0.12397 -0.12397,0.4339 -0.062,0.49588 0.0174,0.0496 -0.0266,0.49589 -0.062,0.76862 -0.0211,0.12397 -0.0105,0.55787 0.0155,0.63845 0.0248,0.062 0.0378,0.55788 0.0205,0.74383 -0.0124,0.12398 9.4e-4,0.43391 0.0377,0.67564 0.0266,0.18596 0.0465,0.61985 0.0434,0.843 -0.002,0.24794 0.0378,0.49589 0.12396,1.02277 0.0607,0.30993 0.12398,0.65085 0.18596,0.81821 0.12396,0.62605 1.17773,3.434 1.33889,3.59515 0.0446,0.044 0.062,0.12398 0.12397,0.18596 0.0174,0.0527 0.062,0.18595 0.12396,0.24795 0.18597,0.18594 0.43391,0.68184 0.4959,0.76861 0.0266,0.062 0.24794,0.37191 0.43388,0.55788 0.062,0.062 0.18597,0.24793 0.30993,0.43388 0.18597,0.30993 0.24795,0.37192 0.55787,0.68804 0.12397,0.12397 0.24795,0.30993 0.37191,0.37193 0.062,0.12396 0.24795,0.24794 0.30993,0.30992 0.062,0.062 0.18597,0.18595 0.18597,0.18595 0.0173,0.0514 0.12396,0.18596 0.43388,0.37191 0.12398,0.12398 0.24795,0.24794 0.30993,0.30993 0.0508,0.0595 0.12398,0.12397 0.18597,0.18596 0.12396,0.062 0.49587,0.43391 0.49587,0.43391 0.004,0.0143 0.12398,0.062 0.24795,0.18594 0.12398,0.062 0.24794,0.18597 0.24794,0.18597 0.009,0.0285 0.062,0.062 0.18596,0.12396 0.062,0.0421 0.24793,0.12397 0.30993,0.18597 0.4339,0.30992 2.03932,1.17771 2.73976,1.44425 0.18596,0.062 0.49587,0.18596 0.61985,0.24795 0.12396,0.062 0.24794,0.12396 0.30993,0.12396 0.0508,-0.0174 0.30993,0.0409 0.37191,0.062 0.0304,0.0204 0.63845,0.12398 0.66945,0.12398 0.0105,-0.002 0.12396,0.0229 0.18594,0.0589 0.062,0.0353 0.30993,0.062 0.4959,0.12398 0.18595,0.026 0.3719,0.062 0.49588,0.12396 0.12397,0.026 0.24793,0.0446 0.30993,0.0409 0.0583,-0.003 0.30993,0.0285 0.63225,0.062 0.30992,0.0446 0.55787,0.062 0.61985,0.0614 0.0347,-0.0112 0.24795,0.006 0.49589,0.0378 0.24793,0.0316 0.43389,0.0508 0.49587,0.0403 0.031,-0.0112 0.12398,-0.0124 0.12398,-0.003 0.062,0.0149 0.18595,0.009 0.78722,-0.0434 0.12397,-0.0118 0.30993,-0.0223 0.37191,-0.0254 0.062,-0.003 0.30993,-0.0415 0.61986,-0.062 0.24794,-0.0434 0.61985,-0.12396 0.78721,-0.12396 0.18595,-0.029 0.49588,-0.062 0.67565,-0.12397 0.18594,-0.0347 0.43388,-0.062 0.55787,-0.12398 0.30991,-0.0533 1.54342,-0.49588 1.87196,-0.64465 h -0.007 c 0.12398,-0.062 0.4959,-0.24794 0.72523,-0.30993 0.84301,-0.37191 1.43188,-0.68184 1.56204,-0.79341 0.12398,-0.12396 0.4339,-0.30993 0.55787,-0.37191 0.24794,-0.18596 0.65084,-0.43389 0.83681,-0.55787 0.12396,-0.12397 0.30993,-0.24795 0.49588,-0.37191 0.18595,-0.12398 0.37192,-0.24795 0.4339,-0.37191 0.062,-0.062 0.18595,-0.18597 0.24794,-0.24794 0.062,-0.062 0.12397,-0.12397 0.18595,-0.12397 0.0229,-0.009 0.18597,-0.12398 0.30993,-0.30993 0.12398,-0.18596 0.30993,-0.30993 0.30993,-0.30993 0.0452,-0.0143 0.12398,-0.062 0.37191,-0.43391 0.12398,-0.12396 0.24794,-0.30992 0.24794,-0.30992 0.0217,-0.006 0.062,-0.062 0.12398,-0.12396 0.062,-0.12399 0.18595,-0.30993 0.30993,-0.43391 0.0527,-0.0545 0.49587,-0.70664 0.812,-1.20872 0.062,-0.12397 0.55787,-1.07235 0.68185,-1.2583 0.12396,-0.18596 0.24793,-0.61985 0.30993,-0.75622 0.0434,-0.12397 0.12396,-0.24795 0.12396,-0.24795 0.0459,-0.062 0.30992,-0.90499 0.37191,-1.12814 0.026,-0.12396 0.062,-0.24794 0.12398,-0.30992 0.0564,-0.12396 0.24793,-0.93597 0.30993,-1.22111 0.0118,-0.062 0.0521,-0.24795 0.062,-0.37191 0.062,-0.24794 0.12396,-0.55787 0.12396,-0.63226 -0.0143,-0.0446 0.062,-0.68184 0.12398,-0.75003 0.0118,-0.0229 0.0118,-0.062 -0.003,-0.12397 -0.0229,-0.062 -0.0149,-0.24794 0.0199,-0.55787 0.0204,-0.18594 0.0204,-0.43389 0.006,-0.65704 -0.009,-0.12397 -0.026,-0.30993 -0.0372,-0.49589 -0.0118,-0.12397 -0.0285,-0.37191 -0.036,-0.4339 -0.009,-0.12397 -0.008,-0.24794 0,-0.24794 0.0391,-0.12396 -0.0242,-0.55786 -0.24794,-1.74179 -0.12396,-0.49588 -0.43389,-1.56822 -0.74382,-2.29346 -0.12397,-0.30993 -0.37191,-0.84919 -0.49589,-1.22731 -0.30993,-0.73763 -0.49587,-1.20252 -0.65704,-1.47526 -0.0521,-0.062 -0.12397,-0.24794 -0.18596,-0.3719 -0.0533,-0.12398 -0.12397,-0.24795 -0.18595,-0.30993 -0.0533,-0.0589 -0.12398,-0.18596 -0.24795,-0.30993 -0.12397,-0.18596 -0.18596,-0.30993 -0.3719,-0.49589 -0.18597,-0.24794 -0.37192,-0.43389 -0.43391,-0.55787 -0.0366,-0.062 -0.062,-0.12397 -0.12397,-0.12397 -0.0223,0 -0.0508,-0.031 -0.062,-0.062 -0.013,-0.0378 -0.12398,-0.12397 -0.18596,-0.18595 -0.12396,-0.062 -0.18596,-0.18595 -0.18596,-0.18595 -0.007,-0.0204 -0.062,-0.12398 -0.18596,-0.18597 -0.12397,-0.062 -0.30992,-0.24794 -0.43389,-0.43389 -0.24794,-0.24795 -0.37192,-0.37191 -0.93598,-0.80582 -0.18595,-0.18595 -0.4339,-0.30992 -0.4339,-0.37191 -0.0391,-0.0366 -0.12397,-0.12397 -0.24795,-0.18595 -0.12396,-0.0539 -0.30992,-0.18596 -0.49588,-0.30993 -0.4339,-0.24794 -1.05995,-0.64465 -1.2955,-0.77482 -0.12397,-0.0552 -0.24793,-0.12397 -0.37191,-0.18596 -0.062,-0.062 -0.18594,-0.12396 -0.18594,-0.12396 -0.0155,0.003 -0.12399,-0.0421 -0.24796,-0.12398 -0.66944,-0.30993 -1.40707,-0.61985 -1.83477,-0.70043 -0.12397,-0.0229 -0.24794,-0.0614 -0.30992,-0.062 -0.12398,-0.0583 -0.49589,-0.12398 -0.61986,-0.12398 -0.0546,9.5e-4 -0.18595,-0.0236 -0.30993,-0.0539 -0.12397,-0.0309 -0.3719,-0.062 -0.55787,-0.12397 -0.18595,-0.0236 -0.37191,-0.0614 -0.43388,-0.062 -0.0508,-0.0229 -0.18597,-0.0484 -0.30993,-0.0571 -0.12398,-0.009 -0.37192,-0.0323 -0.49589,-0.0539 -0.30993,-0.0421 -0.91118,-0.062 -0.96697,-0.0614 -0.0192,0.006 -0.062,0.002 -0.12398,-0.009 -0.062,-0.0118 -0.18595,-0.0105 -0.24794,-0.002 z"
       id="path826"
       inkscape:connector-curvature="0" />
    <path
       style="opacity:0.79820628;fill:#000000;fill-opacity:1;stroke-width:0.03745269;stroke-miterlimit:4;stroke-dasharray:none;paint-order:markers stroke fill"
       d=""
       id="path1384"
       inkscape:connector-curvature="0" />
    <path
       style="opacity:0.79820628;fill:#000000;fill-opacity:1;stroke-width:0.03745269;stroke-miterlimit:4;stroke-dasharray:none;paint-order:markers stroke fill"
       d=""
       id="path1388"
       inkscape:connector-curvature="0" />
    <path
       style="opacity:0.79820628;fill:#000000;fill-opacity:1;stroke-width:0.03745269;stroke-miterlimit:4;stroke-dasharray:none;paint-order:markers stroke fill"
       d=""
       id="path1406"
       inkscape:connector-curvature="0" />
    <path
       style="opacity:0.79820628;fill:#000000;fill-opacity:1;stroke-width:0.03745269;stroke-miterlimit:4;stroke-dasharray:none;paint-order:markers stroke fill"
       d="m -1.7538329,109.94277 c 0,-0.094 0.2966243,-0.14137 0.349504,-0.0558 0.03221,0.0521 -0.033248,0.0948 -0.1454679,0.0948 -0.1122204,0 -0.2040361,-0.0175 -0.2040361,-0.0389 z"
       id="path1386"
       inkscape:connector-curvature="0" />
  </g>
</svg>
