<?xml version="1.0" encoding="UTF-8" standalone="no"?>
<!-- Created with Inkscape (http://www.inkscape.org/) -->

<svg
   xmlns:dc="http://purl.org/dc/elements/1.1/"
   xmlns:cc="http://creativecommons.org/ns#"
   xmlns:rdf="http://www.w3.org/1999/02/22-rdf-syntax-ns#"
   xmlns:svg="http://www.w3.org/2000/svg"
   xmlns="http://www.w3.org/2000/svg"
   xmlns:sodipodi="http://sodipodi.sourceforge.net/DTD/sodipodi-0.dtd"
   xmlns:inkscape="http://www.inkscape.org/namespaces/inkscape"
   width="210mm"
   height="210mm"
   viewBox="0 0 210 210"
   version="1.1"
   id="svg8"
   inkscape:version="0.92.3 (2405546, 2018-03-11)"
   sodipodi:docname="sprite.svg">
  <defs
     id="defs2">
    <inkscape:perspective
       sodipodi:type="inkscape:persp3d"
       inkscape:vp_x="0 : 148.5 : 1"
       inkscape:vp_y="0 : 1000 : 0"
       inkscape:vp_z="210 : 148.5 : 1"
       inkscape:persp3d-origin="105 : 99 : 1"
       id="perspective4539" />
  </defs>
  <sodipodi:namedview
     id="base"
     pagecolor="#ffffff"
     bordercolor="#666666"
     borderopacity="1.0"
     inkscape:pageopacity="0.0"
     inkscape:pageshadow="2"
     inkscape:zoom="0.92720051"
     inkscape:cx="431.46191"
     inkscape:cy="399.83677"
     inkscape:document-units="mm"
     inkscape:current-layer="layer1"
     showgrid="false"
     showguides="true"
     inkscape:guide-bbox="true"
     inkscape:window-width="1920"
     inkscape:window-height="1057"
     inkscape:window-x="1912"
     inkscape:window-y="-8"
     inkscape:window-maximized="1"
     inkscape:snap-global="false" />
  <metadata
     id="metadata5">
    <rdf:RDF>
      <cc:Work
         rdf:about="">
        <dc:format>image/svg+xml</dc:format>
        <dc:type
           rdf:resource="http://purl.org/dc/dcmitype/StillImage" />
        <dc:title></dc:title>
      </cc:Work>
    </rdf:RDF>
  </metadata>
  <g
     inkscape:label="Layer 1"
     inkscape:groupmode="layer"
     id="layer1"
     transform="translate(0,-87)">
    <path
       style="fill:#cccccc;fill-opacity:1;stroke-width:0.26682004"
       d="M 209.10545,191.77151 A 104.10545,103.75775 0 0 1 105,295.52926 104.10545,103.75775 0 0 1 0.89454569,191.77151 104.10545,103.75775 0 0 1 105,88.01378 104.10545,103.75775 0 0 1 209.10545,191.77151 Z"
       id="path4862"
       inkscape:connector-curvature="0" />
    <path
       style="fill:#0000ff;fill-opacity:1;stroke-width:0.26106542"
       d="m 75.207746,257.17308 c -14.279396,0 -26.447846,7.00012 -32.42654,17.85844 a 104.10545,103.75775 0 0 0 62.218444,20.72601 104.10545,103.75775 0 0 0 61.92936,-20.49724 c 1.3534,2.29892 2.41463,4.72764 3.13678,7.23134 -3.9739,-13.79621 -18.21577,-25.31855 -35.27353,-25.31855 z m -32.42654,17.85844 c -0.921451,1.67354 -1.695967,3.43853 -2.30829,5.28393 0.612771,-1.84519 1.386774,-3.61039 2.30829,-5.28393 z m -2.314031,5.3018 c -0.09055,0.27346 -0.17771,0.54878 -0.2611,0.82573 0.08346,-0.27694 0.170472,-0.55227 0.2611,-0.82573 z m -0.316331,1.0123 c -0.07425,0.25216 -0.145506,0.50571 -0.213759,0.76069 0.0683,-0.25487 0.139464,-0.5086 0.213759,-0.76069 z m -0.250341,0.89507 c -0.07405,0.28154 -0.14423,0.5645 -0.210888,0.84935 0.06672,-0.28483 0.136766,-0.56784 0.210888,-0.84935 z m 130.166027,0.25523 c 0.0848,0.29448 0.16409,0.59005 0.23957,0.88649 -0.0754,-0.29659 -0.15477,-0.59187 -0.23957,-0.88649 z m -130.396281,0.67347 c -0.144819,0.62606 -0.271806,1.26022 -0.380173,1.90166 0.108506,-0.6414 0.235201,-1.27567 0.380173,-1.90166 z m 130.666691,0.33529 c 0.0664,0.26592 0.1284,0.53261 0.1872,0.79996 -0.0586,-0.26731 -0.12091,-0.53408 -0.1872,-0.79996 z m 0.21735,0.9358 c 0.0574,0.26763 0.11035,0.53605 0.15994,0.80498 -0.0496,-0.2689 -0.10257,-0.53738 -0.15994,-0.80498 z m -131.286448,0.7728 c -0.04281,0.26036 -0.08311,0.5215 -0.119791,0.78426 0.03673,-0.26271 0.07694,-0.52398 0.119791,-0.78426 z m 131.469348,0.15158 c 0.0558,0.31008 0.10688,0.62137 0.15208,0.93295 -0.0451,-0.31179 -0.0963,-0.62263 -0.15208,-0.93295 z m 0.15208,0.93295 c 0.0428,0.29448 0.0794,0.58943 0.11257,0.88507 -0.033,-0.29547 -0.0699,-0.59075 -0.11257,-0.88507 z m -131.775653,-0.0422 c -0.03029,0.23024 -0.05837,0.46143 -0.08392,0.69346 0.02561,-0.2321 0.05358,-0.46315 0.08392,-0.69346 z m -0.116196,1.00301 c -0.02127,0.21131 -0.04078,0.42354 -0.0581,0.63627 0.01735,-0.21273 0.0368,-0.42496 0.0581,-0.63627 z m 132.028829,0.163 c 0.0225,0.21775 0.0423,0.43587 0.0595,0.65417 -0.0173,-0.21837 -0.0371,-0.43631 -0.0595,-0.65417 z m -132.11347,0.80647 c -0.01688,0.23619 -0.03036,0.47339 -0.04232,0.71131 0.01194,-0.23787 0.02543,-0.47514 0.04232,-0.71131 z m 132.19453,0.13364 c 0.0143,0.2093 0.0258,0.41871 0.0351,0.62841 -0.01,-0.2097 -0.0209,-0.41911 -0.0351,-0.62841 z m -132.249763,0.83144 c -0.01393,0.32537 -0.02474,0.65171 -0.02941,0.98013 0.0048,-0.32829 0.01546,-0.65491 0.02941,-0.98013 z m 132.297843,0.0929 c 0.01,0.29563 0.0159,0.59169 0.0159,0.88793 v 5.81222 h 7.1e-4 v -5.81296 c 0,-0.29608 -0.007,-0.59171 -0.0166,-0.88719 z"
       id="path4876"
       inkscape:connector-curvature="0" />
    <path
       sodipodi:nodetypes="cssccccccsccscc"
       inkscape:connector-curvature="0"
       d="m 60.822144,258.0176 c 1.432776,1.01261 3.730766,4.53559 7.394011,6.28314 3.39071,1.61752 6.898376,1.88958 11.575896,3.08972 12.099861,3.10456 23.488829,9.78378 23.488829,9.78378 l 22.00805,-7.9548 c 7.26385,-2.34628 11.76193,-3.62083 17.37578,-7.07371 5.61385,-3.45287 9.20596,-4.88881 9.20596,-4.88881 z m 43.610676,-24.33303 c -21.814717,-2e-5 -39.396844,6.04546 -42.417439,19.5187 -0.277619,1.23833 -1.193201,3.46488 -1.193237,4.81433 28.709727,0.58867 62.315636,-0.82695 91.048526,-0.76068 0.0202,-2.12383 -2.58855,-5.57179 -2.58855,-5.57179 -2.33256,-8.26644 -34.63785,-18.02488 -44.84934,-18.00056 z"
       style="fill:#000080;fill-opacity:1;stroke-width:0.20628262"
       id="path4844" />
    <path
       id="ellipse4781"
       style="fill:#0000b2;fill-opacity:1;stroke-width:0.20045111"
       d="m 60.822144,258.0176 c 1.457161,0.94017 3.619222,4.30047 7.344812,5.923 3.448415,1.50182 7.015776,1.75439 11.772901,2.86869 12.305786,2.88244 23.888593,9.08381 23.888593,9.08381 l 22.38259,-7.38569 c 7.38748,-2.17843 11.96209,-3.36178 17.67148,-6.56764 5.70941,-3.20587 7.98815,-4.68285 7.98815,-4.68285 l -9.28601,-0.35575 z M 105,235.51474 c -22.185996,-1e-5 -40.067347,5.61296 -43.139347,18.12232 -0.282345,1.14973 -1.038471,3.12763 -1.038509,4.38054 29.19833,0.54656 61.826626,-0.82222 91.048526,-0.76068 0.0205,-1.9719 -1.2581,-5.02941 -1.2581,-5.02941 -2.37228,-7.67504 -35.22736,-16.73536 -45.61263,-16.71277 z"
       inkscape:connector-curvature="0"
       sodipodi:nodetypes="csscccccccsccscc" />
    <path
       inkscape:connector-curvature="0"
       id="path4842"
       d="m 77.252763,261.43263 c 1.883143,5.24409 13.720016,9.15886 27.727347,9.17016 14.02256,-0.004 26.52487,-3.64585 28.41008,-8.89564 l -0.6602,-2.18024 -1.59924,-1.20557 -51.508329,0.54904 -1.611262,0.948 z"
       style="fill:#000000;fill-opacity:1;stroke-width:0.45812541"
       sodipodi:nodetypes="cccccccc" />
    <path
       style="fill:#e2b193;fill-opacity:1;stroke-width:0.40973499"
       d="m 130.63587,240.82942 c -7.92441,4.7124 -16.75058,7.34033 -26.06844,7.34033 -8.980102,0 -17.503457,-2.44169 -25.203302,-6.83668 l 3.85e-4,21.47219 0.07141,0.12852 51.131087,9.9e-4 0.0687,-0.13017 z"
       id="rect4754"
       inkscape:connector-curvature="0"
       sodipodi:nodetypes="cscccccc" />
    <path
       style="fill:#e9c6af;stroke-width:0.31956485"
       d="m 105,120.04024 c -38.449606,0 -69.403695,25.97411 -69.403695,58.23805 v 12.9313 a 10.758697,9.9832623 0 0 0 -9.030171,9.85004 10.758697,9.9832623 0 0 0 9.35726,9.88722 C 39.306775,240.52411 68.83602,263.50279 105,263.50279 c 36.29864,0 65.91223,-23.15046 69.11247,-52.88695 a 10.758697,9.9832623 0 0 0 9.32141,-9.8822 10.758697,9.9832623 0 0 0 -9.03018,-9.84146 v -12.61389 c 0,-32.26394 -30.95409,-58.23805 -69.4037,-58.23805 z"
       id="rect4536"
       inkscape:connector-curvature="0" />
    <path
       style="fill:#000000;stroke-width:0.31956485"
       d="m 104.99964,120.03995 c -38.449611,0 -69.40298,25.97412 -69.40298,58.23807 v 12.79804 h 138.80668 v -12.79804 c 0,-32.26395 -30.95409,-58.23807 -69.4037,-58.23807 z"
       id="rect4557"
       inkscape:connector-curvature="0"
       sodipodi:nodetypes="ssccss" />
    <path
       style="fill:#1a1a1a;fill-opacity:1;stroke-width:0.59859174"
       d="m 145.19513,175.3436 a 27.148373,36.87001 5.2021036 0 0 -6.52535,0.77926 31.171668,36.945281 0 0 0 -3.71205,-0.30955 31.171668,36.945281 0 0 0 -22.76158,11.77028 52.4746,50.02022 0 0 1 4.8282,-0.2545 52.4746,50.02022 0 0 1 48.66206,31.36885 31.171668,36.945281 0 0 0 0.31132,-3.08984 50.107056,45.529604 85.693264 0 1 2.13112,7.36643 27.148373,36.87001 5.2021036 0 0 1.22587,-5.78791 27.148373,36.87001 5.2021036 0 0 -21.46395,-41.52488 27.148373,36.87001 5.2021036 0 0 -2.69564,-0.31814 z"
       id="circle4710"
       inkscape:connector-curvature="0" />
    <path
       style="fill:#ffffff;stroke-width:0.32051992"
       d="m 79.632747,141.2761 a 34.701816,34.585915 0 0 0 -34.70185,34.58595 34.701816,34.585915 0 0 0 3.585097,15.21401 H 161.43724 a 34.701816,34.585915 0 0 0 3.56214,-15.21401 34.701816,34.585915 0 0 0 -34.70186,-34.58595 34.701816,34.585915 0 0 0 -25.32161,11.00033 34.701816,34.585915 0 0 0 -25.343163,-11.00033 z"
       id="path4583"
       inkscape:connector-curvature="0" />
    <g
       transform="matrix(2.2671764,0,0,2.3649525,44.019678,-143.64523)"
       id="g4920">
      <path
         style="fill:#241c1c;stroke-width:0.26458332"
         d="m 45.168844,131.56015 a 3.4745038,3.4745038 0 0 1 -3.474504,3.4745 3.4745038,3.4745038 0 0 1 -3.474504,-3.4745 3.4745038,3.4745038 0 0 1 3.474504,-3.4745 3.4745038,3.4745038 0 0 1 3.474504,3.4745 z"
         id="circle4918"
         inkscape:connector-curvature="0" />
    </g>
    <g
       id="g4619"
       transform="matrix(2.2671764,0,0,2.3649525,-22.558469,-143.64523)">
      <path
         style="fill:#241c1c;stroke-width:0.26458332"
         d="m 45.168844,131.56015 a 3.4745038,3.4745038 0 0 1 -3.474504,3.4745 3.4745038,3.4745038 0 0 1 -3.474504,-3.4745 3.4745038,3.4745038 0 0 1 3.474504,-3.4745 3.4745038,3.4745038 0 0 1 3.474504,3.4745 z"
         id="path4616"
         inkscape:connector-curvature="0" />
    </g>
    <g
       style="fill:#ffffff"
       id="g4924"
       transform="matrix(1.1643525,0,0,1.2145674,87.797623,5.1667405)">
      <path
         style="fill:#ffffff;stroke-width:0.26458332"
         d="m 45.168844,131.56015 a 3.4745038,3.4745038 0 0 1 -3.474504,3.4745 3.4745038,3.4745038 0 0 1 -3.474504,-3.4745 3.4745038,3.4745038 0 0 1 3.474504,-3.4745 3.4745038,3.4745038 0 0 1 3.474504,3.4745 z"
         id="circle4922"
         inkscape:connector-curvature="0" />
    </g>
    <path
       style="fill:#a05a2c;fill-opacity:1;stroke-width:0.36664706"
       d="m 66.828297,196.63778 a 13.880727,13.834366 0 0 0 -13.880598,13.83425 13.880727,13.834366 0 0 0 0.02151,0.61553 14.367023,13.834366 0 0 1 13.859079,-10.24968 14.367023,13.834366 0 0 1 13.853337,10.17677 13.880727,13.834366 0 0 0 0.02727,-0.54262 A 13.880727,13.834366 0 0 0 66.8283,196.63778 Z"
       id="path4675"
       inkscape:connector-curvature="0" />
    <path
       inkscape:connector-curvature="0"
       id="path4682"
       d="m 140.15481,196.63778 a 13.880727,13.834366 0 0 0 -13.88058,13.83425 13.880727,13.834366 0 0 0 0.0215,0.61553 14.367023,13.834366 0 0 1 13.85907,-10.24968 14.367023,13.834366 0 0 1 13.85334,10.17677 13.880727,13.834366 0 0 0 0.0272,-0.54262 13.880727,13.834366 0 0 0 -13.88061,-13.83425 z"
       style="fill:#a05a2c;fill-opacity:1;stroke-width:0.36664706" />
    <path
       style="fill:#333333;fill-opacity:1;stroke-width:0.4615618"
       d="m 89.117958,183.05509 c -28.323064,0 -51.439479,-3.51148 -51.439479,8.07102 0,3.06807 1.613353,5.97457 4.491998,8.59445 11.844588,-12.4526 62.780943,-7.70849 62.780943,-7.70849 0,0 51.49881,-5.02253 63.53842,7.0928 2.46831,-2.45644 3.83168,-5.15001 3.83168,-7.97876 0,-11.5825 -22.48747,-8.07102 -50.81052,-8.07102 z"
       id="rect4694"
       inkscape:connector-curvature="0"
       sodipodi:nodetypes="sscccsss" />
    <path
       style="fill:#ffdd55;fill-opacity:1;stroke-width:0.36664706"
       d="m 71.934966,182.72035 33.065314,0.1972 32.13464,-0.12271 c -10.66647,2.73677 -21.36699,5.29362 -32.13464,7.59327"
       id="path4701"
       inkscape:connector-curvature="0"
       sodipodi:nodetypes="cccc" />
    <path
       style="fill:#a05a2c;fill-opacity:1;stroke-width:0.23167609"
       d="m 134.09515,231.81211 c -0.41365,0.0255 -0.83333,0.0381 -1.2566,0.0421 0.0793,0.35647 0.12508,0.7192 0.12508,1.08883 0,4.57094 -5.6285,8.29695 -13.37418,8.25098 l -27.355876,-0.16284 c -7.745663,-0.046 -15.197215,-3.5172 -15.197215,-8.08814 0,-0.36832 0.04466,-0.73015 0.123205,-1.08544 h -1.264609 c -0.0827,0.39045 -0.129438,0.7883 -0.129438,1.19312 0,5.00469 7.79003,8.805 15.887771,8.85543 l 28.599522,0.17822 c 8.0977,0.0504 13.9817,-4.02896 13.9817,-9.03365 0,-0.42055 -0.0501,-0.83356 -0.13923,-1.23853 z"
       id="rect4732"
       inkscape:connector-curvature="0" />
    <path
       style="fill:#ffd42a;fill-opacity:1;stroke-width:0.36374798"
       d="M 137.13677,182.79509 105,182.91545 l 4.2092,-0.004 -4.20892,7.35635 -2.8e-4,-3e-5 c 10.76814,-2.26332 21.46979,-4.77958 32.13677,-7.47312 z"
       id="path4734"
       inkscape:connector-curvature="0"
       sodipodi:nodetypes="ccccccc" />
    <path
       inkscape:connector-curvature="0"
       id="path4750"
       d="m 105.00004,217.67314 a 3.9758137,4.4142908 0 0 0 -3.97577,4.41426 3.9758137,4.4142908 0 0 0 0.006,0.19641 4.1151019,4.4142908 0 0 1 3.96961,-3.27049 4.1151019,4.4142908 0 0 1 3.96797,3.24722 3.9758137,4.4142908 0 0 0 0.008,-0.17314 3.9758137,4.4142908 0 0 0 -3.97577,-4.41426 z"
       style="fill:#a05a2c;fill-opacity:1;stroke-width:0.11084241" />
    <path
       style="fill:#e9c6af;fill-opacity:1;stroke-width:0.36858714"
       d="m 79.364513,262.80526 a 25.907633,7.4228463 0 0 0 25.617127,6.4249 25.907633,7.4228463 0 0 0 25.6541,-6.4249 z"
       id="rect4822"
       inkscape:connector-curvature="0" />
    <g
       transform="matrix(1.1643525,0,0,1.2145674,21.219476,5.1667405)"
       id="g4964"
       style="fill:#ffffff">
      <path
         style="fill:#ffffff;stroke-width:0.26458332"
         d="m 45.168844,131.56015 a 3.4745038,3.4745038 0 0 1 -3.474504,3.4745 3.4745038,3.4745038 0 0 1 -3.474504,-3.4745 3.4745038,3.4745038 0 0 1 3.474504,-3.4745 3.4745038,3.4745038 0 0 1 3.474504,3.4745 z"
         id="circle4962"
         inkscape:connector-curvature="0" />
    </g>
    <path
       style="fill:#e2b193;fill-opacity:1;stroke-width:0.21027637"
       d="m 178.27967,197.08508 a 6.6624201,6.4180705 0 0 1 1.34202,3.83711 6.6624201,6.4180705 0 0 1 -5.12435,6.22098 7.6974126,6.0415768 0 0 0 5.96497,-5.86447 7.6974126,6.0415768 0 0 0 -2.18264,-4.19362 z"
       id="path4995"
       inkscape:connector-curvature="0" />
    <path
       inkscape:connector-curvature="0"
       id="path5041"
       d="m 31.914401,197.08508 a 6.6624201,6.4180705 0 0 0 -1.342017,3.83711 6.6624201,6.4180705 0 0 0 5.124347,6.22098 7.6974126,6.0415768 0 0 1 -5.964964,-5.86447 7.6974126,6.0415768 0 0 1 2.182634,-4.19362 z"
       style="fill:#e2b193;fill-opacity:1;stroke-width:0.21027637" />
  </g>
  <g
     inkscape:groupmode="layer"
     id="layer2"
     inkscape:label="Layer 2"
     transform="translate(0,-87)" />
</svg>
