<?xml version="1.0" encoding="UTF-8" standalone="no"?>
<!-- Created with Inkscape (http://www.inkscape.org/) -->

<svg
   xmlns:dc="http://purl.org/dc/elements/1.1/"
   xmlns:cc="http://creativecommons.org/ns#"
   xmlns:rdf="http://www.w3.org/1999/02/22-rdf-syntax-ns#"
   xmlns:svg="http://www.w3.org/2000/svg"
   xmlns="http://www.w3.org/2000/svg"
   xmlns:sodipodi="http://sodipodi.sourceforge.net/DTD/sodipodi-0.dtd"
   xmlns:inkscape="http://www.inkscape.org/namespaces/inkscape"
   width="20in"
   height="20in"
   viewBox="0 0 508.00001 508.00001"
   version="1.1"
   id="svg8"
   inkscape:version="0.92.3 (2405546, 2018-03-11)"
   sodipodi:docname="sprite2.svg">
  <defs
     id="defs2" />
  <sodipodi:namedview
     id="base"
     pagecolor="#ffffff"
     bordercolor="#666666"
     borderopacity="1.0"
     inkscape:pageopacity="0.0"
     inkscape:pageshadow="2"
     inkscape:zoom="0.23180013"
     inkscape:cx="-266.98652"
     inkscape:cy="708.93303"
     inkscape:document-units="mm"
     inkscape:current-layer="layer1"
     showgrid="false"
     showguides="true"
     inkscape:guide-bbox="true"
     inkscape:window-width="1920"
     inkscape:window-height="1057"
     inkscape:window-x="1912"
     inkscape:window-y="-8"
     inkscape:window-maximized="1"
     inkscape:snap-global="false"
     units="in" />
  <metadata
     id="metadata5">
    <rdf:RDF>
      <cc:Work
         rdf:about="">
        <dc:format>image/svg+xml</dc:format>
        <dc:type
           rdf:resource="http://purl.org/dc/dcmitype/StillImage" />
        <dc:title></dc:title>
      </cc:Work>
    </rdf:RDF>
  </metadata>
  <g
     inkscape:label="Layer 1"
     inkscape:groupmode="layer"
     id="layer1"
     transform="translate(0,211.00001)">
    <path
       style="fill:#cccccc;fill-opacity:1;stroke-width:0.63508534"
       d="M 501.65,42.455828 A 247.64999,247.10588 0 0 1 254,289.56171 247.64999,247.10588 0 0 1 6.3499978,42.455828 247.64999,247.10588 0 0 1 254,-204.65001 247.64999,247.10588 0 0 1 501.65,42.455828 Z"
       id="path4862"
       inkscape:connector-curvature="0" />
    <path
       style="fill:#0000ff;fill-opacity:1;stroke-width:0.62138826"
       d="m 183.12905,198.21395 c -33.96835,0 -62.91515,16.67126 -77.13747,42.53103 a 247.64999,247.10588 0 0 0 148.00757,49.36035 247.64999,247.10588 0 0 0 147.31989,-48.8155 c 3.21952,5.47502 5.74405,11.25919 7.46192,17.2219 -9.45325,-32.85655 -43.33235,-60.29778 -83.91,-60.29778 z m -77.13747,42.53103 c -2.19199,3.98564 -4.03444,8.18911 -5.49106,12.58405 1.45769,-4.39442 3.29891,-8.59841 5.49106,-12.58405 z m -5.50471,12.6266 c -0.21541,0.65126 -0.42275,1.30696 -0.62112,1.96655 0.19854,-0.65956 0.40553,-1.31529 0.62112,-1.96655 z m -0.752504,2.41087 c -0.176628,0.60054 -0.346136,1.20436 -0.508497,1.81164 0.162471,-0.60701 0.331759,-1.21128 0.508497,-1.81164 z m -0.595521,2.13168 c -0.176154,0.6705 -0.343102,1.34436 -0.501666,2.02275 0.158715,-0.67834 0.325341,-1.35233 0.501666,-2.02275 z m 309.643875,0.60783 c 0.2017,0.70131 0.39035,1.40523 0.56991,2.11122 -0.17936,-0.70636 -0.36821,-1.40957 -0.56991,-2.11122 z m -310.191611,1.60389 c -0.344499,1.49103 -0.646582,3.0013 -0.904369,4.52895 0.258117,-1.52755 0.559501,-3.03809 0.904369,-4.52895 z m 310.834861,0.79854 c 0.15796,0.63329 0.30543,1.26842 0.44534,1.90516 -0.13942,-0.63664 -0.28765,-1.27196 -0.44534,-1.90516 z m 0.51705,2.22866 c 0.13655,0.63738 0.26249,1.27663 0.38048,1.91712 -0.11802,-0.64042 -0.244,-1.27982 -0.38048,-1.91712 z m -312.309172,1.84047 c -0.10184,0.62006 -0.197705,1.24198 -0.284965,1.86776 0.08736,-0.62566 0.18303,-1.24789 0.284965,-1.86776 z m 312.744272,0.361 c 0.13274,0.73846 0.25422,1.47983 0.36175,2.22191 -0.10729,-0.74259 -0.22906,-1.48286 -0.36175,-2.22191 z m 0.36175,2.22191 c 0.10182,0.7013 0.18887,1.40376 0.2678,2.10785 -0.0785,-0.70368 -0.16629,-1.40694 -0.2678,-2.10785 z M 97.266969,267.4759 c -0.07205,0.54834 -0.138853,1.09895 -0.199631,1.65151 0.06093,-0.55273 0.127457,-1.103 0.199631,-1.65151 z m -0.276409,2.38873 c -0.0506,0.50325 -0.097,1.0087 -0.138209,1.51532 0.04128,-0.50662 0.08754,-1.01207 0.138209,-1.51532 z m 314.07517,0.3882 c 0.0534,0.51858 0.10065,1.03807 0.14157,1.55795 -0.0412,-0.52005 -0.0881,-1.0391 -0.14157,-1.55795 z m -314.27652,1.92066 c -0.04013,0.56252 -0.07222,1.12742 -0.100668,1.69402 0.02838,-0.56648 0.06049,-1.13155 0.100668,-1.69402 z m 314.46934,0.31828 c 0.0339,0.49844 0.0615,0.99721 0.0836,1.49658 -0.0239,-0.49937 -0.0495,-0.99814 -0.0836,-1.49658 z m -314.600729,1.9801 c -0.03314,0.77491 -0.05886,1.55214 -0.06996,2.33425 0.01141,-0.78184 0.03677,-1.5597 0.06996,-2.33425 z m 314.715139,0.22127 c 0.0239,0.70407 0.0378,1.40913 0.0378,2.11469 v 13.84216 h 0.002 v -13.84397 c 0,-0.70511 -0.0166,-1.40918 -0.0395,-2.11288 z"
       id="path4876"
       inkscape:connector-curvature="0" />
    <path
       sodipodi:nodetypes="cssccccccsccscc"
       inkscape:connector-curvature="0"
       d="m 148.90803,200.22525 c 3.40833,2.41158 8.87489,10.80177 17.58915,14.96369 8.06597,3.85221 16.41014,4.50015 27.53717,7.35835 28.78364,7.39375 55.87613,23.30072 55.87613,23.30072 l 52.35359,-18.94485 c 17.27953,-5.58784 27.9797,-8.62325 41.33416,-16.84651 13.35441,-8.22324 21.89947,-11.64301 21.89947,-11.64301 z m 103.74275,-57.95072 c -51.89369,-5e-5 -93.71871,14.39768 -100.9042,46.48504 -0.66045,2.94918 -2.83847,8.25187 -2.83855,11.46568 68.29581,1.40195 148.23879,-1.96944 216.58967,-1.81161 0.0483,-5.05804 -6.15774,-13.26958 -6.15774,-13.26958 -5.54876,-19.68707 -82.39779,-42.92744 -106.68928,-42.86953 z"
       style="fill:#000080;fill-opacity:1;stroke-width:0.4909941"
       id="path4844" />
    <path
       id="ellipse4781"
       style="fill:#0000b2;fill-opacity:1;stroke-width:0.47711399"
       d="m 148.90803,200.22525 c 3.46638,2.23904 8.60955,10.24181 17.47212,14.106 8.20321,3.5767 16.68937,4.17818 28.00582,6.83196 29.27347,6.86473 56.82709,21.6337 56.82709,21.6337 l 53.24455,-17.58952 c 17.57363,-5.18805 28.45586,-8.00629 42.03758,-15.64128 13.58176,-7.63495 19.00251,-11.15247 19.00251,-11.15247 l -22.08988,-0.84727 z M 254,146.63321 c -52.77689,-3e-5 -95.31372,13.36764 -102.62154,43.15949 -0.67162,2.73816 -2.47034,7.44865 -2.47043,10.43255 69.45812,1.30164 147.07554,-1.95818 216.58967,-1.81161 0.0488,-4.69623 -2.99281,-11.9779 -2.99281,-11.9779 -5.64327,-18.27859 -83.80015,-39.85636 -108.50504,-39.80253 z"
       inkscape:connector-curvature="0"
       sodipodi:nodetypes="csscccccccsccscc" />
    <path
       inkscape:connector-curvature="0"
       id="path4842"
       d="m 187.9938,208.35836 c 4.47971,12.48913 32.63771,21.81242 65.95887,21.83932 33.35742,-0.01 63.09838,-8.68282 67.58298,-21.18552 l -1.57053,-5.19242 -3.80433,-2.87112 -122.52996,1.30756 -3.83292,2.25771 z"
       style="fill:#000000;fill-opacity:1;stroke-width:1.09043086"
       sodipodi:nodetypes="cccccccc" />
    <path
       style="fill:#e2b193;fill-opacity:1;stroke-width:0.97525185"
       d="m 314.98356,159.29046 c -18.85089,11.22291 -39.84693,17.48147 -62.01261,17.48147 -21.3622,0 -41.63787,-5.81505 -59.95457,-16.28199 l 9.4e-4,51.1374 0.16988,0.30607 121.63256,0.002 0.16341,-0.31 z"
       id="rect4754"
       inkscape:connector-curvature="0"
       sodipodi:nodetypes="cscccccc" />
    <path
       style="fill:#e9c6af;stroke-width:0.7606287"
       d="m 254,-128.37688 c -91.4654,0 -165.100142,61.85903 -165.100142,138.697717 V 41.117575 A 25.593197,23.775794 0 0 0 67.418541,64.576091 25.593197,23.775794 0 0 0 89.677945,88.123155 C 97.726463,158.56335 167.97175,213.2886 254,213.2886 c 86.34855,0 156.79449,-55.13434 164.40734,-125.953766 A 25.593197,23.775794 0 0 0 440.58148,63.799728 25.593197,23.775794 0 0 0 419.10014,40.361644 V 10.320837 C 419.10014,-66.51785 345.46536,-128.37688 254,-128.37688 Z"
       id="rect4536"
       inkscape:connector-curvature="0" />
    <path
       style="fill:#000000;stroke-width:0.7606287"
       d="m 253.99912,-128.37758 c -91.46536,0 -165.098421,61.859061 -165.098421,138.697776 V 40.799565 H 419.09927 V 10.320196 c 0,-76.838715 -73.63474,-138.697776 -165.10015,-138.697776 z"
       id="rect4557"
       inkscape:connector-curvature="0"
       sodipodi:nodetypes="ssccss" />
    <path
       style="fill:#1a1a1a;fill-opacity:1;stroke-width:1.42476904"
       d="M 349.61769,3.3316813 A 64.582183,87.807522 5.1822043 0 0 334.09492,5.18754 74.152344,87.987607 0 0 0 325.26458,4.4503267 74.152344,87.987607 0 0 0 271.11846,32.482019 a 124.82855,119.12646 0 0 1 11.48551,-0.606105 124.82855,119.12646 0 0 1 115.75913,74.706946 74.152344,87.987607 0 0 0 0.7406,-7.35863 119.33247,108.30824 85.744142 0 1 5.0696,17.54362 64.582183,87.807522 5.1822043 0 0 2.91612,-13.78428 A 64.582183,87.807522 5.1822043 0 0 356.0302,4.0893526 64.582183,87.807522 5.1822043 0 0 349.61769,3.3316813 Z"
       id="circle4710"
       inkscape:connector-curvature="0" />
    <path
       style="fill:#ffffff;stroke-width:0.7629019"
       d="m 193.65542,-77.802303 a 82.549993,82.368625 0 0 0 -82.5501,82.3687071 82.549993,82.368625 0 0 0 8.52839,36.2331609 H 388.25504 A 82.549993,82.368625 0 0 0 396.72877,4.5664041 82.549993,82.368625 0 0 0 314.1787,-77.802303 82.549993,82.368625 0 0 0 253.94268,-51.604297 82.549993,82.368625 0 0 0 193.65542,-77.802303 Z"
       id="path4583"
       inkscape:connector-curvature="0" />
    <g
       transform="matrix(5.3932451,0,0,5.6322896,108.9377,-756.36112)"
       id="g4920">
      <path
         style="fill:#241c1c;stroke-width:0.26458332"
         d="m 45.168844,131.56015 a 3.4745038,3.4745038 0 0 1 -3.474504,3.4745 3.4745038,3.4745038 0 0 1 -3.474504,-3.4745 3.4745038,3.4745038 0 0 1 3.474504,-3.4745 3.4745038,3.4745038 0 0 1 3.474504,3.4745 z"
         id="circle4918"
         inkscape:connector-curvature="0" />
    </g>
    <g
       id="g4619"
       transform="matrix(5.3932451,0,0,5.6322896,-49.44092,-756.36112)">
      <path
         style="fill:#241c1c;stroke-width:0.26458332"
         d="m 45.168844,131.56015 a 3.4745038,3.4745038 0 0 1 -3.474504,3.4745 3.4745038,3.4745038 0 0 1 -3.474504,-3.4745 3.4745038,3.4745038 0 0 1 3.474504,-3.4745 3.4745038,3.4745038 0 0 1 3.474504,3.4745 z"
         id="path4616"
         inkscape:connector-curvature="0" />
    </g>
    <g
       style="fill:#ffffff"
       id="g4924"
       transform="matrix(2.7698056,0,0,2.8925719,213.07831,-401.95569)">
      <path
         style="fill:#ffffff;stroke-width:0.26458332"
         d="m 45.168844,131.56015 a 3.4745038,3.4745038 0 0 1 -3.474504,3.4745 3.4745038,3.4745038 0 0 1 -3.474504,-3.4745 3.4745038,3.4745038 0 0 1 3.474504,-3.4745 3.4745038,3.4745038 0 0 1 3.474504,3.4745 z"
         id="circle4922"
         inkscape:connector-curvature="0" />
    </g>
    <path
       style="fill:#a05a2c;fill-opacity:1;stroke-width:0.87269372"
       d="m 163.19569,54.045167 a 33.019997,32.947451 0 0 0 -33.0197,32.947172 33.019997,32.947451 0 0 0 0.051,1.465928 34.176818,32.947451 0 0 1 32.9685,-24.410284 34.176818,32.947451 0 0 1 32.95484,24.236642 33.019997,32.947451 0 0 0 0.065,-1.292286 33.019997,32.947451 0 0 0 -33.01969,-32.947172 z"
       id="path4675"
       inkscape:connector-curvature="0" />
    <path
       inkscape:connector-curvature="0"
       id="path4682"
       d="m 337.62759,54.045167 a 33.019997,32.947451 0 0 0 -33.01965,32.947172 33.019997,32.947451 0 0 0 0.051,1.465928 34.176818,32.947451 0 0 1 32.96848,-24.410284 34.176818,32.947451 0 0 1 32.95485,24.236642 33.019997,32.947451 0 0 0 0.0649,-1.292286 33.019997,32.947451 0 0 0 -33.01972,-32.947172 z"
       style="fill:#a05a2c;fill-opacity:1;stroke-width:0.87269372" />
    <path
       style="fill:#333333;fill-opacity:1;stroke-width:1.09861016"
       d="m 216.21921,21.697102 c -67.37602,0 -122.366199,-8.362821 -122.366199,19.221662 0,7.306809 3.837903,14.228832 10.685749,20.468248 28.17632,-29.656686 149.34566,-18.358274 149.34566,-18.358274 0,0 122.50734,-11.961485 151.14759,16.891965 5.87171,-5.850172 9.11496,-12.265086 9.11496,-19.001939 0,-27.584483 -53.49404,-19.221662 -120.86997,-19.221662 z"
       id="rect4694"
       inkscape:connector-curvature="0"
       sodipodi:nodetypes="sscccsss" />
    <path
       style="fill:#ffdd55;fill-opacity:1;stroke-width:0.87269372"
       d="m 175.34361,20.899896 78.65702,0.469642 76.44313,-0.29224 c -25.37381,6.517795 -50.8286,12.607102 -76.44313,18.083869"
       id="path4701"
       inkscape:connector-curvature="0"
       sodipodi:nodetypes="cccc" />
    <path
       style="fill:#a05a2c;fill-opacity:1;stroke-width:0.55143577"
       d="m 323.21263,137.81515 c -0.98399,0.0608 -1.98234,0.0906 -2.98924,0.10023 0.18862,0.84898 0.29752,1.71284 0.29752,2.59316 0,10.88597 -13.38925,19.75969 -31.81498,19.65026 l -65.07519,-0.38786 c -18.42568,-0.10951 -36.15173,-8.37643 -36.15173,-19.2624 0,-0.87722 0.10627,-1.73893 0.2931,-2.58508 h -3.00828 c -0.19678,0.92988 -0.30796,1.87743 -0.30796,2.84151 0,11.91901 18.53123,20.96966 37.79447,21.0898 l 68.03363,0.42442 c 19.26309,0.12006 33.26018,-9.59521 33.26018,-21.51422 0,-1.00155 -0.11919,-1.98518 -0.3312,-2.94963 z"
       id="rect4732"
       inkscape:connector-curvature="0" />
    <path
       style="fill:#ffd42a;fill-opacity:1;stroke-width:0.86579341"
       d="M 330.44818,21.077893 254,21.364538 l 10.013,-0.0098 -10.01237,17.51963 -6.3e-4,-7.2e-5 c 25.61567,-5.390246 51.07312,-11.382883 76.44818,-17.797724 z"
       id="path4734"
       inkscape:connector-curvature="0"
       sodipodi:nodetypes="ccccccc" />
    <path
       inkscape:connector-curvature="0"
       id="path4750"
       d="m 254.0001,104.14226 a 9.4578161,10.512925 0 0 0 -9.45772,10.51286 9.4578161,10.512925 0 0 0 0.0141,0.46775 9.7891605,10.512925 0 0 1 9.44304,-7.7889 9.7891605,10.512925 0 0 1 9.43914,7.73346 9.4578161,10.512925 0 0 0 0.019,-0.41231 9.4578161,10.512925 0 0 0 -9.45771,-10.51286 z"
       style="fill:#a05a2c;fill-opacity:1;stroke-width:0.26382723" />
    <path
       style="fill:#e9c6af;fill-opacity:1;stroke-width:0.87731159"
       d="m 193.01732,211.62734 a 61.630058,17.677997 0 0 0 60.93899,15.30136 61.630058,17.677997 0 0 0 61.02694,-15.30136 z"
       id="rect4822"
       inkscape:connector-curvature="0" />
    <g
       transform="matrix(2.7698056,0,0,2.8925719,54.699709,-401.95569)"
       id="g4964"
       style="fill:#ffffff">
      <path
         style="fill:#ffffff;stroke-width:0.26458332"
         d="m 45.168844,131.56015 a 3.4745038,3.4745038 0 0 1 -3.474504,3.4745 3.4745038,3.4745038 0 0 1 -3.474504,-3.4745 3.4745038,3.4745038 0 0 1 3.474504,-3.4745 3.4745038,3.4745038 0 0 1 3.474504,3.4745 z"
         id="circle4962"
         inkscape:connector-curvature="0" />
    </g>
    <path
       style="fill:#e2b193;fill-opacity:1;stroke-width:0.50050008"
       d="m 428.32047,55.110441 a 15.848818,15.285055 0 0 1 3.1924,9.13833 15.848818,15.285055 0 0 1 -12.18996,14.815671 18.310897,14.38841 0 0 0 14.18968,-13.966619 18.310897,14.38841 0 0 0 -5.19212,-9.987382 z"
       id="path4995"
       inkscape:connector-curvature="0" />
    <path
       inkscape:connector-curvature="0"
       id="path5041"
       d="M 80.141204,55.110441 A 15.848818,15.285055 0 0 0 76.94876,64.248771 15.848818,15.285055 0 0 0 89.138755,79.064442 18.310897,14.38841 0 0 1 74.94907,65.097823 18.310897,14.38841 0 0 1 80.141204,55.110441 Z"
       style="fill:#e2b193;fill-opacity:1;stroke-width:0.50050008" />
  </g>
  <g
     inkscape:groupmode="layer"
     id="layer2"
     inkscape:label="Layer 2"
     transform="translate(0,211.00001)" />
</svg>
