<?xml version="1.0" encoding="UTF-8" standalone="no"?>
<!-- Generator: Adobe Illustrator 19.1.0, SVG Export Plug-In . SVG Version: 6.00 Build 0)  -->

<svg
   xmlns:dc="http://purl.org/dc/elements/1.1/"
   xmlns:cc="http://creativecommons.org/ns#"
   xmlns:rdf="http://www.w3.org/1999/02/22-rdf-syntax-ns#"
   xmlns:svg="http://www.w3.org/2000/svg"
   xmlns="http://www.w3.org/2000/svg"
   xmlns:sodipodi="http://sodipodi.sourceforge.net/DTD/sodipodi-0.dtd"
   xmlns:inkscape="http://www.inkscape.org/namespaces/inkscape"
   version="1.1"
   id="Layer_1"
   x="0px"
   y="0px"
   viewBox="0 0 1450 1450"
   xml:space="preserve"
   sodipodi:docname="languages.svg"
   inkscape:version="0.92.3 (2405546, 2018-03-11)"
   width="1450"
   height="1450"><metadata
   id="metadata2063"><rdf:RDF><cc:Work
       rdf:about=""><dc:format>image/svg+xml</dc:format><dc:type
         rdf:resource="http://purl.org/dc/dcmitype/StillImage" /><dc:title></dc:title></cc:Work></rdf:RDF></metadata><defs
   id="defs2061" /><sodipodi:namedview
   pagecolor="#ffffff"
   bordercolor="#666666"
   borderopacity="1"
   objecttolerance="10"
   gridtolerance="10"
   guidetolerance="10"
   inkscape:pageopacity="0"
   inkscape:pageshadow="2"
   inkscape:window-width="1920"
   inkscape:window-height="1057"
   id="namedview2059"
   showgrid="false"
   inkscape:zoom="0.236"
   inkscape:cx="-106.63584"
   inkscape:cy="1184.5826"
   inkscape:window-x="1912"
   inkscape:window-y="-8"
   inkscape:window-maximized="1"
   inkscape:current-layer="Layer_1" />
<style
   type="text/css"
   id="style2048">
	.st0{fill:#DD0031;}
	.st1{fill:#C3002F;}
	.st2{fill:#FFFFFF;}
</style>

<g
   id="g954"
   transform="matrix(5.301514,0,0,5.301514,62.31075,62.31075)"><circle
     r="103.74395"
     cy="125"
     cx="125"
     id="path2732"
     style="opacity:1;fill:#cccccc;fill-opacity:1;stroke-width:0.18175852;stroke-miterlimit:4;stroke-dasharray:none;paint-order:markers stroke fill" /><g
     transform="matrix(0.9408003,0,0,0.9408003,22.982439,-14.524091)"
     id="g2763"><g
       id="g2056"
       transform="matrix(0.38119387,0,0,0.38119387,18.768102,136.25881)">
	<polygon
   class="st0"
   points="31.9,63.2 46.1,186.3 125,230 203.9,186.3 218.1,63.2 125,30 "
   id="polygon2050"
   style="fill:#dd0031" />
	<polygon
   class="st1"
   points="125,30 125,52.2 125,52.1 125,153.4 125,230 203.9,186.3 218.1,63.2 "
   id="polygon2052"
   style="fill:#c3002f" />
	<path
   class="st2"
   d="M 125,52.1 66.8,182.6 v 0 h 21.7 v 0 l 11.7,-29.2 h 49.4 l 11.7,29.2 v 0 H 183 v 0 z m 17,83.3 h -34 l 17,-40.9 z"
   id="path2054"
   inkscape:connector-curvature="0"
   style="fill:#ffffff" />
</g></g><g
     transform="matrix(0.71576228,0,0,0.71576228,56.43935,17.83695)"
     id="g2738"><g
       id="g2614"
       transform="matrix(0.26265018,0,0,0.26265018,1.3635487,59.754347)"><path
         id="path2608"
         d="M 0,0 H 256 V 256 H 0 Z"
         inkscape:connector-curvature="0"
         style="fill:#f7df1e" /><path
         id="path2610"
         d="m 67.311746,213.93229 19.590908,-11.85605 c 3.779454,6.70111 7.217575,12.3709 15.464436,12.3709 7.90511,0 12.88899,-3.09232 12.88899,-15.12026 v -81.79809 h 24.05749 V 199.667 c 0,24.91733 -14.60581,36.25894 -35.91517,36.25894 -19.245105,0 -30.416457,-9.96734 -36.08706,-21.99568"
         inkscape:connector-curvature="0"
         style="fill:#000000" /><path
         id="path2612"
         d="m 152.38095,211.35441 19.58847,-11.34161 c 5.15657,8.42118 11.85849,14.60703 23.71495,14.60703 9.96815,0 16.32467,-4.98387 16.32467,-11.85767 0,-8.24848 -6.52962,-11.17014 -17.52787,-15.98009 l -6.01275,-2.57951 c -17.35721,-7.38783 -28.87111,-16.66722 -28.87111,-36.25772 0,-18.04353 13.7472,-31.79154 35.22844,-31.79154 15.29417,0 26.29201,5.32764 34.19591,19.24713 l -18.73107,12.02834 c -4.12444,-7.38864 -8.59103,-10.30948 -15.46443,-10.30948 -7.04569,0 -11.51391,4.46781 -11.51391,10.30948 0,7.21758 4.46822,10.13964 14.77771,14.60785 l 6.01396,2.57747 c 20.44953,8.76455 31.96343,17.69936 31.96343,37.8043 0,21.65353 -17.01221,33.50958 -39.86692,33.50958 -22.33945,0 -36.7746,-10.65366 -43.81907,-24.57356"
         inkscape:connector-curvature="0"
         style="fill:#000000" /></g></g><g
     transform="matrix(0.71576228,0,0,0.71576228,22.840183,21.742297)"
     id="g2750"><g
       id="g2662"
       transform="matrix(0.27780868,0,0,0.27780868,129.17052,8.0893119)"><path
         id="path2628"
         d="M 302.107,258.262 C 304.508,254.103 306,249.417 306,245.209 V 99.14 c 0,-4.208 -1.49,-8.893 -3.892,-13.052 L 153,172.175 Z"
         inkscape:connector-curvature="0"
         style="fill:#00599c" /><path
         id="path2630"
         d="m 166.25,341.193 126.5,-73.034 c 3.644,-2.104 6.956,-5.737 9.357,-9.897 L 153,172.175 3.893,258.263 c 2.401,4.159 5.714,7.793 9.357,9.896 l 126.5,73.034 c 7.287,4.208 19.213,4.208 26.5,0 z"
         inkscape:connector-curvature="0"
         style="fill:#004482" /><path
         id="path2632"
         d="m 302.108,86.087 c -2.402,-4.16 -5.715,-7.793 -9.358,-9.897 L 166.25,3.156 c -7.287,-4.208 -19.213,-4.208 -26.5,0 L 13.25,76.19 C 5.962,80.397 0,90.725 0,99.14 v 146.069 c 0,4.208 1.491,8.894 3.893,13.053 L 153,172.175 Z"
         inkscape:connector-curvature="0"
         style="fill:#659ad2" /><g
         id="g2636">
	<path
   id="path2634"
   d="m 153,274.175 c -56.243,0 -102,-45.757 -102,-102 0,-56.243 45.757,-102 102,-102 36.292,0 70.139,19.53 88.331,50.968 l -44.143,25.544 C 188.083,130.951 171.15,121.175 153,121.175 c -28.122,0 -51,22.878 -51,51 0,28.121 22.878,51 51,51 18.152,0 35.085,-9.776 44.191,-25.515 l 44.143,25.543 c -18.192,31.441 -52.04,50.972 -88.334,50.972 z"
   inkscape:connector-curvature="0"
   style="fill:#ffffff" />
</g><g
         id="g2640">
	<polygon
   id="polygon2638"
   points="243.666,189.175 243.666,177.841 255,177.841 255,166.508 243.666,166.508 243.666,155.175 232.334,155.175 232.334,166.508 221,166.508 221,177.841 232.334,177.841 232.334,189.175 "
   style="fill:#ffffff" />
</g><g
         id="g2644">
	<polygon
   id="polygon2642"
   points="286.166,189.175 286.166,177.841 297.5,177.841 297.5,166.508 286.166,166.508 286.166,155.175 274.834,155.175 274.834,166.508 263.5,166.508 263.5,177.841 274.834,177.841 274.834,189.175 "
   style="fill:#ffffff" />
</g></g></g><g
     transform="matrix(0.68306401,0,0,0.68306401,51.356831,-27.025945)"
     id="g2730"><g
       id="g2680"
       transform="matrix(0.2324948,0,0,0.2324948,98.112191,217.78369)"><path
         id="path2664"
         d="m 82.553949,267.47252 c 0,0 -13.198429,7.67535 9.392873,10.27259 27.368728,3.12226 41.356568,2.6745 71.517088,-3.03384 0,0 7.92949,4.97199 19.00358,9.27837 -67.61193,28.97734 -153.019112,-1.67843 -99.913541,-16.51712"
         inkscape:connector-curvature="0"
         style="fill:#5382a1" /><path
         id="path2666"
         d="m 74.292131,229.659 c 0,0 -14.803317,10.95773 7.804742,13.29617 29.236127,3.01615 52.324537,3.26284 92.276367,-4.4302 0,0 5.52587,5.60221 14.21498,8.66584 C 106.84137,271.09469 15.79008,249.0759 74.292131,229.659"
         inkscape:connector-curvature="0"
         style="fill:#5382a1" /><path
         id="path2668"
         d="m 143.94182,165.5147 c 16.65955,19.18046 -4.37714,36.44044 -4.37714,36.44044 0,0 42.30144,-21.83726 22.8743,-49.18272 -18.14435,-25.50132 -32.05865,-38.17193 43.26772,-81.858558 0,0 -118.237551,29.530298 -61.76488,94.600838"
         inkscape:connector-curvature="0"
         style="fill:#e76f00" /><path
         id="path2670"
         d="m 233.36401,295.44169 c 0,0 9.7671,8.04771 -10.75665,14.27363 -39.0265,11.82254 -162.432466,15.39258 -196.714124,0.47104 -12.323374,-5.36111 10.786444,-12.80094 18.055913,-14.36207 7.581324,-1.64399 11.913775,-1.33771 11.913775,-1.33771 -13.704844,-9.65446 -88.582517,18.95703 -38.034153,27.15089 137.852739,22.35578 251.292389,-10.06685 215.535239,-26.19578"
         inkscape:connector-curvature="0"
         style="fill:#5382a1" /><path
         id="path2672"
         d="m 88.900887,190.47982 c 0,0 -62.772131,14.90944 -22.229178,20.32361 17.118487,2.2919 51.243751,1.77338 83.030571,-0.88995 25.97795,-2.19136 52.06296,-6.85056 52.06296,-6.85056 0,0 -9.16015,3.92285 -15.78729,8.448 -63.744,16.76474 -186.88558636,8.96559 -151.434706,-8.18269 29.980858,-14.49239 54.357643,-12.84841 54.357643,-12.84841"
         inkscape:connector-curvature="0"
         style="fill:#5382a1" /><path
         id="path2674"
         d="m 201.50644,253.42231 c 64.79872,-33.67191 34.83834,-66.03031 13.9264,-61.67086 -5.12558,1.06682 -7.41096,1.99121 -7.41096,1.99121 0,0 1.90277,-2.98077 5.53704,-4.27101 41.37053,-14.54452 73.18714,42.89722 -13.35482,65.64771 0,9.3e-4 1.00259,-0.89554 1.30234,-1.69705"
         inkscape:connector-curvature="0"
         style="fill:#5382a1" /><path
         id="path2676"
         d="m 162.43898,0.37143273 c 0,0 35.88655,35.89864727 -34.03683,91.10062527 -56.071445,44.281482 -12.78603,69.529602 -0.0233,98.376612 C 95.649047,160.31837 71.629731,134.32273 87.743767,110.12841 111.39538,74.613294 176.91834,57.394269 162.43898,0.37143273"
         inkscape:connector-curvature="0"
         style="fill:#e76f00" /><path
         id="path2678"
         d="m 95.268305,344.66537 c 62.198695,3.98149 157.711825,-2.20905 159.973935,-31.63974 0,0 -4.34828,11.15694 -51.40387,20.01734 -53.08788,9.99051 -118.564304,8.82408 -157.399039,2.42129 9.31e-4,-9.3e-4 7.949963,6.57967 48.828974,9.20111"
         inkscape:connector-curvature="0"
         style="fill:#5382a1" /></g></g><g
     transform="matrix(0.71576228,0,0,0.71576228,74.132116,5.5056269)"
     id="g2757"><g
       id="g2719"
       transform="matrix(0.54809152,0,0,0.54809152,123.81851,141.01136)"><rect
         id="rect2699"
         width="120"
         height="120"
         x="0"
         y="0"
         style="fill:#993333;stroke:#333333" /><g
         id="g2705"
         style="fill:#ffffff"><path
           id="path2701"
           d="M 21,111 C 26,15 83.5,0.5 112,29 l -1.5,3.5 C 65,8 51,77 71,111 Z"
           inkscape:connector-curvature="0" /><path
           id="path2703"
           d="m 99,29.5 v 3 l 5,0.5 V 30.5 Z M 99.5,15 v 3 l 5.5,3.5 V 19 Z M 83,32 87.5,30.5 89,35 85,36.5 Z M 74,9 h 7 l 1.5,5 H 76 Z M 75,38.5 78.5,44 76,47.5 72,42 Z M 58,12 l 4,6 -5.5,3.5 -4.5,-6 z m 9,42 -1.5,5.5 5.5,4 1,-5 z M 36.5,27.5 43,33 38.5,39.5 32,34.5 Z M 64,72 v 6 L 71.5,80.5 71,75 Z m -43.5,-18.5 8,3.5 -2.5,7.5 -8.5,-3 z m 46.5,41 2,6.5 9,1 -2,-6 z M 11,85 20,86.5 19,96 9,95 Z"
           inkscape:connector-curvature="0" /></g></g></g><ellipse
     ry="2.6807222"
     rx="11.527105"
     cy="100.80766"
     cx="146.24356"
     id="path2765"
     style="opacity:1;fill:#1a1a1a;fill-opacity:1;stroke-width:0.27052432;stroke-miterlimit:4;stroke-dasharray:none;paint-order:markers stroke fill" /><ellipse
     ry="2.4126501"
     rx="15.280116"
     cy="180.42511"
     cx="140.07788"
     id="path2765-6"
     style="opacity:1;fill:#1a1a1a;fill-opacity:1;stroke-width:0.29548183;stroke-miterlimit:4;stroke-dasharray:none;paint-order:markers stroke fill" /><ellipse
     ry="2.6807222"
     rx="11.527105"
     cy="200.53052"
     cx="85.927292"
     id="path2765-2"
     style="opacity:1;fill:#1a1a1a;fill-opacity:1;stroke-width:0.27052432;stroke-miterlimit:4;stroke-dasharray:none;paint-order:markers stroke fill" /><ellipse
     ry="2.144578"
     rx="16.620478"
     cy="113.13898"
     cx="80.297775"
     id="path2765-21"
     style="opacity:1;fill:#1a1a1a;fill-opacity:1;stroke-width:0.29054469;stroke-miterlimit:4;stroke-dasharray:none;paint-order:markers stroke fill" /><ellipse
     ry="2.144578"
     rx="16.620478"
     cy="158.17511"
     cx="186.18631"
     id="path2765-21-0"
     style="opacity:1;fill:#1a1a1a;fill-opacity:1;stroke-width:0.29054469;stroke-miterlimit:4;stroke-dasharray:none;paint-order:markers stroke fill" /></g></svg>