<?xml version="1.0" encoding="UTF-8" standalone="no"?>
<!-- Created with Inkscape (http://www.inkscape.org/) -->

<svg
   xmlns:dc="http://purl.org/dc/elements/1.1/"
   xmlns:cc="http://creativecommons.org/ns#"
   xmlns:rdf="http://www.w3.org/1999/02/22-rdf-syntax-ns#"
   xmlns:svg="http://www.w3.org/2000/svg"
   xmlns="http://www.w3.org/2000/svg"
   xmlns:sodipodi="http://sodipodi.sourceforge.net/DTD/sodipodi-0.dtd"
   xmlns:inkscape="http://www.inkscape.org/namespaces/inkscape"
   version="1.1"
   id="svg831"
   width="1450"
   height="1450"
   viewBox="0 0 1450.0001 1450.0001"
   sodipodi:docname="skills.svg"
   inkscape:version="0.92.3 (2405546, 2018-03-11)">
  <metadata
     id="metadata837">
    <rdf:RDF>
      <cc:Work
         rdf:about="">
        <dc:format>image/svg+xml</dc:format>
        <dc:type
           rdf:resource="http://purl.org/dc/dcmitype/StillImage" />
        <dc:title></dc:title>
      </cc:Work>
    </rdf:RDF>
  </metadata>
  <defs
     id="defs835" />
  <sodipodi:namedview
     pagecolor="#ffffff"
     bordercolor="#666666"
     borderopacity="1"
     objecttolerance="10"
     gridtolerance="10"
     guidetolerance="10"
     inkscape:pageopacity="0"
     inkscape:pageshadow="2"
     inkscape:window-width="1920"
     inkscape:window-height="1057"
     id="namedview833"
     showgrid="false"
     inkscape:zoom="0.32930234"
     inkscape:cx="353.86033"
     inkscape:cy="983.79536"
     inkscape:window-x="1912"
     inkscape:window-y="-8"
     inkscape:window-maximized="1"
     inkscape:current-layer="svg831" />
  <g
     id="g1528"
     transform="matrix(0.81572331,0,0,0.81572331,113.20752,113.20752)">
    <circle
       r="674.24823"
       cy="750"
       cx="750"
       id="path1466"
       style="opacity:1;fill:#cccccc;fill-opacity:1;stroke-width:0.2996898;stroke-miterlimit:4;stroke-dasharray:none;paint-order:markers stroke fill" />
    <path
       inkscape:connector-curvature="0"
       id="path827"
       d="m 783.47338,1012.1675 c -0.95237,-1.1329 -0.87473,-5.3465 0.18309,-9.9385 2.43801,-10.58338 1.23797,-12.16808 -12.78611,-16.88598 -6.27211,-2.1099 -12.21152,-4.6161 -13.19879,-5.5693 -1.12116,-1.0824 -1.08503,-4.8147 0.0963,-9.9426 2.4842,-10.7838 1.09433,-12.4372 -13.70772,-16.3063 -7.22553,-1.8887 -11.77991,-3.6755 -12.69355,-4.9802 -0.7837,-1.119 -0.59606,-6.6397 0.41701,-12.2681 l 1.84188,-10.2335 -10.93215,-2.5499 c -15.71455,-3.6656 -18.22453,-6.4329 -16.46847,-18.1579 1.54847,-10.339 0.39683,-11.4714 -16.03289,-15.7659 -11.88706,-3.1072 -12.90978,-4.6905 -10.31278,-15.9641 1.14126,-4.9542 1.1277,-8.4079 -0.0369,-9.3653 -1.01455,-0.8343 -7.30762,-3.5203 -13.98448,-5.9689 l -12.13954,-4.4519 1.31277,-9.5089 c 0.73843,-5.3491 0.53154,-10.4381 -0.47318,-11.6333 -1.00472,-1.1951 -7.30486,-3.8468 -14.40191,-6.0616 l -12.61579,-3.93707 1.72011,-9.72059 c 0.94612,-5.34631 1.13325,-10.55861 0.4159,-11.58295 -0.71734,-1.02434 -6.85722,-3.53236 -13.6442,-5.57337 -8.56812,-2.57674 -12.68754,-4.37965 -13.4769,-5.89839 -0.62521,-1.20302 -0.23848,-6.13901 0.85936,-10.96888 1.88806,-8.30821 1.78177,-8.90474 -1.97991,-11.06803 -2.18675,-1.25753 -8.41612,-3.44708 -13.84312,-4.86563 -9.06834,-2.37035 -9.94024,-2.8638 -10.7692,-6.09531 -0.49603,-1.93383 -0.16424,-6.71843 0.7374,-10.63244 1.99809,-8.67365 0.52036,-10.05655 -15.11298,-14.14291 -7.23567,-1.89132 -11.05761,-3.4299 -11.32274,-4.55818 -0.22002,-0.93675 0.0286,-6.19496 0.5527,-11.68487 l 0.9528,-9.98172 -12.27865,-3.84896 c -6.75308,-2.11684 -13.01986,-4.46089 -13.92595,-5.20899 -0.90608,-0.74811 -1.06931,-5.51759 -0.3626,-10.59893 0.70674,-5.08143 0.54712,-10.29251 -0.35479,-11.5803 -1.13351,-1.61862 -5.53054,-3.47316 -14.24318,-6.00739 l -12.60363,-3.66582 1.41489,-10.2592 c 0.97567,-7.07382 0.74438,-10.80101 -0.74521,-12.00452 -1.18812,-0.96004 -6.76166,-2.95702 -12.38575,-4.43788 -13.95975,-3.67534 -15.13743,-5.31761 -12.38488,-17.26638 2.48712,-10.79651 2.4193,-10.87018 -14.04288,-15.24015 -13.09686,-3.47624 -13.94818,-4.52579 -11.32979,-13.95948 3.21399,-11.57969 2.41533,-12.66669 -12.09248,-16.45886 -7.14762,-1.86829 -12.69901,-3.94209 -13.68138,-5.11082 -0.95248,-1.13294 -0.87484,-5.34659 0.18298,-9.93855 2.49185,-10.81706 1.40982,-12.12903 -14.40716,-17.46853 l -13.02968,-4.39848 1.39508,-9.86623 c 0.76737,-5.4263 0.94866,-10.70213 0.40301,-11.72399 -0.64326,-1.20454 -5.20801,-2.95986 -12.98084,-4.99158 -7.11689,-1.86027 -12.66049,-3.93291 -13.64198,-5.10053 -0.95783,-1.13929 -0.86798,-5.37586 0.21345,-10.07035 2.71915,-11.80375 2.61895,-11.95274 -10.3083,-15.33177 -15.95985,-4.17171 -18.03637,-6.37273 -15.70396,-16.6462 1.00827,-4.44421 1.32767,-9.05517 0.7083,-10.24675 -0.76795,-1.47746 -4.94059,-3.32534 -13.11669,-5.80897 -6.59479,-2.00322 -12.79524,-4.43456 -13.77911,-5.4029 -1.13356,-1.11572 -1.05034,-4.96535 0.22736,-10.51179 1.28016,-5.55714 1.36138,-9.38646 0.22262,-10.49166 -0.98624,-0.95716 -7.28689,-3.58641 -14.00142,-5.84274 -6.71463,-2.25637 -12.61501,-4.87944 -13.11205,-5.82913 -0.49714,-0.9497 0.0355,-5.8567 1.18356,-10.9045 l 2.08737,-9.17787 -12.60072,-4.1282 c -7.62535,-2.49827 -13.397,-5.07558 -14.6175,-6.52749 -3.38734,-4.02932 -0.89239,-16.23101 4.40731,-21.55439 4.27346,-4.29267 26.11189,-18.38111 89.62168,-57.81677 l 26.46451,-16.43291 3.90227,3.38202 c 30.1381,26.12005 84.06259,72.3385 87.6159,75.09526 2.54044,1.97087 27.1716,23.63467 54.73604,48.14179 27.56452,24.50715 133.94891,117.84347 236.40983,207.4141 102.461,89.57067 186.42437,162.98887 186.58534,163.15144 0.65377,0.66023 -50.42454,33.79212 -83.12245,53.91749 -19.20541,11.8207 -43.37995,26.7618 -53.72135,33.2024 l -18.80249,11.7104 -0.37168,6.297 c -0.20434,3.4634 -0.25421,22.7291 -0.11074,42.8126 0.55225,77.32138 0.48283,87.47468 -0.60444,88.25918 -1.69717,1.2245 -16.58617,-3.0158 -18.4738,-5.2612 z M 387.97146,386.91831 c 8.6159,-0.77924 14.66938,-11.30478 10.5535,-18.34978 -2.34896,-4.02064 -9.32757,-9.1096 -14.26022,-10.39893 -10.05118,-2.62727 -21.46181,2.10012 -23.19137,9.60811 -1.04017,4.51535 4.29589,12.75202 10.40406,16.05973 5.59832,3.03171 9.33049,3.72882 16.49403,3.08087 z"
       style="opacity:1;fill:#4d4d4d;fill-opacity:1;stroke-width:0.54996353;stroke-miterlimit:4;stroke-dasharray:none;paint-order:markers stroke fill" />
    <path
       inkscape:connector-curvature="0"
       id="path829"
       d="m 973.84173,1207.4318 c -3.06792,-2.2532 -32.32802,-28.6474 -65.02239,-58.654 -66.80716,-61.3149 -62.52393,-56.1086 -63.88991,-77.6565 -0.77125,-12.1652 -0.91566,-87.64388 -0.21263,-111.09818 0.56897,-18.9844 5.53929,-40.498 11.27137,-48.7895 9.27849,-13.4205 18.97948,-20.8055 94.17637,-71.6936 22.0321,-14.9098 34.48156,-22.48421 35.75231,-21.75215 3.53369,2.03585 226.51625,206.87093 236.80255,217.53033 16.2377,16.8266 11.9419,39.6377 -8.9413,47.479 -7.9754,2.9946 -16.5813,4.0606 -21.7898,2.6992 -4.5474,-1.1886 -14.0884,2.7595 -27.7414,11.4794 -17.8615,11.4077 -119.7508,80.0853 -122.6936,82.7005 -1.8942,1.6832 -2.4758,3.8847 -2.3386,8.852 0.3051,11.0566 -8.1317,21.013 -21.5348,25.4132 -13.2529,4.3509 -33.05394,1.4105 -43.83865,-6.5098 z m 13.37109,-86.6548 c 3.90525,-0.1302 129.71108,-85.0222 130.39448,-87.9885 0.4817,-2.091 -106.5456,-99.59618 -128.10371,-116.70628 l -6.28325,-4.9869 -19.81578,13.2068 c -27.02602,18.0123 -30.43874,21.6314 -33.30963,35.3246 -3.21662,15.3421 -3.85378,109.77938 -0.76544,113.45938 3.06157,3.6481 36.47281,34.5646 43.97884,40.6949 7.72051,6.3056 9.39169,7.1463 13.90449,6.996 z"
       style="opacity:1;fill:#803300;fill-opacity:1;stroke-width:0.52650112;stroke-miterlimit:4;stroke-dasharray:none;paint-order:markers stroke fill" />
    <rect
       transform="matrix(0.66562331,-0.74628789,0.91766955,0.39734444,0,0)"
       ry="0"
       rx="0"
       y="1001.172"
       x="-706.12494"
       height="198.03122"
       width="611.67151"
       id="rect1468"
       style="opacity:1;fill:#cccccc;fill-opacity:1;stroke-width:0.60741597;stroke-miterlimit:4;stroke-dasharray:none;paint-order:markers stroke fill" />
    <path
       inkscape:connector-curvature="0"
       id="path1384"
       d="m 427.16577,1211.4122 c 0.97363,-0.7527 -1.09549,-0.6961 -4.59821,0.1257 -25.20566,5.9137 -64.85939,2.2907 -91.14032,-8.3269 -54.29798,-21.9364 -73.60692,-72.4484 -46.0172,-120.3798 18.25432,-31.7132 51.58051,-55.5298 96.05903,-68.6488 l 14.43119,-4.2566 194.65638,-221.72935 194.65645,-221.72948 -3.21965,-3.87642 c -18.40653,-22.16151 -29.16945,-55.65656 -27.65478,-86.06379 2.75046,-55.21708 44.38794,-112.7194 108.70423,-150.12301 52.72298,-30.66146 114.6807,-45.71675 180.16401,-43.77863 4.2325,0.12528 1.5099,3.513 -50.30791,62.59776 -50.49293,57.57423 -54.65327,62.72395 -53.1333,65.76814 2.73402,5.47561 36.67265,56.7466 38.55688,58.24785 1.52655,1.21627 46.94113,0.0295 83.96013,-2.19412 l 12.2085,-0.7333 56.2175,-64.0715 c 48.9692,-55.81051 56.5016,-63.82525 58.4219,-62.16194 5.154,4.46453 16.0629,18.90764 21.8128,28.8795 16.6234,28.83015 20.5116,62.57856 11.1774,97.0187 -6.327,23.34416 -17.4558,43.37148 -36.7888,66.20428 -26.8667,31.73025 -63.179,57.03869 -108.4725,75.60175 -16.7763,6.87554 -57.8291,17.70875 -77.65751,20.4926 -15.38037,2.15936 -34.39918,3.46449 -49.09644,3.36917 l -7.21287,-0.0469 -195.03239,221.92151 -195.03243,221.92138 0.91804,12.0344 c 2.95644,38.757 -22.3663,77.2738 -67.15979,102.1527 -13.3247,7.4006 -26.32862,12.922 -35.81364,15.2061 -3.78483,0.911 -5.39962,1.7163 -3.98876,1.9879 1.30401,0.251 -2.97498,1.6945 -9.50878,3.2078 -6.53376,1.5133 -11.0829,2.1359 -10.10916,1.3833 z m 21.31363,-69.7381 c 31.4304,-19.7109 32.60995,-55.2855 2.30013,-69.3689 -4.88409,-2.2694 -13.40575,-4.7698 -18.93708,-5.5561 -9.35469,-1.3304 -11.31771,-1.1306 -28.1132,2.8619 -15.59407,3.7068 -18.98439,4.9209 -24.86224,8.9035 -17.8792,12.1143 -26.47356,27.2228 -24.25133,42.6328 2.91998,20.2481 21.56707,32.8723 49.32753,33.395 12.61552,0.2375 33.05578,-5.6685 44.53619,-12.8682 z"
       style="opacity:1;fill:#4d4d4d;fill-opacity:1;stroke-width:0.56286973;stroke-miterlimit:4;stroke-dasharray:none;paint-order:markers stroke fill" />
    <rect
       transform="matrix(0.74152783,0.67092211,-0.69004568,0.72376581,0,0)"
       rx="12.656377"
       ry="4.4014535"
       y="-38.737907"
       x="677.80389"
       height="8.8029079"
       width="176.39825"
       id="rect1449"
       style="opacity:1;fill:#ffffff;fill-opacity:1;stroke-width:0.0862494;stroke-miterlimit:4;stroke-dasharray:none;paint-order:markers stroke fill" />
    <rect
       transform="matrix(0.66349371,-0.74818186,0.73061145,0.68279346,0,0)"
       rx="12.656377"
       ry="4.4014535"
       y="974.35089"
       x="-124.03455"
       height="8.8029079"
       width="176.39825"
       id="rect1449-4"
       style="opacity:1;fill:#ffffff;fill-opacity:1;stroke-width:0.0862494;stroke-miterlimit:4;stroke-dasharray:none;paint-order:markers stroke fill" />
  </g>
</svg>
