<?xml version="1.0" encoding="UTF-8" standalone="no"?>
<!-- Created with Inkscape (http://www.inkscape.org/) -->

<svg
   xmlns:dc="http://purl.org/dc/elements/1.1/"
   xmlns:cc="http://creativecommons.org/ns#"
   xmlns:rdf="http://www.w3.org/1999/02/22-rdf-syntax-ns#"
   xmlns:svg="http://www.w3.org/2000/svg"
   xmlns="http://www.w3.org/2000/svg"
   xmlns:sodipodi="http://sodipodi.sourceforge.net/DTD/sodipodi-0.dtd"
   xmlns:inkscape="http://www.inkscape.org/namespaces/inkscape"
   version="1.1"
   id="svg827"
   width="1450"
   height="1450"
   viewBox="0 0 1450 1450"
   sodipodi:docname="software.svg"
   inkscape:version="0.92.3 (2405546, 2018-03-11)">
  <metadata
     id="metadata833">
    <rdf:RDF>
      <cc:Work
         rdf:about="">
        <dc:format>image/svg+xml</dc:format>
        <dc:type
           rdf:resource="http://purl.org/dc/dcmitype/StillImage" />
        <dc:title></dc:title>
      </cc:Work>
    </rdf:RDF>
  </metadata>
  <defs
     id="defs831" />
  <sodipodi:namedview
     pagecolor="#ffffff"
     bordercolor="#666666"
     borderopacity="1"
     objecttolerance="10"
     gridtolerance="10"
     guidetolerance="10"
     inkscape:pageopacity="0"
     inkscape:pageshadow="2"
     inkscape:window-width="1920"
     inkscape:window-height="1057"
     id="namedview829"
     showgrid="false"
     inkscape:zoom="0.472"
     inkscape:cx="220.77857"
     inkscape:cy="462.69285"
     inkscape:window-x="1912"
     inkscape:window-y="-8"
     inkscape:window-maximized="1"
     inkscape:current-layer="svg827" />
  <path
     style="opacity:0.79820628;fill:#000000;fill-opacity:1;stroke-width:0.14155348;stroke-miterlimit:4;stroke-dasharray:none;paint-order:markers stroke fill"
     d=""
     id="path1384"
     inkscape:connector-curvature="0" />
  <path
     style="opacity:0.79820628;fill:#000000;fill-opacity:1;stroke-width:0.14155348;stroke-miterlimit:4;stroke-dasharray:none;paint-order:markers stroke fill"
     d=""
     id="path1388"
     inkscape:connector-curvature="0" />
  <path
     style="opacity:0.79820628;fill:#000000;fill-opacity:1;stroke-width:0.14155348;stroke-miterlimit:4;stroke-dasharray:none;paint-order:markers stroke fill"
     d=""
     id="path1406"
     inkscape:connector-curvature="0" />
  <g
     id="g2135"
     transform="matrix(1.7460317,0,0,1.7460317,-148.01585,-148.01585)">
    <circle
       r="315"
       cy="500"
       cx="500"
       id="path1566"
       style="opacity:1;fill:#cccccc;fill-opacity:1;stroke-width:0.37795275;stroke-miterlimit:4;stroke-dasharray:none;paint-order:markers stroke fill" />
    <path
       inkscape:connector-curvature="0"
       id="path1386"
       d="m 334.79991,548.72635 c 0,-0.35529 1.1211,-0.53434 1.32096,-0.21098 0.12174,0.197 -0.12566,0.35817 -0.5498,0.35817 -0.42414,0 -0.77116,-0.0662 -0.77116,-0.14719 z"
       style="opacity:0.79820628;fill:#000000;fill-opacity:1;stroke-width:0.14155348;stroke-miterlimit:4;stroke-dasharray:none;paint-order:markers stroke fill" />
    <path
       sodipodi:nodetypes="ccssssccscsssscccsccsccscc"
       inkscape:connector-curvature="0"
       id="path1404-4"
       d="m 308.35923,657.03444 -30.52395,-0.24554 -3.48862,-1.01071 c -8.66711,-2.511 -15.48206,-6.38058 -16.80236,-9.54052 -0.71701,-1.71604 -0.17113,-3.50752 2.10635,-6.91263 2.34313,-3.50328 6.58079,-8.5669 24.53323,-29.31501 22.03932,-25.47142 24.42283,-28.18481 27.96447,-31.83478 l 3.27069,-3.37075 0.17951,-108.42553 c 0.11063,-66.8233 0.32012,-109.72751 0.54599,-111.8188 0.21825,-2.02067 0.67409,-3.99619 1.12691,-4.88382 1.1187,-2.19283 3.55359,-4.53327 5.20226,-5.00047 2.91282,-0.82543 18.56379,-1.14155 74.64839,-1.50778 72.95084,-0.47636 134.08495,-0.476 206.36432,0.001 55.69496,0.36771 71.43164,0.68172 74.20228,1.48059 1.59762,0.46067 4.43893,2.85617 5.58266,4.70672 0.72711,1.17651 0.83988,2.09767 1.13354,9.25871 0.17933,4.37372 0.44442,54.688 0.58902,111.8095 l 0.26296,103.85728 5.46386,6.25363 c 46.68403,53.43166 49.89653,57.19474 51.51902,60.34886 0.81692,1.58809 0.62242,5.39208 -0.35172,6.8788 -0.83763,1.27843 -3.97912,3.34581 -8.46494,5.57068 -6.00509,2.97843 -5.5257,2.92169 -28.06536,3.322 -23.67576,0.42049 -352.77119,0.73414 -396.99851,0.37836 z"
       style="opacity:0.80500034;fill:#000000;fill-opacity:1;stroke-width:0.14155348;stroke-miterlimit:4;stroke-dasharray:none;paint-order:markers stroke fill" />
    <rect
       y="361.69067"
       x="340"
       height="200"
       width="320"
       id="rect1423"
       style="opacity:1;fill:#4571d8;fill-opacity:1;stroke-width:0.38462371;stroke-miterlimit:4;stroke-dasharray:none;paint-order:markers stroke fill" />
    <rect
       y="567.79663"
       x="350"
       height="5"
       width="300"
       id="rect1425"
       style="opacity:1;fill:#ffffff;fill-opacity:1;stroke-width:0.37795275;stroke-miterlimit:4;stroke-dasharray:none;paint-order:markers stroke fill" />
    <path
       sodipodi:nodetypes="ccccc"
       inkscape:connector-curvature="0"
       id="rect1427"
       d="m 330,585.27542 h 340 l 31.77966,35.59322 H 297.69068 Z"
       style="opacity:1;fill:#666666;fill-opacity:1;stroke-width:0.35728371;stroke-miterlimit:4;stroke-dasharray:none;paint-order:markers stroke fill" />
    <path
       sodipodi:nodetypes="ccccc"
       inkscape:connector-curvature="0"
       id="rect1446"
       d="m 281.51093,652.33903 438.95657,-0.26482 -10.06356,4.23728 H 288.79377 Z"
       style="opacity:1;fill:#4d4d4d;fill-opacity:1;stroke-width:0.23439635;stroke-miterlimit:4;stroke-dasharray:none;paint-order:markers stroke fill" />
    <g
       transform="translate(-10.85172,-2.513705)"
       id="g1594">
      <g
         id="g1610">
        <g
           id="g1599">
          <path
             inkscape:connector-curvature="0"
             id="path825-5"
             d="m 545.9386,548.96712 c -0.17596,-0.20394 -0.40891,-0.65025 -0.51766,-0.99182 -0.10874,-0.34156 -0.31115,-0.86098 -0.4498,-1.1543 -0.13865,-0.29333 -0.33427,-0.84268 -0.43472,-1.22079 -0.10046,-0.37811 -0.26345,-0.98532 -0.36219,-1.34935 -0.0987,-0.36401 -0.23807,-0.87843 -0.30962,-1.14312 -0.0716,-0.26473 -0.14613,-0.92407 -0.16572,-1.46526 -0.0197,-0.54122 -0.0803,-1.16124 -0.1348,-1.37788 -0.0545,-0.21664 -0.0856,-0.48058 -0.0689,-0.58653 0.0166,-0.10587 -0.0457,-0.36024 -0.13857,-0.56507 -0.0927,-0.2048 -0.15727,-0.44821 -0.14319,-0.5409 0.0143,-0.0926 -0.0207,-0.30771 -0.0774,-0.47786 -0.0567,-0.17015 -0.10971,-0.48404 -0.11782,-0.69755 -0.008,-0.2135 -0.25145,-1.05309 -0.54075,-1.86576 -0.48079,-1.35068 -0.67532,-1.72831 -1.49335,-2.89908 -0.45548,-0.65187 -1.56527,-1.85581 -1.87125,-2.03 -0.15877,-0.0903 -0.70629,-0.4658 -1.21676,-0.83427 -1.4411,-1.0403 -2.21956,-1.31453 -5.01039,-1.76493 -1.41543,-0.22856 -2.63153,-0.36866 -3.0467,-0.35126 -0.92798,0.0389 -3.1581,0.72318 -4.11211,1.26163 -1.24443,0.70241 -4.23509,3.02732 -4.28378,3.33018 -0.0124,0.077 -0.265,0.32978 -0.56137,0.56167 -0.29635,0.23193 -0.64189,0.56046 -0.76788,0.73012 -0.5559,0.74862 -4.38526,3.57385 -5.67163,4.18444 -0.74042,0.35145 -1.16192,0.2876 -1.97982,-0.29995 -0.34735,-0.24945 -0.76516,-0.52086 -0.92845,-0.60314 -0.92653,-0.46684 -1.70392,-1.06702 -1.97352,-1.52367 -0.28753,-0.487 0.63489,-6.01173 1.13933,-6.82434 0.1384,-0.22287 0.27778,-0.5682 0.30981,-0.76742 0.032,-0.19924 0.13093,-0.50071 0.21954,-0.66997 0.31906,-0.60825 0.99916,-3.08549 1.32845,-4.8388 0.34781,-1.85162 0.36213,-2.35023 0.12551,-4.26249 -0.12396,-1.00053 -1.03998,-3.21887 -1.70684,-4.13345 -1.14083,-1.56467 -3.12319,-3.46531 -4.34809,-4.16889 -1.79441,-1.03066 -3.98963,-1.57594 -6.05204,-1.50329 -0.64595,0.0228 -1.30988,0.0214 -1.47537,-0.003 -0.16565,-0.0236 -0.43873,0.008 -0.60717,0.071 -0.16843,0.0634 -0.41231,0.10004 -0.54194,0.0814 -0.1297,-0.0178 -0.33585,0.0466 -0.45824,0.14465 -0.21362,0.17126 -0.68664,0.31296 -1.70793,0.51159 -0.26136,0.0509 -0.63944,0.14748 -0.84015,0.21479 -1.26876,0.42538 -1.81184,0.57421 -2.48143,0.67995 -0.41497,0.0655 -0.97041,0.1738 -1.23435,0.24058 -1.08576,0.27471 -1.46638,0.3424 -2.07336,0.36882 -0.72163,0.0313 -2.7197,0.0114 -3.01227,-0.0301 -0.27747,-0.0395 -0.8224,-0.74095 -1.23506,-1.59022 -0.19605,-0.40348 -0.39552,-0.7399 -0.44325,-0.74757 -0.0478,-0.008 -0.16819,-0.20967 -0.2677,-0.44888 -0.0995,-0.23923 -0.24451,-0.52291 -0.32224,-0.63041 -0.24924,-0.34474 -0.15098,-1.04662 0.24734,-1.76724 0.20068,-0.36307 0.44311,-0.72521 0.53863,-0.80483 0.0954,-0.0796 0.52274,-0.63239 0.94933,-1.22844 0.42661,-0.59606 0.97527,-1.24601 1.21925,-1.44435 0.24399,-0.19834 0.45446,-0.42814 0.46773,-0.51068 0.0133,-0.0825 0.44389,-0.49222 0.95692,-0.91042 1.26775,-1.03339 2.38391,-2.07295 2.73031,-2.54296 0.0834,-0.11318 0.29255,-0.31558 0.46475,-0.44972 0.1722,-0.13414 0.58094,-0.61223 0.90836,-1.06241 0.66887,-0.91971 0.88792,-1.19472 1.10417,-1.38619 0.0821,-0.0726 0.24954,-0.42675 0.37213,-0.78684 0.12241,-0.3601 0.30844,-0.84812 0.41298,-1.0845 0.30294,-0.68492 0.64368,-2.34871 0.68455,-3.34264 0.0463,-1.12735 -0.0369,-2.61535 -0.15559,-2.78142 -0.0486,-0.068 -0.0776,-0.19013 -0.0646,-0.27152 0.0131,-0.0814 -0.14451,-0.71188 -0.3502,-1.40111 -0.20569,-0.68924 -0.36524,-1.30757 -0.35455,-1.3741 0.0518,-0.32243 -1.87766,-3.2051 -2.59082,-3.87064 -0.29819,-0.27832 -0.68219,-0.6387 -0.8533,-0.80085 -0.30004,-0.28435 -1.95511,-1.17534 -3.2888,-1.77047 -1.01868,-0.45459 -2.3014,-0.78639 -5.38679,-1.39342 -1.99587,-0.39267 -3.07798,-0.65499 -3.54473,-0.85933 -0.95925,-0.41994 -2.19374,-0.9811 -2.8152,-1.27969 -1.21882,-0.58563 -1.18193,-0.52665 -1.32307,-2.11494 -0.0441,-0.49638 -0.11329,-0.9995 -0.15373,-1.11806 -0.0405,-0.1185 -0.032,-0.70166 0.0187,-1.29573 l 0.0923,-1.08014 0.69799,-0.33177 c 0.38388,-0.18247 0.7038,-0.36803 0.71092,-0.41234 0.0113,-0.0706 1.50023,-0.80348 3.04364,-1.49823 0.28298,-0.12739 0.62528,-0.21477 0.76066,-0.1942 0.13536,0.0207 0.28315,-0.005 0.32837,-0.0576 0.12232,-0.14156 1.76737,-0.60507 2.22978,-0.62832 0.3745,-0.0188 1.13738,-0.21007 1.56375,-0.39198 0.1019,-0.0435 0.48373,-0.16325 0.84841,-0.26611 1.12788,-0.31815 1.61775,-0.49389 2.07625,-0.74479 0.24292,-0.13294 0.63272,-0.30255 0.86623,-0.37692 0.38628,-0.12305 1.10688,-0.56976 2.08695,-1.29377 0.79783,-0.58937 1.45546,-1.25106 1.89823,-1.90992 0.25484,-0.3792 0.67217,-0.99253 0.92741,-1.36293 0.49778,-0.72232 0.62886,-1.08831 1.18983,-3.32176 0.47945,-1.90891 0.62382,-4.02019 0.35793,-5.23292 -0.2439,-1.11222 -0.808,-2.77647 -1.07304,-3.16569 -0.14519,-0.21324 -0.31716,-0.55164 -0.38215,-0.75198 -0.0648,-0.20033 -0.24274,-0.48786 -0.39499,-0.63896 -0.15225,-0.15108 -0.50218,-0.54396 -0.77763,-0.87309 -0.62787,-0.75023 -1.59421,-1.70938 -2.26605,-2.24926 -0.28344,-0.22776 -0.69121,-0.60881 -0.90614,-0.8468 -0.21494,-0.23799 -0.78531,-0.71696 -1.26751,-1.06443 -0.48219,-0.34745 -1.07746,-0.83261 -1.32283,-1.07813 -0.24538,-0.24553 -0.50546,-0.47604 -0.57794,-0.51226 -0.58767,-0.2936 -3.2815,-3.75195 -3.32705,-4.27126 -0.0199,-0.22778 0.10862,-0.6441 0.38268,-1.25314 0.22688,-0.50158 0.46674,-1.09777 0.53291,-1.32489 0.0662,-0.22713 0.16998,-0.43361 0.23068,-0.45883 0.0606,-0.0253 0.13048,-0.17165 0.15518,-0.32532 0.0606,-0.3771 0.40852,-0.82841 0.75602,-0.98078 0.15665,-0.0687 0.88478,-0.15157 1.61795,-0.1841 1.25111,-0.0555 1.51536,-0.0271 4.29897,0.4631 6.53517,1.15079 8.0518,1.36918 9.22377,1.3286 1.56045,-0.0541 2.39389,-0.20106 2.93336,-0.51713 0.25789,-0.1511 0.52871,-0.26511 0.6018,-0.25336 0.28694,0.0461 1.97772,-1.05048 3.19953,-2.07516 0.33861,-0.28396 1.85779,-1.92166 1.87355,-2.01968 0.0132,-0.0821 0.61291,-0.98936 1.05442,-1.59529 0.57239,-0.78554 0.96446,-2.00991 1.2793,-3.99512 0.31744,-2.0061 0.29077,-3.09549 -0.0978,-3.89312 -0.14419,-0.29598 -0.29681,-0.88036 -0.33913,-1.29861 -0.0463,-0.4582 -0.22041,-1.05797 -0.43791,-1.50903 -0.19855,-0.41171 -0.46258,-1.10152 -0.58674,-1.53294 -0.12416,-0.4314 -0.34208,-0.93255 -0.48426,-1.11366 -0.14218,-0.1811 -0.35111,-0.62902 -0.46429,-0.99536 -0.11319,-0.36633 -0.33292,-0.99725 -0.48834,-1.40204 -0.15542,-0.40478 -0.35743,-1.05874 -0.44894,-1.45324 -0.0914,-0.39451 -0.20152,-0.7402 -0.2445,-0.76821 -0.0429,-0.028 -0.0689,-0.10983 -0.0578,-0.18191 0.0113,-0.072 -0.035,-0.29529 -0.10272,-0.49607 -0.35915,-1.06532 -0.45134,-2.51867 -0.19729,-3.11078 0.11584,-0.27005 2.12393,-1.79676 3.1431,-2.38971 0.67254,-0.39125 0.60105,-0.40234 2.09759,0.32465 0.32292,0.157 0.78038,0.37186 1.01658,0.47758 0.23618,0.10583 0.49815,0.27352 0.58211,0.37292 0.0839,0.0993 0.20707,0.18942 0.27358,0.20012 0.0665,0.0107 0.43418,0.22514 0.81701,0.47661 0.38281,0.25144 0.76321,0.46796 0.84527,0.48115 0.082,0.0132 0.34104,0.22479 0.57545,0.47023 0.23441,0.24544 0.60865,0.59991 0.83166,0.78775 0.22298,0.1879 0.717,0.62815 1.09777,0.97845 0.97279,0.89493 2.89305,2.37577 3.59356,2.77121 0.11608,0.0654 0.47212,0.26682 0.79124,0.44735 1.54448,0.87364 2.00261,1.03861 3.58126,1.28956 0.83821,0.13374 1.73456,0.22213 1.99172,0.19752 0.25714,-0.0246 0.66124,-0.0547 0.89797,-0.0668 0.23674,-0.0121 0.55815,-0.0785 0.71427,-0.14758 0.1561,-0.0692 0.57605,-0.17145 0.93318,-0.2274 0.70897,-0.11111 1.53519,-0.37947 2.12504,-0.69025 0.20747,-0.10926 0.55241,-0.25603 0.7665,-0.32608 0.21412,-0.07 0.68135,-0.3263 1.0383,-0.56944 0.35696,-0.24315 0.74112,-0.50498 0.85369,-0.58184 0.56603,-0.38641 1.91862,-1.58133 2.01992,-1.78444 0.0635,-0.12738 0.28209,-0.41196 0.48567,-0.63245 0.5638,-0.61052 0.73556,-0.92149 1.24805,-2.25952 0.41223,-1.07628 0.52132,-1.53764 0.85659,-3.62314 0.21131,-1.31441 0.3925,-2.78357 0.40266,-3.26482 0.03,-1.41547 0.36945,-3.59369 0.89258,-5.72795 0.64117,-2.61578 0.70236,-2.71065 1.9633,-3.04442 1.30488,-0.34538 2.52771,-0.52156 3.35245,-0.48299 l 0.68634,0.0322 1.10507,1.55117 c 1.41675,1.98863 2.43937,3.87517 2.82389,5.20947 0.30703,1.06538 0.41806,1.36552 0.6852,1.8526 0.1386,0.25269 0.32882,0.69759 0.42269,0.98868 0.094,0.29109 0.31112,0.75076 0.48274,1.02151 0.17163,0.27074 0.41881,0.74079 0.54929,1.04453 0.25034,0.58264 0.40393,0.80224 1.40706,2.0117 0.93582,1.12824 1.03415,1.22026 2.10496,1.96943 1.51355,1.0589 2.64916,1.46628 5.21554,1.87097 1.47629,0.23227 2.32824,0.31383 2.94726,0.28041 0.47889,-0.0259 0.95297,-0.0339 1.05352,-0.0178 0.20935,0.0335 1.09935,-0.21854 2.33075,-0.66017 0.7759,-0.27827 1.93262,-0.94111 2.64895,-1.51795 1.08648,-0.87489 1.4232,-1.18826 1.85798,-1.72913 0.27036,-0.33635 0.56873,-0.70268 0.66305,-0.81412 0.0943,-0.11145 0.2385,-0.30334 0.32041,-0.42645 0.082,-0.12301 0.20785,-0.24834 0.27984,-0.27829 0.0721,-0.03 0.14637,-0.13957 0.16529,-0.24356 0.0197,-0.10381 0.16433,-0.37536 0.32321,-0.60301 0.15896,-0.22765 0.30035,-0.47423 0.31435,-0.54792 0.0149,-0.0737 0.20844,-0.32925 0.43215,-0.56789 0.22369,-0.23864 0.46342,-0.57817 0.53274,-0.75452 0.28694,-0.73009 0.86731,-1.64639 1.61835,-2.55517 0.43869,-0.53081 0.88918,-1.11499 1.00108,-1.29813 0.11189,-0.18316 0.3204,-0.40859 0.46333,-0.50098 0.14286,-0.0923 0.32154,-0.2616 0.39693,-0.37608 0.4786,-0.72688 1.74393,-1.8238 2.12903,-1.84572 0.35706,-0.0202 1.21604,0.19043 2.20812,0.54672 1.98146,0.70764 2.19949,0.82137 2.38956,1.24627 0.11403,0.25508 0.37339,2.46079 0.45993,3.91269 0.0134,0.22367 0.0561,0.54706 0.095,0.71864 0.0389,0.17155 -0.0366,1.32469 -0.16791,2.5625 -0.49584,4.67558 -0.55202,5.42393 -0.47242,6.29413 0.032,0.35077 0.0486,0.69841 0.0367,0.7725 -0.0119,0.0741 0.0944,0.54043 0.23621,1.03632 0.14183,0.49588 0.25163,0.94043 0.244,0.98787 -0.0292,0.18136 0.36382,1.37155 0.48827,1.47873 0.0717,0.0618 0.2201,0.30818 0.32944,0.54731 0.10936,0.23913 0.41527,0.73606 0.67986,1.1043 0.2646,0.36825 0.58509,0.82114 0.71221,1.00645 0.12714,0.1853 0.27194,0.34347 0.32181,0.35149 0.05,0.008 0.40952,0.32479 0.79923,0.70393 0.38975,0.37914 0.77007,0.69926 0.84522,0.71134 0.075,0.0121 0.57926,0.34409 1.12027,0.73782 1.13626,0.82694 1.89974,1.19854 3.06382,1.49119 2.17341,0.54642 3.37709,0.66041 4.70464,0.44527 0.97294,-0.15765 3.47412,-0.95784 4.10996,-1.31492 0.28707,-0.16122 0.68852,-0.36273 0.8921,-0.44781 0.20358,-0.0851 0.58963,-0.30474 0.85789,-0.4881 0.26825,-0.18334 0.65194,-0.39144 0.85263,-0.4624 0.20067,-0.0709 0.47878,-0.23343 0.61805,-0.361 0.26905,-0.24655 2.69126,-1.5267 4.03733,-2.13376 0.99455,-0.44852 2.66318,-1.03229 2.86021,-1.00062 0.0803,0.0129 0.22097,-0.0423 0.31266,-0.12237 0.29884,-0.26141 0.88762,-0.0688 1.28441,0.4201 0.19829,0.24432 0.55507,0.61419 0.79283,0.82191 0.23779,0.20775 0.50594,0.47841 0.59589,0.60149 0.09,0.12301 0.36157,0.43608 0.60357,0.69556 0.24203,0.25948 0.48924,0.55817 0.54938,0.66376 0.14821,0.26025 -0.0228,1.27671 -0.38922,2.31462 -0.16634,0.4708 -0.3793,1.11864 -0.47336,1.43959 -0.15279,0.52135 -0.8088,1.67042 -1.42935,2.50378 -0.12374,0.16615 -0.23568,0.36671 -0.24876,0.44566 -0.0242,0.14453 -1.06114,1.585 -1.30038,1.80582 -0.0709,0.0654 -0.29127,0.45525 -0.48995,0.86639 -0.19867,0.41116 -0.53502,0.97857 -0.74746,1.26091 -0.21241,0.28237 -0.45678,0.68329 -0.54303,0.89097 -0.0864,0.20768 -0.23922,0.57152 -0.33995,0.80852 -0.58907,1.38638 -0.71412,1.83364 -0.95455,3.41432 -0.21555,1.41891 -0.23852,1.86169 -0.14329,2.8024 0.14761,1.459 0.87215,3.64998 1.36413,4.12513 0.11695,0.1129 0.27809,0.39779 0.35814,0.63303 0.15494,0.45535 1.50029,2.42939 1.67478,2.45744 0.0571,0.009 0.33846,0.27766 0.62528,0.59663 0.5269,0.5859 2.07209,1.65051 3.24742,2.23741 0.84685,0.42286 3.28164,0.92748 4.61341,0.95615 1.55724,0.0335 3.48081,-0.0185 3.99707,-0.10799 0.49084,-0.0851 1.56835,-0.0818 3.33594,0.0103 1.34726,0.0702 4.8593,0.63559 5.10365,0.82149 0.10495,0.08 0.24762,0.42654 0.31707,0.77029 0.0695,0.34374 0.28301,1.09865 0.47459,1.6776 0.56299,1.70116 0.43881,2.43567 -0.53682,3.17539 -0.27553,0.20891 -0.52864,0.43307 -0.56252,0.4981 -0.20292,0.38976 -3.1097,2.55337 -3.96675,2.95261 -0.27181,0.12663 -0.59614,0.3027 -0.72075,0.39128 -0.12452,0.0887 -0.46458,0.26138 -0.75546,0.38395 -0.29088,0.12259 -0.77363,0.3834 -1.07278,0.57955 -0.29914,0.19616 -0.58589,0.34988 -0.63722,0.34163 -0.22666,-0.0364 -3.28823,2.2641 -3.98328,2.99313 -0.95905,1.00598 -1.08865,1.18582 -1.70409,2.36496 -0.85118,1.63077 -1.18315,2.59698 -1.3,3.78372 -0.0987,1.00068 -0.0976,1.40722 0.006,2.62586 0.0246,0.2888 0.0565,0.76004 0.0712,1.04724 0.0146,0.2872 0.0657,0.73563 0.11333,0.99649 0.0477,0.26086 0.093,0.60546 0.10072,0.76576 0.008,0.16031 0.24456,0.80342 0.52634,1.42908 0.28175,0.6257 0.50675,1.17909 0.49999,1.22978 -0.007,0.0505 0.19871,0.38326 0.45664,0.739 0.25793,0.35575 0.46269,0.68581 0.45503,0.73348 -0.012,0.0745 0.21511,0.30076 1.00266,0.99871 0.0891,0.079 0.35982,0.32745 0.60173,0.55233 0.82107,0.76326 4.03862,2.64243 5.29533,3.09267 0.58216,0.20857 2.26443,1.09503 2.73349,1.44038 0.15284,0.11249 0.3837,0.22162 0.51303,0.24242 0.20729,0.0333 1.24416,0.71072 3.00465,1.96297 0.30366,0.21599 0.7222,0.5924 0.9301,0.83648 l 0.37801,0.44377 -0.15649,0.97292 c -0.16122,1.00225 -0.71191,3.258 -0.87717,3.5931 -0.0918,0.18637 -1.65195,0.7388 -1.95069,0.69077 -0.0844,-0.0136 -0.57488,0.0926 -1.08987,0.23588 -0.51499,0.14329 -1.10704,0.30706 -1.31565,0.36394 -0.20862,0.0569 -0.50038,0.0839 -0.6484,0.0601 -0.14807,-0.0238 -0.32414,-0.007 -0.39134,0.0369 -0.0672,0.044 -0.61512,0.0857 -1.21759,0.0927 -2.12156,0.0247 -2.37413,0.0311 -3.46687,0.0882 -0.60645,0.0316 -1.41428,0.0634 -1.79521,0.0704 -0.64256,0.0118 -1.64292,0.15816 -2.14834,0.31413 -0.40929,0.12629 -1.05975,0.29864 -1.50204,0.39799 -0.39989,0.0898 -1.25529,0.48846 -2.55228,1.18937 -0.89457,0.48346 -2.52361,2.29942 -3.53829,3.94427 -1.09462,1.77444 -1.87003,4.63899 -1.85725,6.86116 0.007,1.14999 0.12366,2.04554 0.31179,2.38531 0.0577,0.10417 0.18166,0.46077 0.27544,0.79236 0.18861,0.66685 1.35475,2.89621 2.03017,3.88113 0.56105,0.81814 0.46115,0.67936 2.1566,2.99588 1.68482,2.30201 2.31556,3.25931 2.47533,3.75697 0.0623,0.19412 0.22638,0.5265 0.36456,0.73861 0.1382,0.21211 0.35191,0.65436 0.47492,0.98278 0.29905,0.79836 0.15167,1.32859 -0.62381,2.24437 -0.31857,0.37618 -0.77588,0.96402 -1.01628,1.30635 -0.2404,0.3423 -0.62351,0.76707 -0.85134,0.94389 l -0.41426,0.32153 -1.75262,-0.35012 c -0.9639,-0.19263 -1.97045,-0.44463 -2.23676,-0.56 -0.26629,-0.11553 -0.75491,-0.29756 -1.08583,-0.40471 -1.44002,-0.46633 -2.08522,-0.77263 -3.62353,-1.72034 -0.4255,-0.26212 -0.89604,-0.49624 -1.04564,-0.52029 -0.1496,-0.024 -0.49739,-0.15208 -0.77289,-0.28415 -1.98724,-0.9538 -5.33157,-1.64488 -7.03846,-1.45448 -1.76309,0.19667 -1.84449,0.21901 -3.2774,0.89913 -1.44604,0.68634 -3.72223,2.32758 -4.57445,3.29834 -1.54543,1.76048 -2.18235,2.97244 -2.66348,5.06807 -0.34213,1.49017 -0.39581,4.06678 -0.1171,5.62058 0.1693,0.94384 0.34371,2.073 0.60158,3.89467 0.0871,0.61534 0.1828,1.2781 0.21267,1.4728 0.12013,0.78304 0.0716,3.14698 -0.0846,4.11848 -0.16403,1.02032 -0.17161,1.03593 -0.58545,1.31504 -0.40896,0.27533 -1.55023,0.8272 -1.67067,0.80784 -0.0331,-0.005 -0.48827,0.18424 -1.01142,0.42125 -0.88981,0.40315 -0.98821,0.42203 -1.52545,0.29264 -0.4638,-0.11164 -0.6749,-0.24469 -1.09731,-0.69126 -0.28767,-0.30407 -0.70712,-0.6965 -0.9321,-0.87199 -0.22499,-0.17549 -0.476,-0.40075 -0.5578,-0.50056 -0.0818,-0.0997 -0.51195,-0.51328 -0.95587,-0.91885 -0.47005,-0.42943 -1.09186,-1.16769 -1.48894,-1.76771 -0.5898,-0.89129 -1.17045,-1.69214 -2.72798,-3.76256 -0.18254,-0.24264 -0.51343,-0.60061 -0.73529,-0.7955 -0.22187,-0.19489 -0.5542,-0.54373 -0.73855,-0.7752 -0.18433,-0.23148 -0.59257,-0.59147 -0.90719,-0.80002 -0.31462,-0.20853 -0.84788,-0.58299 -1.18502,-0.83215 -0.94294,-0.69687 -2.09166,-1.109 -3.92178,-1.40699 -1.62594,-0.26645 -2.50181,-0.27435 -3.96359,-0.0436 -0.42216,0.0668 -0.87807,0.17321 -1.01315,0.23674 -0.13509,0.0636 -0.31895,0.10376 -0.4086,0.0894 -0.21649,-0.0348 -1.95974,0.50101 -2.13112,0.65502 -0.074,0.0665 -0.45492,0.24838 -0.84649,0.40418 -0.39159,0.15582 -0.9262,0.48662 -1.18803,0.73511 -0.26183,0.24849 -0.53998,0.44153 -0.61809,0.42897 -0.15934,-0.0256 -0.72843,0.49183 -0.76053,0.6915 -0.0114,0.0711 -0.33827,0.50403 -0.72634,0.96218 -0.53913,0.63646 -0.87004,1.18427 -1.40286,2.32241 -1.01598,2.17015 -1.47305,3.31151 -1.7501,4.3701 -0.29485,1.12668 -0.88049,2.81897 -1.07526,3.10719 -0.19251,0.2849 -0.63024,1.09156 -0.80417,1.48198 -0.38011,0.85335 -0.89757,1.73784 -1.3548,2.31578 -0.46559,0.58856 -0.54622,0.64065 -1.06072,0.68569 -0.30625,0.0268 -1.36928,-0.0525 -2.36227,-0.17624 l -1.80547,-0.22492 -0.31993,-0.3708 z m 5.67135,-34.70451 c 0.47319,0.01 1.55453,0.0486 2.40296,0.0865 2.78467,0.12466 4.78582,0.12989 5.29191,0.0139 0.45395,-0.10408 1.54525,-0.25432 2.00081,-0.27549 0.94261,-0.0438 2.33119,-0.23724 3.05975,-0.42629 0.43001,-0.11158 1.26065,-0.28207 1.8459,-0.37884 0.58525,-0.0968 1.30395,-0.25709 1.59709,-0.35622 0.29313,-0.0991 0.7588,-0.25739 1.03478,-0.35171 0.27603,-0.0943 0.56364,-0.1646 0.63919,-0.15621 0.0756,0.007 0.66292,-0.18506 1.30531,-0.42994 0.64241,-0.24485 1.21961,-0.43692 1.2827,-0.42678 0.14055,0.0226 0.36409,-0.0632 1.6366,-0.62882 0.5491,-0.24407 1.0527,-0.43499 1.11912,-0.42431 0.0663,0.0107 0.2952,-0.095 0.5084,-0.23478 0.40014,-0.26237 0.93549,-0.52702 1.37535,-0.67992 0.21551,-0.0748 2.28177,-1.23152 3.82737,-2.1424 0.36363,-0.21431 3.04912,-2.06144 3.54887,-2.44097 0.56411,-0.42844 1.52764,-1.21252 1.92421,-1.56584 0.27083,-0.24133 0.55879,-0.47987 0.63991,-0.53012 0.22601,-0.14006 2.10617,-1.9839 2.55942,-2.51006 0.22107,-0.2566 0.54086,-0.57372 0.71065,-0.70466 0.31712,-0.24458 1.98314,-2.15604 2.49168,-2.85875 0.15671,-0.21659 0.49392,-0.62848 0.74931,-0.91534 0.52891,-0.59414 1.09438,-1.3809 1.12374,-1.56355 0.0224,-0.13949 1.16606,-1.7132 1.34612,-1.85233 0.0644,-0.0498 0.13475,-0.20021 0.15631,-0.3343 0.0339,-0.21104 0.30857,-0.70613 0.81634,-1.47162 0.26892,-0.40538 0.66334,-1.16773 0.90703,-1.75318 0.13582,-0.3263 0.389,-0.93296 0.56254,-1.34816 0.17356,-0.41521 0.41535,-0.99781 0.53733,-1.29471 0.12207,-0.29686 0.27592,-0.60023 0.34211,-0.67409 0.30601,-0.34163 0.71701,-1.56468 1.69391,-5.0408 0.40018,-1.4239 0.94661,-4.82893 1.15134,-7.18064 0.0846,-0.96756 0.24135,-2.75502 0.34826,-3.97216 0.20905,-2.38028 0.28858,-3.92795 0.24923,-4.85125 -0.0135,-0.31866 -0.0139,-0.88843 -7.3e-4,-1.2661 0.0131,-0.37769 -0.0264,-0.87605 -0.0881,-1.10752 -0.0616,-0.23143 -0.14972,-0.73761 -0.19578,-1.12482 -0.0807,-0.67807 -0.15443,-1.03948 -0.38269,-1.87586 -0.2399,-0.87904 -0.36857,-1.6083 -0.36001,-2.04059 0.005,-0.25189 -0.0398,-0.48351 -0.0996,-0.51473 -0.0597,-0.0313 -0.0931,-0.15397 -0.0739,-0.27291 0.0191,-0.11898 -0.10154,-0.496 -0.26813,-0.83797 -0.16656,-0.34198 -0.2945,-0.67374 -0.28429,-0.73724 0.0102,-0.0636 -0.0944,-0.43043 -0.23243,-0.81541 -0.13806,-0.38495 -0.39517,-1.14182 -0.57137,-1.6819 -0.34949,-1.07125 -0.51388,-1.47518 -1.40476,-3.45188 -0.32659,-0.72467 -0.63837,-1.44187 -0.69285,-1.59378 -0.0545,-0.15202 -0.25657,-0.50573 -0.44906,-0.78617 -0.19251,-0.28045 -0.61535,-0.95351 -0.93964,-1.49568 -0.74858,-1.25157 -1.95825,-3.1837 -2.41298,-3.85411 -0.19275,-0.28418 -0.47302,-0.75651 -0.62286,-1.04962 -0.14983,-0.29311 -0.31192,-0.5393 -0.36023,-0.54706 -0.0482,-0.008 -0.29629,-0.29364 -0.55106,-0.63525 -1.34601,-1.80483 -2.94262,-3.56907 -3.97312,-4.39027 -0.28325,-0.22573 -0.60141,-0.51724 -0.70704,-0.6478 -0.26923,-0.33283 -1.15354,-1.06498 -1.47277,-1.21935 -0.14682,-0.071 -0.46118,-0.31369 -0.69857,-0.53933 -0.2374,-0.22561 -0.83729,-0.6821 -1.33311,-1.0144 -0.4958,-0.33229 -0.98777,-0.71151 -1.0933,-0.84271 -0.10551,-0.13116 -0.45163,-0.39422 -0.76919,-0.5845 -0.31757,-0.19023 -0.90361,-0.57179 -1.30233,-0.84778 -0.79118,-0.54768 -2.33612,-1.46461 -2.51916,-1.49517 -0.063,-0.0105 -0.23872,-0.1116 -0.39036,-0.22454 -0.15164,-0.113 -0.43796,-0.26504 -0.63622,-0.33792 -0.19826,-0.073 -0.52616,-0.22956 -0.72863,-0.34817 -0.20248,-0.11865 -0.95284,-0.44453 -1.66746,-0.72425 -1.72396,-0.6748 -2.17903,-0.86534 -2.74973,-1.15126 -0.2636,-0.13211 -0.63441,-0.26483 -0.824,-0.29502 -0.1896,-0.0301 -0.55649,-0.16411 -0.81531,-0.2977 -1.02783,-0.53046 -5.89863,-1.64132 -8.80867,-2.00895 -2.20321,-0.27833 -5.43905,-0.53585 -6.71413,-0.5343 -0.44318,5.6e-4 -1.06449,-5.2e-4 -1.38069,-0.002 -0.31621,-0.002 -0.8956,0.0585 -1.28754,0.13408 -0.39195,0.0755 -1.29028,0.18696 -1.99631,0.24751 -0.70602,0.0605 -1.52526,0.18836 -1.8205,0.28407 -0.57575,0.18658 -1.67616,0.40497 -2.14925,0.42654 -0.463,0.0212 -1.55353,0.27763 -2.15916,0.50789 -0.30684,0.11667 -0.74599,0.24235 -0.9759,0.27929 -0.597,0.096 -4.14806,1.24392 -4.63011,1.49678 -0.22257,0.11673 -0.57074,0.26515 -0.77368,0.32977 -0.20297,0.0646 -0.6515,0.28345 -0.99681,0.48634 -0.34529,0.20285 -0.66705,0.36251 -0.71507,0.35479 -0.0479,-0.008 -0.51459,0.21508 -1.03687,0.49509 -0.52226,0.28002 -1.18963,0.62588 -1.48303,0.76863 -0.29341,0.14272 -0.77183,0.42834 -1.06319,0.63471 -0.29138,0.20634 -0.91316,0.59839 -1.38178,0.87121 -1.16858,0.6803 -1.98706,1.20659 -3.07856,1.97951 -0.50997,0.3611 -1.35133,0.95091 -1.86964,1.31069 -0.51835,0.35975 -1.02974,0.76955 -1.13643,0.91065 -0.10675,0.14108 -0.46141,0.44443 -0.78825,0.67409 -0.32685,0.22968 -0.60141,0.46208 -0.61015,0.51646 -0.009,0.0544 -0.31388,0.34154 -0.67805,0.63809 -0.36416,0.29656 -0.67573,0.6239 -0.69238,0.72745 -0.0166,0.1035 -0.11619,0.23892 -0.22102,0.30087 -0.10484,0.0618 -0.19792,0.15742 -0.20673,0.2122 -0.009,0.0548 -0.23493,0.32444 -0.50248,0.59923 -0.26754,0.27477 -0.68493,0.75783 -0.92752,1.07344 -0.24259,0.31563 -0.61493,0.73321 -0.82744,0.92801 -0.2125,0.19479 -0.5957,0.64416 -0.85152,0.99857 -0.25583,0.35442 -0.60107,0.76504 -0.76723,0.91247 -0.36078,0.32017 -0.80035,0.95324 -0.84207,1.21277 -0.0252,0.15687 -0.76436,1.31768 -1.25303,1.96786 -0.22211,0.29548 -0.79487,1.48251 -0.83429,1.729 -0.0386,0.24129 -0.64503,1.51722 -0.96554,2.0315 -0.24194,0.38816 -0.55523,1.0963 -0.82691,1.86897 -0.19845,0.56416 -0.68413,1.65064 -1.0372,2.31985 -0.32429,0.6146 -0.59868,1.41464 -1.01011,2.94503 -0.22832,0.84946 -0.52235,1.9416 -0.65327,2.42694 -0.50107,1.85732 -1.54496,10.83857 -1.33547,11.48996 0.0579,0.18024 0.0837,0.4623 0.0573,0.62677 -0.0264,0.16448 -0.01,0.5452 0.037,0.84608 0.1217,0.78231 0.24306,2.42319 0.19934,2.69511 -0.0411,0.25579 0.1164,1.29097 0.32304,2.12298 0.0737,0.29669 0.19201,1.04078 0.26294,1.65351 0.13106,1.13244 0.15335,1.23764 0.55528,2.62125 0.12538,0.4316 0.30611,1.1219 0.4016,1.53399 0.0955,0.41209 0.28475,1.01794 0.42058,1.34633 0.13583,0.3284 0.23769,0.6548 0.22635,0.7253 -0.026,0.16152 0.16809,0.71145 0.58707,1.66371 0.17982,0.40872 0.3713,0.93151 0.4255,1.16178 0.0542,0.23026 0.19083,0.56295 0.3036,0.73933 0.21741,0.34004 0.81151,1.81368 0.78861,1.95612 -0.007,0.0462 0.19542,0.39517 0.45082,0.77512 0.25541,0.37995 0.4526,0.76428 0.43816,0.85407 -0.0144,0.0898 0.12182,0.35589 0.3028,0.59136 0.18099,0.2355 0.41757,0.61629 0.52577,0.8462 0.67264,1.42953 3.85953,5.9573 5.36861,7.62749 0.42942,0.47526 0.98322,1.14693 1.23067,1.4926 0.24744,0.34569 0.52858,0.64117 0.62476,0.65663 0.15896,0.0255 0.74026,0.51843 0.84746,0.71856 0.0517,0.0966 1.51412,1.27235 1.59965,1.2861 0.0318,0.005 0.22788,0.19482 0.43556,0.42157 0.20768,0.22674 0.71525,0.65954 1.12794,0.96175 0.41268,0.30223 0.93895,0.71858 1.16949,0.92523 0.23056,0.20664 0.55156,0.43251 0.71337,0.50193 0.16179,0.0696 0.87892,0.54836 1.59357,1.06427 0.71468,0.51591 1.3877,0.9532 1.49561,0.97172 0.10793,0.0184 0.68552,0.3713 1.2836,0.78394 0.59807,0.41265 1.16654,0.76299 1.26327,0.77854 0.0968,0.0155 0.27337,0.10259 0.39255,0.19332 0.2018,0.1537 0.46916,0.27203 2.17627,0.96354 0.35656,0.14452 0.81724,0.33947 1.02367,0.43342 0.20646,0.094 0.96766,0.35231 1.69161,0.5741 0.72392,0.22178 1.75899,0.54862 2.30013,0.72621 0.54115,0.17765 1.42887,0.45441 1.97273,0.61508 0.54387,0.16067 1.28536,0.38062 1.64778,0.48873 0.85375,0.25475 4.79753,0.81148 5.90813,0.83405 z"
             style="fill:#000000;stroke-width:0.1136307" />
          <circle
             r="23.040255"
             cy="468.5137"
             cx="555.18945"
             id="path1479"
             style="opacity:1;fill:#000000;fill-opacity:1;stroke-width:0.37795275;stroke-miterlimit:4;stroke-dasharray:none;paint-order:markers stroke fill" />
          <circle
             r="19.332626"
             cy="468.5137"
             cx="555.18945"
             id="path1479-7"
             style="opacity:1;fill:#4571d8;fill-opacity:1;stroke-width:0.31713277;stroke-miterlimit:4;stroke-dasharray:none;paint-order:markers stroke fill" />
        </g>
        <path
           inkscape:connector-curvature="0"
           id="path825"
           d="m 449.69997,515.39759 c -0.14623,-0.0596 -0.38681,-0.23042 -0.53464,-0.37973 -0.14781,-0.14932 -0.39195,-0.3665 -0.54253,-0.48265 -0.15058,-0.11615 -0.39915,-0.35077 -0.55239,-0.52137 -0.15323,-0.17059 -0.40021,-0.44411 -0.54881,-0.60781 -0.14858,-0.1637 -0.35846,-0.39508 -0.46638,-0.51419 -0.10798,-0.11908 -0.32263,-0.4434 -0.47714,-0.7207 -0.15452,-0.27728 -0.3515,-0.58478 -0.43771,-0.68334 -0.0862,-0.0985 -0.17275,-0.22806 -0.19239,-0.28778 -0.0196,-0.0596 -0.11992,-0.17585 -0.22298,-0.25802 -0.10299,-0.0822 -0.20159,-0.19206 -0.21893,-0.24419 -0.0172,-0.0522 -0.0929,-0.15511 -0.16785,-0.2288 -0.0749,-0.0737 -0.18632,-0.22342 -0.24748,-0.33272 -0.0611,-0.1093 -0.41201,-0.48269 -0.77967,-0.82979 -0.61107,-0.57689 -0.8133,-0.72215 -1.55245,-1.11522 -0.41155,-0.21886 -1.31185,-0.55146 -1.51801,-0.56082 -0.10695,-0.005 -0.49287,-0.0548 -0.85758,-0.11112 -1.0296,-0.15884 -1.50908,-0.0944 -3.08601,0.41446 -0.79982,0.25797 -1.47196,0.50913 -1.68404,0.6289 -0.47403,0.26774 -1.45577,1.21946 -1.81022,1.75488 -0.46235,0.69842 -1.4037,2.70936 -1.34838,2.88044 0.014,0.0435 -0.0504,0.24279 -0.14329,0.44286 -0.0928,0.20007 -0.18566,0.46369 -0.2062,0.58584 -0.0906,0.53899 -1.33638,3.03471 -1.8451,3.69637 -0.29282,0.38087 -0.52987,0.45991 -1.11345,0.37123 -0.24783,-0.0376 -0.53829,-0.0679 -0.64546,-0.0673 -0.60813,0.003 -1.17394,-0.10273 -1.43641,-0.26923 -0.27993,-0.17757 -1.27131,-3.30746 -1.22456,-3.86615 0.0128,-0.15326 -0.007,-0.37067 -0.0428,-0.48321 -0.0364,-0.11253 -0.0651,-0.29628 -0.064,-0.40825 0.004,-0.40258 -0.30101,-1.87703 -0.59654,-2.88006 -0.3121,-1.05929 -0.43745,-1.32343 -1.07084,-2.25854 -0.33146,-0.48924 -1.40104,-1.40303 -1.99296,-1.70268 -1.01268,-0.51263 -2.55421,-0.97629 -3.38119,-1.01701 -1.21148,-0.0596 -2.50278,0.24097 -3.56002,0.82872 -0.33112,0.18412 -0.67805,0.36041 -0.77094,0.39181 -0.0928,0.0321 -0.22701,0.12092 -0.29805,0.19886 -0.071,0.078 -0.18854,0.16219 -0.26117,0.18704 -0.0723,0.0254 -0.1629,0.11385 -0.20064,0.19767 -0.0659,0.14636 -0.27501,0.34643 -0.75517,0.72239 -0.1229,0.0962 -0.29449,0.24746 -0.38131,0.33611 -0.5489,0.5603 -0.79271,0.78277 -1.11406,1.01649 -0.19915,0.14481 -0.46023,0.34942 -0.58021,0.45466 -0.49354,0.43286 -0.67418,0.56967 -0.984,0.74527 -0.36834,0.20878 -1.41666,0.73105 -1.58045,0.78739 -0.15537,0.0534 -0.62683,-0.16754 -1.06866,-0.50085 -0.20991,-0.15836 -0.40373,-0.28079 -0.43068,-0.27208 -0.027,0.009 -0.14371,-0.0646 -0.25942,-0.16295 -0.11568,-0.0984 -0.26704,-0.20778 -0.33628,-0.24318 -0.222,-0.11351 -0.35784,-0.50609 -0.34205,-0.98845 0.008,-0.24304 0.038,-0.49669 0.0666,-0.56371 0.0286,-0.0669 0.10428,-0.4695 0.16806,-0.89436 0.0638,-0.42489 0.17691,-0.91044 0.25141,-1.07903 0.0745,-0.16857 0.12308,-0.34465 0.10801,-0.39127 -0.0151,-0.0467 0.10048,-0.37528 0.2568,-0.73036 0.38628,-0.87742 0.69179,-1.71766 0.74731,-2.05535 0.0133,-0.0814 0.0686,-0.24274 0.12271,-0.35867 0.0541,-0.11588 0.14004,-0.47446 0.19094,-0.79676 0.10396,-0.65842 0.14499,-0.86037 0.20684,-1.01797 0.0235,-0.0598 0.0165,-0.2893 -0.0155,-0.50995 -0.0321,-0.22064 -0.0651,-0.52496 -0.0735,-0.67623 -0.0244,-0.43829 -0.29015,-1.39765 -0.53378,-1.9274 -0.27638,-0.60082 -0.71648,-1.35542 -0.82272,-1.41047 -0.0435,-0.0225 -0.0912,-0.0785 -0.10607,-0.12452 -0.0148,-0.046 -0.26521,-0.33308 -0.55634,-0.63804 -0.29112,-0.30494 -0.53925,-0.58518 -0.5514,-0.62278 -0.0589,-0.18213 -1.83463,-1.17251 -2.38434,-1.3298 -0.22988,-0.0658 -0.52639,-0.15154 -0.65895,-0.19057 -0.23243,-0.0684 -1.33393,-0.0923 -2.1888,-0.0474 -0.65296,0.0343 -1.41101,0.20304 -3.18345,0.70872 -1.14654,0.32717 -1.78137,0.47867 -2.07949,0.49645 -0.61269,0.0365 -1.40671,0.0727 -1.81073,0.0825 -0.79237,0.0196 -0.75739,0.0401 -1.2545,-0.75129 -0.15535,-0.24736 -0.3256,-0.49155 -0.37832,-0.54266 -0.0528,-0.051 -0.20377,-0.35775 -0.33567,-0.68137 l -0.2398,-0.58846 0.27591,-0.35927 c 0.15175,-0.19758 0.26927,-0.37974 0.26118,-0.40477 -0.0128,-0.0398 0.56893,-0.81939 1.18939,-1.59352 0.11376,-0.14194 0.26915,-0.27881 0.34529,-0.30417 0.0762,-0.0253 0.14639,-0.0782 0.15606,-0.11762 0.0261,-0.1065 0.76128,-0.78702 0.99647,-0.92244 0.19049,-0.10963 0.53772,-0.41289 0.71178,-0.62151 0.0416,-0.0498 0.209,-0.21418 0.37195,-0.3651 0.50396,-0.46677 0.71281,-0.6891 0.88527,-0.94231 0.0914,-0.13413 0.24963,-0.32662 0.3517,-0.4277 0.16884,-0.16721 0.4259,-0.59251 0.74448,-1.23173 0.25936,-0.52037 0.42624,-1.0411 0.48173,-1.50306 0.0319,-0.2659 0.0863,-0.69733 0.12076,-0.95873 0.0673,-0.50976 0.0382,-0.73575 -0.26447,-2.05121 -0.25859,-1.1243 -0.74611,-2.26488 -1.20824,-2.82707 -0.42383,-0.51556 -1.16198,-1.23393 -1.40411,-1.36646 -0.13263,-0.0726 -0.31263,-0.20341 -0.39996,-0.29066 -0.0872,-0.0872 -0.25678,-0.18994 -0.37653,-0.22823 -0.11977,-0.0383 -0.40717,-0.15008 -0.6387,-0.24846 -0.52777,-0.22423 -1.28792,-0.46729 -1.78255,-0.57001 -0.2087,-0.0433 -0.52314,-0.13353 -0.69878,-0.20045 -0.17566,-0.067 -0.60108,-0.16492 -0.94543,-0.21774 -0.34434,-0.0528 -0.78442,-0.14739 -0.97796,-0.21014 -0.19355,-0.0627 -0.39077,-0.11375 -0.43826,-0.11332 -0.38505,0.003 -2.71325,-1.08372 -2.87546,-1.34267 -0.0711,-0.11361 -0.11496,-0.36521 -0.13433,-0.75619 -0.015,-0.32231 -0.049,-0.69747 -0.075,-0.83368 -0.0259,-0.13621 -0.0269,-0.27164 -0.002,-0.30099 0.0249,-0.0294 0.0223,-0.12437 -0.006,-0.21118 -0.0688,-0.21301 -0.008,-0.54134 0.13317,-0.71352 0.0635,-0.0777 0.42146,-0.31501 0.79551,-0.52745 0.63829,-0.36253 0.78382,-0.41813 2.36757,-0.90435 3.71825,-1.14151 4.56818,-1.43183 5.16912,-1.76553 0.80014,-0.44428 1.19603,-0.74316 1.39339,-1.05198 0.0944,-0.14763 0.20532,-0.27934 0.2466,-0.29269 0.16208,-0.0525 0.75233,-1.07561 1.11696,-1.93625 0.10106,-0.23851 0.45748,-1.49841 0.43957,-1.55379 -0.0149,-0.0464 0.0562,-0.67985 0.12511,-1.11386 0.0894,-0.56267 -0.0326,-1.30631 -0.39727,-2.42656 -0.36918,-1.13182 -0.67346,-1.6934 -1.08896,-2.00618 -0.15417,-0.11607 -0.38964,-0.38043 -0.52323,-0.58748 -0.14639,-0.22682 -0.39712,-0.49352 -0.63091,-0.67099 -0.21339,-0.16199 -0.53512,-0.45168 -0.71495,-0.64379 -0.17983,-0.1921 -0.42719,-0.3956 -0.54969,-0.45224 -0.12248,-0.0566 -0.35098,-0.23475 -0.50773,-0.39581 -0.15676,-0.16105 -0.43965,-0.43182 -0.62869,-0.60169 -0.18906,-0.16987 -0.46885,-0.45738 -0.62178,-0.63892 -0.1529,-0.18157 -0.30255,-0.33267 -0.33245,-0.33583 -0.0299,-0.003 -0.0652,-0.039 -0.0787,-0.0796 -0.0133,-0.0406 -0.0969,-0.14483 -0.18587,-0.23157 -0.47149,-0.46036 -0.90708,-1.19446 -0.93232,-1.57126 -0.0113,-0.17185 0.62971,-1.50417 1.00365,-2.08541 0.24676,-0.38354 0.2065,-0.37027 1.1816,-0.38949 0.2104,-0.005 0.50651,-0.0137 0.65799,-0.0214 0.15152,-0.008 0.33297,0.01 0.4033,0.0395 0.0702,0.0294 0.1586,0.0437 0.19617,0.0315 0.0374,-0.0121 0.28667,0.002 0.55356,0.031 0.26686,0.0292 0.52316,0.0408 0.56952,0.0258 0.0463,-0.0149 0.23795,0.0264 0.42574,0.092 0.1878,0.0656 0.47767,0.15091 0.64414,0.18951 0.16651,0.0387 0.54176,0.13675 0.83392,0.21809 0.74639,0.20783 2.14358,0.4689 2.61467,0.48858 0.0781,0.004 0.31759,0.0134 0.53231,0.0226 1.03913,0.0443 1.32227,0.008 2.21325,-0.28159 0.47315,-0.15381 0.96469,-0.34645 1.09236,-0.42788 0.12766,-0.0814 0.33059,-0.20487 0.45095,-0.27425 0.12037,-0.0694 0.27045,-0.18973 0.33352,-0.26746 0.063,-0.0777 0.255,-0.24307 0.42651,-0.36749 0.34047,-0.24702 0.70021,-0.60736 0.92528,-0.92685 0.0792,-0.11231 0.2201,-0.28092 0.31318,-0.37457 0.0931,-0.0936 0.26869,-0.35197 0.39019,-0.57406 0.12152,-0.22209 0.25225,-0.46119 0.29052,-0.53132 0.19247,-0.35261 0.57997,-1.33698 0.5787,-1.47001 -5.9e-4,-0.0834 0.0374,-0.29025 0.085,-0.45963 0.13154,-0.469 0.1383,-0.67712 0.0491,-1.51222 -0.0717,-0.67173 -0.13778,-0.94164 -0.51876,-2.11969 -0.24012,-0.74247 -0.53717,-1.5577 -0.66018,-1.81163 -0.36169,-0.7469 -0.76521,-1.97445 -1.06116,-3.22801 -0.36267,-1.5364 -0.35602,-1.60223 0.21323,-2.11263 0.58909,-0.52817 1.18045,-0.94614 1.62125,-1.14589 l 0.36683,-0.16624 0.99041,0.51513 c 1.26972,0.66038 2.30649,1.37255 2.86294,1.96656 0.44429,0.47429 0.58228,0.60137 0.85158,0.7844 0.13973,0.095 0.35762,0.27649 0.48423,0.40341 0.1266,0.12694 0.36256,0.30896 0.52433,0.40455 0.16177,0.0956 0.41612,0.27505 0.56521,0.39882 0.286,0.23741 0.42473,0.3111 1.27081,0.67501 0.78931,0.33948 0.86516,0.36129 1.62386,0.46688 1.0724,0.14927 1.77381,0.0592 3.22138,-0.41376 0.83254,-0.27241 1.29904,-0.4569 1.61325,-0.63937 0.24311,-0.14115 0.48844,-0.27174 0.54523,-0.29014 0.11823,-0.0383 0.51561,-0.40716 1.04067,-0.96599 0.33085,-0.35212 0.75796,-1.0065 0.97811,-1.49859 0.33391,-0.74636 0.42614,-0.99971 0.50891,-1.39797 0.0514,-0.24765 0.10954,-0.51842 0.12907,-0.60175 0.0195,-0.0833 0.0436,-0.22193 0.0536,-0.30802 0.01,-0.0861 0.0423,-0.18506 0.0719,-0.21989 0.0296,-0.0349 0.0392,-0.11188 0.0214,-0.1712 -0.0172,-0.0595 -0.0144,-0.23975 0.008,-0.40095 0.0223,-0.1612 0.0303,-0.32762 0.018,-0.36982 -0.0116,-0.0425 0.0211,-0.22745 0.0742,-0.41166 0.0532,-0.1842 0.0878,-0.42536 0.0769,-0.53589 -0.0448,-0.4576 0.0138,-1.09066 0.16359,-1.76529 0.0875,-0.39404 0.16691,-0.81908 0.17651,-0.94452 0.01,-0.12543 0.0584,-0.29871 0.10829,-0.38503 0.05,-0.0863 0.0981,-0.2223 0.10694,-0.30214 0.0561,-0.50705 0.42413,-1.41698 0.61932,-1.53109 0.18101,-0.10572 0.68554,-0.22485 1.29842,-0.30328 1.223,-0.15887 1.36713,-0.15762 1.57964,0.0135 0.1275,0.10275 0.85096,1.18501 1.28319,1.91985 0.0666,0.11321 0.17517,0.27061 0.24119,0.34981 0.0661,0.0792 0.33403,0.70127 0.59551,1.38243 0.98766,2.57289 1.15784,2.97852 1.43139,3.41155 0.11026,0.17456 0.21156,0.35162 0.2251,0.39348 0.0135,0.0419 0.19335,0.25695 0.39958,0.478 0.20625,0.22103 0.38208,0.42383 0.39074,0.45062 0.0331,0.10245 0.55557,0.61898 0.64911,0.64176 0.0539,0.0131 0.19705,0.10219 0.31788,0.19786 0.12081,0.0957 0.41301,0.27353 0.64931,0.39521 0.23629,0.12169 0.52433,0.27267 0.6401,0.33551 0.11575,0.0628 0.23352,0.1068 0.26169,0.0977 0.0281,-0.009 0.30037,0.0604 0.60489,0.15438 0.30451,0.094 0.58839,0.15972 0.63085,0.14599 0.0423,-0.0137 0.39411,0.0252 0.7815,0.0865 0.8136,0.12874 1.3112,0.11918 1.99688,-0.0384 1.28023,-0.29418 1.93896,-0.55558 2.57459,-1.02183 0.46587,-0.34166 1.55818,-1.42619 1.79491,-1.78209 0.10686,-0.1607 0.26271,-0.37292 0.34629,-0.4716 0.0836,-0.0987 0.22654,-0.31628 0.3177,-0.48351 0.0912,-0.16722 0.23597,-0.37815 0.32181,-0.4687 0.0858,-0.0905 0.18771,-0.24949 0.22639,-0.3532 0.0747,-0.20043 0.99785,-1.51444 1.53868,-2.1902 0.3996,-0.49928 1.11501,-1.24887 1.2263,-1.28486 0.0453,-0.0146 0.10409,-0.081 0.13059,-0.14723 0.0863,-0.21613 0.44499,-0.27257 0.78248,-0.12315 0.16864,0.0747 0.4535,0.17263 0.63299,0.21767 0.17952,0.0451 0.39165,0.11485 0.47141,0.15513 0.0798,0.0402 0.305,0.13124 0.50051,0.20218 0.19551,0.071 0.4042,0.16094 0.46374,0.20003 0.14674,0.0963 0.32849,0.67252 0.41381,1.31205 0.0387,0.29009 0.10022,0.68506 0.13669,0.87768 0.0592,0.31288 0.0231,1.08761 -0.0786,1.68806 -0.0203,0.11973 -0.0253,0.25426 -0.011,0.29896 0.0258,0.0819 -0.13136,1.11029 -0.19738,1.28933 -0.0196,0.053 -0.0307,0.31531 -0.0248,0.5829 0.006,0.26757 -0.0184,0.65345 -0.054,0.85747 -0.0357,0.20405 -0.0563,0.47846 -0.046,0.60988 0.0101,0.13142 0.0275,0.36212 0.0381,0.51268 0.0621,0.88076 0.11609,1.14757 0.41196,2.03681 0.26551,0.79822 0.37184,1.03538 0.67232,1.50108 0.46602,0.72225 1.42834,1.67281 1.81184,1.78969 0.0911,0.0277 0.25121,0.1335 0.35571,0.23498 0.20228,0.19638 1.43085,0.86819 1.52941,0.83631 0.0323,-0.01 0.2507,0.0547 0.48547,0.14475 0.43125,0.16537 1.52167,0.30917 2.29167,0.3022 0.55481,-0.005 1.96033,-0.39072 2.66317,-0.7308 0.82183,-0.39767 1.81211,-0.93761 2.05773,-1.12198 0.23354,-0.17527 0.79689,-0.46082 1.74414,-0.88401 0.722,-0.32251 2.70604,-0.96373 2.88319,-0.93174 0.0762,0.0138 0.24297,0.15664 0.37087,0.31757 0.12792,0.16092 0.44064,0.49806 0.69499,0.7492 0.7474,0.73794 0.87841,1.15448 0.56627,1.80074 -0.0882,0.18251 -0.16051,0.36699 -0.16085,0.40997 -0.002,0.25757 -0.94257,2.16193 -1.28353,2.59884 -0.10812,0.13859 -0.23049,0.31693 -0.27193,0.3964 -0.0414,0.0795 -0.17284,0.2603 -0.292,0.40183 -0.11916,0.14153 -0.30162,0.40638 -0.4055,0.58853 -0.10385,0.18214 -0.21256,0.33884 -0.24155,0.34821 -0.12804,0.0414 -1.1129,2.05853 -1.28136,2.62438 -0.23245,0.78083 -0.25216,0.90925 -0.25906,1.68886 -0.01,1.0782 0.0747,1.67108 0.33011,2.32172 0.21527,0.54867 0.32427,0.7606 0.70302,1.36921 0.0898,0.1442 0.23214,0.38169 0.31635,0.5277 0.0842,0.14602 0.23039,0.36651 0.32482,0.48997 0.0945,0.12345 0.20998,0.29125 0.25674,0.37289 0.0467,0.0817 0.34184,0.35419 0.65574,0.60568 0.31388,0.2515 0.57887,0.48039 0.58886,0.50865 0.01,0.0282 0.20589,0.14709 0.43539,0.26403 0.22949,0.11695 0.42436,0.23466 0.43307,0.26157 0.0136,0.0422 0.19246,0.0997 0.78966,0.25403 0.0676,0.0176 0.27513,0.075 0.46136,0.12792 0.63209,0.17953 2.81266,0.30269 3.58871,0.20268 0.3595,-0.0464 1.474,-0.0321 1.81093,0.0232 0.10976,0.018 0.2594,0.0134 0.33245,-0.0102 0.11709,-0.0378 0.83895,0.0394 2.09179,0.22367 0.21608,0.0318 0.53493,0.11671 0.70853,0.18869 l 0.31563,0.13088 0.17769,0.5496 c 0.18304,0.56616 0.49695,1.89051 0.50003,2.10949 0.002,0.12177 -0.66538,0.82607 -0.83413,0.88063 -0.0476,0.0154 -0.27541,0.20159 -0.50605,0.4137 -0.23062,0.2121 -0.49602,0.45543 -0.58975,0.54073 -0.0937,0.0854 -0.23885,0.17719 -0.32246,0.20423 -0.0836,0.027 -0.17111,0.0827 -0.19447,0.12354 -0.0233,0.0408 -0.29825,0.20872 -0.61087,0.37301 -1.10089,0.5785 -1.23103,0.64919 -1.78624,0.97031 -0.30814,0.17816 -0.72137,0.41011 -0.91836,0.51533 -0.33227,0.17746 -0.81546,0.52057 -1.0377,0.73672 -0.17999,0.17505 -0.4736,0.43843 -0.67798,0.60821 -0.18481,0.15351 -0.52506,0.58963 -1.01525,1.30129 -0.33808,0.49086 -0.70433,1.87312 -0.79549,3.00227 -0.0983,1.2181 0.26057,2.92014 0.85966,4.07674 0.31003,0.59855 0.60988,1.03483 0.79867,1.16203 0.0579,0.039 0.21768,0.1921 0.35503,0.3402 0.27624,0.29782 1.47932,1.15068 2.09448,1.48476 0.511,0.2775 0.42184,0.23168 1.92447,0.98894 1.49321,0.7525 2.07767,1.08408 2.29376,1.30126 0.0843,0.0847 0.25854,0.2145 0.38721,0.28839 0.12868,0.0738 0.35816,0.24775 0.50992,0.3864 0.36896,0.33703 0.43339,0.6531 0.27271,1.3379 -0.066,0.28128 -0.14801,0.71008 -0.18224,0.95286 -0.0343,0.24278 -0.12098,0.56666 -0.19276,0.71969 l -0.13053,0.27829 -1.00822,0.28453 c -0.55453,0.15642 -1.14714,0.29321 -1.31691,0.304 -0.16982,0.0103 -0.4734,0.0459 -0.67472,0.0782 -0.87603,0.14048 -1.29449,0.15258 -2.35016,0.068 -0.292,-0.0235 -0.60004,-0.0202 -0.68455,0.007 -0.0845,0.0273 -0.30017,0.0532 -0.4792,0.0577 -1.29163,0.0321 -3.22166,0.56274 -4.06193,1.11718 -0.86792,0.57271 -0.90444,0.60607 -1.47113,1.34311 -0.57187,0.74378 -1.32253,2.20737 -1.50859,2.94131 -0.33738,1.33101 -0.34677,2.13347 -0.0392,3.35568 0.21865,0.86912 0.87758,2.22844 1.43731,2.96523 0.34,0.44756 0.73208,0.9905 1.35234,1.87268 0.20952,0.298 0.43616,0.61845 0.50367,0.71213 0.27147,0.37672 0.87635,1.62368 1.05382,2.17245 0.18639,0.57635 0.18654,0.58654 0.045,0.84255 -0.14008,0.25275 -0.58872,0.84509 -0.65674,0.86709 -0.0186,0.006 -0.20576,0.22634 -0.41567,0.48955 -0.35701,0.44766 -0.40335,0.48375 -0.71829,0.55943 -0.27189,0.0654 -0.41754,0.0522 -0.75709,-0.0683 -0.23124,-0.0821 -0.55482,-0.17506 -0.71905,-0.20669 -0.16422,-0.0316 -0.35532,-0.0823 -0.42463,-0.11259 -0.0693,-0.0303 -0.40408,-0.13145 -0.74394,-0.22482 -0.35985,-0.0989 -0.88126,-0.31846 -1.24851,-0.52583 -0.5455,-0.30802 -1.0621,-0.57127 -2.42712,-1.23682 -0.15998,-0.078 -0.42815,-0.17665 -0.59592,-0.21923 -0.16779,-0.0426 -0.43425,-0.13609 -0.5922,-0.20777 -0.15794,-0.0717 -0.467,-0.15077 -0.68685,-0.17576 -0.21982,-0.025 -0.59802,-0.0783 -0.84044,-0.11848 -0.67801,-0.11239 -1.38752,-0.0212 -2.42231,0.31108 -0.91982,0.29432 -1.37912,0.52378 -2.08067,1.03395 -0.20257,0.14738 -0.41219,0.32451 -0.46575,0.39368 -0.0536,0.0693 -0.13885,0.13918 -0.18949,0.15556 -0.12229,0.0395 -0.88943,0.78398 -0.93784,0.91007 -0.0208,0.0545 -0.17126,0.25095 -0.33413,0.43667 -0.16287,0.18573 -0.35375,0.50094 -0.42419,0.70046 -0.0704,0.19953 -0.16415,0.37444 -0.20828,0.38871 -0.09,0.0291 -0.24913,0.45094 -0.21266,0.56372 0.013,0.0401 -0.0423,0.35329 -0.12265,0.69592 -0.11174,0.47598 -0.13843,0.85014 -0.11315,1.58631 0.0486,1.40369 0.11392,2.12138 0.25149,2.74782 0.14648,0.66675 0.29192,1.70629 0.26707,1.90866 -0.0245,0.20006 -0.038,0.73783 -0.0247,0.988 0.0291,0.5468 -0.005,1.14647 -0.0898,1.57007 -0.0861,0.43135 -0.11433,0.48004 -0.37091,0.64072 -0.15272,0.0956 -0.72879,0.33763 -1.28012,0.53776 l -1.00244,0.36393 -0.26586,-0.10827 z m -6.29158,-19.62816 c 0.24957,-0.12117 0.82443,-0.38908 1.27744,-0.59545 1.48688,-0.67731 2.53289,-1.20808 2.76614,-1.40358 0.20922,-0.17535 0.73884,-0.54472 0.971,-0.67723 0.48039,-0.27415 1.15367,-0.74533 1.48359,-1.03824 0.19472,-0.17289 0.58287,-0.48334 0.86257,-0.68988 0.27972,-0.20655 0.61215,-0.48183 0.73874,-0.61172 0.12661,-0.12986 0.32748,-0.33667 0.4464,-0.45948 0.11894,-0.12286 0.25035,-0.23618 0.29201,-0.25195 0.0414,-0.0166 0.29674,-0.27333 0.56678,-0.57242 0.27007,-0.29908 0.52017,-0.55323 0.5558,-0.56475 0.0794,-0.0257 0.17324,-0.13001 0.68669,-0.76457 0.22158,-0.2738 0.43356,-0.50772 0.47108,-0.51985 0.0374,-0.0122 0.12878,-0.12825 0.2028,-0.25809 0.13893,-0.24365 0.34782,-0.52452 0.53667,-0.7216 0.0926,-0.0965 0.86281,-1.25119 1.42678,-2.13873 0.13269,-0.20882 1.04211,-1.88898 1.20179,-2.22034 0.18026,-0.37404 0.4742,-1.04022 0.58702,-1.33038 0.0771,-0.19818 0.16376,-0.39947 0.19271,-0.44733 0.0806,-0.13335 0.57054,-1.59711 0.66688,-1.99261 0.047,-0.19289 0.12937,-0.44369 0.18311,-0.5573 0.10032,-0.21222 0.46042,-1.65419 0.53855,-2.15658 0.024,-0.15482 0.0903,-0.45976 0.14712,-0.67758 0.11769,-0.45116 0.20312,-1.01261 0.16975,-1.11579 -0.0255,-0.0788 0.15196,-1.20518 0.20887,-1.3258 0.0203,-0.0432 0.017,-0.14045 -0.007,-0.2162 -0.0385,-0.11922 -0.0272,-0.45088 0.0338,-0.98585 0.0323,-0.28329 0.035,-0.7864 0.006,-1.15698 -0.0164,-0.20655 -0.0457,-0.59072 -0.0657,-0.85373 -0.0201,-0.26301 -0.0492,-0.6316 -0.0647,-0.8191 -0.0158,-0.18749 -0.016,-0.38689 -0.001,-0.44309 0.0687,-0.25992 -0.0428,-1.00794 -0.45962,-3.08296 -0.17072,-0.84996 -0.7932,-2.77313 -1.31356,-4.05524 -0.21383,-0.52762 -0.6085,-1.5025 -0.87717,-2.16637 -0.52545,-1.29827 -0.89655,-2.12738 -1.16324,-2.59886 -0.092,-0.16273 -0.24411,-0.46006 -0.33792,-0.66072 -0.0938,-0.20067 -0.24735,-0.45027 -0.34123,-0.55466 -0.0939,-0.10439 -0.2748,-0.34512 -0.40208,-0.53497 -0.22289,-0.33246 -0.35773,-0.50146 -0.69986,-0.8772 -0.35959,-0.39492 -0.62117,-0.7413 -0.73196,-0.96924 -0.0646,-0.13283 -0.14966,-0.2418 -0.18922,-0.24215 -0.0395,-7.7e-4 -0.0897,-0.0555 -0.11138,-0.12274 -0.0217,-0.0672 -0.18522,-0.23184 -0.36335,-0.36595 -0.17812,-0.1341 -0.33336,-0.27318 -0.34496,-0.30905 -0.0116,-0.0358 -0.16405,-0.19952 -0.33871,-0.36369 -0.1747,-0.16415 -0.5107,-0.49069 -0.74666,-0.72564 -0.46802,-0.46604 -0.66152,-0.63307 -1.65357,-1.42742 -0.36367,-0.29122 -0.71764,-0.58248 -0.78657,-0.64726 -0.0688,-0.0649 -0.26876,-0.1956 -0.444,-0.29067 -0.17526,-0.0951 -0.57543,-0.3337 -0.88925,-0.53027 -0.72444,-0.45376 -1.871,-1.13986 -2.2871,-1.36859 -0.17638,-0.097 -0.44861,-0.26881 -0.60498,-0.38187 -0.15635,-0.11305 -0.30659,-0.19834 -0.33387,-0.18952 -0.0272,0.009 -0.23297,-0.0743 -0.45703,-0.1847 -1.18379,-0.5833 -2.48759,-1.07861 -3.24446,-1.23256 -0.20804,-0.0424 -0.45183,-0.10966 -0.54178,-0.14966 -0.22928,-0.10196 -0.8861,-0.2484 -1.09388,-0.24388 -0.0956,0.002 -0.32438,-0.0408 -0.50845,-0.0953 -0.18407,-0.0545 -0.61892,-0.13284 -0.96633,-0.17413 -0.3474,-0.0413 -0.70533,-0.10808 -0.79538,-0.14843 -0.0901,-0.0403 -0.34086,-0.0854 -0.55736,-0.10005 -0.21648,-0.0146 -0.62414,-0.0575 -0.90585,-0.0954 -0.55903,-0.075 -1.60994,-0.14174 -1.71365,-0.10889 -0.0357,0.0113 -0.15436,0.005 -0.26362,-0.0131 -0.10932,-0.0185 -0.29928,-0.0216 -0.4222,-0.007 -0.12296,0.0147 -0.33587,0.0204 -0.47317,0.0127 -0.13732,-0.008 -0.61591,0.0221 -1.06352,0.0665 -1.07982,0.10738 -1.36817,0.12925 -1.74231,0.13207 -0.17281,10e-4 -0.40177,0.0309 -0.5088,0.0656 -0.107,0.0348 -0.33425,0.0627 -0.50496,0.062 -0.67796,-0.003 -3.51673,0.71578 -5.13382,1.29968 -1.2243,0.44207 -2.9821,1.17031 -3.6473,1.51106 -0.23121,0.11839 -0.55582,0.28348 -0.72137,0.36685 -0.16554,0.0834 -0.45191,0.26933 -0.63636,0.41325 -0.18446,0.14395 -0.6237,0.44158 -0.97611,0.66142 -0.35243,0.21983 -0.74599,0.50497 -0.8746,0.63363 -0.2508,0.2509 -0.767,0.65826 -1.00821,0.79564 -0.23603,0.13456 -0.73695,0.55911 -0.99171,0.84075 -0.12906,0.14275 -0.3248,0.3254 -0.43498,0.40598 -0.28605,0.20925 -1.83371,1.75519 -2.01793,2.01571 -0.0851,0.12031 -0.22723,0.29057 -0.31596,0.3784 -0.0887,0.0879 -0.26451,0.32166 -0.39068,0.51962 -0.12616,0.19796 -0.25157,0.36708 -0.2787,0.37585 -0.0271,0.009 -0.21128,0.24947 -0.40926,0.53486 -0.19798,0.28542 -0.45415,0.64389 -0.56925,0.79663 -0.11511,0.15272 -0.2887,0.42936 -0.38578,0.61476 -0.0971,0.18539 -0.31716,0.55582 -0.48905,0.82316 -0.42864,0.66667 -0.71559,1.1596 -1.07932,1.85407 -0.16993,0.32446 -0.45188,0.85665 -0.62654,1.18264 -0.17468,0.32599 -0.33238,0.67623 -0.35046,0.77834 -0.018,0.10211 -0.12236,0.35502 -0.23176,0.56203 -0.10938,0.20703 -0.19074,0.40155 -0.18081,0.43227 0.01,0.0307 -0.0728,0.26195 -0.18383,0.51385 -0.11104,0.25189 -0.18642,0.50584 -0.1675,0.56432 0.0189,0.0584 0.003,0.1557 -0.0351,0.21598 -0.0383,0.0602 -0.0613,0.13495 -0.0514,0.16588 0.01,0.031 -0.0361,0.23201 -0.10255,0.44677 -0.0664,0.21476 -0.15549,0.5782 -0.19799,0.80763 -0.0425,0.22944 -0.12553,0.54668 -0.18454,0.70503 -0.059,0.15833 -0.13922,0.49506 -0.17828,0.74828 -0.0391,0.25321 -0.10981,0.5596 -0.15724,0.68086 -0.10299,0.2633 -0.16365,0.71096 -0.11625,0.85757 0.0287,0.0885 -0.0477,0.89162 -0.12948,1.3613 -0.0372,0.21347 -0.0197,0.9858 0.0259,1.12497 0.0442,0.13623 0.0678,0.96397 0.0379,1.31786 -0.0228,0.26714 0.002,0.7203 0.0666,1.19608 0.0468,0.34742 0.0829,1.04404 0.077,1.48751 -0.005,0.40727 0.0646,0.89807 0.25785,1.80664 0.10731,0.50429 0.24495,1.15278 0.306,1.44105 0.2336,1.10313 2.08307,6.06975 2.36607,6.35394 0.0783,0.0786 0.16699,0.21899 0.19704,0.31189 0.03,0.0928 0.14027,0.28721 0.24487,0.4318 0.2721,0.37594 0.7729,1.20014 0.82258,1.35374 0.0467,0.14449 0.40493,0.64287 0.73461,1.0221 0.11761,0.13521 0.37771,0.49211 0.57807,0.79306 0.37034,0.55619 0.41001,0.60517 0.98869,1.22028 0.18052,0.19188 0.45889,0.50404 0.6186,0.6937 0.15972,0.18966 0.42004,0.45546 0.57847,0.59067 0.15848,0.13521 0.29865,0.27844 0.31153,0.31827 0.0296,0.0912 0.27742,0.32657 0.75,0.71196 0.20284,0.16543 0.44216,0.38728 0.53185,0.49303 0.0897,0.10573 0.24969,0.243 0.35559,0.305 0.20413,0.11955 0.90714,0.73042 0.93315,0.81088 0.009,0.026 0.20737,0.15418 0.44198,0.28443 0.23463,0.13025 0.44003,0.2783 0.45643,0.32903 0.0164,0.0508 0.15847,0.1533 0.31571,0.22797 0.15727,0.0747 0.38229,0.21038 0.50006,0.30156 0.73223,0.5669 3.60293,2.08084 4.83595,2.55038 0.35087,0.13361 0.81902,0.33659 1.04035,0.45106 0.22133,0.11448 0.44686,0.19377 0.50119,0.1762 0.0898,-0.0291 0.52463,0.0733 0.63395,0.14918 0.0528,0.0367 1.12958,0.26051 1.1779,0.24488 0.018,-0.006 0.1709,0.0409 0.33976,0.10395 0.16887,0.063 0.54921,0.15361 0.8452,0.20134 0.296,0.0477 0.68172,0.1248 0.85716,0.17119 0.17543,0.0464 0.40322,0.0787 0.5062,0.0718 0.10299,-0.007 0.605,0.0519 1.11559,0.13072 0.51061,0.0788 0.97852,0.12762 1.03979,0.10852 0.0612,-0.0191 0.45684,0.0111 0.87905,0.067 0.42222,0.0559 0.81237,0.0873 0.867,0.0696 0.0546,-0.0177 0.17004,-0.0194 0.25646,-0.004 0.14633,0.0265 0.31744,0.017 1.39293,-0.0772 0.22466,-0.0196 0.5171,-0.0407 0.64991,-0.0466 0.13284,-0.006 0.59906,-0.074 1.0361,-0.1513 0.43703,-0.0772 1.06447,-0.18256 1.3943,-0.23413 0.32986,-0.0515 0.86703,-0.14372 1.19377,-0.20484 0.32675,-0.0611 0.77244,-0.14399 0.99046,-0.18417 0.51358,-0.0946 2.72071,-0.85538 3.30645,-1.13972 z"
           style="fill:#000000;stroke-width:0.0666046" />
      </g>
      <circle
         style="opacity:1;fill:#000000;fill-opacity:1;stroke-width:0.22904457;stroke-miterlimit:4;stroke-dasharray:none;paint-order:markers stroke fill"
         id="path1479-8"
         cx="267.87076"
         cy="581.36023"
         r="13.96271"
         transform="rotate(-17.92109)" />
      <circle
         style="opacity:1;fill:#4571d8;fill-opacity:1;stroke-width:0.19218682;stroke-miterlimit:4;stroke-dasharray:none;paint-order:markers stroke fill"
         id="path1479-7-5"
         cx="267.87076"
         cy="581.36023"
         r="11.715837"
         transform="rotate(-17.92109)" />
    </g>
  </g>
</svg>
