<?xml version="1.0" encoding="UTF-8" standalone="no"?>
<!-- Created with Inkscape (http://www.inkscape.org/) -->

<svg
   xmlns:dc="http://purl.org/dc/elements/1.1/"
   xmlns:cc="http://creativecommons.org/ns#"
   xmlns:rdf="http://www.w3.org/1999/02/22-rdf-syntax-ns#"
   xmlns:svg="http://www.w3.org/2000/svg"
   xmlns="http://www.w3.org/2000/svg"
   xmlns:sodipodi="http://sodipodi.sourceforge.net/DTD/sodipodi-0.dtd"
   xmlns:inkscape="http://www.inkscape.org/namespaces/inkscape"
   width="1450"
   height="1450"
   viewBox="0 0 383.64582 383.64584"
   version="1.1"
   id="svg874"
   inkscape:version="0.92.3 (2405546, 2018-03-11)"
   sodipodi:docname="microcontroller.svg">
  <defs
     id="defs868" />
  <sodipodi:namedview
     id="base"
     pagecolor="#ffffff"
     bordercolor="#666666"
     borderopacity="1.0"
     inkscape:pageopacity="0.0"
     inkscape:pageshadow="2"
     inkscape:zoom="0.49497475"
     inkscape:cx="572.4232"
     inkscape:cy="1235.1079"
     inkscape:document-units="mm"
     inkscape:current-layer="g1432"
     showgrid="false"
     units="px"
     inkscape:window-width="1920"
     inkscape:window-height="1057"
     inkscape:window-x="1912"
     inkscape:window-y="-8"
     inkscape:window-maximized="1" />
  <metadata
     id="metadata871">
    <rdf:RDF>
      <cc:Work
         rdf:about="">
        <dc:format>image/svg+xml</dc:format>
        <dc:type
           rdf:resource="http://purl.org/dc/dcmitype/StillImage" />
        <dc:title></dc:title>
      </cc:Work>
    </rdf:RDF>
  </metadata>
  <g
     inkscape:label="Layer 1"
     inkscape:groupmode="layer"
     id="layer1"
     transform="translate(0,86.64585)">
    <circle
       style="opacity:1;fill:#cccccc;fill-opacity:1;stroke-width:0.13949275;stroke-miterlimit:4;stroke-dasharray:none;paint-order:markers stroke fill"
       id="path1419"
       cx="191.82292"
       cy="105.17706"
       r="145.52083" />
    <g
       id="g1432"
       transform="matrix(0.85387138,0,0,0.85387138,218.61049,4.5574114)">
      <path
         style="fill:#abd0c6;stroke-width:0.08466667"
         d="m -84.436525,206.16777 -0.0215,-10.43516 -7.112,-0.0483 c -7.792043,-0.0529 -7.698427,-0.0471 -9.440335,-0.58565 -2.54385,-0.78648 -4.83478,-2.53039 -6.28561,-4.78473 -0.74645,-1.15987 -1.18452,-2.17481 -1.56878,-3.63465 l -0.22444,-0.85268 -0.0457,-7.45067 -0.0457,-7.45067 -10.4775,-0.0215 -10.4775,-0.0215 v -2.66634 -2.66634 l 10.4775,-0.0215 10.4775,-0.0215 v -5.67267 -5.67267 l -10.45633,-0.0423 -10.45634,-0.0423 -0.0224,-2.64584 c -0.0123,-1.45521 -0.0123,-2.65498 0,-2.66617 0.0123,-0.0112 4.72772,-0.0397 10.47871,-0.0635 l 10.45633,-0.0432 v -5.63033 -5.63034 l -10.45633,-0.0432 c -5.75099,-0.0237 -10.4664,-0.0523 -10.47871,-0.0635 -0.0123,-0.0112 -0.0123,-1.21096 0,-2.66617 l 0.0224,-2.64584 10.45634,-0.0423 10.45633,-0.0423 v -5.67267 -5.67267 l -10.4775,-0.0215 -10.4775,-0.0215 v -2.66634 -2.66634 l 10.4775,-0.0215 10.4775,-0.0215 v -5.67267 -5.67267 l -10.45633,-0.0423 -10.45634,-0.0423 -0.0224,-2.64584 c -0.0123,-1.455205 -0.0123,-2.654982 0,-2.666167 0.0123,-0.01118 4.72772,-0.03975 10.47871,-0.0635 l 10.45633,-0.04316 V 92.65099 87.020656 l -10.45633,-0.04316 c -5.75099,-0.02375 -10.4664,-0.05232 -10.47871,-0.0635 -0.0123,-0.01118 -0.0123,-1.210962 0,-2.66617 l 0.0224,-2.645834 10.45634,-0.04233 10.45633,-0.04233 v -5.672667 -5.672667 l -10.4787,-0.0215 -10.47871,-0.0215 0.0224,-2.645503 0.0224,-2.645503 10.45634,-0.04233 10.45633,-0.04233 0.0457,-7.450667 0.0457,-7.450667 0.22444,-0.852686 c 0.26553,-1.008795 0.53315,-1.740891 0.9112,-2.492756 1.42206,-2.828138 3.97801,-5.009879 6.94319,-5.926625 1.741908,-0.538547 1.648292,-0.532739 9.440335,-0.585648 l 7.112,-0.04828 0.0215,-10.435167 0.02151,-10.435167 h 2.666332 2.666331 l 0.02151,10.435167 0.0215,10.435167 5.693503,0.02176 5.693495,0.02177 0.02151,-10.435768 0.0215,-10.43576 2.618901,-0.02241 c 2.038808,-0.01745 2.633955,0.0013 2.686872,0.08467 0.03738,0.05889 0.06855,4.764803 0.06927,10.457578 l 0.0013,10.3505 h 5.672667 5.672667 l 0.0013,-10.3505 c 8.46e-4,-5.692775 0.03189,-10.398684 0.06927,-10.457578 0.05292,-0.08336 0.648065,-0.102117 2.686872,-0.08467 l 2.618901,0.02241 0.0215,10.43576 0.02151,10.435768 5.693495,-0.02177 5.693503,-0.02176 0.0215,-10.435167 0.02151,-10.435167 h 2.666332 2.666331 l 0.02151,10.435167 0.0215,10.435167 5.693503,0.02176 5.693495,0.02177 0.02151,-10.435768 0.0215,-10.43576 2.618901,-0.02241 c 2.038808,-0.01745 2.633955,0.0013 2.686872,0.08467 0.03738,0.05889 0.06855,4.764803 0.06927,10.457578 l 0.0013,10.3505 h 5.6726672 5.67266684 l 0.00127,-10.3505 c 8.4667e-4,-5.692775 0.0318855,-10.398684 0.0692658,-10.457578 0.0529167,-0.08336 0.64806409,-0.102117 2.68687136,-0.08467 l 2.618901,0.02241 0.021497,10.43576 0.021505,10.435768 5.6934948,-0.02177 5.693504,-0.02176 0.0215,-10.436369 0.02151,-10.436378 2.645494,0.02238 2.645504,0.02237 0.0215,10.428529 0.0215,10.428521 7.175161,0.03775 c 7.854494,0.04132 7.686515,0.03121 9.418837,0.567029 2.538553,0.78519 4.83815,2.535733 6.285611,4.784844 0.746456,1.159874 1.184521,2.174807 1.568781,3.634647 l 0.224443,0.852686 0.04575,7.450667 0.04575,7.450667 10.456334,0.04233 10.456333,0.04233 0.02237,2.645503 0.02238,2.645503 -10.478711,0.0215 -10.478703,0.0215 v 5.672667 5.672667 l 10.456334,0.04233 10.456333,0.04233 0.02237,2.645834 c 0.01231,1.455208 0.01231,2.654986 0,2.66617 -0.0123,0.01118 -4.727719,0.03975 -10.478702,0.0635 l -10.456334,0.04316 v 5.630334 5.630333 l 10.456334,0.04316 c 5.750983,0.02375 10.4664,0.05232 10.478702,0.0635 0.01231,0.01118 0.01231,1.210962 0,2.666163 l -0.02237,2.64584 -10.456333,0.0423 -10.456334,0.0423 v 5.67267 5.67267 l 10.4775,0.0215 10.477501,0.0215 v 2.66634 2.66634 l -10.477501,0.0215 -10.4775,0.0215 v 5.67267 5.67267 l 10.456334,0.0423 10.456333,0.0423 0.02237,2.64584 c 0.01231,1.45521 0.01231,2.65498 0,2.66617 -0.0123,0.0112 -4.727719,0.0398 -10.478702,0.0635 l -10.456334,0.0432 v 5.63034 5.63033 l 10.456334,0.0432 c 5.750983,0.0238 10.4664,0.0523 10.478702,0.0635 0.01231,0.0112 0.01231,1.21096 0,2.66617 l -0.02237,2.64584 -10.456333,0.0423 -10.456334,0.0423 v 5.67267 5.67267 l 10.4775,0.0215 10.477501,0.0215 v 2.66634 2.66634 l -10.477501,0.0215 -10.4775,0.0215 -0.0453,7.45067 -0.0453,7.45067 -0.224892,0.85268 c -0.385089,1.46007 -0.821927,2.47235 -1.568492,3.63465 -1.443389,2.24716 -3.744477,3.99862 -6.286348,4.78484 -1.732322,0.53583 -1.564343,0.52572 -9.418837,0.56703 l -7.175161,0.0378 -0.0215,10.42852 -0.0215,10.42853 -2.645504,0.0224 -2.645494,0.0224 -0.02151,-10.43637 -0.0215,-10.43637 -5.693504,-0.0218 -5.6934948,-0.0218 -0.021505,10.43577 -0.021497,10.43576 -2.618901,0.0224 c -2.03880727,0.0174 -2.63395469,-10e-4 -2.68687136,-0.0847 -0.0373803,-0.0589 -0.0685546,-4.7648 -0.0692658,-10.45758 l -0.00127,-10.3505 H -6.1836858 -11.856353 l -0.0013,10.3505 c -8.46e-4,5.69278 -0.03188,10.39869 -0.06926,10.45758 -0.05292,0.0834 -0.648065,0.10212 -2.686872,0.0847 l -2.618926,-0.0224 -0.0215,-10.43576 -0.0215,-10.43577 -5.693495,0.0218 -5.693504,0.0218 -0.0215,10.43516 -0.02151,10.43517 h -2.666331 -2.666331 l -0.02151,-10.43517 -0.0215,-10.43516 -5.693504,-0.0218 -5.693495,-0.0218 -0.0215,10.43577 -0.0215,10.43576 -2.618901,0.0224 c -2.038807,0.0174 -2.633954,-10e-4 -2.686871,-0.0847 -0.03738,-0.0589 -0.06855,-4.7648 -0.06927,-10.45758 l -0.0013,-10.3505 h -5.672667 -5.672667 l -0.0013,10.3505 c -8.47e-4,5.69278 -0.03189,10.39869 -0.06927,10.45758 -0.05292,0.0834 -0.648064,0.10212 -2.686871,0.0847 l -2.618927,-0.0224 -0.0215,-10.43576 -0.02151,-10.43577 -5.693495,0.0218 -5.693503,0.0218 -0.0215,10.43516 -0.02151,10.43517 h -2.666331 -2.666332 z m 43.158505,-40.28016 c 0,-12.81015 -0.01034,-13.81377 -0.150055,-14.56267 -0.797281,-4.2736 -3.136934,-7.14758 -6.824472,-8.38302 -1.766155,-0.59171 0.395249,-0.53879 -23.251474,-0.56925 -11.734801,-0.0151 -21.421726,-0.007 -21.526501,0.019 -0.181703,0.0444 -0.1905,0.0855 -0.1905,0.89043 v 0.84392 l 21.568834,0.0223 21.568834,0.0223 0.649851,0.18542 c 3.358913,0.95839 5.348292,3.13977 6.182275,6.77893 l 0.189061,0.82498 0.02351,13.67367 c 0.01294,7.52051 0.04396,13.76075 0.06895,13.8672 0.04398,0.18737 0.07168,0.19276 0.868562,0.16934 l 0.823121,-0.0242 z m 29.316207,4.36555 c 0.0171,-7.45828 0,-9.40666 -0.08467,-9.4602 -0.171594,-0.10894 -1.456233,-0.0831 -1.570939,0.0316 -0.07779,0.0778 -0.1016,2.28663 -0.1016,9.42622 0,5.12855 0.02669,9.35131 0.05931,9.38393 0.03261,0.0326 0.423138,0.0485 0.867833,0.0353 l 0.808524,-0.024 z m 11.39940137,9.30119 c 0.0620099,-0.16159 0.0698923,-23.42602 0.007959,-23.58732 -0.0324612,-0.0846 -0.25113828,-0.11066 -0.86783337,-0.10342 l -0.8244333,0.01 -0.021463,11.90749 -0.021455,11.90748 h 0.8379037 c 0.68594399,0 0.84721707,-0.0243 0.88928793,-0.13392 z M 9.966964,172.63977 9.9453147,165.59127 H 9.1409814 8.336648 l -0.021649,7.0485 -0.021658,7.0485 h 0.8476404 0.8476403 z m -80.957372,-9.71979 c 1.537115,-0.27219 2.766458,-0.92348 3.889053,-2.06036 1.940264,-1.96492 2.557315,-4.62182 1.683487,-7.24868 -0.353653,-1.06314 -0.834635,-1.81817 -1.725955,-2.70933 -1.393766,-1.39353 -2.744242,-1.99425 -4.703251,-2.09208 -2.084773,-0.10411 -3.961011,0.65618 -5.426473,2.19893 -0.917744,0.96615 -1.561414,2.17776 -1.809868,3.40681 -0.05649,0.2794 -0.145881,0.53599 -0.198654,0.57021 -0.05277,0.0342 -3.210628,0.0628 -7.017453,0.0635 l -6.9215,0.001 v 0.84667 0.84667 l 6.9215,10e-4 c 3.806825,8.4e-4 6.96468,0.0293 7.017453,0.0635 0.05277,0.0342 0.142164,0.2908 0.198654,0.5702 0.489872,2.42328 2.356857,4.49486 4.764836,5.28701 0.314664,0.10351 0.752814,0.21863 0.973667,0.2558 0.596485,0.10043 1.783385,0.0997 2.354504,-0.001 z m 39.102328,-31.76596 c 0.006,-0.61444 -0.02068,-0.83561 -0.104699,-0.86783 -0.161256,-0.0618 -60.933027,-0.0538 -61.094317,0.008 -0.108729,0.0417 -0.133926,0.19834 -0.133926,0.83256 0,0.42964 0.02545,0.80662 0.05656,0.83772 0.03112,0.0311 13.829209,0.047 30.662449,0.0353 l 30.605884,-0.0213 0.008,-0.82459 z m -8.244722,-16.4091 c 1.014713,-0.12543 2.212789,-0.37899 3.003448,-0.63565 5.215281,-1.69295 8.103879,-5.39317 8.588757,-11.002 0.04913,-0.56839 0.08821,-3.425147 0.08871,-6.4844 l 8.47e-4,-5.468408 0.737074,-0.181957 c 2.491782,-0.615154 4.40077,-2.411282 5.190058,-4.883235 0.287257,-0.899668 0.332935,-2.623422 0.09583,-3.616054 -0.658487,-2.756595 -2.883789,-4.883904 -5.642314,-5.393843 -1.746284,-0.322825 -3.742885,0.0971 -5.247919,1.103723 -3.459616,2.313932 -4.182636,7.07534 -1.572421,10.355098 1.019319,1.280778 2.145157,1.938672 4.407696,2.575645 l 0.211666,0.0596 v 6.00925 c 0,6.391251 -0.01184,6.619661 -0.425306,8.208991 -0.423562,1.6281 -1.165868,2.99796 -2.241694,4.13685 -1.577619,1.67009 -3.333225,2.61505 -6.053667,3.2584 l -0.931333,0.22025 -26.627668,0.0454 -26.627667,0.0454 -0.02467,0.7553 c -0.01357,0.41541 -0.0052,0.80593 0.01851,0.86783 0.03579,0.0933 4.520117,0.11253 26.188891,0.11253 17.707137,0 26.377274,-0.0286 26.86316,-0.0887 z m 37.857499,-12.39251 c 2.74893201,-0.53035 4.9263725,-2.607007 5.5732174,-5.315266 0.09061,-0.37934 0.2136394,-0.720742 0.2734056,-0.758664 0.059766,-0.03792 6.1379864,-0.06954 13.507162,-0.07025 l 13.3985,-0.0013 v -0.84666 -0.846666 l -13.3985,-0.0013 C 9.7093064,94.511487 3.6310862,94.480008 3.57132,94.442086 3.5115538,94.404163 3.3885246,94.062762 3.2979144,93.683421 2.5029959,90.3552 -0.52894289,88.089579 -3.9383596,88.276091 c -1.1232642,0.06145 -1.7038829,0.208001 -2.7109929,0.684276 -1.7961949,0.849444 -3.1380685,2.419689 -3.7688355,4.410262 -0.253305,0.799397 -0.324823,2.530399 -0.140402,3.398105 0.462297,2.174994 1.8627171,3.988176 3.8422238,4.974666 0.5438902,0.27104 1.4622357,0.57033 2.0566804,0.67026 0.4959435,0.0834 1.8097924,0.0496 2.3843828,-0.0612 z M -72.181355,87.782603 v -0.846666 h -10.498667 -10.498667 l -0.02467,0.755303 c -0.01357,0.415408 -0.0052,0.806085 0.01864,0.868163 0.03582,0.09336 1.854208,0.109152 10.523338,0.09136 l 10.480032,-0.0215 z M 30.434649,76.94527 v -0.846667 h -9.863667 -9.863667 l -0.02467,0.755303 c -0.01357,0.415408 -0.0052,0.806094 0.01864,0.86818 0.03582,0.09335 1.747394,0.109161 9.888339,0.09137 l 9.845024,-0.02152 z m -96.612722,-2.348586 c 0.006,-0.614435 -0.02068,-0.835609 -0.104707,-0.867833 -0.161146,-0.06181 -26.642992,-0.05376 -26.804316,0.0081 -0.108729,0.04172 -0.133926,0.19834 -0.133926,0.832552 0,0.429641 0.02552,0.806679 0.0567,0.83787 0.03119,0.03118 6.114043,0.04706 13.517449,0.03528 l 13.460739,-0.02143 0.008,-0.824586 z"
         id="path1444"
         inkscape:connector-curvature="0" />
      <path
         style="fill:#80bea9;stroke-width:0.08466667"
         d="m -84.375794,216.49834 c -0.02223,-0.0589 -0.04982,-4.77432 -0.06132,-10.47873 l -0.02091,-10.37167 -7.323667,-0.047 c -7.166923,-0.046 -7.34132,-0.0511 -8.14865,-0.23447 -3.522229,-0.80023 -6.424049,-3.06219 -8.002429,-6.23783 -0.41074,-0.82638 -0.74527,-1.78163 -0.97848,-2.794 -0.16819,-0.73008 -0.1775,-1.06878 -0.22249,-8.08567 l -0.0469,-7.32367 -10.45633,-0.0423 -10.45634,-0.0423 v -2.62467 -2.62467 l 10.45634,-0.0423 10.45633,-0.0423 0.0218,-5.69384 c 0.012,-3.13161 0.012,-5.70298 0,-5.71417 -0.012,-0.0112 -4.72711,-0.0397 -10.47809,-0.0635 l -10.45634,-0.0432 v -2.58233 -2.58234 l 10.45634,-0.0423 10.45633,-0.0423 v -5.715 -5.71501 l -10.45633,-0.0423 -10.45634,-0.0423 v -2.58234 -2.58233 l 10.45634,-0.0432 c 5.75098,-0.0237 10.46613,-0.0523 10.47809,-0.0635 0.012,-0.0112 0.012,-2.58256 0,-5.71417 l -0.0218,-5.69384 -10.45633,-0.0423 -10.45634,-0.0423 v -2.62467 -2.62467 l 10.45634,-0.0423 10.45633,-0.0423 0.0218,-5.69384 0.0218,-5.69383 -10.39344,-0.001 c -5.71638,-8.5e-4 -10.44162,-0.0319 -10.50052,-0.0693 -0.0833,-0.0529 -0.10212,-0.63962 -0.0847,-2.64453 l 0.0224,-2.576586 10.45634,-0.04233 10.45633,-0.04233 v -5.715 -5.715 l -10.45633,-0.04233 -10.45634,-0.04233 v -2.582333 -2.582334 l 10.45634,-0.04316 c 5.75098,-0.02375 10.46613,-0.05232 10.47809,-0.0635 0.012,-0.01118 0.012,-2.582562 0,-5.71417 l -0.0218,-5.693834 -10.45633,-0.04233 -10.45634,-0.04233 -0.0224,-2.576559 c -0.0175,-2.004915 10e-4,-2.59163 0.0847,-2.644529 0.0589,-0.0374 4.7823,-0.06857 10.49643,-0.06928 l 10.38932,-0.0013 0.0291,-7.344834 c 0.028,-7.077422 0.0355,-7.372578 0.20483,-8.106833 1.0673,-4.627051 4.41601,-7.994651 8.981139,-9.031834 0.80733,-0.183422 0.981727,-0.188443 8.14865,-0.234468 l 7.323667,-0.04703 0.04233,-10.456334 0.04233,-10.456333 h 2.624667 2.624666 l 0.04233,10.456333 0.04233,10.456334 5.640638,0.02176 c 4.661611,0.01799 5.657164,0.0019 5.735828,-0.09293 0.06907,-0.08323 0.101092,-2.958228 0.116696,-10.478101 l 0.02151,-10.363395 h 2.582334 2.582333 l 0.04233,10.456333 0.04233,10.456334 h 5.715 5.715 l 0.04233,-10.456334 0.04233,-10.456333 h 2.582333 2.582334 l 0.02151,10.363395 c 0.0156,7.519873 0.04762,10.394874 0.116696,10.478101 0.07866,0.09479 1.074217,0.110922 5.735828,0.09293 l 5.640638,-0.02176 0.04233,-10.456334 0.04233,-10.456333 h 2.624667 2.624667 l 0.04233,10.456333 0.04233,10.456334 h 5.672667 5.672667 l 0.04316,-10.456334 c 0.02375,-5.750983 0.05232,-10.466409 0.0635,-10.478728 0.01119,-0.01231 1.191912,-0.01231 2.623837,0 l 2.6035,0.02239 0.04233,10.456333 0.04233,10.456334 h 5.7150002 5.71500017 l 0.0423333,-10.456334 0.0423333,-10.456333 H 2.1983145 4.7806479 l 0.021505,10.363395 c 0.015604,7.519873 0.047625,10.394874 0.1166961,10.478101 0.078664,0.09479 1.0742168,0.110922 5.735828,0.09293 l 5.640638,-0.02176 0.04233,-10.456334 0.04233,-10.456333 2.6035,-0.02239 c 1.431925,-0.01231 2.612652,-0.01231 2.623837,0 0.01118,0.01232 0.03975,4.727745 0.0635,10.478728 l 0.04316,10.456334 7.323667,0.04703 c 7.166923,0.04603 7.34132,0.05105 8.14865,0.234468 4.565134,1.037183 7.913836,4.404783 8.981144,9.031834 0.169367,0.734255 0.176826,1.029411 0.204826,8.106833 l 0.02906,7.344834 10.389329,0.0013 c 5.714128,8.47e-4 10.437521,0.03189 10.496423,0.06928 0.08334,0.0529 0.102125,0.639614 0.08467,2.644529 l -0.02243,2.576559 -10.456334,0.04233 -10.456334,0.04233 -0.02176,5.693834 c -0.01197,3.131608 -0.01197,5.702986 0,5.71417 0.01196,0.01118 4.727109,0.03975 10.478093,0.0635 l 10.456334,0.04316 v 2.582334 2.582333 l -10.456334,0.04233 -10.456334,0.04233 v 5.715 5.715 l 10.456334,0.04233 10.456334,0.04233 0.02243,2.576557 c 0.01746,2.00492 -0.0014,2.59163 -0.08467,2.64453 -0.0589,0.0374 -4.784141,0.0686 -10.500521,0.0693 l -10.393435,10e-4 0.02177,5.69383 0.02176,5.69383 10.456334,0.0423 10.456334,0.0423 v 2.62467 2.62466 l -10.456334,0.0423 -10.456334,0.0423 -0.02176,5.69383 c -0.01197,3.13161 -0.01197,5.70299 0,5.71417 0.01196,0.0112 4.727109,0.0397 10.478093,0.0635 l 10.456334,0.0432 v 2.58233 2.58233 l -10.456334,0.0423 -10.456334,0.0423 v 5.715 5.715 l 10.456334,0.0423 10.456334,0.0423 v 2.58233 2.58233 l -10.456334,0.0432 c -5.750984,0.0238 -10.46613,0.0523 -10.478093,0.0635 -0.01197,0.0112 -0.01197,2.58256 0,5.71417 l 0.02176,5.69383 10.456334,0.0423 10.456334,0.0423 v 2.62466 2.62467 l -10.456334,0.0423 -10.456334,0.0423 -0.04695,7.32366 c -0.04499,7.01689 -0.05431,7.35559 -0.222496,8.08567 -1.065505,4.62537 -4.415799,7.99466 -8.980907,9.03184 -0.80733,0.18342 -0.981727,0.18844 -8.14865,0.23446 l -7.323667,0.047 -0.04316,10.45634 c -0.02375,5.75098 -0.05232,10.46641 -0.0635,10.47873 -0.01119,0.0123 -1.191912,0.0123 -2.623837,0 l -2.6035,-0.0224 -0.04233,-10.45634 -0.04233,-10.45633 -5.640638,-0.0218 c -4.6616112,-0.018 -5.6571642,-0.002 -5.735828,0.0929 -0.069071,0.0832 -0.101092,2.95823 -0.1166961,10.4781 l -0.021505,10.3634 H 2.1983145 -0.38401896 l -0.0423333,-10.45634 -0.0423333,-10.45633 H -6.1836858 -11.898686 l -0.04233,10.45633 -0.04233,10.45634 -2.6035,0.0224 c -1.431925,0.0123 -2.612652,0.0123 -2.623837,0 -0.01118,-0.0123 -0.03975,-4.72774 -0.0635,-10.47873 l -0.04316,-10.45633 h -5.672667 -5.672667 l -0.04233,10.45633 -0.04233,10.45634 h -2.624667 -2.624667 l -0.04233,-10.45634 -0.04233,-10.45633 -5.640638,-0.0218 c -4.661611,-0.018 -5.657164,-0.002 -5.735828,0.0929 -0.06907,0.0832 -0.101092,2.95823 -0.116696,10.4781 l -0.02151,10.3634 h -2.582334 -2.582333 l -0.04233,-10.45634 -0.04233,-10.45633 h -5.715 -5.715 l -0.04233,10.45633 -0.04233,10.45634 h -2.582333 -2.582334 l -0.02151,-10.3634 c -0.0156,-7.51987 -0.04762,-10.39487 -0.116696,-10.4781 -0.07866,-0.0948 -1.074217,-0.11092 -5.735828,-0.0929 l -5.640638,0.0218 -0.04233,10.45633 -0.04233,10.45634 -2.605684,0.0224 c -2.039188,0.0175 -2.614473,-8.4e-4 -2.646088,-0.0847 z m 43.116223,-50.71657 c -0.02504,-12.61962 -0.0415,-14.05756 -0.167861,-14.6685 -0.531385,-2.56907 -1.550763,-4.53702 -3.107749,-5.99966 -1.087958,-1.02202 -2.47142,-1.82014 -3.97035,-2.29047 -1.600073,-0.50208 -0.238659,-0.47584 -23.464157,-0.45221 l -21.293667,0.0217 v 0.889 0.889 l 21.717,0.0423 21.717001,0.0423 0.629302,0.19508 c 3.286066,1.01869 5.230588,3.30601 5.988253,7.04392 0.133782,0.66001 0.148099,1.85316 0.172746,14.39334 0.01478,7.52051 0.04439,13.72129 0.06579,13.7795 0.02761,0.0751 0.286377,0.10583 0.890186,0.10583 h 0.851255 z m 29.297749,4.48734 -0.02153,-9.50384 h -0.846666 -0.846667 l -0.02153,9.50384 -0.02153,9.50383 h 0.889729 0.889728 z m 11.4084697,-2.51799 v -11.97949 h -0.889 -0.8890001 l -0.021759,11.89482 c -0.011972,6.54215 -0.00313,11.94379 0.019651,12.00364 0.030878,0.0811 0.2625937,0.10266 0.9107594,0.0847 l 0.8693489,-0.0241 z m 10.5833333,4.90982 v -7.06967 H 9.1409814 8.2519813 l -0.021869,6.985 c -0.012023,3.84175 -0.00322,7.03397 0.019651,7.09382 0.030954,0.0811 0.262746,0.10266 0.9108694,0.0847 l 0.8693483,-0.0241 z m -80.498876,-9.82016 c 4.178808,-1.00184 6.507937,-5.46488 4.975987,-9.53491 -0.627668,-1.66756 -2.062869,-3.18073 -3.736704,-3.93967 -1.307025,-0.59264 -3.143047,-0.75584 -4.602743,-0.40914 -2.522254,0.59907 -4.558216,2.63021 -5.206255,5.19393 l -0.195207,0.77228 -7.014769,0.0423 -7.014769,0.0423 v 0.889 0.889 l 7.014769,0.0423 7.014769,0.0423 0.195207,0.77227 c 0.642789,2.54295 2.671615,4.58155 5.163922,5.18878 0.944228,0.23004 2.467263,0.23412 3.405793,0.009 z m 46.995615,-24.7733 c 2.191055,-0.4503 4.164135,-2.03377 5.060925,-4.06157 0.583404,-1.31917 0.741493,-3.19786 0.384327,-4.56731 -0.523604,-2.00765 -1.866815,-3.67289 -3.691992,-4.57715 -1.077146,-0.53366 -1.895305,-0.72882 -3.090333,-0.73717 -2.48771,-0.0174 -4.606739,1.12517 -5.95647,3.21164 -0.446972,0.69094 -0.679644,1.23654 -0.932832,2.18735 l -0.180365,0.67733 -30.691668,0.0423 -30.691667,0.0423 -0.02413,0.86783 -0.02413,0.86784 30.631131,0.001 c 16.847126,8.4e-4 30.673972,0.0293 30.72633,0.0635 0.05237,0.0342 0.175802,0.38605 0.274311,0.78187 0.656396,2.63742 2.780157,4.67404 5.430157,5.20734 0.768493,0.15465 2.003755,0.15133 2.776406,-0.007 z m -16.164603,-23.36616 c 4.580822,-0.67338 8.03645,-2.97469 9.828132,-6.54513 0.406705,-0.81048 0.909938,-2.39619 1.12053,-3.53079 0.179383,-0.9665 0.189492,-1.27855 0.23401,-7.224849 l 0.04652,-6.214729 0.762,-0.199085 c 2.07325,-0.54168 3.757355,-1.882538 4.662399,-3.712134 0.880043,-1.779041 1.011521,-3.683144 0.38133,-5.522747 -0.631266,-1.842745 -2.196033,-3.518383 -3.967928,-4.249048 -1.395891,-0.575623 -3.170251,-0.712893 -4.547134,-0.351781 -2.452599,0.643238 -4.433138,2.576118 -5.124535,5.001243 -0.259757,0.911115 -0.317034,2.378041 -0.129125,3.306953 0.557318,2.75496 2.67037,4.914045 5.439867,5.558375 0.505824,0.117678 0.632613,0.179892 0.669976,0.328786 0.02535,0.100999 0.03022,2.807564 0.01081,6.014594 -0.02935,4.852402 -0.05816,5.965942 -0.171628,6.635292 -0.494013,2.9143 -1.725659,5.10527 -3.710745,6.60108 -1.49413,1.12586 -3.015446,1.7663 -5.38331,2.26625 -0.603843,0.1275 -2.944614,0.14185 -27.224813,0.16692 l -26.564168,0.0274 v 0.88782 0.88782 h 26.383972 c 23.480125,0 26.483006,-0.0146 27.283834,-0.13228 z m 38.2801973,-12.5562 c 2.34696859,-0.8 4.0669974,-2.656351 4.6784093,-5.049183 l 0.1946994,-0.762 13.501946,-0.04233 13.501946,-0.04233 v -0.889 -0.889 L 17.017369,94.428937 3.515423,94.386604 3.3310952,93.666937 C 2.9862394,92.3205 2.3827693,91.253818 1.4227678,90.293817 c -1.37242981,-1.37243 -3.0176387,-2.041593 -5.0241202,-2.043481 -3.29554,-0.0031 -6.0495859,2.139459 -6.9080636,5.374268 -0.25411,0.957503 -0.254923,2.52702 -0.0018,3.471333 0.5556419,2.072928 1.9022992,3.740053 3.7772002,4.676103 1.1116903,0.55502 1.8214341,0.69711 3.3443335,0.6695 1.1306048,-0.0205 1.2912598,-0.0439 2.032,-0.29642 z m -70.7995393,-14.34135 -0.02413,-0.867833 -10.562167,-0.0215 -10.562167,-0.0215 v 0.88933 0.88933 h 10.586297 10.586297 z m 14.459315,-6.320113 c 2.402823,-0.495918 4.409245,-2.286991 5.19745,-4.639623 1.263006,-3.769835 -0.813207,-7.832734 -4.59453,-8.990915 -2.808614,-0.860247 -5.864429,0.117602 -7.626401,2.440432 -0.657742,0.867105 -0.953491,1.490286 -1.268265,2.672385 l -0.180365,0.677334 -13.546667,0.04233 -13.546667,0.04233 -0.02413,0.867834 -0.02413,0.867833 13.48613,0.0013 c 7.417376,8.47e-4 13.528972,0.02929 13.58133,0.0635 0.05237,0.03421 0.175802,0.386055 0.274311,0.781871 0.918117,3.689029 4.527254,5.946242 8.271934,5.173389 z m 88.259559,-4.538735 v -0.889355 l -9.927167,0.02152 -9.927167,0.02151 -0.02413,0.867833 -0.02413,0.867834 h 9.951297 9.951297 z"
         id="path1442"
         inkscape:connector-curvature="0" />
      <path
         style="fill:#929ba5;stroke-width:0.08466667"
         d="m -84.375794,216.49834 c -0.02223,-0.0589 -0.04982,-4.77432 -0.06132,-10.47873 l -0.02091,-10.37167 -7.323667,-0.047 c -7.166923,-0.046 -7.34132,-0.0511 -8.14865,-0.23447 -3.522229,-0.80023 -6.424049,-3.06219 -8.002429,-6.23783 -0.41074,-0.82638 -0.74527,-1.78163 -0.97848,-2.794 -0.16819,-0.73008 -0.1775,-1.06878 -0.22249,-8.08567 l -0.0469,-7.32367 -10.45633,-0.0423 -10.45634,-0.0423 v -2.62467 -2.62467 l 10.45634,-0.0423 10.45633,-0.0423 0.0218,-5.69384 c 0.012,-3.13161 0.012,-5.70298 0,-5.71417 -0.012,-0.0112 -4.72711,-0.0397 -10.47809,-0.0635 l -10.45634,-0.0432 v -2.58233 -2.58234 l 10.45634,-0.0423 10.45633,-0.0423 v -5.715 -5.71501 l -10.45633,-0.0423 -10.45634,-0.0423 v -2.58234 -2.58233 l 10.45634,-0.0432 c 5.75098,-0.0237 10.46613,-0.0523 10.47809,-0.0635 0.012,-0.0112 0.012,-2.58256 0,-5.71417 l -0.0218,-5.69384 -10.45633,-0.0423 -10.45634,-0.0423 v -2.62467 -2.62467 l 10.45634,-0.0423 10.45633,-0.0423 0.0218,-5.69384 0.0218,-5.69383 -10.39344,-0.001 c -5.71638,-8.5e-4 -10.44162,-0.0319 -10.50052,-0.0693 -0.0833,-0.0529 -0.10212,-0.63962 -0.0847,-2.64453 l 0.0224,-2.576586 10.45634,-0.04233 10.45633,-0.04233 v -5.715 -5.715 l -10.45633,-0.04233 -10.45634,-0.04233 v -2.582333 -2.582334 l 10.45634,-0.04316 c 5.75098,-0.02375 10.46613,-0.05232 10.47809,-0.0635 0.012,-0.01118 0.012,-2.582562 0,-5.71417 l -0.0218,-5.693834 -10.45633,-0.04233 -10.45634,-0.04233 -0.0224,-2.576559 c -0.0175,-2.004915 10e-4,-2.59163 0.0847,-2.644529 0.0589,-0.0374 4.7823,-0.06857 10.49643,-0.06928 l 10.38932,-0.0013 0.0291,-7.344834 c 0.028,-7.077422 0.0355,-7.372578 0.20483,-8.106833 1.0673,-4.627051 4.41601,-7.994651 8.981139,-9.031834 0.80733,-0.183422 0.981727,-0.188443 8.14865,-0.234468 l 7.323667,-0.04703 0.04233,-10.456334 0.04233,-10.456333 h 2.624667 2.624666 l 0.04233,10.456333 0.04233,10.456334 5.640638,0.02176 c 4.661611,0.01799 5.657164,0.0019 5.735828,-0.09293 0.06907,-0.08323 0.101092,-2.958228 0.116696,-10.478101 l 0.02151,-10.363395 h 2.582334 2.582333 l 0.04233,10.456333 0.04233,10.456334 h 5.715 5.715 l 0.04233,-10.456334 0.04233,-10.456333 h 2.582333 2.582334 l 0.02151,10.363395 c 0.0156,7.519873 0.04762,10.394874 0.116696,10.478101 0.07866,0.09479 1.074217,0.110922 5.735828,0.09293 l 5.640638,-0.02176 0.04233,-10.456334 0.04233,-10.456333 h 2.624667 2.624667 l 0.04233,10.456333 0.04233,10.456334 h 5.672667 5.672667 l 0.04316,-10.456334 c 0.02375,-5.750983 0.05232,-10.466409 0.0635,-10.478728 0.01119,-0.01231 1.191912,-0.01231 2.623837,0 l 2.6035,0.02239 0.04233,10.456333 0.04233,10.456334 h 5.7150002 5.71500017 l 0.0423333,-10.456334 0.0423333,-10.456333 H 2.1983145 4.7806479 l 0.021505,10.363395 c 0.015604,7.519873 0.047625,10.394874 0.1166961,10.478101 0.078664,0.09479 1.0742168,0.110922 5.735828,0.09293 l 5.640638,-0.02176 0.04233,-10.456334 0.04233,-10.456333 2.6035,-0.02239 c 1.431925,-0.01231 2.612652,-0.01231 2.623837,0 0.01118,0.01232 0.03975,4.727745 0.0635,10.478728 l 0.04316,10.456334 7.323667,0.04703 c 7.166923,0.04603 7.34132,0.05105 8.14865,0.234468 4.565134,1.037183 7.913836,4.404783 8.981144,9.031834 0.169367,0.734255 0.176826,1.029411 0.204826,8.106833 l 0.02906,7.344834 10.389329,0.0013 c 5.714128,8.47e-4 10.437521,0.03189 10.496423,0.06928 0.08334,0.0529 0.102125,0.639614 0.08467,2.644529 l -0.02243,2.576559 -10.456334,0.04233 -10.456334,0.04233 -0.02176,5.693834 c -0.01197,3.131608 -0.01197,5.702986 0,5.71417 0.01196,0.01118 4.727109,0.03975 10.478093,0.0635 l 10.456334,0.04316 v 2.582334 2.582333 l -10.456334,0.04233 -10.456334,0.04233 v 5.715 5.715 l 10.456334,0.04233 10.456334,0.04233 0.02243,2.576557 c 0.01746,2.00492 -0.0014,2.59163 -0.08467,2.64453 -0.0589,0.0374 -4.784141,0.0686 -10.500521,0.0693 l -10.393435,10e-4 0.02177,5.69383 0.02176,5.69383 10.456334,0.0423 10.456334,0.0423 v 2.62467 2.62466 l -10.456334,0.0423 -10.456334,0.0423 -0.02176,5.69383 c -0.01197,3.13161 -0.01197,5.70299 0,5.71417 0.01196,0.0112 4.727109,0.0397 10.478093,0.0635 l 10.456334,0.0432 v 2.58233 2.58233 l -10.456334,0.0423 -10.456334,0.0423 v 5.715 5.715 l 10.456334,0.0423 10.456334,0.0423 v 2.58233 2.58233 l -10.456334,0.0432 c -5.750984,0.0238 -10.46613,0.0523 -10.478093,0.0635 -0.01197,0.0112 -0.01197,2.58256 0,5.71417 l 0.02176,5.69383 10.456334,0.0423 10.456334,0.0423 v 2.62466 2.62467 l -10.456334,0.0423 -10.456334,0.0423 -0.04695,7.32366 c -0.04499,7.01689 -0.05431,7.35559 -0.222496,8.08567 -1.065505,4.62537 -4.415799,7.99466 -8.980907,9.03184 -0.80733,0.18342 -0.981727,0.18844 -8.14865,0.23446 l -7.323667,0.047 -0.04316,10.45634 c -0.02375,5.75098 -0.05232,10.46641 -0.0635,10.47873 -0.01119,0.0123 -1.191912,0.0123 -2.623837,0 l -2.6035,-0.0224 -0.04233,-10.45634 -0.04233,-10.45633 -5.640638,-0.0218 c -4.6616112,-0.018 -5.6571642,-0.002 -5.735828,0.0929 -0.069071,0.0832 -0.101092,2.95823 -0.1166961,10.4781 l -0.021505,10.3634 H 2.1983145 -0.38401896 l -0.0423333,-10.45634 -0.0423333,-10.45633 H -6.1836858 -11.898686 l -0.04233,10.45633 -0.04233,10.45634 -2.6035,0.0224 c -1.431925,0.0123 -2.612652,0.0123 -2.623837,0 -0.01118,-0.0123 -0.03975,-4.72774 -0.0635,-10.47873 l -0.04316,-10.45633 h -5.672667 -5.672667 l -0.04233,10.45633 -0.04233,10.45634 h -2.624667 -2.624667 l -0.04233,-10.45634 -0.04233,-10.45633 -5.640638,-0.0218 c -4.661611,-0.018 -5.657164,-0.002 -5.735828,0.0929 -0.06907,0.0832 -0.101092,2.95823 -0.116696,10.4781 l -0.02151,10.3634 h -2.582334 -2.582333 l -0.04233,-10.45634 -0.04233,-10.45633 h -5.715 -5.715 l -0.04233,10.45633 -0.04233,10.45634 h -2.582333 -2.582334 l -0.02151,-10.3634 c -0.0156,-7.51987 -0.04762,-10.39487 -0.116696,-10.4781 -0.07866,-0.0948 -1.074217,-0.11092 -5.735828,-0.0929 l -5.640638,0.0218 -0.04233,10.45633 -0.04233,10.45634 -2.605684,0.0224 c -2.039188,0.0175 -2.614473,-8.4e-4 -2.646088,-0.0847 z M 33.948316,117.83927 V 52.518935 H -31.37202 -96.692356 v 65.320335 65.32034 h 65.320336 65.320336 z m -127.214872,61.82798 c -0.02218,-0.0583 -0.03054,-5.21138 -0.01857,-11.45131 l 0.02177,-11.34533 h 7.01476 7.014761 l 0.195216,0.77227 c 0.648072,2.56375 2.684009,4.59487 5.206263,5.19394 0.973912,0.23132 2.408081,0.233 3.36346,0.004 4.178808,-1.00184 6.507937,-5.46489 4.975987,-9.53492 -0.627668,-1.66756 -2.062869,-3.18072 -3.736704,-3.93966 -1.307025,-0.59264 -3.143047,-0.75585 -4.602743,-0.40915 -2.522254,0.59907 -4.558191,2.63019 -5.206263,5.19394 l -0.195216,0.77228 h -7.014761 -7.01476 v -5.334 -5.334 l 21.514994,-0.0213 21.515003,-0.0213 0.804731,0.20414 c 3.366618,0.85401 5.545261,3.36555 6.216346,7.16622 0.147591,0.83587 0.156261,1.64131 0.156261,14.5163 v 13.63133 l -25.085101,0.0213 c -20.023667,0.017 -25.093245,-7e-5 -25.125435,-0.0847 z m 52.071255,0 c -0.02154,-0.0583 -0.05106,-6.35449 -0.06562,-13.99142 -0.02385,-12.52365 -0.04018,-13.95176 -0.166531,-14.56267 -0.531283,-2.56891 -1.550737,-4.53701 -3.107732,-5.99966 -1.283741,-1.20595 -2.757966,-1.98688 -4.786173,-2.53534 l -0.677333,-0.18316 -21.632334,-0.0436 -21.632334,-0.0436 v -5.12234 -5.12233 l 30.617702,-0.0213 c 24.432388,-0.017 30.634095,0 30.698848,0.0847 0.04463,0.0583 0.129455,0.33455 0.188502,0.61395 0.473371,2.2398 2.330001,4.33933 4.506688,5.09631 3.694718,1.28489 7.706564,-0.60401 9.03611,-4.25451 0.344026,-0.94458 0.468088,-1.82118 0.404461,-2.85786 -0.06787,-1.10584 -0.22236,-1.67864 -0.735009,-2.72527 -0.665877,-1.35945 -1.714102,-2.43437 -3.050243,-3.12791 -1.835972,-0.95298 -3.935781,-1.06379 -5.883936,-0.31051 -2.200453,0.85083 -3.74175,2.73126 -4.362484,5.32237 l -0.08622,0.35995 -30.667208,-0.0213 -30.667207,-0.0213 v -7.66233 -7.66233 l 26.754667,-0.0474 c 29.149481,-0.0516 26.822393,-0.0109 28.744334,-0.50243 3.567185,-0.91225 6.430857,-3.13346 7.954603,-6.16996 0.406705,-0.81048 0.909938,-2.39619 1.12053,-3.53079 0.179383,-0.9665 0.189492,-1.27855 0.23401,-7.224849 l 0.04652,-6.214729 0.762,-0.199085 c 2.07325,-0.54168 3.757355,-1.882538 4.662399,-3.712134 0.880043,-1.779041 1.011521,-3.683144 0.38133,-5.522747 -0.631266,-1.842745 -2.196033,-3.518383 -3.967928,-4.249048 -1.395891,-0.575623 -3.170251,-0.712893 -4.547134,-0.351782 -2.452599,0.643239 -4.433138,2.576119 -5.124535,5.001244 -0.259757,0.911115 -0.317034,2.378041 -0.129125,3.306953 0.557318,2.75496 2.67037,4.914045 5.439867,5.558375 0.505824,0.117678 0.632613,0.179891 0.669976,0.328786 0.02535,0.100999 0.03022,2.807564 0.01081,6.014593 -0.02935,4.852403 -0.05816,5.965943 -0.171628,6.635293 -0.494013,2.91429 -1.725659,5.10527 -3.710745,6.60108 -1.227904,0.92525 -2.497641,1.53013 -4.086386,1.94669 -1.902824,0.49891 -0.08975,0.46923 -28.669904,0.46923 H -93.263355 V 100.86349 88.713827 l 10.565121,-0.0215 10.565131,-0.0215 -0.02413,-0.867503 -0.02412,-0.867393 -10.541,-0.04233 -10.541,-0.04233 v -5.672667 -5.672667 l 13.472583,-0.02143 c 10.716168,-0.01703 13.489213,0 13.553847,0.08467 0.0447,0.05835 0.129574,0.334696 0.188621,0.614096 0.481338,2.277465 2.364147,4.374235 4.602895,5.125957 2.218817,0.745033 4.681042,0.350825 6.540847,-1.047217 2.86667,-2.154919 3.647017,-6.022196 1.865156,-9.243407 -0.504131,-0.911361 -1.820731,-2.172225 -2.801281,-2.682689 -1.218015,-0.634086 -1.877408,-0.786655 -3.386667,-0.783615 -1.209955,0.0025 -1.308033,0.01564 -2.074334,0.278985 -0.442383,0.152036 -1.032933,0.405621 -1.312333,0.563524 -1.763768,0.996798 -3.063232,2.776119 -3.460335,4.738116 l -0.103294,0.510346 h -13.542857 -13.542848 v -8.847667 -8.847667 h 61.891335 61.891335 v 10.033 10.033 l -9.906,0.04233 -9.906,0.04233 -0.02412,0.867486 -0.02413,0.867478 9.930131,0.02152 9.930121,0.02151 v 8.255 8.255001 H 17.017369 3.5154315 L 3.3311037,93.666937 C 2.986231,92.320491 2.3827608,91.25381 1.4227678,90.293817 c -1.37242981,-1.37243 -3.0176387,-2.041593 -5.0241202,-2.043481 -3.2956924,-0.0031 -6.0495521,2.139315 -6.9080636,5.374268 -0.25411,0.957503 -0.254923,2.52702 -0.0018,3.471333 0.5708227,2.129545 1.9643175,3.816953 3.9117186,4.736753 1.0624313,0.50182 1.5564698,0.59737 3.0828151,0.59627 1.3109956,-9.4e-4 1.3805916,-0.01 2.159,-0.2795 2.3583309,-0.81661 4.0675562,-2.662875 4.6784093,-5.053523 l 0.1947079,-0.762 H 17.017395 30.519341 v 41.698333 41.69834 H 20.317007 10.114673 l -0.04233,-7.06967 -0.04233,-7.06967 H 9.1410068 8.2520067 l -0.042333,7.06967 -0.042333,7.06967 H 3.8493399 -0.46866023 v -11.97494 -11.97494 l 0.82701557,-0.23777 c 2.51500646,-0.7231 4.21751776,-2.36682 4.98585926,-4.81367 0.1736514,-0.55301 0.1984164,-0.80136 0.1981285,-1.98668 0,-1.31283 -0.00896,-1.37951 -0.2794931,-2.159 -0.6249332,-1.8006 -1.7350656,-3.1409 -3.3185101,-4.00656 -1.25887489,-0.68822 -2.7683546,-0.98275 -4.1658203,-0.81284 -2.8185788,0.34271 -4.9895339,2.1088 -5.9242116,4.8194 -0.2677329,0.77643 -0.2774272,0.85132 -0.2794931,2.159 -0.00186,1.18739 0.022352,1.43307 0.1962319,1.98966 0.7500282,2.40083 2.5052191,4.09745 4.9728715,4.80693 l 0.8400881,0.24153 v 11.97494 11.97494 h -4.7413335 -4.7413339 l -0.04233,-9.48267 -0.04233,-9.48267 h -0.846667 -0.846667 l -0.04233,9.48267 -0.04233,9.48267 -13.697391,0.0214 c -10.913898,0.0171 -13.705349,0 -13.736558,-0.0847 z"
         id="path1440"
         inkscape:connector-curvature="0" />
      <path
         style="fill:#759b97;stroke-width:0.08466667"
         d="m -84.331022,206.12121 c 0,-7.97372 -0.02368,-10.42075 -0.1016,-10.49867 -0.07739,-0.0774 -1.77049,-0.1016 -7.103584,-0.1016 -6.569439,0 -7.061353,-0.0102 -7.9629,-0.16584 -1.213594,-0.20946 -2.172364,-0.53522 -3.341864,-1.13545 -3.27049,-1.67855 -5.53083,-4.84103 -6.08956,-8.52004 -0.0989,-0.651 -0.12225,-2.12872 -0.12266,-7.75124 0,-5.28969 -0.0247,-6.97114 -0.1021,-7.0485 -0.0779,-0.0779 -2.52495,-0.1016 -10.49867,-0.1016 h -10.39706 v -2.58233 -2.58233 h 10.40363 c 8.67236,0 10.41955,-0.0192 10.49927,-0.11524 0.0695,-0.0837 0.0897,-1.66558 0.0739,-5.7785 l -0.0218,-5.66326 -10.45634,-0.0423 -10.45633,-0.0423 -0.0224,-2.56117 -0.0224,-2.56116 h 10.3983 c 7.97468,0 10.42199,-0.0237 10.49991,-0.1016 0.077,-0.077 0.1016,-1.46756 0.1016,-5.7404 0,-4.27285 -0.0246,-5.66342 -0.1016,-5.74041 -0.0779,-0.0779 -2.52523,-0.1016 -10.49991,-0.1016 h -10.3983 l 0.0224,-2.56116 0.0224,-2.56117 10.45633,-0.0423 10.45634,-0.0423 0.0218,-5.66326 c 0.0158,-4.11292 -0.004,-5.69481 -0.0739,-5.7785 -0.0797,-0.0961 -1.82691,-0.11524 -10.49927,-0.11524 h -10.40363 v -2.58233 -2.58233 h 10.40363 c 8.67236,0 10.41955,-0.0192 10.49927,-0.11524 0.0695,-0.0837 0.0897,-1.66557 0.0739,-5.7785 l -0.0218,-5.66326 -10.45634,-0.0423 -10.45633,-0.0423 -0.0224,-2.56117 -0.0224,-2.561163 h 10.3983 c 7.97468,0 10.42199,-0.02368 10.49991,-0.1016 0.14691,-0.146905 0.14691,-11.333895 0,-11.4808 -0.0779,-0.07792 -2.52523,-0.1016 -10.49991,-0.1016 h -10.3983 l 0.0224,-2.561167 0.0224,-2.561167 10.45633,-0.04233 10.45634,-0.04233 0.0218,-5.66326 c 0.0158,-4.112929 -0.004,-5.694816 -0.0739,-5.7785 -0.0797,-0.09606 -1.8271,-0.11524 -10.50051,-0.11524 h -10.40487 l 0.0224,-2.561167 0.0224,-2.561166 10.45633,-0.04233 10.45634,-0.04233 0.0475,-7.408334 c 0.0427,-6.671115 0.0623,-7.47152 0.19659,-8.043333 0.8428,-3.589105 2.93541,-6.348874 6.01097,-7.927374 1.1695,-0.600236 2.12827,-0.925991 3.341864,-1.135448 0.901547,-0.155601 1.393461,-0.165845 7.9629,-0.165845 5.333094,0 7.026199,-0.02421 7.103584,-0.1016 0.07792,-0.07792 0.1016,-2.524947 0.1016,-10.498667 V 19.160268 h 2.582334 2.582333 v 10.397067 c 0,7.97372 0.02368,10.420748 0.1016,10.498667 0.077,0.077 1.455742,0.101286 5.693834,0.100304 3.075728,-8.46e-4 5.639706,-0.03144 5.697728,-0.06829 0.08309,-0.05276 0.110066,-2.27777 0.127,-10.476205 l 0.02151,-10.409208 2.561167,-0.02241 2.561167,-0.0224 v 10.366858 c 0,9.31153 0.01355,10.380405 0.133045,10.499912 0.118262,0.118253 0.752839,0.133045 5.708955,0.133045 4.956116,0 5.590692,-0.01479 5.708955,-0.133045 0.119498,-0.119507 0.133045,-1.188382 0.133045,-10.499912 V 19.157787 l 2.561167,0.0224 2.561167,0.02241 0.02151,10.409208 c 0.01693,8.198435 0.04391,10.423441 0.127,10.476205 0.05802,0.03685 2.622,0.06758 5.697728,0.06829 4.238092,10e-4 5.616838,-0.02331 5.693834,-0.100304 0.07792,-0.07792 0.1016,-2.524947 0.1016,-10.498667 V 19.160268 h 2.582333 2.582333 v 10.397067 c 0,7.97372 0.02368,10.420748 0.1016,10.498667 0.077,0.077 1.455742,0.101286 5.693834,0.100304 3.075728,-8.46e-4 5.639706,-0.03144 5.697728,-0.06829 0.08309,-0.05276 0.110067,-2.27777 0.127,-10.476205 l 0.02151,-10.409208 2.561167,-0.02241 2.561167,-0.0224 V 29.55609 c 0,7.974686 0.02368,10.421993 0.1016,10.499912 0.146905,0.146905 11.33389524,0.146905 11.48080038,0 0.0779187,-0.07792 0.1016,-2.525226 0.1016,-10.499912 V 19.157787 l 2.56116672,0.0224 2.5611668,0.02241 0.021505,10.409208 c 0.016933,8.198435 0.043908,10.423441 0.127,10.476205 0.058022,0.03685 2.6219998,0.06758 5.6977281,0.06829 4.238092,10e-4 5.616838,-0.02331 5.693834,-0.100304 0.07792,-0.07792 0.1016,-2.525226 0.1016,-10.499912 V 19.157787 l 2.561167,0.0224 2.561166,0.02241 0.02151,10.409208 c 0.01693,8.198435 0.04391,10.423441 0.127,10.476205 0.05802,0.03685 3.254485,0.06758 7.103245,0.06829 6.561828,0.0012 7.057619,0.01163 7.958667,0.167141 2.404297,0.414968 4.414055,1.463607 6.169593,3.219145 1.333906,1.333915 2.21604,2.74784 2.788319,4.469274 0.565886,1.702207 0.53936,1.279779 0.591515,9.417736 l 0.04749,7.408334 10.456333,0.04233 10.456334,0.04233 0.02241,2.561166 0.0224,2.561167 H 56.904591 c -8.673406,0 -10.420791,0.01918 -10.500513,0.11524 -0.06945,0.08368 -0.08968,1.665571 -0.07386,5.7785 l 0.02177,5.66326 10.456333,0.04233 10.456334,0.04233 0.02241,2.561167 0.0224,2.561167 H 56.911161 c -7.974686,0 -10.421993,0.02368 -10.499912,0.1016 -0.07699,0.07699 -0.1016,1.467552 -0.1016,5.7404 0,4.272847 0.02461,5.663413 0.1016,5.7404 0.07792,0.07792 2.525226,0.1016 10.499912,0.1016 h 10.398303 l -0.0224,2.561163 -0.02241,2.56117 -10.456334,0.0423 -10.456333,0.0423 -0.02177,5.66326 c -0.01582,4.11293 0.0044,5.69481 0.07386,5.7785 0.07972,0.0961 1.826912,0.11524 10.499268,0.11524 h 10.403637 v 2.58233 2.58233 H 56.903346 c -8.672356,0 -10.419546,0.0192 -10.499268,0.11524 -0.06945,0.0837 -0.08968,1.66558 -0.07386,5.7785 l 0.02177,5.66326 10.456333,0.0423 10.456334,0.0423 0.02241,2.56117 0.0224,2.56116 H 56.911161 c -7.974686,0 -10.421993,0.0237 -10.499912,0.1016 -0.146905,0.14691 -0.146905,11.3339 0,11.48081 0.07792,0.0779 2.525226,0.1016 10.499912,0.1016 h 10.398303 l -0.0224,2.56116 -0.02241,2.56117 -10.456334,0.0423 -10.456333,0.0423 -0.02177,5.66326 c -0.01582,4.11292 0.0044,5.69481 0.07386,5.7785 0.07972,0.0961 1.826912,0.11524 10.499268,0.11524 h 10.403637 v 2.58233 2.58233 H 56.909916 c -7.97372,0 -10.420748,0.0237 -10.498667,0.1016 -0.07736,0.0774 -0.101718,1.75881 -0.102099,7.0485 -8.47e-4,7.50091 -0.01217,7.73606 -0.46112,9.31757 -0.29144,1.02668 -1.184385,2.80054 -1.857926,3.69081 -1.753319,2.31752 -4.359893,3.90211 -7.235038,4.39835 -0.901048,0.15551 -1.396839,0.16592 -7.958667,0.16714 -3.84876,8.4e-4 -7.045223,0.0314 -7.103245,0.0683 -0.08309,0.0528 -0.110067,2.27777 -0.127,10.4762 l -0.02151,10.40921 -2.561166,0.0224 -2.561167,0.0224 v -10.39831 c 0,-7.97468 -0.02368,-10.42199 -0.1016,-10.49991 -0.077,-0.077 -1.455742,-0.10129 -5.693834,-0.1003 -3.075728,8.4e-4 -5.6397057,0.0314 -5.6977278,0.0683 -0.083092,0.0528 -0.1100666,2.27777 -0.127,10.4762 l -0.021505,10.40921 -2.5611668,0.0224 -2.56116672,0.0224 V 206.1222 c 0,-7.97468 -0.0236813,-10.42199 -0.1016,-10.49991 -0.14690514,-0.1469 -11.33389568,-0.1469 -11.48080068,0 -0.07792,0.0779 -0.1016,2.52523 -0.1016,10.49991 v 10.39831 l -2.561167,-0.0224 -2.561167,-0.0224 -0.02151,-10.40921 c -0.01693,-8.19843 -0.04391,-10.42344 -0.127,-10.4762 -0.05802,-0.0368 -2.622,-0.0676 -5.697728,-0.0683 -4.238092,-0.001 -5.616838,0.0233 -5.693834,0.1003 -0.07792,0.0779 -0.1016,2.52495 -0.1016,10.49867 v 10.39706 h -2.582333 -2.582333 v -10.39706 c 0,-7.97372 -0.02368,-10.42075 -0.1016,-10.49867 -0.077,-0.077 -1.455742,-0.10129 -5.693834,-0.1003 -3.075728,8.4e-4 -5.639706,0.0314 -5.697728,0.0683 -0.08309,0.0528 -0.110067,2.27777 -0.127,10.4762 l -0.02151,10.40921 -2.561167,0.0224 -2.561167,0.0224 V 206.1222 c 0,-7.97468 -0.02368,-10.42199 -0.1016,-10.49991 -0.146905,-0.1469 -11.333895,-0.1469 -11.4808,0 -0.07792,0.0779 -0.1016,2.52523 -0.1016,10.49991 v 10.39831 l -2.561167,-0.0224 -2.561167,-0.0224 -0.02151,-10.40921 c -0.01693,-8.19843 -0.04391,-10.42344 -0.127,-10.4762 -0.05802,-0.0368 -2.622,-0.0676 -5.697728,-0.0683 -4.238092,-0.001 -5.616838,0.0233 -5.693834,0.1003 -0.07792,0.0779 -0.1016,2.52495 -0.1016,10.49867 v 10.39706 h -2.582333 -2.582334 z M 33.948316,117.83927 V 52.518935 H -31.37202 -96.692356 v 65.320335 65.32034 h 65.320336 65.320336 z m -127.197557,61.87722 c -0.03105,-0.031 -0.05645,-5.17454 -0.05645,-11.43 v -11.37355 h 7.019892 7.019891 l 0.05959,0.35268 c 0.03277,0.19397 0.147795,0.61203 0.255609,0.92903 0.746472,2.19472 2.386516,3.81983 4.610354,4.56837 0.684048,0.23026 0.962669,0.27679 1.863065,0.31115 2.198759,0.0839 3.997266,-0.62812 5.502935,-2.17864 0.698416,-0.71922 1.053432,-1.26086 1.482785,-2.26229 1.111402,-2.59226 0.521157,-5.67126 -1.482785,-7.73489 -0.733018,-0.75486 -1.574495,-1.32582 -2.500418,-1.69657 -1.035465,-0.41462 -1.702926,-0.52283 -2.960582,-0.47996 -0.954879,0.0325 -1.207202,0.0734 -1.905,0.30864 -2.224879,0.74998 -3.863958,2.37427 -4.610354,4.56877 -0.107814,0.317 -0.222843,0.73506 -0.255609,0.92903 l -0.05959,0.35268 h -7.019891 -7.019892 v -5.29247 -5.29246 l 21.780501,0.022 21.780501,0.022 0.719666,0.24289 c 2.883756,0.97327 4.660503,2.87832 5.498389,5.89544 0.427279,1.53857 0.428278,1.57562 0.428278,15.92167 v 13.373 h -25.04722 c -13.775978,0 -25.072629,-0.0254 -25.103667,-0.0565 z m 52.077824,-13.85005 c -0.02713,-15.52923 0.01499,-14.42584 -0.626999,-16.42495 -1.058536,-3.29616 -3.341048,-5.59305 -6.621924,-6.66361 -1.668788,-0.54452 -0.182516,-0.51227 -23.6066,-0.51227 h -21.278749 v -5.08012 -5.08011 l 30.667919,0.0213 30.667927,0.0213 0.184853,0.70361 c 0.346414,1.31858 0.913282,2.33526 1.84034,3.3007 2.975983,3.09918 8.172848,2.76991 10.767882,-0.68225 1.737487,-2.31135 1.921044,-5.47649 0.461221,-7.95312 -0.479264,-0.81309 -1.708988,-2.04282 -2.522084,-2.52208 -4.102439,-2.41813 -9.389923,-0.1929 -10.531738,4.43227 l -0.180509,0.7312 h -30.67791 -30.677901 v -7.61908 -7.61909 l 26.691168,-0.0222 c 25.602413,-0.0213 26.723976,-0.0286 27.495501,-0.17928 5.720825,-1.11737 9.362957,-4.5003 10.4045,-9.66404 0.309245,-1.53318 0.348167,-2.45068 0.348167,-8.207871 v -5.6076 l 0.727346,-0.179562 c 2.02438,-0.499761 3.810999,-1.928334 4.733603,-3.784964 0.548953,-1.104705 0.736092,-1.89583 0.741054,-3.132666 0.0044,-1.105087 -0.11966,-1.783326 -0.500406,-2.735039 -1.41605,-3.539574 -5.344346,-5.363134 -8.957344,-4.158098 -1.879702,0.626931 -3.338703,1.905592 -4.194234,3.675803 -0.493878,1.02191 -0.671509,1.68656 -0.735407,2.751667 -0.204182,3.403956 2.083071,6.512696 5.416788,7.362275 0.36322,0.09256 0.696595,0.190669 0.740833,0.218008 0.11176,0.06907 0.102997,10.471257 -0.0099,11.766047 -0.460994,5.28641 -3.319086,8.47775 -8.663136,9.6732 l -1.025517,0.22941 -26.606501,0.024 -26.606501,0.024 V 100.8651 88.75693 l 10.604501,-0.0215 10.6045,-0.0215 0.02433,-0.83417 c 0.01582,-0.542341 -0.01002,-0.875572 -0.07386,-0.9525 -0.08313,-0.100169 -1.714534,-0.11833 -10.628834,-0.11833 h -10.530637 v -5.630596 -5.630588 l 13.522918,0.02142 13.522927,0.02143 0.181805,0.677333 c 0.254465,0.948047 0.48862,1.494917 0.936549,2.187347 1.062388,1.642288 2.705057,2.768278 4.596849,3.15098 0.928912,0.187909 2.395838,0.130632 3.306953,-0.129125 3.938829,-1.12296 6.125278,-5.281609 4.82203,-9.17156 -0.342079,-1.021037 -0.825272,-1.81698 -1.587128,-2.614405 -1.004858,-1.051771 -2.032923,-1.659881 -3.446568,-2.038688 -0.933916,-0.250258 -2.503424,-0.245356 -3.471334,0.01085 -2.525225,0.668401 -4.523782,2.68992 -5.137751,5.196773 l -0.181441,0.740833 h -13.533298 -13.533298 l 0.02156,-8.8265 0.02156,-8.8265 h 61.891335 61.891335 l 0.02151,10.011833 0.02151,10.011834 h -9.895984 c -8.370833,0 -9.911114,0.01824 -9.994181,0.11833 -0.06385,0.07693 -0.08969,0.410159 -0.07386,0.9525 l 0.02433,0.83417 9.9695,0.02151 9.969501,0.02151 v 8.212319 8.21232 H 17.058932 3.556207 L 3.5085396,94.111437 C 3.373437,93.45146 2.9248561,92.239144 2.6300044,91.737129 1.6272039,90.029792 -0.07657735,88.771366 -1.9812387,88.331235 -2.6808733,88.169572 -2.963008,88.147694 -3.8795163,88.184084 c -0.9005993,0.03576 -1.2079309,0.08567 -1.8808362,0.305461 -2.7384503,0.894435 -4.6391575,3.216571 -4.9891955,6.095424 -0.405561,3.335562 1.707744,6.574241 4.9891955,7.646031 1.1332465,0.37014 2.5895894,0.43318 3.7599114,0.16274 1.95614716,-0.45202 3.6247494,-1.68886 4.6563112,-3.451435 0.2729315,-0.466352 0.7221305,-1.695492 0.8526695,-2.333201 L 3.556207,96.37627 h 13.50281 13.502801 l -0.02125,41.67717 -0.02125,41.67717 -10.181167,0.0215 -10.181167,0.0215 v -6.99091 c 0,-4.6571 -0.02926,-7.04558 -0.08765,-7.15468 -0.077614,-0.14503 -0.1838193,-0.16377 -0.9283526,-0.16377 -0.7445333,0 -0.8507392,0.0187 -0.9283531,0.16377 -0.058386,0.1091 -0.087647,2.49747 -0.087647,7.15434 v 6.99056 H 3.8493145 -0.42635229 V 167.7631 155.75325 l 0.71483222,-0.18883 c 2.48400157,-0.65621 4.28405727,-2.37773 5.05570927,-4.83513 0.1736514,-0.55301 0.1984164,-0.80136 0.1981285,-1.98668 0,-1.31283 -0.00896,-1.37951 -0.2794931,-2.159 -0.6249332,-1.8006 -1.7350656,-3.1409 -3.3185101,-4.00656 -1.25887489,-0.68822 -2.7683546,-0.98275 -4.1658203,-0.81284 -2.8185788,0.34271 -4.9895339,2.1088 -5.9242116,4.8194 -0.2677329,0.77643 -0.2774272,0.85132 -0.2794931,2.159 -0.00186,1.18739 0.022352,1.43307 0.1962319,1.98966 0.7520433,2.40725 2.6068783,4.18521 5.0355163,4.82679 l 0.7351099,0.19419 v 12.00985 12.00984 H -7.1573525 -11.856353 V 170.257 c 0,-8.59919 -0.0129,-9.5209 -0.133925,-9.56733 -0.249623,-0.0958 -1.605585,-0.056 -1.711808,0.0502 -0.07781,0.0778 -0.1016,2.31799 -0.1016,9.56734 v 9.46573 h -13.67172 -13.67172 z"
         id="path1438"
         inkscape:connector-curvature="0" />
      <path
         style="fill:#697785;stroke-width:0.08466667"
         d="m -84.291118,216.4137 c -0.02223,-0.0589 -0.04983,-4.77434 -0.06132,-10.47876 l -0.02091,-10.37167 -7.323667,-0.0474 c -7.064155,-0.0457 -7.351497,-0.0538 -8.109137,-0.22671 -2.093808,-0.47795 -3.659088,-1.24261 -5.200228,-2.54036 -1.91652,-1.61387 -3.20675,-3.80379 -3.81509,-6.4754 -0.17233,-0.75682 -0.1806,-1.0526 -0.2267,-8.10914 l -0.0478,-7.32366 -10.45634,-0.0423 -10.45633,-0.0423 v -2.54 -2.54 l 10.45633,-0.0423 10.45634,-0.0423 0.0218,-5.75196 c 0.0172,-4.54554 -8.5e-4,-5.76614 -0.0847,-5.81954 -0.0585,-0.0372 -4.78377,-0.0682 -10.50052,-0.0689 l -10.3941,-0.001 0.0224,-2.51883 0.0224,-2.51884 10.45633,-0.0423 10.45634,-0.0423 v -5.79967 -5.79967 l -10.45634,-0.0423 -10.45633,-0.0423 -0.0224,-2.51884 -0.0224,-2.51883 10.3941,-0.001 c 5.71675,-8.5e-4 10.44199,-0.0317 10.50052,-0.0689 0.0841,-0.0534 0.10187,-1.27399 0.0847,-5.81954 l -0.0218,-5.75201 -10.45634,-0.0423 -10.45633,-0.0423 v -2.54 -2.54 l 10.45633,-0.0423 10.45634,-0.0423 0.022,-5.715 c 0.0204,-5.29761 0.0115,-5.72273 -0.12201,-5.82083 -0.11337,-0.0833 -2.34865,-0.10583 -10.50078,-0.10583 h -10.35675 l 0.0224,-2.51884 0.0224,-2.51883 10.45633,-0.04233 10.45634,-0.04233 V 92.650937 86.85127 l -10.45634,-0.04233 -10.45633,-0.04233 -0.0224,-2.518833 -0.0224,-2.518834 10.3941,-0.0013 c 5.71675,-8.46e-4 10.44199,-0.03171 10.50052,-0.06887 0.0841,-0.0534 0.10187,-1.273997 0.0847,-5.819539 l -0.0218,-5.751991 -10.45634,-0.04233 -10.45633,-0.04233 -0.0224,-2.518834 -0.0224,-2.518833 h 10.35675 c 8.15395,0 10.38666,-0.02251 10.49737,-0.105833 0.12876,-0.0969 0.14305,-0.720649 0.16923,-7.387167 0.0277,-7.061709 0.034,-7.305041 0.20817,-8.067193 0.54412,-2.381292 1.54945,-4.243536 3.1607,-5.854785 1.61341,-1.613408 3.47405,-2.621678 5.819456,-3.15352 0.80176,-0.181805 0.994427,-0.187334 8.144849,-0.233689 l 7.323667,-0.04748 0.04233,-10.456333 0.04233,-10.456334 h 2.54 2.54 l 0.04233,10.456334 0.04233,10.456333 5.705603,0.02177 c 4.14423,0.01581 5.73714,-0.0044 5.820833,-0.07387 0.09605,-0.07971 0.115231,-1.827327 0.115231,-10.500522 V 19.157745 l 2.518834,0.02243 2.518833,0.02243 0.04316,10.456334 c 0.02375,5.750983 0.05232,10.465858 0.0635,10.4775 0.01119,0.01164 2.611137,0.02117 5.777671,0.02117 3.166533,0 5.766486,-0.0095 5.77767,-0.02117 0.01118,-0.01164 0.03975,-4.726517 0.0635,-10.4775 l 0.04316,-10.456334 2.518834,-0.02243 2.518833,-0.02243 v 10.404898 c 0,8.673195 0.01918,10.420808 0.115232,10.500522 0.08369,0.06947 1.676603,0.08968 5.820833,0.07387 l 5.705602,-0.02177 0.04233,-10.456333 0.04233,-10.456334 h 2.54 2.54 l 0.04233,10.456334 0.04233,10.456333 5.738038,0.02176 5.738038,0.02176 0.0828,-0.217771 c 0.0523,-0.137558 0.0828,-4.005115 0.0828,-10.500521 v -10.28275 l 2.518833,0.02243 2.518834,0.02243 0.04233,10.456334 0.04233,10.456333 5.7253129,0.02175 c 4.7326298,0.01798 5.74181414,0.0019 5.82049488,-0.09293 0.0690626,-0.08322 0.10108353,-2.958668 0.1166876,-10.478093 l 0.0215053,-10.363395 2.51883342,-0.02243 2.5188334,-0.02243 V 29.56264 c 0,8.673195 0.019177,10.420808 0.1152314,10.500522 0.083693,0.06947 1.6766032,0.08968 5.8208331,0.07387 l 5.705603,-0.02177 0.04233,-10.456333 0.04233,-10.456334 2.518834,-0.02243 2.518833,-0.02243 v 10.28275 c 0,6.346554 0.03104,10.364377 0.08108,10.495991 l 0.08108,0.213242 7.30609,0.02996 c 7.083637,0.02904 7.330008,0.03542 8.09156,0.209466 2.377143,0.543263 4.251062,1.554268 5.856385,3.15959 1.605339,1.60534 2.616403,3.479386 3.159573,5.856385 0.17405,0.76167 0.180349,1.006111 0.208086,8.066804 0.02618,6.666518 0.04047,7.290266 0.169223,7.387167 0.110719,0.08332 2.343421,0.105833 10.497372,0.105833 h 10.356748 l -0.02243,2.518833 -0.02243,2.518834 -10.456334,0.04233 -10.456333,0.04233 -0.02176,5.751966 c -0.0172,4.545542 8.47e-4,5.766139 0.08467,5.819538 0.05853,0.03716 4.783768,0.06816 10.500521,0.06887 l 10.394095,0.0013 -0.02243,2.518833 -0.02243,2.518834 -10.456334,0.04233 -10.456333,0.04233 v 5.799666 5.799667 l 10.456333,0.04233 10.456334,0.04233 0.02243,2.518836 0.02243,2.51883 H 56.952758 c -8.152131,0 -10.387407,0.0225 -10.500776,0.10584 -0.13351,0.0981 -0.142417,0.52321 -0.122013,5.82083 l 0.02201,5.715 10.456333,0.0423 10.456334,0.0423 v 2.54 2.54 l -10.456334,0.0423 -10.456333,0.0423 -0.02176,5.75197 c -0.0172,4.54554 8.47e-4,5.76614 0.08467,5.81954 0.05853,0.0372 4.783768,0.0682 10.500521,0.0689 l 10.394095,0.001 -0.02243,2.51884 -0.02243,2.51883 -10.456334,0.0423 -10.456333,0.0423 v 5.79966 5.79967 l 10.456333,0.0423 10.456334,0.0423 0.02243,2.51883 0.02243,2.51883 -10.394095,0.001 c -5.716753,8.5e-4 -10.441991,0.0317 -10.500521,0.0689 -0.08411,0.0534 -0.101871,1.274 -0.08467,5.81954 l 0.02176,5.75197 10.456333,0.0423 10.456334,0.0423 v 2.54 2.54 l -10.456334,0.0423 -10.456333,0.0423 -0.0474,7.32367 c -0.04572,7.06415 -0.05376,7.35149 -0.226703,8.10913 -0.610286,2.67355 -1.879575,4.83484 -3.788131,6.45029 -1.556681,1.31762 -3.120873,2.08846 -5.191921,2.55862 -0.805722,0.18291 -0.958723,0.18699 -8.127272,0.21646 l -7.30609,0.03 -0.08108,0.21324 c -0.05004,0.13161 -0.08108,4.14944 -0.08108,10.49599 v 10.28275 l -2.518833,-0.0224 -2.518834,-0.0224 -0.04233,-10.45633 -0.04233,-10.45633 -5.705603,-0.0218 c -4.1442299,-0.0158 -5.7371401,0.004 -5.8208331,0.0739 -0.096054,0.0797 -0.1152314,1.82733 -0.1152314,10.50052 v 10.4049 l -2.5188334,-0.0224 -2.51883339,-0.0224 -0.0423333,-10.45633 -0.0423333,-10.45633 H -6.1836858 -11.983353 l -0.04233,10.45633 -0.04233,10.45633 -2.518834,0.0224 -2.518833,0.0224 v -10.28275 c 0,-6.49541 -0.0305,-10.36296 -0.0828,-10.50052 l -0.0828,-0.21777 -5.738038,0.0218 -5.738038,0.0218 -0.04233,10.45633 -0.04233,10.45633 h -2.54 -2.54 l -0.04233,-10.45633 -0.04233,-10.45633 -5.705602,-0.0218 c -4.14423,-0.0158 -5.73714,0.004 -5.820833,0.0739 -0.09605,0.0797 -0.115232,1.82733 -0.115232,10.50052 v 10.4049 l -2.518833,-0.0224 -2.518834,-0.0224 -0.04233,-10.45633 -0.04233,-10.45633 h -5.799667 -5.799667 l -0.04233,10.45633 -0.04233,10.45633 -2.518833,0.0224 -2.518834,0.0224 v -10.4049 c 0,-8.67319 -0.01918,-10.42081 -0.115231,-10.50052 -0.08369,-0.0695 -1.676603,-0.0897 -5.820833,-0.0739 l -5.705603,0.0218 -0.04233,10.45633 -0.04233,10.45633 -2.52101,0.0224 c -1.971404,0.0175 -2.529814,-9.3e-4 -2.56142,-0.0847 z m 118.3241,-98.57443 V 52.434269 H -31.37202 -96.777022 v 65.405001 65.405 h 65.405002 65.405002 z m -127.15916,61.73426 c -0.07003,-0.0844 -0.08974,-3.11351 -0.07399,-11.36664 l 0.02148,-11.25162 h 6.931127 6.931118 l 0.15511,0.61078 c 0.346473,1.36429 0.833162,2.26205 1.76795,3.26117 0.986443,1.05433 2.135353,1.74064 3.518696,2.10192 0.94703,0.24733 2.524303,0.24733 3.471333,0 2.686254,-0.70155 4.782253,-2.87582 5.32688,-5.52579 0.279036,-1.35773 0.126763,-3.03686 -0.387849,-4.27671 -0.861983,-2.07678 -2.723219,-3.6829 -4.939031,-4.26204 -0.952381,-0.24892 -2.528053,-0.24948 -3.471333,-0.001 -1.387433,0.36514 -2.533312,1.05009 -3.518696,2.10328 -0.934788,0.99913 -1.421477,1.89688 -1.76795,3.26118 l -0.15511,0.61077 h -6.931118 -6.931127 v -5.24933 -5.24933 l 21.293668,-0.0261 c 16.109383,-0.0197 21.436796,-0.002 21.881559,0.0741 2.965721,0.50539 5.279906,2.53236 6.255368,5.47902 0.647006,1.95444 0.607407,0.90183 0.607407,16.14759 v 13.63134 l -24.945019,0.0213 c -20.935045,0.0179 -24.960361,0.003 -25.040472,-0.0937 z m 52.116526,0.0586 c -0.03118,-0.0312 -0.05704,-5.79393 -0.05745,-12.8061 -8.46e-4,-7.54549 -0.03487,-13.22269 -0.08436,-13.90896 -0.399474,-5.53992 -3.04695,-8.99717 -7.948303,-10.37946 l -0.814257,-0.22963 -21.632334,-0.0423 -21.632334,-0.0423 v -4.99533 -4.99534 l 30.584192,-0.0213 30.584192,-0.0213 0.05043,0.23295 c 0.135518,0.6261 0.417636,1.46326 0.648132,1.9233 1.289533,2.57372 3.949658,4.14938 6.751515,3.9991 1.144059,-0.0614 1.790065,-0.22932 2.840211,-0.73839 1.777196,-0.86153 3.012398,-2.25914 3.649574,-4.12939 0.507797,-1.4905 0.544576,-2.97594 0.108661,-4.38898 -0.705984,-2.28853 -2.559067,-4.14161 -4.84759,-4.84759 -2.802721,-0.86461 -5.970219,0.17118 -7.751166,2.53466 -0.701802,0.93137 -1.125652,1.88544 -1.399337,3.14986 l -0.05043,0.23294 -30.584192,-0.0213 -30.584192,-0.0213 v -7.53534 -7.53533 l 26.373668,-0.0444 c 24.462173,-0.0412 26.434416,-0.055 27.211808,-0.19033 2.495144,-0.43442 4.312785,-1.11622 6.06177,-2.27379 0.959806,-0.63525 2.318884,-1.9637 2.937671,-2.87146 0.952898,-1.39792 1.651042,-3.14356 1.995644,-4.98986 0.17261,-0.92483 0.184455,-1.29856 0.228092,-7.196453 l 0.04602,-6.220959 0.677333,-0.172653 c 1.390667,-0.35449 2.546791,-1.029597 3.535647,-2.064622 3.790281,-3.967243 1.894383,-10.53603 -3.45098,-11.956771 -0.96266,-0.255862 -2.607098,-0.256633 -3.556,-0.0017 -2.711289,0.728497 -4.781694,2.87821 -5.32688,5.530892 -0.780296,3.796725 1.536294,7.49339 5.306704,8.468073 l 0.739843,0.191262 -8.47e-4,5.92737 c -8.47e-4,6.417501 -0.02243,6.806211 -0.471966,8.382701 -0.248886,0.87282 -0.803427,2.09434 -1.275994,2.81072 -0.506527,0.76786 -1.683478,1.93579 -2.503441,2.48425 -1.678746,1.1229 -3.664687,1.79984 -5.950433,2.02831 -0.660908,0.0661 -8.429575,0.0858 -26.754668,0.0679 l -25.823334,-0.0252 V 100.90591 88.883245 l 10.473276,-0.04233 c 7.374263,-0.02981 10.500504,-0.06956 10.565282,-0.134349 0.05778,-0.05779 0.08297,-0.419896 0.06772,-0.973666 l -0.02393,-0.881626 -10.541,-0.04233 -10.541001,-0.04233 V 81.220936 75.67527 l 13.439158,-0.02143 13.439157,-0.02143 0.0514,0.233096 c 0.456074,2.068195 1.492267,3.629855 3.154469,4.754144 2.162124,1.462439 5.038589,1.577822 7.372655,0.295749 4.286419,-2.35447 5.051984,-8.14926 1.520664,-11.510315 -1.412122,-1.344033 -3.008283,-1.997321 -4.899169,-2.00517 -2.754105,-0.01143 -5.141375,1.424966 -6.428309,3.867862 -0.237176,0.450215 -0.587256,1.468721 -0.722003,2.100588 l -0.04971,0.233096 -13.439157,-0.02143 -13.439158,-0.02143 -0.02156,-8.669173 c -0.01577,-6.335505 0.0041,-8.700135 0.07386,-8.784167 0.142849,-0.172119 123.365848,-0.172178 123.508689,-5.9e-5 0.06981,0.08412 0.08962,2.757517 0.07387,9.9695 l -0.02152,9.854566 -9.906001,0.04233 -9.906,0.04233 -0.02428,0.881651 c -0.01525,0.553763 0.0099,0.915873 0.06772,0.973667 0.06469,0.06469 3.013193,0.104589 9.930282,0.134349 l 9.838276,0.04233 v 8.128001 8.128 l -13.43335,0.02143 -13.4333488,0.02142 -0.059622,-0.352933 c -0.0328,-0.194116 -0.147845,-0.612293 -0.2556595,-0.929293 -1.2919033,-3.79835 -5.3417048,-5.823187 -9.1169832,-4.558344 -2.4467482,0.819735 -4.2580815,2.840948 -4.8163065,5.374387 -0.175429,0.796163 -0.131817,2.487591 0.08502,3.297428 1.2050691,4.50058 6.2298243,6.73859 10.34610612,4.60811 C 1.6342143,100.8092 3.1674092,98.746564 3.508328,96.728687 l 0.059622,-0.352933 13.433349,0.02142 13.43335,0.02143 0.02125,41.520226 c 0.01571,30.69908 -0.0036,41.55018 -0.07415,41.63518 -0.07957,0.0959 -1.762828,0.11138 -10.138918,0.0934 l -10.043516,-0.0215 -0.04355,-7.06967 c -0.02395,-3.88831 -0.05253,-7.07919 -0.0635,-7.09083 -0.01097,-0.0116 -0.4390475,-0.0212 -0.9512808,-0.0212 -0.5122334,0 -0.9403081,0.01 -0.9512809,0.0212 -0.010973,0.0116 -0.039548,3.20252 -0.0635,7.09083 l -0.043552,7.06967 H 3.8493145 -0.38401896 V 167.7586 155.87125 l 0.71966669,-0.19186 c 0.92214707,-0.24583 1.39122577,-0.45036 2.13199987,-0.92956 1.5149238,-0.98 2.6330149,-2.5466 3.0788442,-4.31389 0.1833118,-0.72666 0.2087965,-2.39929 0.047727,-3.13267 -0.3518662,-1.60215 -1.2911921,-3.13873 -2.5133132,-4.11136 -2.8990714,-2.30725 -7.0021791,-2.08805 -9.6032577,0.51303 -3.2146918,3.21469 -2.6395766,8.57646 1.1853334,11.05076 0.7104549,0.45959 1.2278614,0.68521 2.1166667,0.923 l 0.7196667,0.19255 v 11.88735 11.88734 h -4.6143335 -4.6143342 l -0.04233,-9.41495 c -0.02973,-6.6123 -0.06972,-9.44234 -0.134349,-9.50695 -0.05779,-0.0578 -0.419938,-0.083 -0.973667,-0.0677 l -0.881651,0.0243 -0.04233,9.48266 -0.04233,9.48267 -13.553466,0.0214 c -7.454409,0.0118 -13.578985,-0.004 -13.610167,-0.0353 z"
         id="path1436"
         inkscape:connector-curvature="0" />
      <path
         style="fill:#606d7c;stroke-width:0.08466667"
         d="m -84.246355,206.02997 c 0,-8.4171 -0.02096,-10.42102 -0.109737,-10.4947 -0.07582,-0.0629 -2.372521,-0.10035 -7.4295,-0.12106 -7.067745,-0.029 -7.346002,-0.0361 -8.081764,-0.20689 -2.404504,-0.55827 -4.282984,-1.61946 -5.945974,-3.35897 -1.4812,-1.54936 -2.38869,-3.26157 -2.92236,-5.51374 -0.17498,-0.73844 -0.18203,-0.99105 -0.22812,-8.17034 l -0.0476,-7.40833 -10.4775,-0.0215 -10.4775,-0.0215 v -2.49701 -2.49701 l 10.4775,-0.0215 10.4775,-0.0215 0.022,-5.79967 c 0.0204,-5.37722 0.0115,-5.80737 -0.12201,-5.9055 -0.11337,-0.0833 -2.34838,-0.10583 -10.49951,-0.10583 h -10.35549 v -2.45533 -2.45534 h 10.39707 c 7.97372,0 10.42075,-0.0237 10.49867,-0.1016 0.077,-0.077 0.1016,-1.48637 0.1016,-5.82506 0,-4.3387 -0.0246,-5.74805 -0.1016,-5.82507 -0.0779,-0.0779 -2.52495,-0.1016 -10.49867,-0.1016 h -10.39707 v -2.45534 -2.45533 h 10.35549 c 8.15113,0 10.38614,-0.0225 10.49951,-0.10583 0.13353,-0.0981 0.14242,-0.52828 0.12201,-5.9055 l -0.022,-5.79967 -10.4775,-0.0215 -10.4775,-0.0215 v -2.49734 -2.49734 h 10.40364 c 8.67191,0 10.41955,-0.0192 10.49926,-0.11522 0.0695,-0.0837 0.0897,-1.68763 0.0739,-5.86317 l -0.0218,-5.74794 -10.4775,-0.0215 -10.4775,-0.0215 v -2.49734 -2.497336 h 10.39707 c 7.97372,0 10.42075,-0.02368 10.49867,-0.1016 0.14693,-0.146931 0.14693,-11.503204 0,-11.650134 -0.0779,-0.07792 -2.52495,-0.1016 -10.49867,-0.1016 h -10.39707 v -2.455333 -2.455334 h 10.3349 c 6.9622,0 10.38835,-0.0286 10.49867,-0.08765 0.15944,-0.08533 0.16377,-0.239302 0.16377,-5.825067 0,-4.349547 -0.0246,-5.761998 -0.1016,-5.83902 -0.0779,-0.07792 -2.52495,-0.1016 -10.49867,-0.1016 h -10.39707 V 67.46289 64.965553 l 10.4775,-0.0215 10.4775,-0.0215 0.0479,-7.408334 c 0.0527,-8.139015 0.0226,-7.660505 0.59358,-9.445947 1.02689,-3.211034 3.70128,-5.964716 6.91906,-7.124184 1.872884,-0.674861 1.46568,-0.646227 9.665198,-0.679805 5.056979,-0.02071 7.353681,-0.05813 7.4295,-0.121057 0.08878,-0.07368 0.109737,-2.077601 0.109737,-10.494705 V 19.244934 h 2.497667 2.497666 v 10.397067 c 0,7.973721 0.02368,10.420749 0.1016,10.498667 0.07702,0.07702 1.489473,0.1016 5.83902,0.1016 5.585765,0 5.73974,-0.0043 5.825067,-0.16377 0.05905,-0.110321 0.08765,-3.536468 0.08765,-10.498667 V 19.244934 h 2.455334 2.455333 v 10.397067 c 0,7.973721 0.02368,10.420749 0.1016,10.498667 0.14693,0.146931 11.503203,0.146931 11.650134,0 0.07792,-0.07792 0.1016,-2.524946 0.1016,-10.498667 V 19.244934 h 2.455333 2.455334 v 10.334897 c 0,6.962199 0.0286,10.388346 0.08765,10.498667 0.08533,0.159444 0.239302,0.16377 5.825067,0.16377 4.349547,0 5.761999,-0.02458 5.83902,-0.1016 0.07792,-0.07792 0.1016,-2.524946 0.1016,-10.498667 V 19.244934 h 2.497667 2.497667 v 10.397067 c 0,7.973721 0.02368,10.420749 0.1016,10.498667 0.077,0.077 1.469779,0.1016 5.750408,0.1016 3.106843,0 5.709073,-0.02312 5.782733,-0.05139 0.121124,-0.04647 0.133926,-1.050223 0.133926,-10.498667 V 19.244934 h 2.497667 2.497666 v 10.397067 c 0,7.973721 0.02368,10.420749 0.1016,10.498667 0.146931,0.146931 11.50320351,0.146931 11.65013404,0 0.0779187,-0.07792 0.10160001,-2.524946 0.10160001,-10.498667 V 19.244934 H 2.1983145 4.6536479 v 10.334897 c 0,6.962199 0.0286,10.388346 0.087647,10.498667 0.085327,0.159444 0.2393019,0.16377 5.8250671,0.16377 4.349547,0 5.761998,-0.02458 5.83902,-0.1016 0.07792,-0.07792 0.1016,-2.524946 0.1016,-10.498667 V 19.244934 h 2.497666 2.497667 v 10.454717 10.454725 l 0.1905,0.04376 c 0.104775,0.02406 3.44805,0.05557 7.4295,0.07001 6.986067,0.02534 7.265628,0.03243 8.001001,0.202717 2.337265,0.54124 4.059589,1.49048 5.71969,3.152343 1.378221,1.379694 2.178177,2.646122 2.747772,4.350047 0.602336,1.801876 0.573126,1.35774 0.627406,9.541019 l 0.04913,7.408334 10.4775,0.0215 10.477501,0.0215 v 2.497007 2.497006 l -10.477501,0.0215 -10.4775,0.0215 -0.02176,5.790277 c -0.01581,4.206841 0.0044,5.82179 0.07387,5.9055 0.0797,0.09604 1.827564,0.115223 10.499252,0.115223 h 10.403637 v 2.455334 2.455333 H 56.82525 c -7.973721,0 -10.420749,0.02368 -10.498667,0.1016 -0.07702,0.07702 -0.1016,1.486374 -0.1016,5.825067 0,4.338692 0.02458,5.748045 0.1016,5.825067 0.07792,0.07792 2.524946,0.1016 10.498667,0.1016 h 10.397067 v 2.49734 2.49734 l -10.477501,0.0215 -10.4775,0.0215 v 5.842 5.842 l 10.4775,0.0215 10.477501,0.0215 v 2.49701 2.49701 l -10.477501,0.0215 -10.4775,0.0215 -0.02201,5.79967 c -0.02041,5.37722 -0.01152,5.80737 0.122013,5.9055 0.113369,0.0833 2.348374,0.10583 10.499505,0.10583 h 10.355488 v 2.45533 2.45534 H 56.82525 c -7.973721,0 -10.420749,0.0237 -10.498667,0.1016 -0.07702,0.077 -0.1016,1.48637 -0.1016,5.82507 0,4.33869 0.02458,5.74804 0.1016,5.82506 0.07792,0.0779 2.524946,0.1016 10.498667,0.1016 h 10.397067 v 2.45534 2.45533 H 56.866829 c -8.151131,0 -10.386136,0.0225 -10.499505,0.10583 -0.133536,0.0981 -0.142426,0.52828 -0.122013,5.9055 l 0.02201,5.79967 10.4775,0.0215 10.477501,0.0215 v 2.49701 2.49701 l -10.477501,0.0215 -10.4775,0.0215 -0.04913,7.40833 c -0.05342,8.05269 -0.03603,7.75693 -0.549351,9.35035 -0.562509,1.74613 -1.469069,3.19581 -2.863537,4.5791 -1.645074,1.63189 -3.374297,2.57957 -5.68198,3.11396 -0.735373,0.17029 -1.014934,0.17738 -8.001001,0.20272 -3.98145,0.0144 -7.324725,0.0459 -7.4295,0.07 l -0.1905,0.0438 v 10.45472 10.45472 h -2.497667 -2.497666 v -10.39707 c 0,-7.97372 -0.02368,-10.42075 -0.1016,-10.49867 -0.07702,-0.077 -1.489473,-0.1016 -5.83902,-0.1016 -5.5857653,0 -5.7397401,0.004 -5.8250672,0.16377 -0.059047,0.11033 -0.087647,3.53647 -0.087647,10.49867 v 10.3349 H 2.1983145 -0.25701895 v -10.39707 c 0,-7.97372 -0.0236813,-10.42075 -0.10160001,-10.49867 -0.14693053,-0.14693 -11.50320304,-0.14693 -11.65013404,0 -0.07792,0.0779 -0.1016,2.52495 -0.1016,10.49867 v 10.39707 h -2.497666 -2.497667 v -10.44728 c 0,-9.44844 -0.0128,-10.45219 -0.133926,-10.49866 -0.07366,-0.0283 -2.67589,-0.0514 -5.782733,-0.0514 -4.280629,0 -5.673412,0.0246 -5.750408,0.1016 -0.07792,0.0779 -0.1016,2.52495 -0.1016,10.49867 v 10.39707 h -2.497667 -2.497667 v -10.39707 c 0,-7.97372 -0.02368,-10.42075 -0.1016,-10.49867 -0.07702,-0.077 -1.489473,-0.1016 -5.83902,-0.1016 -5.585765,0 -5.739739,0.004 -5.825067,0.16377 -0.05905,0.11033 -0.08765,3.53647 -0.08765,10.49867 v 10.3349 h -2.455334 -2.455333 v -10.39707 c 0,-7.97372 -0.02368,-10.42075 -0.1016,-10.49867 -0.146931,-0.14693 -11.503204,-0.14693 -11.650134,0 -0.07792,0.0779 -0.1016,2.52495 -0.1016,10.49867 v 10.39707 h -2.455333 -2.455334 v -10.3349 c 0,-6.9622 -0.0286,-10.38834 -0.08765,-10.49867 -0.08533,-0.15944 -0.239302,-0.16377 -5.825067,-0.16377 -4.349547,0 -5.761998,0.0246 -5.83902,0.1016 -0.07792,0.0779 -0.1016,2.52495 -0.1016,10.49867 v 10.39707 h -2.497666 -2.497667 z M 34.06927,183.28056 c 0.120718,-0.12072 0.133046,-6.18305 0.133046,-65.44129 0,-59.258235 -0.01233,-65.320563 -0.133046,-65.441289 -0.120726,-0.120718 -6.183054,-0.133046 -65.44129,-0.133046 -59.258236,0 -65.320564,0.01233 -65.44129,0.133046 -0.120718,0.120726 -0.133046,6.183054 -0.133046,65.441289 0,59.25824 0.01233,65.32057 0.133046,65.44129 0.120726,0.12072 6.183054,0.13305 65.44129,0.13305 59.258236,0 65.320564,-0.0123 65.44129,-0.13305 z M -93.051689,168.25827 v -11.26066 h 6.840339 6.840339 l 0.135958,0.5715 c 0.520234,2.18689 1.924473,3.94208 3.921032,4.90096 1.074792,0.51619 1.59672,0.63862 2.921,0.68523 1.40158,0.0493 2.263868,-0.12547 3.443393,-0.69801 1.859543,-0.90264 3.11382,-2.36812 3.803244,-4.44368 0.223545,-0.67301 0.239048,-0.81025 0.239048,-2.11667 0,-1.30642 -0.0155,-1.44366 -0.239048,-2.11667 -0.69425,-2.0901 -1.933889,-3.53632 -3.812972,-4.44841 -1.182726,-0.57408 -2.031678,-0.74347 -3.475999,-0.69359 -0.910463,0.0315 -1.322772,0.0849 -1.778,0.23063 -2.570861,0.82284 -4.409965,2.78433 -5.021698,5.35587 l -0.135958,0.5715 h -6.840339 -6.840339 v -5.207 -5.207 h 21.404547 21.404547 l 0.701133,0.1773 c 2.509021,0.63448 4.440987,2.2557 5.434457,4.56035 0.381881,0.88589 0.719311,2.22688 0.836287,3.32352 0.05657,0.53037 0.0877,5.48083 0.0877,13.94883 v 13.12667 h -24.934335 -24.934334 z m 51.963314,-2.64583 -0.02637,-13.9065 -0.191702,-0.83769 c -0.553864,-2.4203 -1.359451,-4.04095 -2.744835,-5.52193 -1.383512,-1.47897 -3.530312,-2.59927 -5.80859,-3.03118 -0.634264,-0.12025 -2.916157,-0.1342 -21.949834,-0.1342 h -21.241979 v -4.99534 -4.99533 h 30.478384 30.478393 l 0.05039,0.23283 c 0.508042,2.34729 1.868678,4.19269 3.847499,5.2183 2.801866,1.45219 6.208624,0.92189 8.455347,-1.31616 2.395872,-2.38662 2.85413,-6.00295 1.129606,-8.91424 -0.532291,-0.8986 -1.631087,-1.99932 -2.515286,-2.51968 -3.017359,-1.77576 -6.679972,-1.24621 -9.067402,1.31098 -0.885368,0.94832 -1.544414,2.24504 -1.849222,3.63847 l -0.05094,0.23283 h -30.478393 -30.478384 v -7.53416 -7.53417 l 26.691168,-0.0257 26.691167,-0.0257 0.98845,-0.22383 c 0.543645,-0.1231 1.395247,-0.35994 1.892444,-0.52632 4.217348,-1.41121 7.02713,-4.3985 8.048007,-8.55643 0.41573,-1.69323 0.458766,-2.50425 0.458766,-8.645203 v -5.682903 l 0.590644,-0.143552 c 4.036331,-0.981033 6.432177,-4.929345 5.414484,-8.92297 -0.506112,-1.986094 -1.944489,-3.776464 -3.777785,-4.702294 -4.37465,-2.209207 -9.660577,0.461789 -10.520358,5.315975 -0.6609,3.731303 1.851651,7.480868 5.569348,8.311338 l 0.620657,0.13865 -0.03785,5.980142 c -0.0358,5.656927 -0.0476,6.032077 -0.218363,6.940937 -0.762187,4.05666 -3.006607,6.63597 -6.899242,7.92869 -0.985799,0.32738 -1.81339,0.50804 -2.894635,0.6319 -0.502505,0.0576 -9.511402,0.0871 -26.687738,0.0876 l -25.929168,6.9e-4 V 100.86393 88.841597 l 10.519834,-0.0215 10.519834,-0.0215 v -1.016 -1.016 l -10.519834,-0.0215 -10.519834,-0.0215 V 81.17826 75.632923 h 13.333384 13.333391 l 0.05039,0.232834 c 0.818972,3.78388 3.915495,6.230569 7.599231,6.004475 1.802689,-0.110642 3.263452,-0.747031 4.561629,-1.987304 1.511689,-1.444261 2.291808,-3.239119 2.288819,-5.266005 -0.003,-2.023254 -0.712148,-3.734469 -2.138908,-5.161255 -2.198243,-2.198277 -5.382531,-2.779632 -8.170215,-1.491632 -2.107311,0.973633 -3.612431,2.907522 -4.140014,5.319387 l -0.05094,0.232834 h -13.333391 -13.333384 v -8.678334 -8.678334 h 61.679669 61.679669 v 9.863667 9.863667 l -9.800167,0.0013 c -5.390092,8.47e-4 -9.849105,0.03234 -9.908905,0.0703 -0.08059,0.05113 -0.102514,0.319295 -0.08467,1.035863 l 0.02407,0.966876 9.884834,0.02151 9.884834,0.02152 v 8.127645 8.127653 H 16.974265 3.6408736 L 3.59048,94.026745 C 3.239469,92.40498 2.5401561,91.125286 1.4248167,90.063727 0.00458412,88.711964 -1.585947,88.079199 -3.5590191,88.080977 c -1.0919375,10e-4 -1.8242111,0.129752 -2.6790989,0.471128 -2.8518698,1.138826 -4.631157,3.754492 -4.631157,6.80814 0,3.200434 1.9601183,5.921145 5.0036395,6.945225 0.7356349,0.24752 0.953279,0.28174 2.0102831,0.31598 1.0021994,0.0325 1.3004631,0.0109 1.9305101,-0.13951 2.82503892,-0.6745 4.8739215,-2.824752 5.5153223,-5.788195 l 0.050394,-0.232833 h 13.333391 13.333384 v 41.528998 41.529 h -10.033001 -10.033 v -6.96806 c 0,-5.30672 -0.02422,-6.99229 -0.1016,-7.06967 -0.06624,-0.0662 -0.4139268,-0.1016 -0.9990666,-0.1016 -0.5851399,0 -0.9328235,0.0354 -0.9990667,0.1016 -0.077377,0.0774 -0.1016,1.76295 -0.1016,7.06967 v 6.96806 H 3.8493145 -0.34168562 v -11.811 -11.811 h 0.20275127 c 0.67562309,0 2.38664335,-0.78853 3.31647815,-1.52842 1.0595187,-0.84309 2.0041955,-2.28159 2.4157348,-3.67858 0.2534497,-0.86035 0.3093889,-2.34371 0.123063,-3.26329 -0.3212169,-1.58524 -1.0136548,-2.83641 -2.173749,-3.92774 -1.9889556,-1.87107 -4.6943689,-2.4875 -7.2286117,-1.64705 -1.1819467,0.39198 -1.9159305,0.84877 -2.8415658,1.76842 -1.1371157,1.12977 -1.7571043,2.25503 -2.0622599,3.74292 -0.6258476,3.05158 0.8964676,6.26452 3.676159,7.75878 0.669942,0.36014 1.8313994,0.77496 2.1698036,0.77496 h 0.2008632 v 11.811 11.811 h -4.6139695 -4.6139605 l -0.02154,-9.4615 -0.02153,-9.4615 -0.919099,-0.0241 c -0.605088,-0.0159 -0.959435,0.009 -1.037167,0.0739 -0.09968,0.0827 -0.118068,1.55994 -0.118068,9.48562 v 9.38763 h -13.586816 -13.586824 l -0.02638,-13.9065 z"
         id="path1434"
         inkscape:connector-curvature="0" />
      <path
         style="opacity:1;fill:#0079ff;fill-opacity:1;stroke-width:0.53993249;stroke-miterlimit:4;stroke-dasharray:none;paint-order:markers stroke fill"
         d="m 554.65424,1009.5217 v -33.43514 l -26.07143,-0.55171 c -28.64567,-0.60619 -32.11302,-1.41969 -41.61663,-9.76396 -10.47451,-9.19674 -11.53779,-13.00114 -12.06578,-43.17111 l -0.46877,-26.78572 h -33.46012 -33.46013 v -7.85714 -7.85714 h 31.31174 c 17.22145,0 32.32859,-0.3902 33.57143,-0.86713 1.89863,-0.72857 2.25969,-3.80593 2.25969,-19.25986 v -18.39273 l -33.92857,-0.383 -33.92857,-0.383 0.23158,-5 c 0.12737,-2.75 0.28809,-6.11315 0.35715,-7.47367 0.11469,-2.25971 2.9984,-2.50684 33.33984,-2.85714 l 33.21429,-0.38347 0.3986,-18.92857 0.39861,-18.92857 h -33.61289 -33.6129 l -0.0195,-4.64286 c -0.0107,-2.55357 -0.40405,-6.07749 -0.87405,-7.83092 l -0.85453,-3.18804 34.08833,-0.38338 34.08833,-0.38338 0.3986,-18.92857 0.39861,-18.92857 h -33.61289 -33.6129 v -7.83081 -7.83082 l 33.21429,-0.38347 33.21429,-0.38347 0.3986,-18.92857 0.39861,-18.92857 h -34.37605 -34.37605 l 0.64568,-3.92857 c 0.35513,-2.16072 0.69855,-5.69643 0.76316,-7.85715 l 0.11747,-3.92857 h 33.6129 33.61289 l -0.39861,-18.92857 -0.3986,-18.92857 -33.07251,-0.38313 -33.0725,-0.38311 -0.61433,-6.75975 c -0.33787,-3.71784 -0.36373,-7.24187 -0.0575,-7.83115 0.30627,-0.58929 15.64472,-1.07143 34.08544,-1.07143 h 33.52858 l -0.39861,-18.92857 -0.3986,-18.92858 -33.21429,-0.38347 c -30.39088,-0.35087 -33.21562,-0.59374 -33.23001,-2.85714 -0.009,-1.36051 -0.41419,-4.88439 -0.9012,-7.83081 l -0.88548,-5.35715 h 34.36132 34.36133 l 0.46845,-26.78571 c 0.52024,-29.7473 1.06924,-31.86555 10.92475,-42.15205 8.77443,-9.15813 16.45081,-11.06224 44.59729,-11.06224 h 24.23212 v -33.57143 -33.57142 h 7.85714 7.85715 v 33.57142 33.57143 h 19.28571 19.28572 v -33.57143 -33.57142 h 7.85714 7.85714 v 33.61289 33.61289 l 18.92857,-0.39861 18.92857,-0.3986 0.38348,-33.21429 0.38347,-33.21428 h 7.83081 7.83082 v 33.57142 33.57143 h 18.57142 18.57143 l 0.17857,-3.57143 c 0.0981,-1.96428 0.33929,-4.21428 0.53572,-5 0.19643,-0.78571 0.4375,-14.28571 0.53571,-30 l 0.17857,-28.57142 h 7.85715 7.85714 v 33.57142 33.57143 h 18.34777 18.34777 l 0.93319,-22.5 c 0.51324,-12.375 0.93533,-27.48214 0.93794,-33.57143 l 0.005,-11.07142 h 7.85714 7.85714 v 33.57142 33.57143 h 18.57143 18.57143 l 0.17857,-13.57143 c 0.0983,-7.46428 0.33929,-14.21428 0.53572,-15 0.19643,-0.78571 0.4375,-9.78571 0.53571,-20 l 0.17857,-18.57142 h 7.85715 7.85714 v 33.57142 33.57143 h 18.57143 18.57143 v -33.57143 -33.57142 h 8.57142 8.57143 v 33.57142 33.57143 l 23.21429,0.008 c 12.76786,0.004 25.57827,0.66456 28.46758,1.46705 9.58248,2.66149 18.61765,9.96853 22.90619,18.52499 3.72086,7.42379 3.9907,9.29507 4.89257,33.92857 l 0.95452,26.07142 h 33.35383 33.3539 v 7.85714 7.85715 h -33.5715 -33.57138 v 19.28571 19.28572 h 33.57138 33.5715 v 7.85714 7.85714 h -33.5715 -33.57138 v 19.28572 19.28571 h 33.57138 33.5715 v 7.85714 7.85715 h -33.5715 -33.57138 v 19.28571 19.28571 h 33.57138 33.5715 v 7.85715 7.85714 h -33.5715 -33.57138 v 19.28571 19.28572 h 33.57138 33.5715 v 7.85714 7.85714 h -33.5715 -33.57138 v 19.28572 19.28571 h 33.57138 33.5715 v 7.85715 7.85714 h -33.5715 -33.57138 v 18.41858 c 0,15.4775 0.36083,18.55706 2.2597,19.28572 1.24283,0.47693 16.34997,0.86713 33.57138,0.86713 l 31.3118,-3e-5 v 7.85714 7.85714 h -33.3539 -33.35383 l -1.00552,26.03193 c -1.11778,28.93842 -2.38707,33.84859 -10.96808,42.42962 -9.35753,9.35753 -14.71185,10.76038 -43.1044,11.29361 l -25.35715,0.47623 v 33.45575 33.4557 h -8.57143 -8.57142 v -33.5714 -33.57144 H 860.36853 841.7971 v 33.57144 33.5714 h -7.85714 -7.85715 l -0.17165,-8.9285 c -0.0944,-4.9108 -0.37048,-13.1072 -0.61348,-18.2143 -0.24298,-5.1072 -0.48717,-16.19646 -0.54261,-24.64289 l -0.10083,-15.35715 h -18.57143 -18.57143 v 33.57144 33.5714 h -7.85714 -7.85714 l -0.004,-11.0714 c -0.003,-6.0893 -0.4247,-21.1964 -0.93794,-33.57144 l -0.93366,-22.5 h -18.34777 -18.34777 v 33.57144 33.5714 h -7.85714 -7.85715 l -0.21758,-28.9285 c -0.11972,-15.91076 -0.36696,-29.57148 -0.5495,-30.35719 -0.18256,-0.78572 -0.40607,-2.875 -0.4967,-4.64286 -0.162,-3.16004 -0.47816,-3.21429 -18.73622,-3.21429 h -18.57142 v 33.57144 33.5714 h -7.85715 -7.85714 v -33.5714 -33.57144 h -19.28571 -19.28572 v 33.57144 33.5714 h -7.85714 -7.85714 v -33.5714 -33.57144 h -19.28572 -19.28571 v 33.57144 33.5714 h -7.85715 -7.85714 z M 936.08281,725.27835 V 514.74264 l -4.46428,-0.89286 c -5.80697,-1.1614 -406.00477,-1.13808 -413.03572,0.0241 l -5.35714,0.88548 v 210.52736 210.52737 h 211.42857 211.42857 z"
         id="path1446"
         inkscape:connector-curvature="0"
         transform="matrix(0.30986322,0,0,0.30986322,-256.02274,-106.81147)" />
      <path
         style="opacity:1;fill:#ffffff;fill-opacity:1;stroke-width:0.53993249;stroke-miterlimit:4;stroke-dasharray:none;paint-order:markers stroke fill"
         d="m 622.95816,603.69796 c -2.91934,-1.98375 -6.33187,-6.0728 -7.7494,-9.28572 -2.1132,-4.78966 -3.25677,-5.7765 -6.90087,-5.95508 -4.02415,-0.1972 -4.07476,-0.25934 -0.64294,-0.78953 2.91048,-0.44965 4.09596,-1.81369 5.42158,-6.23821 5.0448,-16.83803 23.56837,-23.59047 36.00562,-13.12521 8.4309,7.09413 10.58993,17.65448 5.6065,27.42281 -5.82591,11.41973 -21.04182,15.24087 -31.74049,7.97094 z"
         id="path1448"
         inkscape:connector-curvature="0"
         transform="matrix(0.30986322,0,0,0.30986322,-256.02274,-106.81147)" />
      <path
         style="opacity:1;fill:#ffffff;fill-opacity:1;stroke-width:0.53993249;stroke-miterlimit:4;stroke-dasharray:none;paint-order:markers stroke fill"
         d="m 526.08281,712.28383 c 0,-1.93535 9.73109,-2.18405 85.455,-2.18405 96.41807,0 95.58775,0.0792 106.71813,-10.18042 9.02482,-8.31879 10.68402,-14.50848 10.68402,-39.8571 v -20.95713 l -5.85572,-2.64056 c -16.39637,-7.39373 -18.64636,-29.0802 -4.02123,-38.75865 4.79256,-3.17156 6.70139,-3.58353 14.11839,-3.04703 6.5713,0.47532 9.4479,1.43442 12.3033,4.10206 12.4297,11.61241 10.30723,29.93255 -4.28626,36.99714 -7.54006,3.65008 -7.96973,5.22016 -7.98074,29.16312 -0.004,9.52678 -0.67297,19.7159 -1.48576,22.64249 -2.24623,8.08796 -9.86933,17.05219 -18.55707,21.82179 l -7.80634,4.28572 -89.64286,0.39833 c -79.65525,0.35395 -89.64286,0.155 -89.64286,-1.78571 z"
         id="path1450"
         inkscape:connector-curvature="0"
         transform="matrix(0.30986322,0,0,0.30986322,-256.02274,-106.81147)" />
      <path
         style="opacity:1;fill:#ffffff;fill-opacity:1;stroke-width:0.53993249;stroke-miterlimit:4;stroke-dasharray:none;paint-order:markers stroke fill"
         d="m 803.81325,671.68414 c -10.9626,-6.68492 -14.37144,-17.49645 -8.93418,-28.33576 4.77567,-9.52041 9.53065,-12.53432 19.77517,-12.53432 10.2551,0 14.99996,3.01413 19.79442,12.57425 l 3.36585,6.71147 h 43.41987 c 37.45532,0 43.41986,0.29152 43.41986,2.12221 0,1.82291 -6.181,2.17549 -43.82628,2.5 l -43.82627,0.37779 -1.10011,4.11528 c -3.34895,12.52774 -20.84374,19.32597 -32.08833,12.46908 z"
         id="path1452"
         inkscape:connector-curvature="0"
         transform="matrix(0.30986322,0,0,0.30986322,-256.02274,-106.81147)" />
      <path
         style="opacity:1;fill:#ffffff;fill-opacity:1;stroke-width:0.53993249;stroke-miterlimit:4;stroke-dasharray:none;paint-order:markers stroke fill"
         d="m 524.81996,585.45692 c 0.12288,-2.38346 0.33347,-2.57388 0.81471,-0.73671 0.59286,2.26327 4.06944,2.51245 40.19143,2.88069 l 39.54243,0.4031 -40.35715,0.3336 -40.35714,0.33361 z"
         id="path1454"
         inkscape:connector-curvature="0"
         transform="matrix(0.30986322,0,0,0.30986322,-256.02274,-106.81147)" />
      <path
         style="opacity:1;fill:#ffffff;fill-opacity:1;stroke-width:0.26996624;stroke-miterlimit:4;stroke-dasharray:none;paint-order:markers stroke fill"
         d="m 605.72448,588.29337 c -0.2203,-0.22031 -17.39477,-0.66878 -38.1655,-0.99661 -23.09047,-0.36444 -38.49036,-0.88559 -39.63181,-1.34118 -1.02678,-0.40982 -2.06134,-1.2519 -2.29902,-1.87128 -0.39054,-1.01774 3.7583,-1.12614 43.10156,-1.12614 h 43.53369 l -0.82142,1.80284 c -0.45179,0.99156 -1.65025,2.00534 -2.66326,2.25283 -1.01301,0.2475 -2.0245,0.72677 -2.24777,1.06504 -0.22325,0.33827 -0.58617,0.4348 -0.80647,0.2145 z"
         id="path1456"
         inkscape:connector-curvature="0"
         transform="matrix(0.30986322,0,0,0.30986322,-256.02274,-106.81147)" />
      <path
         style="opacity:1;fill:#ffffff;fill-opacity:1;stroke-width:0.26996624;stroke-miterlimit:4;stroke-dasharray:none;paint-order:markers stroke fill"
         d="m 541.40118,630.99459 c 8.74107,-0.11364 23.04464,-0.11364 31.78571,0 8.74107,0.11363 1.58929,0.20661 -15.89286,0.20661 -17.48214,0 -24.63393,-0.093 -15.89285,-0.20661 z"
         id="path1458"
         inkscape:connector-curvature="0"
         transform="matrix(0.30986322,0,0,0.30986322,-256.02274,-106.81147)" />
      <path
         style="opacity:1;fill:#ffffff;fill-opacity:1;stroke-width:0.26996624;stroke-miterlimit:4;stroke-dasharray:none;paint-order:markers stroke fill"
         d="m 525.15118,628.35745 c 0,-1.35181 0.34556,-2.67141 0.76791,-2.93244 0.42236,-0.26103 15.69021,-0.23713 33.92857,0.0531 l 33.16066,0.52769 v 2.40475 2.40475 h -33.92857 -33.92857 z"
         id="path1460"
         inkscape:connector-curvature="0"
         transform="matrix(0.30986322,0,0,0.30986322,-256.02274,-106.81147)" />
      <path
         style="opacity:1;fill:#ffffff;fill-opacity:1;stroke-width:0.26996624;stroke-miterlimit:4;stroke-dasharray:none;paint-order:markers stroke fill"
         d="m 860.86546,593.3153 v -2.5 h 13.45556 c 7.40056,0 21.70413,-0.21225 31.78572,-0.47166 l 18.33015,-0.47167 v 2.97167 2.97166 h -31.78571 -31.78572 z"
         id="path1462"
         inkscape:connector-curvature="0"
         transform="matrix(0.30986322,0,0,0.30986322,-256.02274,-106.81147)" />
      <path
         style="opacity:1;fill:#ffffff;fill-opacity:1;stroke-width:0.26996624;stroke-miterlimit:4;stroke-dasharray:none;paint-order:markers stroke fill"
         d="m 525.43038,769.79834 c -0.2157,-0.5621 -0.2864,-1.76859 -0.15712,-2.68109 l 0.23506,-1.65909 h 98.92857 98.92857 v 2.5 2.5 l -98.77145,0.18109 c -85.13183,0.15608 -98.82561,0.04 -99.16363,-0.84091 z"
         id="path1464"
         inkscape:connector-curvature="0"
         transform="matrix(0.30986322,0,0,0.30986322,-256.02274,-106.81147)" />
      <path
         style="opacity:1;fill:#ffffff;fill-opacity:1;stroke-width:0.26996624;stroke-miterlimit:4;stroke-dasharray:none;paint-order:markers stroke fill"
         d="m 741.77061,790.07729 c -6.68267,-1.35242 -12.24835,-5.46896 -15.51906,-11.47834 -2.8531,-5.24207 -3.32876,-12.82069 -1.16456,-18.55461 5.5195,-14.62359 24.13638,-19.20349 35.72124,-8.7877 5.24231,4.71328 7.55598,9.89392 7.49914,16.79166 -0.0364,4.42371 -0.41107,6.19575 -1.99365,9.43044 -4.44985,9.09515 -15.02666,14.52447 -24.54311,12.59855 z"
         id="path1466"
         inkscape:connector-curvature="0"
         transform="matrix(0.30986322,0,0,0.30986322,-256.02274,-106.81147)" />
      <path
         style="opacity:1;fill:#ffffff;fill-opacity:1;stroke-width:0.26996624;stroke-miterlimit:4;stroke-dasharray:none;paint-order:markers stroke fill"
         d="m 814.07975,846.11222 c -5.03475,-1.79541 -9.75651,-5.98257 -12.31095,-10.91709 -2.08077,-4.01951 -2.33191,-5.13952 -2.33191,-10.39958 0,-5.16705 0.27428,-6.44381 2.22129,-10.34012 8.11305,-16.23565 31.73009,-16.23565 39.84314,0 1.95959,3.92148 2.22128,5.1563 2.22128,10.48112 0,5.41283 -0.23447,6.47584 -2.27131,10.29735 -2.7408,5.14227 -6.65479,8.64839 -11.80595,10.57569 -4.50394,1.68514 -11.31725,1.81761 -15.56559,0.30263 z"
         id="path1468"
         inkscape:connector-curvature="0"
         transform="matrix(0.30986322,0,0,0.30986322,-256.02274,-106.81147)" />
      <path
         style="opacity:1;fill:#ffffff;fill-opacity:1;stroke-width:0.26996624;stroke-miterlimit:4;stroke-dasharray:none;paint-order:markers stroke fill"
         d="m 818.7226,886.17244 v -38.21428 h 2.85715 2.85714 v 38.21428 38.21429 h -2.85714 -2.85715 z"
         id="path1470"
         inkscape:connector-curvature="0"
         transform="matrix(0.30986322,0,0,0.30986322,-256.02274,-106.81147)" />
      <path
         style="opacity:1;fill:#ffffff;fill-opacity:1;stroke-width:0.26996624;stroke-miterlimit:4;stroke-dasharray:none;paint-order:markers stroke fill"
         d="m 853.00832,901.88673 v -22.5 h 2.5 2.5 l 0.0524,17.32143 c 0.0288,9.52678 0.18098,19.65178 0.33814,22.5 l 0.28574,5.17857 h -2.83814 -2.83814 z"
         id="path1472"
         inkscape:connector-curvature="0"
         transform="matrix(0.30986322,0,0,0.30986322,-256.02274,-106.81147)" />
      <path
         style="opacity:1;fill:#ffffff;fill-opacity:1;stroke-width:0.26996624;stroke-miterlimit:4;stroke-dasharray:none;paint-order:markers stroke fill"
         d="m 782.29403,894.02959 v -30.35715 h 2.5 2.5 v 30.35715 30.35714 h -2.5 -2.5 z"
         id="path1474"
         inkscape:connector-curvature="0"
         transform="matrix(0.30986322,0,0,0.30986322,-256.02274,-106.81147)" />
      <path
         style="opacity:1;fill:#ffffff;fill-opacity:1;stroke-width:0.26996624;stroke-miterlimit:4;stroke-dasharray:none;paint-order:markers stroke fill"
         d="m 687.92121,916.70816 c -1.0005,-88.19522 -0.91168,-85.2347 -2.69136,-89.70977 -2.38228,-5.99037 -6.7099,-10.94064 -12.22153,-13.97998 l -4.64286,-2.56025 -71.19085,-0.35715 c -39.15497,-0.19642 -71.38041,-0.54687 -71.6121,-0.77877 -0.23169,-0.23189 -0.21813,-1.43725 0.0301,-2.67857 l 0.45139,-2.25694 h 68.02751 c 43.2845,0 69.42579,0.26518 71.87191,0.72907 9.2388,1.75211 17.84107,7.88296 21.99445,15.67551 4.72768,8.87002 4.53085,6.5581 4.882,57.34542 l 0.31979,46.25 h -2.56569 -2.56568 z"
         id="path1476"
         inkscape:connector-curvature="0"
         transform="matrix(0.30986322,0,0,0.30986322,-256.02274,-106.81147)" />
      <path
         style="opacity:1;fill:#808000;fill-opacity:1;stroke-width:0.26996624;stroke-miterlimit:4;stroke-dasharray:none;paint-order:markers stroke fill"
         d="m 589.76642,870.03572 c -8.2445,-1.045 -15.05481,-6.95877 -17.84798,-15.4984 l -1.21741,-3.72202 h -20.54279 c -11.29853,0 -21.54724,-0.20089 -22.77492,-0.44643 -1.9709,-0.39418 -2.23214,-0.72857 -2.23214,-2.85714 v -2.41072 h 22.72669 22.7267 l 1.20669,-3.82804 c 5.05735,-16.04376 24.40393,-21.31525 36.87569,-10.04776 8.7244,7.88197 9.6013,22.45025 1.89337,31.45523 -4.76469,5.56648 -12.72718,8.38028 -20.8139,7.35528 z"
         id="path1478"
         inkscape:connector-curvature="0"
         transform="matrix(0.30986322,0,0,0.30986322,-256.02274,-106.81147)" />
      <path
         style="opacity:1;fill:#808000;fill-opacity:1;stroke-width:0.38178992;stroke-miterlimit:4;stroke-dasharray:none;paint-order:markers stroke fill"
         d="M 514.35804,725.20849 V 514.59168 h 210.61681 210.61681 v 210.61681 210.6168 H 724.97485 514.35804 Z m 410.18305,133.08759 c 0.0572,-62.17586 0.0357,-282.42682 -0.031,-317.69297 l -0.0301,-15.9099 H 724.97485 525.46972 l -0.0413,29.54696 c -0.0391,28.00986 -0.0249,194.24907 0.0202,235.87062 l 0.0211,19.44543 5.80838,0.191 5.80838,0.19101 -5.76373,0.36315 -5.76373,0.36315 -0.29719,17.88114 c -0.16345,9.83461 -0.16353,35.49566 -1.8e-4,57.02453 l 0.297,39.14341 h 199.46067 199.46066 z"
         id="path1480"
         inkscape:connector-curvature="0"
         transform="matrix(0.30986322,0,0,0.30986322,-256.02274,-106.81147)" />
      <path
         style="opacity:1;fill:#ffffff;fill-opacity:1;stroke-width:0.38178992;stroke-miterlimit:4;stroke-dasharray:none;paint-order:markers stroke fill"
         d="m 586.92574,868.97158 c -5.59383,-1.48963 -11.41361,-7.04886 -14.0578,-13.42844 l -2.29749,-5.54311 -22.28458,-0.27139 c -20.29507,-0.24716 -22.31492,-0.42921 -22.62443,-2.03916 -0.31555,-1.64134 1.28801,-1.76776 22.4221,-1.76776 h 22.76195 l 1.21289,-4.04827 c 0.66709,-2.22654 2.81917,-5.92484 4.7824,-8.21843 6.76982,-7.90902 16.45705,-9.98226 25.90561,-5.54428 5.93942,2.78974 7.75675,4.64663 10.52888,10.75807 5.52316,12.17642 -0.6025,25.98998 -13.18194,29.72567 -5.89925,1.75189 -7.80053,1.80634 -13.16759,0.3771 z"
         id="path1482"
         inkscape:connector-curvature="0"
         transform="matrix(0.30986322,0,0,0.30986322,-256.02274,-106.81147)" />
    </g>
  </g>
</svg>
