<?xml version="1.0" encoding="UTF-8" standalone="no"?>
<!-- Created with Inkscape (http://www.inkscape.org/) -->

<svg
   xmlns:dc="http://purl.org/dc/elements/1.1/"
   xmlns:cc="http://creativecommons.org/ns#"
   xmlns:rdf="http://www.w3.org/1999/02/22-rdf-syntax-ns#"
   xmlns:svg="http://www.w3.org/2000/svg"
   xmlns="http://www.w3.org/2000/svg"
   xmlns:sodipodi="http://sodipodi.sourceforge.net/DTD/sodipodi-0.dtd"
   xmlns:inkscape="http://www.inkscape.org/namespaces/inkscape"
   width="1450"
   height="1450"
   viewBox="0 0 383.64583 383.64584"
   version="1.1"
   id="svg8"
   inkscape:version="0.92.3 (2405546, 2018-03-11)"
   sodipodi:docname="otcopeng.svg">
  <defs
     id="defs2">
    <path
       d="m 98.1,244.8 c 1.6,7.5 5.5,11.9 9.4,14.5 h 41.1 c 5,-3.4 10.1,-9.8 10.1,-21.8 v -31 c 0,0 0.6,-7.7 7.7,-10.2 0,0 4.1,-2.9 -0.3,-4.5 0,0 -19.5,-1.6 -19.5,14.4 v 23.6 c 0,0 0.8,8.7 -3.8,12.3 v -29.2 c 0,0 0.3,-9.3 5.1,-12.8 0,0 3.2,-5.7 -3.8,-4.2 0,0 -13.4,1.9 -14,17.6 l -0.3,30 h -3.2 l -0.3,-30 c -0.6,-15.6 -14,-17.6 -14,-17.6 -7,-1.6 -3.8,4.2 -3.8,4.2 4.8,3.5 5.1,12.8 5.1,12.8 v 29.5 c -4.6,-3.3 -3.8,-12.6 -3.8,-12.6 v -23.6 c 0,-16 -19.5,-14.4 -19.5,-14.4 -4.5,1.6 -0.3,4.5 -0.3,4.5 7,2.6 7.7,10.2 7.7,10.2 v 21.7 z"
       id="a"
       inkscape:connector-curvature="0" />
    <path
       inkscape:connector-curvature="0"
       id="a-6"
       d="m 98.1,244.8 c 1.6,7.5 5.5,11.9 9.4,14.5 h 41.1 c 5,-3.4 10.1,-9.8 10.1,-21.8 v -31 c 0,0 0.6,-7.7 7.7,-10.2 0,0 4.1,-2.9 -0.3,-4.5 0,0 -19.5,-1.6 -19.5,14.4 v 23.6 c 0,0 0.8,8.7 -3.8,12.3 v -29.2 c 0,0 0.3,-9.3 5.1,-12.8 0,0 3.2,-5.7 -3.8,-4.2 0,0 -13.4,1.9 -14,17.6 l -0.3,30 h -3.2 l -0.3,-30 c -0.6,-15.6 -14,-17.6 -14,-17.6 -7,-1.6 -3.8,4.2 -3.8,4.2 4.8,3.5 5.1,12.8 5.1,12.8 v 29.5 c -4.6,-3.3 -3.8,-12.6 -3.8,-12.6 v -23.6 c 0,-16 -19.5,-14.4 -19.5,-14.4 -4.5,1.6 -0.3,4.5 -0.3,4.5 7,2.6 7.7,10.2 7.7,10.2 v 21.7 z" />
  </defs>
  <sodipodi:namedview
     id="base"
     pagecolor="#ffffff"
     bordercolor="#666666"
     borderopacity="1.0"
     inkscape:pageopacity="0.0"
     inkscape:pageshadow="2"
     inkscape:zoom="0.49497475"
     inkscape:cx="1207.489"
     inkscape:cy="394.64353"
     inkscape:document-units="mm"
     inkscape:current-layer="layer1"
     showgrid="false"
     inkscape:snap-global="false"
     units="px"
     inkscape:window-width="1920"
     inkscape:window-height="1057"
     inkscape:window-x="1912"
     inkscape:window-y="-8"
     inkscape:window-maximized="1" />
  <metadata
     id="metadata5">
    <rdf:RDF>
      <cc:Work
         rdf:about="">
        <dc:format>image/svg+xml</dc:format>
        <dc:type
           rdf:resource="http://purl.org/dc/dcmitype/StillImage" />
        <dc:title></dc:title>
      </cc:Work>
    </rdf:RDF>
  </metadata>
  <g
     inkscape:label="Layer 1"
     inkscape:groupmode="layer"
     id="layer1"
     transform="translate(0,86.64585)">
    <g
       id="layer2"
       inkscape:label="Layer 2"
       transform="translate(-648.41815,17.953899)" />
    <g
       id="g1080"
       transform="translate(15.686009,-57.304968)">
      <path
         id="path815-0"
         d="m 259.01557,271.78457 c 0,15.80266 -36.60759,28.53573 -81.74178,28.53573 -45.1342,0 -81.741781,-12.84676 -81.741781,-28.53573 0,-15.80265 36.607581,-28.53572 81.741781,-28.53572 45.13419,0 81.74178,12.73307 81.74178,28.53572 z m 0,0"
         inkscape:connector-curvature="0"
         style="fill:#9edcf2;stroke-width:1.13688159" />
      <path
         id="path823-8"
         d="m 259.01557,271.78457 c 0,15.80266 -36.60759,28.53573 -81.74178,28.53573 -45.1342,0 -81.741781,-12.84676 -81.741781,-28.53573 0,-15.80265 36.607581,-28.53572 81.741781,-28.53572 45.13419,0 81.74178,12.73307 81.74178,28.53572 z m 0,0"
         clip-path="url(#b)"
         inkscape:connector-curvature="0"
         style="fill:#000000;fill-opacity:0;stroke-width:1.13688159" />
      <path
         id="path825-7"
         d="m 83.935818,187.76903 -2.387452,8.18555 c 0,0 -0.56844,2.95589 2.160075,3.52433 2.955892,-0.11369 2.728516,-2.8422 2.50114,-3.63802 z m 0,0"
         inkscape:connector-curvature="0"
         style="fill:#9edcf2;stroke-width:1.13688159" />
      <path
         clip-path="none"
         inkscape:connector-curvature="0"
         id="path1028"
         d="m 132.42466,263.07254 c -0.0933,0.0671 -0.25738,0.17218 -0.45241,0.28644 -1.55994,0.91342 -1.66071,2.11671 -0.30409,3.63758 0.48421,0.54284 0.84588,0.80063 1.67025,1.19055 3.916,1.85225 6.47264,4.93881 7.77195,9.3832 l 0.32413,1.10903 0.0386,9.35246 c 0.0213,5.14372 0.08,9.3934 0.13053,9.44397 0.21016,0.20999 9.69918,1.53239 12.52609,1.74562 l 1.12214,0.0844 -0.0434,-11.46712 c -0.0421,-11.1913 -0.0492,-11.49246 -0.30001,-12.5002 -0.14135,-0.56792 -0.36482,-1.37394 -0.49655,-1.79157 -0.30684,-0.97285 -0.14039,-0.99535 0.68532,-0.0927 1.81511,1.98447 3.13762,4.96338 3.91081,8.80888 0.56069,2.78843 0.61004,3.65797 0.61004,10.73901 0,3.82789 0.0464,6.64704 0.11013,6.68641 0.14169,0.0874 5.17508,0.41156 8.40016,0.54099 h 3.8e-4 c 1.37078,0.055 3.28578,0.0941 4.25532,0.0868 l 1.76261,-0.0134 -0.0338,-6.56006 c -0.0185,-3.60799 -0.0895,-7.15831 -0.1576,-7.88958 -0.61953,-6.64424 -3.56948,-11.90844 -8.55702,-15.27034 -1.10603,-0.74553 -2.93478,-1.71163 -3.99058,-2.10801 -0.72591,-0.27252 -0.79967,-0.38618 -0.36749,-0.56618 2.91767,-1.21501 5.32709,-2.82188 7.2476,-4.8363 h -14.34458 c -0.84614,0.81402 -1.16777,1.35035 -1.43809,2.3874 -0.30722,1.17856 -0.17732,2.215 0.35416,2.82834 0.10416,0.12022 0.16247,0.52191 0.16389,1.12829 0.002,0.51781 -0.0327,0.94076 -0.0753,0.93932 -0.0425,-0.002 -0.41162,-0.42918 -0.81993,-0.95118 -2.5767,-3.29408 -7.0981,-5.4823 -13.05637,-6.31846 l -0.0979,-0.0137 z m 50.9873,0 c 2.03177,2.10069 4.54846,3.82219 7.14303,4.79738 0.39854,0.14981 0.73954,0.31989 0.75799,0.37795 0.0184,0.0582 -0.39838,0.28707 -0.92634,0.50875 -5.68317,2.38615 -9.77331,7.31849 -11.25969,13.57884 -0.58619,2.46885 -0.66652,3.66011 -0.74872,11.09327 l -0.0771,6.97469 3.88005,-0.0763 c 3.98222,-0.0783 8.66468,-0.27891 9.95916,-0.42687 l 0.72944,-0.0834 0.0687,-7.53161 c 0.0647,-7.08651 0.0848,-7.61612 0.33671,-8.95525 0.73947,-3.92997 1.91396,-7.01788 3.41652,-8.98337 0.70209,-0.91841 1.43107,-1.63521 1.54602,-1.52035 0.0457,0.0457 -0.0646,0.55866 -0.24514,1.14018 -0.74269,2.39369 -0.7392,2.32414 -0.74279,14.43145 l -0.003,11.05471 0.85145,-0.0356 c 2.35536,-0.0983 12.50525,-1.39184 12.79603,-1.63076 0.11918,-0.0979 0.15135,-2.13503 0.15279,-9.43361 7.2e-4,-10.26539 -0.0251,-9.87229 0.79286,-12.16373 1.27017,-3.55857 3.49835,-6.10374 6.71879,-7.67612 1.10999,-0.54196 1.64745,-0.88543 2.09115,-1.33579 1.47111,-1.49334 1.45757,-2.79331 -0.0396,-3.76027 -0.21263,-0.13732 -0.42158,-0.25823 -0.58779,-0.34422 h -6.4555 c -0.0968,0.0148 -0.20509,0.0296 -0.33227,0.0448 -2.26738,0.27141 -5.46194,1.18346 -7.43043,2.12136 -2.22317,1.0592 -4.35774,2.73282 -5.57885,4.37423 -0.30091,0.40449 -0.58804,0.73745 -0.63821,0.74032 -0.0501,0.002 -0.0932,-0.36418 -0.0953,-0.81516 -0.002,-0.4696 -0.0771,-0.94996 -0.17468,-1.12387 -0.12425,-0.2217 -0.1513,-0.55278 -0.10048,-1.22649 0.12951,-1.71752 -0.29901,-2.86724 -1.54008,-4.11522 z"
         style="fill:#7bbae5;stroke-width:0.12152863" />
      <path
         id="path827-7"
         d="m 321.43036,153.32152 0.22738,-1.02319 c -23.9882,-4.7749 -48.54484,-4.88859 -63.43799,-4.20646 2.38745,-8.75399 3.18327,-18.98593 3.18327,-30.24105 0,-16.25741 -6.13916,-29.217857 -15.91634,-38.995037 1.70532,-5.57072 3.97908,-17.962728 -2.27376,-33.765381 0,0 -11.14144,-3.524334 -36.4939,13.415202 -9.89087,-2.501142 -20.46387,-3.751711 -31.03687,-3.751711 -11.59618,0 -23.30606,1.477945 -34.33382,4.43384 -26.14827,-17.849041 -37.63077,-14.211021 -37.63077,-14.211021 -7.503422,18.758547 -2.84221,32.742189 -1.47795,36.152834 -8.867676,9.549804 -14.211019,21.714434 -14.211019,36.607584 0,11.25513 1.25057,21.37337 4.433838,30.12736 -15.006836,-0.56844 -38.653971,-0.34106 -61.846354,4.32015 l 0.227376,1.02319 c 23.192384,-4.66121 47.066895,-4.7749 61.960042,-4.20646 0.682129,1.81901 1.477946,3.63802 2.273763,5.34334 -14.779459,0.45476 -39.904539,2.38746 -64.006428,9.20875 l 0.341063,1.02319 c 24.329265,-6.82129 49.681723,-8.6403 64.347494,-9.09505 8.867675,16.37109 26.148275,27.05778 57.071455,30.35473 -4.43384,2.95589 -8.86768,7.95817 -10.68669,16.48478 -6.02547,2.84221 -24.8977,9.89087 -36.26652,-9.66349 0,0 -6.366536,-11.59619 -18.531168,-12.5057 0,0 -11.823568,-0.22737 -0.795817,7.38973 0,0 7.844483,3.75171 13.301514,17.73536 0,0 7.162351,23.87451 41.382491,16.14372 v 24.44295 c 0,0 -0.68213,8.75398 -8.75399,11.59619 0,0 -4.7749,3.29695 0.34106,5.11597 0,0 22.16919,1.819 22.16919,-16.3711 v -26.8304 c 0,0 -0.9095,-10.68669 4.32015,-14.32471 v 44.111 c 0,0 -0.34106,10.573 -5.7981,14.55208 0,0 -3.63802,6.48023 4.32016,4.77491 0,0 15.23421,-2.16008 15.91634,-20.00912 l 0.34106,-44.67944 h 3.63802 l 0.34107,44.67944 c 0.68213,17.73536 15.91634,20.00912 15.91634,20.00912 7.95817,1.81901 4.32015,-4.77491 4.32015,-4.77491 -5.45703,-3.97908 -5.7981,-14.55208 -5.7981,-14.55208 V 205.3907 c 5.22966,4.09277 4.32015,13.98364 4.32015,13.98364 v 26.8304 c 0,18.1901 22.16919,16.3711 22.16919,16.3711 5.11597,-1.81902 0.34107,-5.11597 0.34107,-5.11597 -7.95818,-2.95589 -8.75399,-11.59619 -8.75399,-11.59619 v -35.24333 c 0,-13.75627 -5.7981,-21.03231 -11.48251,-24.78402 32.96957,-3.29695 48.77222,-13.86995 56.04826,-30.46842 14.4384,0.34106 40.47298,2.16007 65.257,9.20874 l 0.34106,-1.02319 c -24.67032,-6.93498 -50.47753,-8.75399 -65.1433,-9.20875 0.68212,-1.70532 1.25056,-3.41064 1.81901,-5.22965 15.23421,-0.56844 39.90454,-0.56844 64.00642,4.20646 z m 0,0"
         inkscape:connector-curvature="0"
         style="fill:#010101;stroke-width:1.13688159" />
      <path
         id="path829-1"
         d="m 229.11558,117.055 c 7.04867,6.48023 11.25513,14.21102 11.25513,22.51025 0,39.10873 -29.10416,40.13192 -65.02962,40.13192 -35.92545,0 -65.02962,-5.45703 -65.02962,-40.13192 0,-8.29923 4.09277,-16.03002 11.14144,-22.39656 11.70988,-10.68669 31.49161,-5.00228 53.88818,-5.00228 22.39657,0 42.06461,-5.7981 53.77449,4.88859 z m 0,0"
         inkscape:connector-curvature="0"
         style="fill:#f5ccb3;stroke-width:1.13688159" />
      <path
         id="path839-0"
         d="m 92.576117,182.88044 c 0,0.9095 -1.023193,1.59163 -2.387451,1.59163 -1.25057,0 -2.387451,-0.68213 -2.387451,-1.59163 0,-0.9095 1.023193,-1.59163 2.387451,-1.59163 1.364258,0 2.387451,0.68213 2.387451,1.59163 z m 0,0 m 6.593913,3.63802 c 0,0.90951 -1.023193,1.59163 -2.387451,1.59163 -1.25057,0 -2.387451,-0.68212 -2.387451,-1.59163 0,-0.9095 1.023193,-1.59163 2.387451,-1.59163 1.364258,0 2.387451,0.68213 2.387451,1.59163 z m 0,0 m 3.97909,4.7749 c 0,0.90951 -1.0232,1.59164 -2.38746,1.59164 -1.250566,0 -2.387447,-0.68213 -2.387447,-1.59164 0,-0.9095 1.023193,-1.59163 2.387447,-1.59163 1.36426,-0.11369 2.38746,0.68213 2.38746,1.59163 z m 0,0 m 3.63802,5.45704 c 0,0.9095 -1.0232,1.59163 -2.38746,1.59163 -1.25056,0 -2.38745,-0.68213 -2.38745,-1.59163 0,-0.90951 1.0232,-1.59164 2.38745,-1.59164 1.36426,-0.11369 2.38746,0.68213 2.38746,1.59164 z m 0,0 m 3.97908,5.00227 c 0,0.90951 -1.02319,1.59164 -2.38745,1.59164 -1.25057,0 -2.38745,-0.68213 -2.38745,-1.59164 0,-0.9095 1.02319,-1.59163 2.38745,-1.59163 1.36426,0 2.38745,0.68213 2.38745,1.59163 z m 0,0 m 5.45703,4.43384 c 0,0.90951 -1.02319,1.59164 -2.38745,1.59164 -1.25057,0 -2.38745,-0.68213 -2.38745,-1.59164 0,-0.9095 1.02319,-1.59163 2.38745,-1.59163 1.36426,-0.11369 2.38745,0.68213 2.38745,1.59163 z m 0,0 m 7.61711,2.84221 c 0,0.9095 -1.02319,1.59163 -2.38745,1.59163 -1.25057,0 -2.38745,-0.68213 -2.38745,-1.59163 0,-0.90951 1.02319,-1.59164 2.38745,-1.59164 1.36426,0 2.38745,0.68213 2.38745,1.59164 z m 0,0 m 7.6171,0 c 0,0.9095 -1.02319,1.59163 -2.38745,1.59163 -1.25057,0 -2.38745,-0.68213 -2.38745,-1.59163 0,-0.90951 1.0232,-1.59164 2.38745,-1.59164 1.36426,0 2.38745,0.68213 2.38745,1.59164 z m 0,0 m 7.7308,-1.25057 c 0,0.9095 -1.02319,1.59163 -2.38745,1.59163 -1.25057,0 -2.38745,-0.68213 -2.38745,-1.59163 0,-0.90951 1.02319,-1.59164 2.38745,-1.59164 1.25057,0 2.38745,0.68213 2.38745,1.59164 z m 0,0"
         inkscape:connector-curvature="0"
         style="fill:#c4e5d9;stroke-width:1.13688159" />
      <path
         style="fill:#a05a2c;fill-opacity:1;stroke-width:0.38991189"
         d="m 136.97168,120.48419 a 14.753045,14.720632 0 0 0 -14.75291,14.7205 14.753045,14.720632 0 0 0 0.0228,0.65497 15.269903,14.720632 0 0 1 14.73004,-10.9063 15.269903,14.720632 0 0 1 14.72393,10.82872 14.753045,14.720632 0 0 0 0.0291,-0.57739 14.753045,14.720632 0 0 0 -14.75291,-14.7205 z"
         id="path4675"
         inkscape:connector-curvature="0" />
      <path
         inkscape:connector-curvature="0"
         id="path4682"
         d="m 214.90632,120.48419 a 14.753045,14.720632 0 0 0 -14.75289,14.7205 14.753045,14.720632 0 0 0 0.0228,0.65497 15.269903,14.720632 0 0 1 14.73003,-10.9063 15.269903,14.720632 0 0 1 14.72394,10.82872 14.753045,14.720632 0 0 0 0.029,-0.57739 14.753045,14.720632 0 0 0 -14.75292,-14.7205 z"
         style="fill:#a05a2c;fill-opacity:1;stroke-width:0.38991189" />
      <path
         style="fill:#a05a2c;fill-opacity:1;stroke-width:0.24637666"
         d="m 208.46585,157.91188 c -0.43964,0.0272 -0.8857,0.0405 -1.33557,0.0448 0.0843,0.37932 0.13293,0.76528 0.13293,1.1586 0,4.86376 -5.9822,8.82846 -14.21466,8.77957 l -29.07502,-0.17329 c -8.23243,-0.0489 -16.15228,-3.74252 -16.15228,-8.60628 0,-0.39193 0.0475,-0.77694 0.13096,-1.15499 h -1.34407 c -0.0879,0.41546 -0.1376,0.83882 -0.1376,1.26956 0,5.32531 8.27959,9.36906 16.88624,9.42274 l 30.39683,0.18963 c 8.60658,0.0536 14.86036,-4.28706 14.86036,-9.61237 0,-0.44748 -0.0533,-0.88696 -0.14798,-1.31786 z"
         id="rect4732"
         inkscape:connector-curvature="0" />
      <path
         inkscape:connector-curvature="0"
         id="path4750"
         d="m 177.54229,142.86713 a 4.2256693,4.6970827 0 0 0 -4.22562,4.69705 4.2256693,4.6970827 0 0 0 0.006,0.20899 4.3737111,4.6970827 0 0 1 4.21907,-3.48001 4.3737111,4.6970827 0 0 1 4.21732,3.45524 4.2256693,4.6970827 0 0 0 0.008,-0.18422 4.2256693,4.6970827 0 0 0 -4.22562,-4.69705 z"
         style="fill:#a05a2c;fill-opacity:1;stroke-width:0.1178757" />
      <g
         transform="matrix(0.53359043,0,0,0.53359043,114.50239,110.59947)"
         id="g1011">
        <path
           sodipodi:nodetypes="ssccss"
           inkscape:connector-curvature="0"
           id="rect4557"
           d="m 113.41334,-161.24506 c -91.46536,0 -165.09842,61.859061 -165.09842,138.697777 V 7.9320856 H 278.51349 V -22.547283 c 0,-76.838716 -73.63474,-138.697777 -165.10015,-138.697777 z"
           style="fill:#000000;stroke-width:0.7606287" />
        <path
           inkscape:connector-curvature="0"
           id="circle4710"
           d="m 209.03191,-29.535798 a 64.582183,87.807522 5.1822043 0 0 -15.52277,1.855859 74.152344,87.987607 0 0 0 -8.83034,-0.737213 74.152344,87.987607 0 0 0 -54.14612,28.0316916 124.82855,119.12646 0 0 1 11.48551,-0.606105 124.82855,119.12646 0 0 1 115.75913,74.7069464 74.152344,87.987607 0 0 0 0.7406,-7.35863 119.33247,108.30824 85.744142 0 1 5.0696,17.54362 64.582183,87.807522 5.1822043 0 0 2.91612,-13.78428 64.582183,87.807522 5.1822043 0 0 -51.05922,-98.894217 64.582183,87.807522 5.1822043 0 0 -6.41251,-0.757672 z"
           style="fill:#1a1a1a;fill-opacity:1;stroke-width:1.42476904" />
        <path
           inkscape:connector-curvature="0"
           id="path4583"
           d="m 53.06964,-110.66978 a 82.549993,82.368625 0 0 0 -82.5501,82.368705 82.549993,82.368625 0 0 0 8.52839,36.2331606 h 268.62133 a 82.549993,82.368625 0 0 0 8.47373,-36.2331606 82.549993,82.368625 0 0 0 -82.55007,-82.368705 82.549993,82.368625 0 0 0 -60.23602,26.198004 82.549993,82.368625 0 0 0 -60.28726,-26.198004 z"
           style="fill:#ffffff;stroke-width:0.7629019" />
        <g
           id="g4920"
           transform="matrix(5.3932451,0,0,5.6322896,-31.64808,-789.2286)">
          <path
             inkscape:connector-curvature="0"
             id="circle4918"
             d="m 45.168844,131.56015 a 3.4745038,3.4745038 0 0 1 -3.474504,3.4745 3.4745038,3.4745038 0 0 1 -3.474504,-3.4745 3.4745038,3.4745038 0 0 1 3.474504,-3.4745 3.4745038,3.4745038 0 0 1 3.474504,3.4745 z"
             style="fill:#241c1c;stroke-width:0.26458332" />
        </g>
        <g
           transform="matrix(5.3932451,0,0,5.6322896,-190.0267,-789.2286)"
           id="g4619">
          <path
             inkscape:connector-curvature="0"
             id="path4616"
             d="m 45.168844,131.56015 a 3.4745038,3.4745038 0 0 1 -3.474504,3.4745 3.4745038,3.4745038 0 0 1 -3.474504,-3.4745 3.4745038,3.4745038 0 0 1 3.474504,-3.4745 3.4745038,3.4745038 0 0 1 3.474504,3.4745 z"
             style="fill:#241c1c;stroke-width:0.26458332" />
        </g>
        <g
           transform="matrix(2.7698056,0,0,2.8925719,72.49253,-434.82317)"
           id="g4924"
           style="fill:#ffffff">
          <path
             inkscape:connector-curvature="0"
             id="circle4922"
             d="m 45.168844,131.56015 a 3.4745038,3.4745038 0 0 1 -3.474504,3.4745 3.4745038,3.4745038 0 0 1 -3.474504,-3.4745 3.4745038,3.4745038 0 0 1 3.474504,-3.4745 3.4745038,3.4745038 0 0 1 3.474504,3.4745 z"
             style="fill:#ffffff;stroke-width:0.26458332" />
        </g>
        <path
           sodipodi:nodetypes="sscccsss"
           inkscape:connector-curvature="0"
           id="rect4694"
           d="m 75.63343,-11.170377 c -67.37602,0 -122.3662,-8.362821 -122.3662,19.2216616 0,7.3068094 3.8379,14.2288324 10.68575,20.4682484 28.17632,-29.6566864 149.34566,-18.358274 149.34566,-18.358274 0,0 122.50734,-11.9614854 151.14759,16.891965 5.87171,-5.850172 9.11496,-12.265086 9.11496,-19.0019394 0,-27.5844826 -53.49404,-19.2216616 -120.86997,-19.2216616 z"
           style="fill:#333333;fill-opacity:1;stroke-width:1.09861016" />
        <path
           sodipodi:nodetypes="cccc"
           inkscape:connector-curvature="0"
           id="path4701"
           d="m 34.75783,-11.967583 78.65702,0.469642 76.44313,-0.29224 c -25.37381,6.5177946 -50.8286,12.6071016 -76.44313,18.0838686"
           style="fill:#ffdd55;fill-opacity:1;stroke-width:0.87269372" />
        <g
           style="fill:#ffffff"
           id="g4964"
           transform="matrix(2.7698056,0,0,2.8925719,-85.88607,-434.82317)">
          <path
             inkscape:connector-curvature="0"
             id="circle4962"
             d="m 45.168844,131.56015 a 3.4745038,3.4745038 0 0 1 -3.474504,3.4745 3.4745038,3.4745038 0 0 1 -3.474504,-3.4745 3.4745038,3.4745038 0 0 1 3.474504,-3.4745 3.4745038,3.4745038 0 0 1 3.474504,3.4745 z"
             style="fill:#ffffff;stroke-width:0.26458332" />
        </g>
      </g>
      <path
         inkscape:connector-curvature="0"
         id="path926"
         d="m 166.5805,300.01649 c -7.68839,-0.51248 -12.38824,-0.93126 -17.0497,-1.51918 -27.33219,-3.44731 -47.7005,-11.89027 -52.570145,-21.79111 -1.00654,-2.04648 -1.139383,-2.63218 -1.139383,-5.02355 0,-2.29603 0.146984,-3.00632 0.968225,-4.67882 3.993553,-8.13309 18.404973,-15.44683 38.664623,-19.62213 l 5.51981,-1.13758 -0.22339,1.23319 c -0.64734,3.57347 -3.62988,7.50345 -6.9767,9.19291 -3.40795,1.72033 -4.37291,4.05665 -2.2352,5.41181 0.98941,0.62721 1.4642,0.67841 4.81298,0.51911 11.67784,-0.55556 18.74528,-6.56863 18.74528,-15.94872 0,-2.32156 0.18518,-2.4875 2.78646,-2.49696 l 1.26658,-0.005 -0.004,3.29308 c -0.008,6.25508 -1.70491,11.85968 -4.49527,14.85088 -3.12989,3.35518 -2.68148,6.52102 0.92121,6.50373 6.15713,-0.0295 12.88022,-4.41005 15.74159,-10.25661 1.78063,-3.63831 2.33294,-5.97001 2.58881,-10.92912 l 0.21345,-4.13747 h 1.75961 1.75961 l 0.21479,1.56702 c 0.11813,0.86186 0.21703,2.64774 0.21977,3.9686 0.014,6.72826 3.28263,12.93481 8.7134,16.54518 4.30067,2.85908 10.30055,4.15915 11.88454,2.57516 1.1955,-1.1955 0.67093,-3.41849 -1.31509,-5.57307 -2.89423,-3.13987 -4.34749,-7.65225 -4.66733,-14.49201 l -0.20386,-4.35957 1.62039,0.2221 c 0.89122,0.12215 1.80467,0.2221 2.02989,0.2221 0.27435,0 0.47568,0.97536 0.61002,2.95533 0.11029,1.62544 0.45958,3.71528 0.77619,4.6441 0.74607,2.1887 2.58758,4.97652 4.14161,6.26991 3.43208,2.85644 10.1399,4.86513 15.5294,4.65037 2.61085,-0.10404 2.87591,-0.18219 3.6431,-1.0741 1.33522,-1.55228 0.37291,-3.27574 -2.70323,-4.84137 -2.12669,-1.08241 -4.65161,-3.61828 -5.73876,-5.76365 -0.88782,-1.75203 -1.77099,-4.71891 -1.48873,-5.00117 0.27732,-0.27732 9.3185,1.50064 14.61775,2.87459 17.40042,4.51147 28.50388,10.76873 32.13061,18.1069 1.13473,2.29598 1.20439,2.62186 1.08986,5.09923 -0.2234,4.83272 -3.00375,8.75639 -9.06343,12.79048 -11.20314,7.45824 -29.77048,12.49012 -54.21704,14.69322 -4.00636,0.36105 -25.28459,0.70133 -28.87788,0.4618 z"
         style="opacity:1;fill:#000000;fill-opacity:0;stroke-width:0.12765463;stroke-miterlimit:4;stroke-dasharray:none;paint-order:markers stroke fill" />
    </g>
  </g>
</svg>
