<?xml version="1.0" encoding="UTF-8" standalone="no"?>
<!-- Created with Inkscape (http://www.inkscape.org/) -->

<svg
   xmlns:dc="http://purl.org/dc/elements/1.1/"
   xmlns:cc="http://creativecommons.org/ns#"
   xmlns:rdf="http://www.w3.org/1999/02/22-rdf-syntax-ns#"
   xmlns:svg="http://www.w3.org/2000/svg"
   xmlns="http://www.w3.org/2000/svg"
   xmlns:sodipodi="http://sodipodi.sourceforge.net/DTD/sodipodi-0.dtd"
   xmlns:inkscape="http://www.inkscape.org/namespaces/inkscape"
   width="1450"
   height="1450"
   viewBox="0 0 383.64582 383.64584"
   version="1.1"
   id="svg8"
   inkscape:version="0.92.3 (2405546, 2018-03-11)"
   sodipodi:docname="YouTube.svg">
  <defs
     id="defs2" />
  <sodipodi:namedview
     id="base"
     pagecolor="#ffffff"
     bordercolor="#666666"
     borderopacity="1.0"
     inkscape:pageopacity="0.0"
     inkscape:pageshadow="2"
     inkscape:zoom="0.24748737"
     inkscape:cx="142.82388"
     inkscape:cy="870.94289"
     inkscape:document-units="mm"
     inkscape:current-layer="layer1"
     showgrid="false"
     units="px"
     inkscape:window-width="1920"
     inkscape:window-height="1057"
     inkscape:window-x="1912"
     inkscape:window-y="-8"
     inkscape:window-maximized="1" />
  <metadata
     id="metadata5">
    <rdf:RDF>
      <cc:Work
         rdf:about="">
        <dc:format>image/svg+xml</dc:format>
        <dc:type
           rdf:resource="http://purl.org/dc/dcmitype/StillImage" />
        <dc:title></dc:title>
      </cc:Work>
    </rdf:RDF>
  </metadata>
  <g
     inkscape:label="Layer 1"
     inkscape:groupmode="layer"
     id="layer1"
     transform="translate(0,86.64585)">
    <g
       id="g842"
       transform="matrix(4.0874835,0,0,4.0874835,67.710289,-762.7279)">
      <path
         style="fill:#fbcdcd;stroke-width:0.26458335"
         d="m 16.215175,237.30829 c -4.83875,-0.2176 -10.6070111,-0.70162 -12.3799392,-1.03879 -4.73958258,-0.90137 -7.2059164,-3.63548 -8.1070169,-8.98721 -1.287629,-7.64737 -1.287629,-22.25055 0,-29.89792 0.4680218,-2.77963 1.2670121,-4.67688 2.5830278,-6.13355 3.0526767,-3.37895 7.4604562,-3.91976 31.9268463,-3.91726 24.71644,0.003 29.141136,0.54095 32.19143,3.91726 1.891157,2.09328 2.680219,4.92888 3.252918,11.6898 0.346247,4.08757 0.346247,14.69785 0,18.78542 -0.572699,6.76092 -1.361761,9.59652 -3.252918,11.6898 -2.954057,3.26979 -6.838498,3.78301 -29.545597,3.90367 -8.076406,0.0429 -15.577344,0.0379 -16.668751,-0.0112 z m 16.247881,-19.81558 c 4.880605,-2.7649 8.873827,-5.08662 8.873827,-5.15938 0,-0.1213 -17.429714,-10.07314 -17.995097,-10.27465 -0.150826,-0.0538 -0.247443,3.9581 -0.247443,10.27465 0,6.31655 0.09662,10.32841 0.247443,10.27465 0.136097,-0.0485 4.240668,-2.35038 9.12127,-5.11527 z"
         id="path856"
         inkscape:connector-curvature="0" />
      <path
         style="fill:#fbb0ae;stroke-width:0.26458335"
         d="m 17.538092,237.3073 c -8.9746617,-0.3668 -13.8003863,-0.89066 -16.0946227,-1.74718 -1.93412017,-0.72207 -4.0418168,-2.85261 -4.7837426,-4.83559 -2.5127942,-6.71604 -2.5127942,-30.06636 0,-36.7824 0.7419258,-1.98298 2.84962243,-4.11352 4.7837426,-4.83559 3.6170441,-1.35037 10.3098227,-1.75604 28.9269157,-1.75339 18.637068,0.003 25.322976,0.40792 28.926916,1.75339 1.93412,0.72207 4.041815,2.85261 4.783741,4.83559 2.512796,6.71604 2.512796,30.06636 0,36.7824 -0.74177,1.98256 -2.849214,4.11294 -4.785215,4.83729 -3.324887,1.244 -9.210914,1.63981 -26.015025,1.7494 -7.421563,0.0484 -14.505783,0.0466 -15.74271,-0.004 z m 13.192171,-18.78626 c 10.251933,-5.83436 10.61384,-6.04535 10.61384,-6.18771 0,-0.14236 -0.361907,-0.35335 -10.61384,-6.18771 -3.731128,-2.12338 -6.975581,-3.93426 -7.209896,-4.02418 -0.387181,-0.14857 -0.426024,0.78253 -0.426024,10.21189 0,9.42936 0.03884,10.36046 0.426024,10.21189 0.234315,-0.0899 3.478768,-1.9008 7.209896,-4.02418 z"
         id="path854"
         inkscape:connector-curvature="0" />
      <path
         style="fill:#fc9090;stroke-width:0.26458335"
         d="m 16.322514,237.19231 c -6.4181383,-0.23226 -11.3266568,-0.66889 -13.4687977,-1.1981 -2.86845501,-0.70864 -5.4024034,-2.98343 -6.3661935,-5.71511 -2.2160718,-6.28102 -2.2160718,-29.61052 0,-35.89154 0.9642002,-2.73284 3.50011709,-5.00862 6.3661935,-5.71316 7.7801027,-1.91251 47.2700247,-1.91308 55.0333367,-8e-4 2.867052,0.70622 5.402162,2.9816 6.366193,5.71396 2.208469,6.25947 2.208469,29.63208 0,35.89155 -0.964031,2.73235 -3.499141,5.00773 -6.366193,5.71395 -4.890342,1.20461 -25.213298,1.79098 -41.564539,1.19925 z m 16.663206,-19.9382 c 4.494371,-2.56091 8.274606,-4.6562 8.400521,-4.6562 0.125915,0 0.228936,-0.11906 0.228936,-0.26458 0,-0.14552 -0.103021,-0.26458 -0.228936,-0.26458 -0.197072,0 -15.011509,-8.36002 -17.432003,-9.83715 l -0.859895,-0.52476 v 10.62649 10.62649 l 0.859895,-0.52476 c 0.472943,-0.28862 4.53711,-2.62005 9.031482,-5.18095 z"
         id="path852"
         inkscape:connector-curvature="0" />
      <path
         style="fill:#fc6e6e;stroke-width:0.26458335"
         d="m 17.161902,237.18106 c -6.330463,-0.22375 -11.7088527,-0.64752 -13.779019,-1.08565 -2.77345874,-0.58697 -5.1459798,-2.35192 -6.3552177,-4.72772 -1.4313891,-2.81225 -2.0898294,-8.80939 -2.0898294,-19.03436 0,-10.22497 0.6584403,-16.22211 2.0898294,-19.03436 1.2358063,-2.428 3.6132703,-4.16656 6.4875093,-4.74409 5.0395403,-1.01261 22.9778704,-1.5652 36.8473324,-1.13507 16.46721,0.5107 18.776883,0.89341 21.581717,3.57608 2.087195,1.9963 2.846057,4.2547 3.524663,10.48952 0.432049,3.96955 0.432049,17.72629 0,21.69584 -0.678606,6.23482 -1.437468,8.49322 -3.524663,10.48952 -1.394031,1.33331 -2.790433,2.05508 -4.718629,2.43892 -5.577732,1.11036 -24.582336,1.61857 -40.063693,1.07137 z m 16.715331,-20.34981 c 4.241883,-2.4011 7.712512,-4.42516 7.712512,-4.49792 0,-0.10706 -9.667187,-5.64791 -16.960216,-9.72091 l -1.535186,-0.85737 v 10.57828 10.57828 l 1.535186,-0.85737 c 0.844354,-0.47155 5.005819,-2.8219 9.247704,-5.22299 z"
         id="path850"
         inkscape:connector-curvature="0" />
      <path
         style="fill:#fc4e4f;stroke-width:0.26458335"
         d="M 18.464134,237.19198 C 7.1805113,236.81594 2.6650329,236.25412 0.43838964,234.94922 c -1.53142854,-0.89747 -3.15710144,-2.828 -3.77730094,-4.48563 -1.3581579,-3.63 -2.1459093,-14.92687 -1.6563166,-23.75266 0.5301832,-9.55751 1.234212,-12.83006 3.2537254,-15.12435 2.08622858,-2.37008 4.1108254,-3.07789 10.2837608,-3.59529 11.8223617,-0.99091 37.6809637,-0.82866 46.6989617,0.29302 3.423502,0.42581 4.998506,1.09165 6.768042,2.86119 2.47332,2.47332 3.159448,5.33907 3.726736,15.56543 0.495329,8.92922 -0.298302,20.12304 -1.690524,23.84408 -0.751292,2.00801 -2.9815,4.24677 -4.969746,4.9888 -1.787684,0.66717 -4.808884,1.0557 -10.845967,1.39481 -6.567385,0.36889 -22.284681,0.50268 -29.765627,0.25336 z m 12.170834,-18.5062 c 3.4925,-1.99081 7.391012,-4.20477 8.663358,-4.91991 1.272347,-0.71514 2.313359,-1.35978 2.313359,-1.43254 0,-0.0728 -1.041012,-0.7174 -2.313359,-1.43254 -1.272346,-0.71514 -5.170858,-2.9291 -8.663358,-4.91991 -3.4925,-1.9908 -6.617891,-3.76136 -6.945313,-3.93457 l -0.595312,-0.31493 v 10.60195 10.60195 l 0.595312,-0.31493 c 0.327422,-0.17321 3.452813,-1.94377 6.945313,-3.93457 z"
         id="path848"
         inkscape:connector-curvature="0" />
      <path
         style="fill:#fc2f31;stroke-width:0.26458335"
         d="M 20.580801,237.19316 C 7.9479697,236.88066 2.7531876,236.30579 0.46974303,234.9676 c -1.56198363,-0.91538 -3.18422413,-2.83507 -3.81065513,-4.50936 -1.2882042,-3.44303 -2.0671627,-14.81807 -1.6150628,-23.58457 0.4992021,-9.67985 1.196102,-12.9941 3.2144724,-15.28709 2.10254173,-2.38861 4.0491148,-3.05169 10.5483441,-3.59315 9.1501394,-0.76232 33.9953644,-0.76262 43.1270864,-5.3e-4 6.500643,0.54252 8.445995,1.20528 10.548343,3.59367 2.018371,2.29299 2.71527,5.60724 3.214473,15.28709 0.452099,8.7665 -0.326858,20.14154 -1.615062,23.58457 -0.626433,1.67429 -2.248673,3.59397 -3.810656,4.50936 -2.597135,1.52202 -7.850982,1.98173 -26.593349,2.32689 -2.837657,0.0523 -8.731251,0.007 -13.096876,-0.10133 z m 11.994584,-19.56783 c 4.971887,-2.83748 9.039792,-5.21888 9.039792,-5.292 0,-0.11256 -17.661222,-10.2838 -18.300209,-10.53924 -0.121343,-0.0485 -0.220625,4.69415 -0.220625,10.53924 0,5.84509 0.09928,10.58774 0.220625,10.53924 0.121343,-0.0485 4.288531,-2.40977 9.260417,-5.24724 z"
         id="path846"
         inkscape:connector-curvature="0" />
      <path
         style="fill:#fc0000;stroke-width:0.26458335"
         d="m 13.172467,236.90387 c -6.7989667,-0.33463 -10.2440681,-0.84809 -12.22124445,-1.82145 -1.79593939,-0.88414 -3.17553205,-2.29337 -4.03490215,-4.1216 -1.1918112,-2.53548 -1.8623533,-9.24232 -1.8623533,-18.62749 0,-9.38517 0.6705421,-16.09201 1.8623533,-18.62749 1.4919691,-3.17402 3.97223797,-4.70764 8.5847507,-5.30817 9.2167879,-1.19999 38.1662829,-1.27547 48.8749979,-0.12744 4.506064,0.48308 6.807269,1.52999 8.504831,3.8692 2.140252,2.94922 2.671635,6.96576 2.671635,20.1939 0,13.22814 -0.531383,17.24468 -2.671635,20.1939 -1.697562,2.33921 -3.998767,3.38612 -8.504831,3.8692 -7.231476,0.77525 -30.051975,1.0563 -41.203602,0.50744 z m 19.310031,-19.17635 c 5.022975,-2.85403 9.132679,-5.28018 9.132679,-5.39145 0,-0.17975 -18.082655,-10.58607 -18.394985,-10.58607 -0.06922,0 -0.125849,4.7625 -0.125849,10.58333 0,5.82083 0.05748,10.58333 0.127738,10.58333 0.07026,0 4.237445,-2.33511 9.260417,-5.18914 z"
         id="path844"
         inkscape:connector-curvature="0" />
    </g>
  </g>
</svg>
