<?xml version="1.0" encoding="UTF-8" standalone="no"?>
<!-- Created with Inkscape (http://www.inkscape.org/) -->

<svg
   xmlns:dc="http://purl.org/dc/elements/1.1/"
   xmlns:cc="http://creativecommons.org/ns#"
   xmlns:rdf="http://www.w3.org/1999/02/22-rdf-syntax-ns#"
   xmlns:svg="http://www.w3.org/2000/svg"
   xmlns="http://www.w3.org/2000/svg"
   xmlns:sodipodi="http://sodipodi.sourceforge.net/DTD/sodipodi-0.dtd"
   xmlns:inkscape="http://www.inkscape.org/namespaces/inkscape"
   width="1450"
   height="1450"
   viewBox="0 0 383.64582 383.64584"
   version="1.1"
   id="svg8"
   inkscape:version="0.92.3 (2405546, 2018-03-11)"
   sodipodi:docname="deviant art.svg">
  <defs
     id="defs2">
	
</defs>
  <sodipodi:namedview
     id="base"
     pagecolor="#ffffff"
     bordercolor="#666666"
     borderopacity="1.0"
     inkscape:pageopacity="0.0"
     inkscape:pageshadow="2"
     inkscape:zoom="0.35"
     inkscape:cx="-358.31591"
     inkscape:cy="404.66027"
     inkscape:document-units="mm"
     inkscape:current-layer="layer1"
     showgrid="false"
     units="px"
     inkscape:window-width="1920"
     inkscape:window-height="1057"
     inkscape:window-x="1912"
     inkscape:window-y="-8"
     inkscape:window-maximized="1" />
  <metadata
     id="metadata5">
    <rdf:RDF>
      <cc:Work
         rdf:about="">
        <dc:format>image/svg+xml</dc:format>
        <dc:type
           rdf:resource="http://purl.org/dc/dcmitype/StillImage" />
        <dc:title></dc:title>
      </cc:Work>
    </rdf:RDF>
  </metadata>
  <g
     inkscape:label="Layer 1"
     inkscape:groupmode="layer"
     id="layer1"
     transform="translate(0,86.64585)">
    <circle
       style="opacity:1;fill:#cccccc;fill-opacity:1;stroke-width:0.47239262;stroke-miterlimit:4;stroke-dasharray:none;paint-order:markers stroke fill"
       id="path832"
       cx="191.82292"
       cy="105.17706"
       r="145.52083" />
    <g
       id="g841"
       transform="matrix(0.24334263,0,0,0.24334263,-133.38599,80.874084)">
</g>
    <g
       id="g843"
       transform="matrix(0.24334263,0,0,0.24334263,-133.38599,80.874084)">
</g>
    <g
       id="g845"
       transform="matrix(0.24334263,0,0,0.24334263,-133.38599,80.874084)">
</g>
    <g
       id="g847"
       transform="matrix(0.24334263,0,0,0.24334263,-133.38599,80.874084)">
</g>
    <g
       id="g849"
       transform="matrix(0.24334263,0,0,0.24334263,-133.38599,80.874084)">
</g>
    <g
       id="g851"
       transform="matrix(0.24334263,0,0,0.24334263,-133.38599,80.874084)">
</g>
    <g
       id="g853"
       transform="matrix(0.24334263,0,0,0.24334263,-133.38599,80.874084)">
</g>
    <g
       id="g855"
       transform="matrix(0.24334263,0,0,0.24334263,-133.38599,80.874084)">
</g>
    <g
       id="g857"
       transform="matrix(0.24334263,0,0,0.24334263,-133.38599,80.874084)">
</g>
    <g
       id="g859"
       transform="matrix(0.24334263,0,0,0.24334263,-133.38599,80.874084)">
</g>
    <g
       id="g861"
       transform="matrix(0.24334263,0,0,0.24334263,-133.38599,80.874084)">
</g>
    <g
       id="g863"
       transform="matrix(0.24334263,0,0,0.24334263,-133.38599,80.874084)">
</g>
    <g
       id="g865"
       transform="matrix(0.24334263,0,0,0.24334263,-133.38599,80.874084)">
</g>
    <g
       id="g867"
       transform="matrix(0.24334263,0,0,0.24334263,-133.38599,80.874084)">
</g>
    <g
       id="g869"
       transform="matrix(0.24334263,0,0,0.24334263,-133.38599,80.874084)">
</g>
    <path
       style="opacity:1;fill:#ffffff;fill-opacity:1;stroke-width:0.08079503;stroke-miterlimit:4;stroke-dasharray:none;paint-order:markers stroke fill"
       d="m 143.68658,50.177322 c -3.80253,0 -6.86367,3.061134 -6.86367,6.863665 v 96.272153 c 0,3.80253 3.06114,6.86367 6.86367,6.86367 h 96.27216 c 3.80253,0 6.86418,-3.06114 6.86418,-6.86367 V 57.040987 c 0,-3.802531 -3.06165,-6.863665 -6.86418,-6.863665 z M 205.273,61.661893 h 8.77207 8.77156 v 4.988327 4.988324 l -12.31553,21.31808 c -6.77354,11.724856 -12.31552,21.487716 -12.31552,21.695316 0,0.22123 5.09774,0.37775 12.31552,0.37775 h 12.31553 v 10.05727 10.05778 l -18.37045,0.006 -18.37098,0.006 -3.86694,6.76806 -3.86747,6.76755 h -8.75605 -8.75606 l 0.002,-5.02864 -5.2e-4,-5.1e-4 0.002,-5.02864 12.30002,-21.30722 c 6.76476,-11.71887 12.20276,-21.463722 12.08454,-21.65501 -0.11822,-0.191289 -5.65372,-0.347782 -12.30106,-0.347782 H 160.82868 V 85.271303 75.217656 l 18.36633,-0.106972 18.36632,-0.106971 3.85609,-6.67091 z"
       id="rect955"
       inkscape:connector-curvature="0" />
  </g>
</svg>
