<?xml version="1.0" encoding="UTF-8" standalone="no"?>
<!-- Created with Inkscape (http://www.inkscape.org/) -->

<svg
   xmlns:dc="http://purl.org/dc/elements/1.1/"
   xmlns:cc="http://creativecommons.org/ns#"
   xmlns:rdf="http://www.w3.org/1999/02/22-rdf-syntax-ns#"
   xmlns:svg="http://www.w3.org/2000/svg"
   xmlns="http://www.w3.org/2000/svg"
   xmlns:sodipodi="http://sodipodi.sourceforge.net/DTD/sodipodi-0.dtd"
   xmlns:inkscape="http://www.inkscape.org/namespaces/inkscape"
   width="1450"
   height="1450"
   viewBox="0 0 383.64582 383.64584"
   version="1.1"
   id="svg8"
   inkscape:version="0.92.3 (2405546, 2018-03-11)"
   sodipodi:docname="github.svg">
  <defs
     id="defs2">
	
</defs>
  <sodipodi:namedview
     id="base"
     pagecolor="#ffffff"
     bordercolor="#666666"
     borderopacity="1.0"
     inkscape:pageopacity="0.0"
     inkscape:pageshadow="2"
     inkscape:zoom="0.35"
     inkscape:cx="-358.31591"
     inkscape:cy="404.66027"
     inkscape:document-units="mm"
     inkscape:current-layer="layer1"
     showgrid="false"
     units="px"
     inkscape:window-width="1920"
     inkscape:window-height="1057"
     inkscape:window-x="1912"
     inkscape:window-y="-8"
     inkscape:window-maximized="1" />
  <metadata
     id="metadata5">
    <rdf:RDF>
      <cc:Work
         rdf:about="">
        <dc:format>image/svg+xml</dc:format>
        <dc:type
           rdf:resource="http://purl.org/dc/dcmitype/StillImage" />
        <dc:title></dc:title>
      </cc:Work>
    </rdf:RDF>
  </metadata>
  <g
     inkscape:label="Layer 1"
     inkscape:groupmode="layer"
     id="layer1"
     transform="translate(0,86.64585)">
    <circle
       style="opacity:1;fill:#cccccc;fill-opacity:1;stroke-width:0.47239262;stroke-miterlimit:4;stroke-dasharray:none;paint-order:markers stroke fill"
       id="path832"
       cx="191.82292"
       cy="105.17706"
       r="145.52083" />
    <path
       style="opacity:1;fill:#ffffff;fill-opacity:1;stroke-width:0.2550602;stroke-miterlimit:4;stroke-dasharray:none;paint-order:markers stroke fill"
       d="m 144.42218,50.276026 c -4.15499,0 -7.5003,3.344799 -7.5003,7.499802 v 94.801962 c 0,4.155 3.34531,7.50032 7.5003,7.50032 h 49.90444 c -10.96849,0 -14.00384,-0.10072 -13.65343,-0.45321 0.31268,-0.31364 0.4532,-2.23152 0.4532,-6.1805 v -5.72626 l -1.98437,0.33796 c -1.09141,0.18595 -3.31444,0.23301 -4.94025,0.10439 -6.43752,-0.5093 -8.78869,-2.05551 -11.41068,-7.50239 -1.66421,-3.45719 -2.89666,-5.01582 -5.80483,-7.3427 -1.70709,-1.3659 -1.96651,-2.16187 -0.82267,-2.52491 2.77323,-0.88019 8.02606,2.35074 9.98699,6.14278 0.83664,1.61792 3.28337,3.6709 5.28648,4.4359 2.05568,0.78507 6.38027,0.63366 8.61912,-0.30179 1.12157,-0.46862 1.37605,-0.79659 1.57253,-2.0252 0.1289,-0.80626 0.82177,-2.44105 1.53942,-3.63285 1.49302,-2.4794 1.84827,-2.1282 -2.98638,-2.95124 -12.76445,-2.173 -19.48026,-10.65325 -19.58382,-24.72924 -0.0321,-4.36914 0.0708,-5.21159 0.92863,-7.5985 0.86175,-2.397852 3.30399,-6.649042 4.10364,-7.143242 0.16716,-0.10331 0.0521,-0.99562 -0.2553,-1.98334 -0.71435,-2.2948 -0.46326,-8.23094 0.45786,-10.81949 l 0.65577,-1.84175 1.82005,0.21549 c 2.29221,0.27148 6.96203,2.11864 10.20765,4.03748 l 2.49235,1.47329 3.74448,-0.79891 c 5.22299,-1.11428 13.90981,-1.11216 19.19158,0.004 l 3.73002,0.78858 2.88457,-1.67173 c 3.80878,-2.20739 7.32644,-3.60326 9.69605,-3.84783 l 1.9265,-0.19895 0.67489,2.02985 c 0.92266,2.77621 1.1739,7.93573 0.50643,10.39833 -0.52051,1.92039 -0.51397,1.95886 0.57361,3.40134 3.50969,4.65496 4.76017,9.803942 4.05143,16.681162 -1.38894,13.47774 -7.87267,19.78804 -22.81152,22.20174 l -1.46349,0.23668 1.0046,1.04851 c 0.55258,0.57676 1.37144,1.9687 1.81951,3.09284 0.74369,1.86579 0.82807,2.90005 0.9674,11.87111 0.0921,5.93059 0.30628,10.0145 0.54054,10.29963 0.3093,0.37647 -2.4779,0.47284 -13.71856,0.47284 h 44.89753 c 4.155,0 7.4998,-3.34532 7.4998,-7.50032 V 57.775828 c 0,-4.155003 -3.3448,-7.499802 -7.4998,-7.499802 z"
       id="rect835-8"
       inkscape:connector-curvature="0" />
    <g
       id="g841"
       transform="matrix(0.24334263,0,0,0.24334263,-133.38599,80.874084)">
</g>
    <g
       id="g843"
       transform="matrix(0.24334263,0,0,0.24334263,-133.38599,80.874084)">
</g>
    <g
       id="g845"
       transform="matrix(0.24334263,0,0,0.24334263,-133.38599,80.874084)">
</g>
    <g
       id="g847"
       transform="matrix(0.24334263,0,0,0.24334263,-133.38599,80.874084)">
</g>
    <g
       id="g849"
       transform="matrix(0.24334263,0,0,0.24334263,-133.38599,80.874084)">
</g>
    <g
       id="g851"
       transform="matrix(0.24334263,0,0,0.24334263,-133.38599,80.874084)">
</g>
    <g
       id="g853"
       transform="matrix(0.24334263,0,0,0.24334263,-133.38599,80.874084)">
</g>
    <g
       id="g855"
       transform="matrix(0.24334263,0,0,0.24334263,-133.38599,80.874084)">
</g>
    <g
       id="g857"
       transform="matrix(0.24334263,0,0,0.24334263,-133.38599,80.874084)">
</g>
    <g
       id="g859"
       transform="matrix(0.24334263,0,0,0.24334263,-133.38599,80.874084)">
</g>
    <g
       id="g861"
       transform="matrix(0.24334263,0,0,0.24334263,-133.38599,80.874084)">
</g>
    <g
       id="g863"
       transform="matrix(0.24334263,0,0,0.24334263,-133.38599,80.874084)">
</g>
    <g
       id="g865"
       transform="matrix(0.24334263,0,0,0.24334263,-133.38599,80.874084)">
</g>
    <g
       id="g867"
       transform="matrix(0.24334263,0,0,0.24334263,-133.38599,80.874084)">
</g>
    <g
       id="g869"
       transform="matrix(0.24334263,0,0,0.24334263,-133.38599,80.874084)">
</g>
  </g>
</svg>
