<?xml version="1.0" encoding="UTF-8" standalone="no"?>
<!-- Created with Inkscape (http://www.inkscape.org/) -->

<svg
   xmlns:dc="http://purl.org/dc/elements/1.1/"
   xmlns:cc="http://creativecommons.org/ns#"
   xmlns:rdf="http://www.w3.org/1999/02/22-rdf-syntax-ns#"
   xmlns:svg="http://www.w3.org/2000/svg"
   xmlns="http://www.w3.org/2000/svg"
   xmlns:sodipodi="http://sodipodi.sourceforge.net/DTD/sodipodi-0.dtd"
   xmlns:inkscape="http://www.inkscape.org/namespaces/inkscape"
   width="1450"
   height="1450"
   viewBox="0 0 383.64582 383.64584"
   version="1.1"
   id="svg8"
   inkscape:version="0.92.3 (2405546, 2018-03-11)"
   sodipodi:docname="instagram.svg">
  <defs
     id="defs2" />
  <sodipodi:namedview
     id="base"
     pagecolor="#ffffff"
     bordercolor="#666666"
     borderopacity="1.0"
     inkscape:pageopacity="0.0"
     inkscape:pageshadow="2"
     inkscape:zoom="0.35"
     inkscape:cx="-2.482204"
     inkscape:cy="404.66027"
     inkscape:document-units="mm"
     inkscape:current-layer="layer1"
     showgrid="false"
     units="px"
     inkscape:window-width="1920"
     inkscape:window-height="1057"
     inkscape:window-x="1912"
     inkscape:window-y="-8"
     inkscape:window-maximized="1" />
  <metadata
     id="metadata5">
    <rdf:RDF>
      <cc:Work
         rdf:about="">
        <dc:format>image/svg+xml</dc:format>
        <dc:type
           rdf:resource="http://purl.org/dc/dcmitype/StillImage" />
        <dc:title></dc:title>
      </cc:Work>
    </rdf:RDF>
  </metadata>
  <g
     inkscape:label="Layer 1"
     inkscape:groupmode="layer"
     id="layer1"
     transform="translate(0,86.64585)">
    <circle
       style="opacity:1;fill:#cccccc;fill-opacity:1;stroke-width:0.47239262;stroke-miterlimit:4;stroke-dasharray:none;paint-order:markers stroke fill"
       id="path832"
       cx="191.82292"
       cy="105.17706"
       r="145.52083" />
    <g
       id="g841"
       transform="matrix(0.24334263,0,0,0.24334263,-133.38599,80.874084)" />
    <g
       id="g843"
       transform="matrix(0.24334263,0,0,0.24334263,-133.38599,80.874084)" />
    <g
       id="g845"
       transform="matrix(0.24334263,0,0,0.24334263,-133.38599,80.874084)" />
    <g
       id="g847"
       transform="matrix(0.24334263,0,0,0.24334263,-133.38599,80.874084)" />
    <g
       id="g849"
       transform="matrix(0.24334263,0,0,0.24334263,-133.38599,80.874084)" />
    <g
       id="g851"
       transform="matrix(0.24334263,0,0,0.24334263,-133.38599,80.874084)" />
    <g
       id="g853"
       transform="matrix(0.24334263,0,0,0.24334263,-133.38599,80.874084)" />
    <g
       id="g855"
       transform="matrix(0.24334263,0,0,0.24334263,-133.38599,80.874084)" />
    <g
       id="g857"
       transform="matrix(0.24334263,0,0,0.24334263,-133.38599,80.874084)" />
    <g
       id="g859"
       transform="matrix(0.24334263,0,0,0.24334263,-133.38599,80.874084)" />
    <g
       id="g861"
       transform="matrix(0.24334263,0,0,0.24334263,-133.38599,80.874084)" />
    <g
       id="g863"
       transform="matrix(0.24334263,0,0,0.24334263,-133.38599,80.874084)" />
    <g
       id="g865"
       transform="matrix(0.24334263,0,0,0.24334263,-133.38599,80.874084)" />
    <g
       id="g867"
       transform="matrix(0.24334263,0,0,0.24334263,-133.38599,80.874084)" />
    <g
       id="g869"
       transform="matrix(0.24334263,0,0,0.24334263,-133.38599,80.874084)" />
    <path
       style="opacity:1;fill:#ffffff;fill-opacity:1;stroke-width:0.1;stroke-miterlimit:4;stroke-dasharray:none;paint-order:markers stroke fill"
       d="m 144.32272,50.177062 c -4.15501,0 -7.4998,3.3448 -7.4998,7.4998 v 94.999888 c 0,4.155 3.34479,7.50032 7.4998,7.50032 h 94.99988 c 4.155,0 7.50032,-3.34532 7.50032,-7.50032 V 57.676862 c 0,-4.155 -3.34532,-7.4998 -7.50032,-7.4998 z m 47.52319,17.49971 h 0.001 c 18.01955,2e-5 18.94378,0.10366 23.52931,2.63292 6.25282,3.44879 11.35051,10.15245 12.81317,16.85323 1.50039,6.87483 1.51421,28.856518 0.0212,35.693428 -1.49179,6.83428 -6.0546,12.91243 -12.4721,16.61862 -4.97974,2.87594 -5.64079,2.97416 -21.74751,3.17655 -9.13705,0.11489 -18.1276,-0.17135 -19.97965,-0.63458 -9.01211,-2.2542 -16.53686,-10.09272 -18.6676,-19.4474 -1.96331,-8.61944 -0.90715,-36.002448 1.5694,-40.677098 2.71135,-5.11773 6.84229,-9.26777 11.89025,-11.94397 3.92604,-2.08154 5.86591,-2.2717 23.04251,-2.2717 z m 5.2e-4,4.78162 c -7.40099,2e-5 -14.8019,0.3525 -17.38293,1.05679 -4.81367,1.31347 -9.90362,5.34613 -12.39666,9.82007 -2.66832,4.78862 -2.71901,38.583048 -0.0646,43.310528 2.52585,4.49853 6.48917,7.85182 11.25358,9.52087 4.97716,1.74357 30.06831,2.04915 35.97403,0.4377 4.8137,-1.31353 9.90522,-5.34561 12.39821,-9.81956 2.71426,-4.87095 2.71426,-38.578558 0,-43.449538 -2.49299,-4.47394 -7.58451,-8.5066 -12.39821,-9.82007 -2.58098,-0.70429 -9.98189,-1.05677 -17.38292,-1.05679 z m 19.79517,9.54671 c 0.20506,0.003 0.41528,0.0209 0.62942,0.0506 2.1138,0.29313 2.62051,0.97246 2.62051,3.52175 0,2.64398 -0.47036,3.21349 -2.87682,3.48661 -1.96988,0.22358 -3.22124,-0.31268 -3.97651,-1.69912 -1.44799,-2.65825 0.52755,-5.41685 3.6034,-5.35988 z m -20.07577,4.65088 c 0.20008,-10e-4 0.40015,0.001 0.59944,0.007 11.1602,0.33436 20.93673,11.53516 17.91519,22.559858 -1.31511,4.79846 -5.42777,10.00855 -9.55653,12.10624 -14.08935,7.15837 -30.9149,-5.82487 -26.83608,-20.70726 1.58271,-5.774888 7.76584,-11.848288 13.64361,-13.403318 1.41529,-0.37444 2.83366,-0.55545 4.23437,-0.56275 z m 0.28008,5.36659 c -8.1696,5.1e-4 -13.34699,5.058 -13.34699,13.036928 0,5.61295 2.47062,9.50019 7.45278,11.72694 h 5.1e-4 c 5.35213,2.39125 6.44595,2.38666 11.92538,-0.0579 3.57714,-1.59594 4.78551,-2.90254 6.30917,-6.82232 1.77722,-4.57238 1.78049,-5.1108 0.0744,-9.49968 -2.25061,-5.789898 -6.09076,-8.383788 -12.41474,-8.383988 z"
       id="rect3795"
       inkscape:connector-curvature="0" />
  </g>
</svg>
