<?xml version="1.0" encoding="UTF-8" standalone="no"?>
<!-- Created with Inkscape (http://www.inkscape.org/) -->

<svg
   xmlns:dc="http://purl.org/dc/elements/1.1/"
   xmlns:cc="http://creativecommons.org/ns#"
   xmlns:rdf="http://www.w3.org/1999/02/22-rdf-syntax-ns#"
   xmlns:svg="http://www.w3.org/2000/svg"
   xmlns="http://www.w3.org/2000/svg"
   xmlns:sodipodi="http://sodipodi.sourceforge.net/DTD/sodipodi-0.dtd"
   xmlns:inkscape="http://www.inkscape.org/namespaces/inkscape"
   width="1450"
   height="1450"
   viewBox="0 0 383.64582 383.64584"
   version="1.1"
   id="svg8"
   sodipodi:docname="linkedIn.svg"
   inkscape:version="0.92.3 (2405546, 2018-03-11)">
  <defs
     id="defs2" />
  <sodipodi:namedview
     id="base"
     pagecolor="#ffffff"
     bordercolor="#666666"
     borderopacity="1.0"
     inkscape:pageopacity="0.0"
     inkscape:pageshadow="2"
     inkscape:zoom="0.49497475"
     inkscape:cx="308.70757"
     inkscape:cy="595.51939"
     inkscape:document-units="mm"
     inkscape:current-layer="layer1"
     showgrid="false"
     units="px"
     inkscape:window-width="1920"
     inkscape:window-height="1057"
     inkscape:window-x="1912"
     inkscape:window-y="-8"
     inkscape:window-maximized="1" />
  <metadata
     id="metadata5">
    <rdf:RDF>
      <cc:Work
         rdf:about="">
        <dc:format>image/svg+xml</dc:format>
        <dc:type
           rdf:resource="http://purl.org/dc/dcmitype/StillImage" />
        <dc:title></dc:title>
      </cc:Work>
    </rdf:RDF>
  </metadata>
  <g
     inkscape:label="Layer 1"
     inkscape:groupmode="layer"
     id="layer1"
     transform="translate(0,86.64585)">
    <circle
       style="opacity:1;fill:#cccccc;fill-opacity:1;stroke-width:0.47239262;stroke-miterlimit:4;stroke-dasharray:none;paint-order:markers stroke fill"
       id="path832"
       cx="191.82292"
       cy="105.17707"
       r="145.52083" />
    <path
       style="fill:#ffffff;stroke-width:0.25418466"
       d="m 191.86044,50.276036 c -48.56445,0 -48.67865,0.0012 -50.23403,0.526715 -1.96806,0.664745 -3.06127,1.68341 -3.98018,3.709915 l -0.72435,1.59854 v 49.038004 49.03849 l 0.73229,1.61245 c 0.85368,1.87871 2.03182,3.0757 3.46186,3.51877 0.55923,0.17328 1.12523,0.41574 1.25805,0.53865 0.30875,0.28568 98.32509,0.29806 98.6515,0.0124 0.13281,-0.11625 0.72957,-0.35011 1.32606,-0.51977 1.24828,-0.35508 2.69697,-1.53236 3.29208,-2.67484 1.08057,-2.07461 1.07021,-1.57877 1.07981,-51.54801 0.007,-34.357413 -0.0714,-48.086393 -0.27702,-49.056373 -0.58976,-2.782302 -1.73274,-4.157371 -4.2875,-5.158527 l -1.62394,-0.636434 z m -21.47767,23.478701 c 2.29848,-0.004 4.71883,1.49239 5.09921,4.18252 0.75755,5.35741 -5.01351,8.00607 -8.44242,3.87473 -0.97443,-1.17406 -1.32196,-3.47841 -0.78144,-5.18137 0.62281,-1.96222 2.33694,-2.87273 4.12465,-2.87588 z m -4.85743,14.53978 h 5.09673 5.09673 v 21.841443 21.84144 h -5.09673 -5.09673 v -21.84144 z m 18.93028,0 h 5.09674 c 4.12583,0 5.09624,0.55464 5.09624,2.91213 0,3.57113 1.12284,3.66535 4.73431,0.39715 4.10022,-3.71044 13.39443,-3.30214 17.46522,0.7675 2.98979,2.98898 3.32968,4.90836 3.79748,21.444293 l 0.51385,18.16181 h -5.03468 -5.03468 l -0.81321,-14.76117 c -0.84065,-15.25535 -1.71357,-17.228533 -7.61928,-17.228533 -5.75869,0 -6.61902,1.959113 -7.5463,17.178883 l -0.90257,14.81082 h -4.87632 -4.8768 v -21.84144 z"
       id="path851"
       inkscape:connector-curvature="0" />
  </g>
</svg>
