<?xml version="1.0" encoding="UTF-8" standalone="no"?>
<!-- Created with Inkscape (http://www.inkscape.org/) -->

<svg
   xmlns:dc="http://purl.org/dc/elements/1.1/"
   xmlns:cc="http://creativecommons.org/ns#"
   xmlns:rdf="http://www.w3.org/1999/02/22-rdf-syntax-ns#"
   xmlns:svg="http://www.w3.org/2000/svg"
   xmlns="http://www.w3.org/2000/svg"
   xmlns:sodipodi="http://sodipodi.sourceforge.net/DTD/sodipodi-0.dtd"
   xmlns:inkscape="http://www.inkscape.org/namespaces/inkscape"
   version="1.1"
   id="svg832"
   width="1462.8571"
   height="1462.8571"
   viewBox="0 0 1462.8571 1462.8571"
   sodipodi:docname="Books.svg"
   inkscape:version="0.92.3 (2405546, 2018-03-11)">
  <metadata
     id="metadata838">
    <rdf:RDF>
      <cc:Work
         rdf:about="">
        <dc:format>image/svg+xml</dc:format>
        <dc:type
           rdf:resource="http://purl.org/dc/dcmitype/StillImage" />
        <dc:title></dc:title>
      </cc:Work>
    </rdf:RDF>
  </metadata>
  <defs
     id="defs836" />
  <sodipodi:namedview
     pagecolor="#ffffff"
     bordercolor="#666666"
     borderopacity="1"
     objecttolerance="10"
     gridtolerance="10"
     guidetolerance="10"
     inkscape:pageopacity="0"
     inkscape:pageshadow="2"
     inkscape:window-width="1920"
     inkscape:window-height="1057"
     id="namedview834"
     showgrid="false"
     inkscape:zoom="0.30351564"
     inkscape:cx="272.28243"
     inkscape:cy="672.92635"
     inkscape:window-x="1912"
     inkscape:window-y="-8"
     inkscape:window-maximized="1"
     inkscape:current-layer="svg832"
     units="in" />
  <circle
     style="opacity:1;fill:#e6e6e6;fill-opacity:1;stroke-width:0.18897638;stroke-miterlimit:4;stroke-dasharray:none;paint-order:markers stroke fill"
     id="path1527"
     cx="731.42853"
     cy="731.42853"
     r="550" />
  <g
     id="g1507"
     transform="matrix(0.94540675,0,0,1.0044466,-18.532739,32.625218)">
    <path
       style="fill:#9a9a99;stroke-width:2.53968239"
       d="m 307.9365,931.81945 c -1.74603,-1.82133 -3.1746,-6.48218 -3.1746,-10.35743 0,-5.38989 1.93993,-8.03835 8.25396,-11.2686 13.89037,-7.10631 26.69153,-18.44025 29.30951,-25.9502 3.17037,-9.09452 -0.87741,-19.21376 -13.09521,-32.73739 -11.59924,-12.83898 -14.82646,-21.13437 -10.92589,-28.08444 1.63106,-2.90624 29.25128,-26.94449 61.37826,-53.41834 32.12698,-26.47383 61.13536,-51.07507 64.46306,-54.66943 l 6.05036,-6.53522 -12.39957,-15.34212 -12.39957,-15.34212 -34.41269,-0.0101 c -36.33875,-0.0102 -40.50794,-1.22014 -40.50794,-11.75759 0,-4.05407 4.45029,-8.75899 15.73455,-16.63492 8.65402,-6.04013 17.82121,-14.55789 20.37158,-18.92836 5.88267,-10.08099 3.51685,-17.07502 -12.25686,-36.23522 -18.10695,-21.99434 -17.60236,-23.03357 30.7539,-63.33821 22.34921,-18.62791 51.81603,-42.91362 65.4818,-53.96825 l 24.84689,-20.0993 h 278.11217 278.11219 l 10.2691,10.79365 c 5.648,5.93651 12.4342,15.36508 15.0804,20.95238 5.8118,12.27121 6.3646,34.99273 1.313,53.96825 l -3.5495,13.33333 h 19.8967 19.8966 l 10.4819,10.79365 c 15.8868,16.35934 21.1286,28.19226 21.0924,47.61504 -0.018,9.08157 -2.085,23.78016 -4.5959,32.66357 -4.2713,15.11222 -7.4069,19.33955 -48.7261,65.69063 -24.2886,27.24648 -43.8171,49.83772 -43.3967,50.2028 0.4204,0.36508 12.7644,-1.04231 27.4311,-3.12749 38.4192,-5.4622 120.101,-5.37082 144.2772,0.16152 45.3213,10.37082 67.1939,31.1792 58.9692,56.10014 -11.1499,33.78461 -103.5911,73.74148 -214.675,92.79136 -42.6123,7.30763 -131.98964,17.68884 -163.80952,19.02656 -14.66667,0.61659 -119.2381,1.76579 -232.38095,2.55376 -113.14285,0.78798 -239.99999,2.11588 -281.90475,2.9509 -60.87061,1.21296 -76.8288,0.85237 -79.36508,-1.79332 z m 404.97957,-24.23129 c 200.25711,-1.64403 201.19247,-1.67581 206.114,-7.00081 5.92089,-6.40627 14.70626,-23.19733 16.75131,-32.01595 1.97692,-8.5249 -5.92236,-20.88254 -18.79314,-29.40002 l -10.19416,-6.74619 -211.49228,2.81186 c -116.32076,1.54649 -241.87794,3.53372 -279.01597,4.41603 l -67.52371,1.60419 7.50941,13.86464 c 9.56097,17.65241 8.88742,33.70537 -2.01386,47.99771 l -7.14342,9.36551 82.31588,-1.62271 c 45.27373,-0.89249 172.84241,-2.36591 283.48594,-3.27426 z m 75.65534,-155.74336 236.19049,-2.48419 6.9763,-8.22588 c 9.0501,-10.67098 15.6442,-28.10072 13.645,-36.06646 -1.8346,-7.30953 -14.4285,-20.59019 -24.0654,-25.37778 -5.5592,-2.76172 -54.13294,-2.55702 -282.2702,1.18957 -151.55555,2.48891 -277.16124,4.59482 -279.12378,4.67977 -2.9491,0.12774 -2.89206,0.92558 0.32866,4.59888 13.66657,15.58687 16.195,39.648 5.77925,54.99647 -3.49206,5.14585 -6.35037,9.59103 -6.35179,9.87822 -10e-4,0.28716 20.85572,0.2461 46.3492,-0.0912 25.49349,-0.33727 152.63751,-1.73113 282.54227,-3.09743 z m -5.75185,-100.75664 179.64497,-1.63751 7.42768,-11.70946 c 15.95787,-25.15698 14.25704,-39.47391 -6.4436,-54.24013 l -10.51962,-7.50387 -182.49625,2.7871 c -100.37292,1.5329 -226.01594,3.53534 -279.20667,4.44988 l -96.71042,1.66278 7.14059,12.94834 c 10.97844,19.90761 9.71782,36.80698 -3.87837,51.99167 l -5.39693,6.02748 105.39682,-1.56937 c 57.96826,-0.86317 186.23705,-2.30626 285.0418,-3.20691 z"
       id="path1523"
       inkscape:connector-curvature="0" />
    <path
       style="fill:#005ef6;stroke-width:2.53968239"
       d="m 309.67666,931.51037 c -3.06425,-1.13653 -4.91476,-4.21496 -4.91476,-8.17592 0,-4.89305 3.08439,-8.32605 13.42181,-14.93884 7.38202,-4.72221 16.62613,-12.39391 20.54248,-17.04823 9.43057,-11.20762 7.77036,-18.98154 -8.60943,-40.31307 -6.96104,-9.06545 -12.65645,-19.03225 -12.65645,-22.14847 0,-4.31164 15.7824,-18.75713 66.03174,-60.43829 36.31746,-30.12485 66.03175,-56.48892 66.03175,-58.58682 0,-2.09791 -3.83508,-8.10337 -8.52237,-13.3455 -4.68731,-5.24211 -9.95822,-12.26672 -11.71316,-15.61018 -3.19035,-6.07828 -3.19518,-6.07886 -35.9153,-4.35147 -35.9695,1.8989 -42.89679,0.30514 -42.89679,-9.86923 0,-4.59352 2.85455,-7.82568 11.26387,-12.75385 12.56678,-7.36463 29.37105,-24.6892 29.37105,-30.28044 0,-7.25823 -4.80025,-15.92421 -16.25242,-29.34077 -19.1425,-22.42603 -21.15893,-19.36683 53.3314,-80.91085 l 65.01549,-53.71591 h 279.8659 279.86593 l 9.1245,9.52381 c 18.4536,19.26128 23.2958,40.0806 16.2805,69.99885 -2.2312,9.51525 -4.0543,17.51525 -4.0512,17.77778 0,0.26252 9.0928,0.47733 20.1996,0.47733 20.0406,0 20.2709,0.0752 30.3137,9.88597 15.3501,14.99563 21.4944,31.54311 19.8666,53.50395 -2.7709,37.38313 0.1514,33.11522 -96.9337,141.56736 -8.956,10.00454 -11.1993,14.74174 -13.831,29.20635 -1.7276,9.49572 -5.0633,20.86816 -7.4127,25.27212 -2.3493,4.40396 -24.6928,30.97539 -49.65226,59.04762 l -45.38077,51.04043 -57.47637,0.25679 c -31.61201,0.1412 -170.40761,1.56977 -308.43463,3.1746 -138.02704,1.6048 -253.1699,2.0975 -255.87301,1.09488 z m 505.2233,-23.96622 102.51904,-1.63715 7.4101,-11.68366 c 4.07556,-6.42603 8.72254,-16.06365 10.32666,-21.41691 3.84919,-12.84564 -2.04267,-24.21131 -18.1168,-34.94812 l -11.64216,-7.77645 -29.20635,1.44 c -16.06349,0.79197 -141.49206,2.79987 -278.73015,4.46196 -137.23809,1.66212 -249.5238,3.81603 -249.5238,4.78652 0,0.97046 3.07692,7.26969 6.83761,13.9983 8.56615,15.3265 9.28262,33.2726 1.74187,43.62943 -2.80267,3.84929 -6.05336,8.59934 -7.22377,10.55563 -1.82019,3.04236 24.28954,3.31609 180.48035,1.89227 100.43461,-0.91558 228.74193,-2.4014 285.1274,-3.30182 z m 48.19266,-154.91512 163.41008,-1.67055 8.9556,-13.48813 c 12.2814,-18.49701 13.8138,-32.65452 4.7063,-43.47817 -3.7006,-4.39791 -10.6265,-10.40543 -15.3911,-13.35007 l -8.6627,-5.35388 -278.84908,4.15805 c -153.36696,2.28693 -279.21724,4.5248 -279.6673,4.97305 -0.45003,0.44828 2.28917,5.73753 6.08714,11.75388 11.78598,18.67017 10.76668,36.13077 -3.23014,55.33354 l -4.45354,6.10996 121.84233,-1.65856 c 67.01326,-0.9122 195.37686,-2.41031 285.25241,-3.32912 z M 632.38093,653.99102 c 104.06349,-0.73448 221.01755,-2.06075 259.8979,-2.94731 l 70.69155,-1.61188 8.88536,-13.38227 c 4.94515,-7.44795 9.5104,-18.04264 10.29491,-23.89158 1.34423,-10.02185 0.8047,-11.09232 -11.63195,-23.07967 l -13.04157,-12.57039 -70.4846,0.16356 c -104.74841,0.24304 -490.46302,6.26984 -491.87866,7.68548 -0.67363,0.6736 2.24028,8.04028 6.47532,16.37036 9.12204,17.9426 8.77656,29.1438 -1.37188,44.47914 -3.61161,5.45752 -6.56653,10.61023 -6.56653,11.45054 0,0.84033 11.14286,0.8847 24.76191,0.0985 13.61904,-0.78606 109.90475,-2.03015 213.96824,-2.7646 z"
       id="path1521"
       inkscape:connector-curvature="0" />
    <path
       style="fill:#61615c;stroke-width:2.53968239"
       d="m 309.67666,931.51037 c -3.06425,-1.13653 -4.91476,-4.21496 -4.91476,-8.17592 0,-4.89305 3.08439,-8.32605 13.42181,-14.93884 7.38202,-4.72221 16.62613,-12.39391 20.54248,-17.04823 9.43057,-11.20762 7.77036,-18.98154 -8.60943,-40.31307 -6.96104,-9.06545 -12.65645,-19.03225 -12.65645,-22.14847 0,-4.31164 15.7824,-18.75713 66.03174,-60.43829 36.31746,-30.12485 66.03175,-56.48892 66.03175,-58.58682 0,-2.09791 -3.83508,-8.10337 -8.52237,-13.3455 -4.68731,-5.24211 -9.95822,-12.26672 -11.71316,-15.61018 -3.19035,-6.07828 -3.19518,-6.07886 -35.9153,-4.35147 -35.9695,1.8989 -42.89679,0.30514 -42.89679,-9.86923 0,-4.59352 2.85455,-7.82568 11.26387,-12.75385 12.56678,-7.36463 29.37105,-24.6892 29.37105,-30.28044 0,-7.25823 -4.80025,-15.92421 -16.25242,-29.34077 -19.1425,-22.42603 -21.15893,-19.36683 53.3314,-80.91085 l 65.01549,-53.71591 h 279.8659 279.86593 l 9.1245,9.52381 c 18.4536,19.26128 23.2958,40.0806 16.2805,69.99885 -2.2312,9.51525 -4.0543,17.51525 -4.0512,17.77778 0,0.26252 9.0928,0.47733 20.1996,0.47733 20.0406,0 20.2709,0.0752 30.3137,9.88597 15.3501,14.99563 21.4944,31.54311 19.8666,53.50395 -2.7709,37.38313 0.1514,33.11522 -96.9337,141.56736 -8.956,10.00454 -11.1993,14.74174 -13.831,29.20635 -1.7276,9.49572 -5.0633,20.86816 -7.4127,25.27212 -2.3493,4.40396 -24.6928,30.97539 -49.65226,59.04762 l -45.38077,51.04043 -57.47637,0.25679 c -31.61201,0.1412 -170.40761,1.56977 -308.43463,3.1746 -138.02704,1.6048 -253.1699,2.0975 -255.87301,1.09488 z m 505.2233,-23.96622 102.51904,-1.63715 7.4101,-11.68366 c 4.07556,-6.42603 8.72254,-16.06365 10.32666,-21.41691 3.84919,-12.84564 -2.04267,-24.21131 -18.1168,-34.94812 l -11.64216,-7.77645 -29.20635,1.44 c -16.06349,0.79197 -141.49206,2.79987 -278.73015,4.46196 -137.23809,1.66212 -249.5238,3.81603 -249.5238,4.78652 0,0.97046 3.07692,7.26969 6.83761,13.9983 8.56615,15.3265 9.28262,33.2726 1.74187,43.62943 -2.80267,3.84929 -6.05336,8.59934 -7.22377,10.55563 -1.82019,3.04236 24.28954,3.31609 180.48035,1.89227 100.43461,-0.91558 228.74193,-2.4014 285.1274,-3.30182 z m -150.84025,-93.56855 243.74224,-3.72333 19.1149,-19.34405 19.11487,-19.34403 -74.92063,1.50004 c -41.20635,0.82502 -159.22626,2.23932 -262.26646,3.14291 -170.68088,1.49674 -187.75075,1.27639 -191.89828,-2.47705 -4.269,-3.8634 -6.28267,-2.68257 -32.33674,18.96233 -15.28132,12.69524 -28.26041,23.53295 -28.84243,24.08381 -1.70476,1.61349 50.19563,1.14199 308.29253,-2.80063 z m 199.03291,-61.34657 163.41008,-1.67055 8.9556,-13.48813 c 12.2814,-18.49701 13.8138,-32.65452 4.7063,-43.47817 -3.7006,-4.39791 -10.6265,-10.40543 -15.3911,-13.35007 l -8.6627,-5.35388 -278.84908,4.15805 c -153.36696,2.28693 -279.21724,4.5248 -279.6673,4.97305 -0.45003,0.44828 2.28917,5.73753 6.08714,11.75388 11.78598,18.67017 10.76668,36.13077 -3.23014,55.33354 l -4.45354,6.10996 121.84233,-1.65856 c 67.01326,-0.9122 195.37686,-2.41031 285.25241,-3.32912 z M 632.38093,653.99102 c 104.06349,-0.73448 221.01755,-2.06075 259.8979,-2.94731 l 70.69155,-1.61188 8.88536,-13.38227 c 4.94515,-7.44795 9.5104,-18.04264 10.29491,-23.89158 1.34423,-10.02185 0.8047,-11.09232 -11.63195,-23.07967 l -13.04157,-12.57039 -70.4846,0.16356 c -104.74841,0.24304 -490.46302,6.26984 -491.87866,7.68548 -0.67363,0.6736 2.24028,8.04028 6.47532,16.37036 9.12204,17.9426 8.77656,29.1438 -1.37188,44.47914 -3.61161,5.45752 -6.56653,10.61023 -6.56653,11.45054 0,0.84033 11.14286,0.8847 24.76191,0.0985 13.61904,-0.78606 109.90475,-2.03015 213.96824,-2.7646 z"
       id="path1519"
       inkscape:connector-curvature="0" />
    <path
       style="fill:#1ca100;stroke-width:2.53968239"
       d="m 307.61211,928.62811 c -5.01641,-6.04439 -2.29793,-10.21206 13.50163,-20.69922 26.52902,-17.60894 30.65008,-30.29747 16.02911,-49.35248 -20.92765,-27.27429 -21.73935,-28.85654 -17.7389,-34.57864 1.02624,-1.46789 21.86588,-19.16153 46.31032,-39.31924 50.55401,-41.68853 75.33643,-62.43687 82.2112,-68.82885 4.63713,-4.31149 4.6257,-4.61976 -0.47644,-12.87522 -2.875,-4.65186 -8.15576,-11.2091 -11.73499,-14.57161 -3.57925,-3.36251 -6.5077,-7.5982 -6.5077,-9.4126 0,-2.52457 -8.79297,-3.4639 -37.46032,-4.00175 l -37.46032,-0.70281 -0.78671,-6.80899 c -0.67017,-5.80043 1.24241,-8.10699 12.91238,-15.57216 27.96221,-17.88721 31.45501,-31.10326 13.90608,-52.6175 -13.91825,-17.06321 -17.55363,-23.83294 -15.57176,-28.99758 2.00394,-5.2222 121.98377,-105.16432 130.0228,-108.30781 3.38093,-1.32206 122.84543,-2.29912 281.10989,-2.29912 h 275.23022 l 9.1868,9.52381 c 14.6267,15.1634 19.4342,26.58557 19.3436,45.95903 -0.043,9.29397 -1.8248,22.61239 -3.9585,29.59652 -2.1337,6.98413 -3.8919,12.98413 -3.907,13.33333 -0.015,0.34921 9.5721,0.63492 21.305,0.63492 h 21.3324 l 12.7727,13.97539 c 16.3526,17.89232 20.3472,32.63766 15.8452,58.49006 -1.6583,9.52231 -4.5216,20.91903 -6.363,25.32604 -1.8413,4.40701 -17.4873,23.83253 -34.7688,43.16785 -17.2814,19.33529 -37.8952,42.57244 -45.8083,51.63809 -7.9131,9.06565 -16.1988,17.49669 -18.4127,18.73565 -2.3935,1.33947 -4.0252,5.61795 -4.0252,10.55438 0,9.45897 -6.7374,33.77501 -11.0705,39.9549 -5.661,8.07377 -91.06825,103.87342 -92.68346,103.96129 -25.28678,1.37541 -106.71068,2.46006 -270.84924,3.60795 -111.74603,0.78151 -235.76413,2.13742 -275.5958,3.01313 -64.92622,1.42745 -72.77501,1.16594 -75.83969,-2.52676 z m 428.8958,-18.44525 c 175.41387,-1.58187 176.54491,-1.62525 182.47362,-6.99843 8.57448,-7.77105 18.1613,-27.90575 18.1613,-38.14326 0,-10.16145 -8.16175,-21.18819 -22.02476,-29.75601 l -9.1119,-5.63144 -209.82849,3.00469 c -328.80768,4.7085 -354.07214,5.45125 -349.83511,10.28506 15.68355,17.89247 18.15997,43.41475 5.78654,59.63713 -3.70276,4.85457 -6.73229,9.64574 -6.73229,10.64703 0,1.0013 48.28571,1.08399 107.30158,0.18362 59.01587,-0.90024 186.73015,-2.35307 283.80951,-3.22852 z m -72.4482,-96.20726 243.74224,-3.72333 19.1149,-19.34405 19.11487,-19.34403 -74.92063,1.50004 c -41.20635,0.82502 -159.22626,2.23932 -262.26646,3.14291 -170.68088,1.49674 -187.75075,1.27639 -191.89828,-2.47705 -4.269,-3.8634 -6.28267,-2.68257 -32.33674,18.96233 -15.28132,12.69524 -28.26041,23.53295 -28.84243,24.08381 -1.70476,1.61349 50.19563,1.14199 308.29253,-2.80063 z m 141.68094,-59.4363 220.34385,-2.29574 5.0034,-5.96305 c 6.6136,-7.88198 14.7881,-24.54169 16.6637,-33.96051 2.0196,-10.14173 -6.8852,-23.14455 -21.7678,-31.78559 l -11.3807,-6.60775 -126.98408,2.03431 c -69.84127,1.11888 -195.2435,2.98283 -278.67163,4.14217 -83.42812,1.15932 -152.34174,2.76208 -153.14138,3.56173 -0.79965,0.79964 1.38966,5.64409 4.86511,10.76546 13.7729,20.29549 13.84346,38.19505 0.21435,54.39223 -3.45534,4.10641 -6.2834,7.87266 -6.28462,8.36944 -0.002,0.96666 13.68256,0.86327 351.1397,-2.6527 z m 6.45244,-100.92764 150.60582,-1.64472 7.83636,-11.38979 c 4.31,-6.26438 9.30576,-16.27215 11.10167,-22.23952 2.83184,-9.40952 2.70151,-11.96975 -0.98187,-19.28693 -2.33595,-4.64046 -9.39002,-12.34745 -15.67573,-17.12665 l -11.42857,-8.68948 -85.07937,1.61128 c -46.79365,0.8862 -173.07936,2.90946 -280.63491,4.49613 -107.55555,1.58666 -195.91623,3.19685 -196.35705,3.57821 -0.44084,0.38135 2.70202,6.9013 6.98413,14.48876 11.31952,20.05709 9.90245,41.50809 -3.47548,52.61079 -2.18735,1.81531 -3.97699,4.46722 -3.97699,5.89308 0,1.75144 43.87487,2.0655 135.23809,0.96805 74.38095,-0.89346 203.01071,-2.3646 285.8439,-3.26921 z"
       id="path1517"
       inkscape:connector-curvature="0" />
    <path
       style="fill:#ae0500;stroke-width:2.53968239"
       d="m 307.61211,928.62811 c -5.01641,-6.04439 -2.29793,-10.21206 13.50163,-20.69922 26.52902,-17.60894 30.65008,-30.29747 16.02911,-49.35248 -20.92765,-27.27429 -21.73935,-28.85654 -17.7389,-34.57864 1.02624,-1.46789 21.86588,-19.16153 46.31032,-39.31924 50.55401,-41.68853 75.33643,-62.43687 82.2112,-68.82885 4.63713,-4.31149 4.6257,-4.61976 -0.47644,-12.87522 -2.875,-4.65186 -8.15576,-11.2091 -11.73499,-14.57161 -3.57925,-3.36251 -6.5077,-7.5982 -6.5077,-9.4126 0,-2.52457 -8.79297,-3.4639 -37.46032,-4.00175 l -37.46032,-0.70281 -0.78671,-6.80899 c -0.67017,-5.80043 1.24241,-8.10699 12.91238,-15.57216 27.96221,-17.88721 31.45501,-31.10326 13.90608,-52.6175 -13.91825,-17.06321 -17.55363,-23.83294 -15.57176,-28.99758 2.00394,-5.2222 121.98377,-105.16432 130.0228,-108.30781 3.38093,-1.32206 122.84543,-2.29912 281.10989,-2.29912 h 275.23022 l 9.1868,9.52381 c 14.6267,15.1634 19.4342,26.58557 19.3436,45.95903 -0.043,9.29397 -1.8248,22.61239 -3.9585,29.59652 -2.1337,6.98413 -3.8919,12.98413 -3.907,13.33333 -0.015,0.34921 9.5721,0.63492 21.305,0.63492 h 21.3324 l 12.7727,13.97539 c 16.3526,17.89232 20.3472,32.63766 15.8452,58.49006 -1.6583,9.52231 -4.5216,20.91903 -6.363,25.32604 -1.8413,4.40701 -17.4873,23.83253 -34.7688,43.16785 -17.2814,19.33529 -37.8952,42.57244 -45.8083,51.63809 -7.9131,9.06565 -16.1988,17.49669 -18.4127,18.73565 -2.3935,1.33947 -4.0252,5.61795 -4.0252,10.55438 0,9.45897 -6.7374,33.77501 -11.0705,39.9549 -5.661,8.07377 -91.06825,103.87342 -92.68346,103.96129 -25.28678,1.37541 -106.71068,2.46006 -270.84924,3.60795 -111.74603,0.78151 -235.76413,2.13742 -275.5958,3.01313 -64.92622,1.42745 -72.77501,1.16594 -75.83969,-2.52676 z m 428.8958,-18.44525 c 175.41387,-1.58187 176.54491,-1.62525 182.47362,-6.99843 8.57448,-7.77105 18.1613,-27.90575 18.1613,-38.14326 0,-10.16145 -8.16175,-21.18819 -22.02476,-29.75601 l -9.1119,-5.63144 -209.82849,3.00469 c -328.80768,4.7085 -354.07214,5.45125 -349.83511,10.28506 15.68355,17.89247 18.15997,43.41475 5.78654,59.63713 -3.70276,4.85457 -6.73229,9.64574 -6.73229,10.64703 0,1.0013 48.28571,1.08399 107.30158,0.18362 59.01587,-0.90024 186.73015,-2.35307 283.80951,-3.22852 z m -72.4482,-96.20726 243.74224,-3.72333 19.1149,-19.34405 19.11487,-19.34403 -74.92063,1.50004 c -41.20635,0.82502 -159.22626,2.23932 -262.26646,3.14291 -170.68088,1.49674 -187.75075,1.27639 -191.89828,-2.47705 -4.269,-3.8634 -6.28267,-2.68257 -32.33674,18.96233 -15.28132,12.69524 -28.26041,23.53295 -28.84243,24.08381 -1.70476,1.61349 50.19563,1.14199 308.29253,-2.80063 z m 141.68094,-59.4363 220.34385,-2.29574 5.0034,-5.96305 c 6.6136,-7.88198 14.7881,-24.54169 16.6637,-33.96051 2.0196,-10.14173 -6.8852,-23.14455 -21.7678,-31.78559 l -11.3807,-6.60775 -126.98408,2.03431 c -69.84127,1.11888 -195.2435,2.98283 -278.67163,4.14217 -83.42812,1.15932 -152.34174,2.76208 -153.14138,3.56173 -0.79965,0.79964 1.38966,5.64409 4.86511,10.76546 13.7729,20.29549 13.84346,38.19505 0.21435,54.39223 -3.45534,4.10641 -6.2834,7.87266 -6.28462,8.36944 -0.002,0.96666 13.68256,0.86327 351.1397,-2.6527 z m 6.45244,-100.92764 150.60582,-1.64472 7.83636,-11.38979 c 4.31,-6.26438 9.30576,-16.27215 11.10167,-22.23952 2.83184,-9.40952 2.70151,-11.96975 -0.98187,-19.28693 -2.33595,-4.64046 -9.39002,-12.34745 -15.67573,-17.12665 l -11.42857,-8.68948 -85.07937,1.61128 c -46.79365,0.8862 -173.07936,2.90946 -280.63491,4.49613 -107.55555,1.58666 -195.91623,3.19685 -196.35705,3.57821 -0.44084,0.38135 2.70202,6.9013 6.98413,14.48876 11.31952,20.05709 9.90245,41.50809 -3.47548,52.61079 -2.18735,1.81531 -3.97699,4.46722 -3.97699,5.89308 0,1.75144 43.87487,2.0655 135.23809,0.96805 74.38095,-0.89346 203.01071,-2.3646 285.8439,-3.26921 z m -17.27248,-97.58125 158.73016,-2.51109 32.54786,-32.31522 c 17.90127,-17.77338 33.65577,-34.31523 35.00997,-36.75967 2.338,-4.22032 -10.7654,-4.43888 -259.84944,-4.33392 l -262.31156,0.1105 -44.44444,36.83144 c -24.44444,20.25727 -46.15873,38.62342 -48.25397,40.81362 -4.15669,4.34511 -1.25958,4.33142 388.57142,-1.83566 z"
       id="path1515"
       inkscape:connector-curvature="0" />
    <path
       style="fill:#000765;stroke-width:2.53968239"
       d="m 307.61211,928.62811 c -5.01641,-6.04439 -2.29793,-10.21206 13.50163,-20.69922 26.52902,-17.60894 30.65008,-30.29747 16.02911,-49.35248 -20.92765,-27.27429 -21.73935,-28.85654 -17.7389,-34.57864 1.02624,-1.46789 21.86588,-19.16153 46.31032,-39.31924 50.55401,-41.68853 75.33643,-62.43687 82.2112,-68.82885 4.63713,-4.31149 4.6257,-4.61976 -0.47644,-12.87522 -2.875,-4.65186 -8.15576,-11.2091 -11.73499,-14.57161 -3.57925,-3.36251 -6.5077,-7.5982 -6.5077,-9.4126 0,-2.52457 -8.79297,-3.4639 -37.46032,-4.00175 l -37.46032,-0.70281 -0.78671,-6.80899 c -0.67017,-5.80043 1.24241,-8.10699 12.91238,-15.57216 27.96221,-17.88721 31.45501,-31.10326 13.90608,-52.6175 -13.91825,-17.06321 -17.55363,-23.83294 -15.57176,-28.99758 2.00394,-5.2222 121.98377,-105.16432 130.0228,-108.30781 3.38093,-1.32206 122.84543,-2.29912 281.10989,-2.29912 h 275.23022 l 9.1868,9.52381 c 14.6267,15.1634 19.4342,26.58557 19.3436,45.95903 -0.043,9.29397 -1.8248,22.61239 -3.9585,29.59652 -2.1337,6.98413 -3.8919,12.98413 -3.907,13.33333 -0.015,0.34921 9.5721,0.63492 21.305,0.63492 h 21.3324 l 12.7727,13.97539 c 16.3526,17.89232 20.3472,32.63766 15.8452,58.49006 -1.6583,9.52231 -4.5216,20.91903 -6.363,25.32604 -1.8413,4.40701 -17.4873,23.83253 -34.7688,43.16785 -17.2814,19.33529 -37.8952,42.57244 -45.8083,51.63809 -7.9131,9.06565 -16.1988,17.49669 -18.4127,18.73565 -2.3935,1.33947 -4.0252,5.61795 -4.0252,10.55438 0,9.45897 -6.7374,33.77501 -11.0705,39.9549 -5.661,8.07377 -91.06825,103.87342 -92.68346,103.96129 -25.28678,1.37541 -106.71068,2.46006 -270.84924,3.60795 -111.74603,0.78151 -235.76413,2.13742 -275.5958,3.01313 -64.92622,1.42745 -72.77501,1.16594 -75.83969,-2.52676 z m 428.8958,-18.44525 c 175.41387,-1.58187 176.54491,-1.62525 182.47362,-6.99843 8.57448,-7.77105 18.1613,-27.90575 18.1613,-38.14326 0,-10.16145 -8.16175,-21.18819 -22.02476,-29.75601 l -9.1119,-5.63144 -209.82849,3.00469 c -328.80768,4.7085 -354.07214,5.45125 -349.83511,10.28506 15.68355,17.89247 18.15997,43.41475 5.78654,59.63713 -3.70276,4.85457 -6.73229,9.64574 -6.73229,10.64703 0,1.0013 48.28571,1.08399 107.30158,0.18362 59.01587,-0.90024 186.73015,-2.35307 283.80951,-3.22852 z m -72.4482,-96.20726 243.74224,-3.72333 19.1149,-19.34405 19.11487,-19.34403 -74.92063,1.50004 c -41.20635,0.82502 -159.22626,2.23932 -262.26646,3.14291 -170.68088,1.49674 -187.75075,1.27639 -191.89828,-2.47705 -4.269,-3.8634 -6.28267,-2.68257 -32.33674,18.96233 -15.28132,12.69524 -28.26041,23.53295 -28.84243,24.08381 -1.70476,1.61349 50.19563,1.14199 308.29253,-2.80063 z m 141.68094,-59.4363 220.34385,-2.29574 5.0034,-5.96305 c 6.6136,-7.88198 14.7881,-24.54169 16.6637,-33.96051 2.0196,-10.14173 -6.8852,-23.14455 -21.7678,-31.78559 l -11.3807,-6.60775 -126.98408,2.03431 c -69.84127,1.11888 -195.2435,2.98283 -278.67163,4.14217 -83.42812,1.15932 -152.34174,2.76208 -153.14138,3.56173 -0.79965,0.79964 1.38966,5.64409 4.86511,10.76546 13.7729,20.29549 13.84346,38.19505 0.21435,54.39223 -3.45534,4.10641 -6.2834,7.87266 -6.28462,8.36944 -0.002,0.96666 13.68256,0.86327 351.1397,-2.6527 z m 288.29515,-72.33193 c 23.819,-26.89039 28.3102,-33.35342 31.0164,-44.63395 4.6637,-19.44031 2.3444,-39.58522 -5.4555,-47.38504 l -6.3072,-6.30723 -38.6055,40.54504 -38.6055,40.54504 7.6652,5.45811 c 10.0035,7.12312 20.3833,25.04317 20.3833,35.1906 0,4.41697 0.4627,8.03083 1.0283,8.03083 0.5656,0 13.5618,-14.14953 28.8805,-31.4434 z m -281.84271,-28.59571 150.60582,-1.64472 7.83636,-11.38979 c 4.31,-6.26438 9.30576,-16.27215 11.10167,-22.23952 2.83184,-9.40952 2.70151,-11.96975 -0.98187,-19.28693 -2.33595,-4.64046 -9.39002,-12.34745 -15.67573,-17.12665 l -11.42857,-8.68948 -85.07937,1.61128 c -46.79365,0.8862 -173.07936,2.90946 -280.63491,4.49613 -107.55555,1.58666 -195.91623,3.19685 -196.35705,3.57821 -0.44084,0.38135 2.70202,6.9013 6.98413,14.48876 11.31952,20.05709 9.90245,41.50809 -3.47548,52.61079 -2.18735,1.81531 -3.97699,4.46722 -3.97699,5.89308 0,1.75144 43.87487,2.0655 135.23809,0.96805 74.38095,-0.89346 203.01071,-2.3646 285.8439,-3.26921 z M 1055.8989,617.3402 c 19.8905,-20.84381 36.1646,-38.5581 36.1646,-39.36508 0,-0.80696 -7.3445,-1.4672 -16.3212,-1.4672 h -16.3211 l -31.1333,34.92063 c -17.1233,19.20635 -32.81303,36.92064 -34.86611,39.36508 -3.48775,4.15261 -2.74642,4.44445 11.28991,4.44445 h 15.0227 z m -260.97829,-61.30979 158.73016,-2.51109 32.54786,-32.31522 c 17.90127,-17.77338 33.65577,-34.31523 35.00997,-36.75967 2.338,-4.22032 -10.7654,-4.43888 -259.84944,-4.33392 l -262.31156,0.1105 -44.44444,36.83144 c -24.44444,20.25727 -46.15873,38.62342 -48.25397,40.81362 -4.15669,4.34511 -1.25958,4.33142 388.57142,-1.83566 z"
       id="path1513"
       inkscape:connector-curvature="0" />
    <path
       style="fill:#035a00;stroke-width:2.53968239"
       d="m 307.61211,928.62811 c -5.01641,-6.04439 -2.29793,-10.21206 13.50163,-20.69922 26.52902,-17.60894 30.65008,-30.29747 16.02911,-49.35248 -20.92765,-27.27429 -21.73935,-28.85654 -17.7389,-34.57864 1.02624,-1.46789 21.86588,-19.16153 46.31032,-39.31924 50.55401,-41.68853 75.33643,-62.43687 82.2112,-68.82885 4.63713,-4.31149 4.6257,-4.61976 -0.47644,-12.87522 -2.875,-4.65186 -8.15576,-11.2091 -11.73499,-14.57161 -3.57925,-3.36251 -6.5077,-7.5982 -6.5077,-9.4126 0,-2.52457 -8.79297,-3.4639 -37.46032,-4.00175 l -37.46032,-0.70281 -0.78671,-6.80899 c -0.67017,-5.80043 1.24241,-8.10699 12.91238,-15.57216 27.96221,-17.88721 31.45501,-31.10326 13.90608,-52.6175 -13.91825,-17.06321 -17.55363,-23.83294 -15.57176,-28.99758 2.00394,-5.2222 121.98377,-105.16432 130.0228,-108.30781 3.38093,-1.32206 122.84543,-2.29912 281.10989,-2.29912 h 275.23022 l 9.1868,9.52381 c 14.6267,15.1634 19.4342,26.58557 19.3436,45.95903 -0.043,9.29397 -1.8248,22.61239 -3.9585,29.59652 -2.1337,6.98413 -3.8919,12.98413 -3.907,13.33333 -0.015,0.34921 9.5721,0.63492 21.305,0.63492 h 21.3324 l 12.7727,13.97539 c 16.3526,17.89232 20.3472,32.63766 15.8452,58.49006 -1.6583,9.52231 -4.5216,20.91903 -6.363,25.32604 -1.8413,4.40701 -17.4873,23.83253 -34.7688,43.16785 -17.2814,19.33529 -37.8952,42.57244 -45.8083,51.63809 -7.9131,9.06565 -16.1988,17.49669 -18.4127,18.73565 -2.3935,1.33947 -4.0252,5.61795 -4.0252,10.55438 0,9.45897 -6.7374,33.77501 -11.0705,39.9549 -5.661,8.07377 -91.06825,103.87342 -92.68346,103.96129 -25.28678,1.37541 -106.71068,2.46006 -270.84924,3.60795 -111.74603,0.78151 -235.76413,2.13742 -275.5958,3.01313 -64.92622,1.42745 -72.77501,1.16594 -75.83969,-2.52676 z m 428.8958,-18.44525 c 175.41387,-1.58187 176.54491,-1.62525 182.47362,-6.99843 8.57448,-7.77105 18.1613,-27.90575 18.1613,-38.14326 0,-10.16145 -8.16175,-21.18819 -22.02476,-29.75601 l -9.1119,-5.63144 -209.82849,3.00469 c -328.80768,4.7085 -354.07214,5.45125 -349.83511,10.28506 15.68355,17.89247 18.15997,43.41475 5.78654,59.63713 -3.70276,4.85457 -6.73229,9.64574 -6.73229,10.64703 0,1.0013 48.28571,1.08399 107.30158,0.18362 59.01587,-0.90024 186.73015,-2.35307 283.80951,-3.22852 z m 248.54936,-72.97481 c 22.34433,-25.18341 26.10693,-30.76401 29.48413,-43.73 5.8681,-22.52902 6.8958,-21.41458 -19.74747,-21.41458 h -23.61875 l -22.28104,24.13486 -22.28104,24.13485 7.6637,6.44859 c 10.01089,8.42362 17.24884,20.4291 19.43921,32.2436 0.96884,5.22588 2.65407,8.94997 3.74494,8.27579 1.09087,-0.67419 13.50921,-14.21611 27.59632,-30.09311 z m -261.24777,-22.16193 184.12698,-2.60856 19.6063,-19.41673 c 10.78344,-10.67921 19.03906,-19.98395 18.34583,-20.67721 -1.44483,-1.4448 -98.00884,-0.81557 -347.79339,2.26634 -175.20149,2.16165 -175.23903,2.16101 -179.735,-3.07802 -4.0075,-4.66984 -4.97489,-4.83378 -8.88889,-1.50631 -2.4156,2.05359 -15.82055,13.21572 -29.7888,24.8047 -13.96825,11.589 -25.82179,22.19654 -26.34118,23.57236 -0.61618,1.63223 31.59548,1.93689 92.69841,0.87673 51.50351,-0.89359 176.4999,-2.79858 277.76974,-4.2333 z m 81.93115,-60.50682 220.34385,-2.29574 5.0034,-5.96305 c 6.6136,-7.88198 14.7881,-24.54169 16.6637,-33.96051 2.0196,-10.14173 -6.8852,-23.14455 -21.7678,-31.78559 l -11.3807,-6.60775 -126.98408,2.03431 c -69.84127,1.11888 -195.2435,2.98283 -278.67163,4.14217 -83.42812,1.15932 -152.34174,2.76208 -153.14138,3.56173 -0.79965,0.79964 1.38966,5.64409 4.86511,10.76546 13.7729,20.29549 13.84346,38.19505 0.21435,54.39223 -3.45534,4.10641 -6.2834,7.87266 -6.28462,8.36944 -0.002,0.96666 13.68256,0.86327 351.1397,-2.6527 z m 288.29515,-72.33193 c 23.819,-26.89039 28.3102,-33.35342 31.0164,-44.63395 4.6637,-19.44031 2.3444,-39.58522 -5.4555,-47.38504 l -6.3072,-6.30723 -38.6055,40.54504 -38.6055,40.54504 7.6652,5.45811 c 10.0035,7.12312 20.3833,25.04317 20.3833,35.1906 0,4.41697 0.4627,8.03083 1.0283,8.03083 0.5656,0 13.5618,-14.14953 28.8805,-31.4434 z m -281.84271,-28.59571 150.60582,-1.64472 7.83636,-11.38979 c 4.31,-6.26438 9.30576,-16.27215 11.10167,-22.23952 2.83184,-9.40952 2.70151,-11.96975 -0.98187,-19.28693 -2.33595,-4.64046 -9.39002,-12.34745 -15.67573,-17.12665 l -11.42857,-8.68948 -85.07937,1.61128 c -46.79365,0.8862 -173.07936,2.90946 -280.63491,4.49613 -107.55555,1.58666 -195.91623,3.19685 -196.35705,3.57821 -0.44084,0.38135 2.70202,6.9013 6.98413,14.48876 11.31952,20.05709 9.90245,41.50809 -3.47548,52.61079 -2.18735,1.81531 -3.97699,4.46722 -3.97699,5.89308 0,1.75144 43.87487,2.0655 135.23809,0.96805 74.38095,-0.89346 203.01071,-2.3646 285.8439,-3.26921 z M 1055.8989,617.3402 c 19.8905,-20.84381 36.1646,-38.5581 36.1646,-39.36508 0,-0.80696 -7.3445,-1.4672 -16.3212,-1.4672 h -16.3211 l -31.1333,34.92063 c -17.1233,19.20635 -32.81303,36.92064 -34.86611,39.36508 -3.48775,4.15261 -2.74642,4.44445 11.28991,4.44445 h 15.0227 z m -260.97829,-61.30979 158.73016,-2.51109 32.54786,-32.31522 c 17.90127,-17.77338 33.65577,-34.31523 35.00997,-36.75967 2.338,-4.22032 -10.7654,-4.43888 -259.84944,-4.33392 l -262.31156,0.1105 -44.44444,36.83144 c -24.44444,20.25727 -46.15873,38.62342 -48.25397,40.81362 -4.15669,4.34511 -1.25958,4.33142 388.57142,-1.83566 z"
       id="path1511"
       inkscape:connector-curvature="0" />
    <path
       style="fill:#030403;stroke-width:2.53968239"
       d="m 307.60583,928.62057 c -5.0099,-6.03657 -2.28693,-10.20764 13.50791,-20.69168 26.52902,-17.60894 30.65008,-30.29747 16.02911,-49.35248 -20.9326,-27.28076 -21.73379,-28.84335 -17.7389,-34.59716 1.02624,-1.47807 28.72302,-24.81381 61.54842,-51.85716 32.8254,-27.04338 62.3711,-51.79536 65.65712,-55.00437 l 5.9746,-5.83459 -5.18118,-8.38332 c -2.84965,-4.61081 -8.10964,-11.13445 -11.68887,-14.49696 -3.57925,-3.36251 -6.5077,-7.5982 -6.5077,-9.4126 0,-2.52457 -8.79297,-3.4639 -37.46032,-4.00175 l -37.46032,-0.70281 -0.76972,-6.63288 c -0.64249,-5.53659 1.3503,-7.99327 12.05701,-14.86375 31.68716,-20.33361 33.34268,-33.77641 7.67401,-62.31289 -9.63985,-10.71682 -10.81925,-17.94555 -4.14738,-25.41968 9.01105,-10.09455 119.29071,-100.52248 125.66887,-103.04688 3.43409,-1.35916 120.35756,-2.32708 281.10989,-2.32708 h 275.23022 l 9.1868,9.52381 c 14.6267,15.1634 19.4342,26.58557 19.3436,45.95903 -0.043,9.29397 -1.8248,22.61239 -3.9585,29.59652 -2.1337,6.98413 -3.8919,12.98413 -3.907,13.33333 -0.015,0.34921 9.5721,0.63492 21.305,0.63492 h 21.3324 l 12.7727,13.97539 c 16.3526,17.89232 20.3472,32.63766 15.8452,58.49006 -1.6583,9.52231 -4.5216,20.91903 -6.363,25.32604 -1.8413,4.40701 -17.4873,23.83253 -34.7688,43.16785 -17.2814,19.33529 -37.8952,42.57244 -45.8083,51.63809 -7.9131,9.06565 -16.1988,17.49669 -18.4127,18.73565 -2.3935,1.33947 -4.0252,5.61795 -4.0252,10.55438 0,9.55149 -6.7514,33.79281 -11.1674,40.09758 -5.5714,7.95436 -91.12399,103.72903 -92.68277,103.75684 -0.85069,0.0152 -16.40383,0.53859 -34.56256,1.16313 -18.15873,0.62456 -125.01587,1.76226 -237.46031,2.52823 -112.44444,0.76599 -236.46537,2.1073 -275.60208,2.98067 -63.70664,1.42169 -71.51494,1.15746 -74.56985,-2.52348 z m 435.25129,-18.43523 c 168.98288,-1.57488 170.19995,-1.62321 176.12441,-6.99672 8.79777,-7.9796 18.1613,-28.00858 18.1613,-38.84782 0,-8.11995 -1.86179,-11.22674 -12.98707,-21.67172 l -12.9871,-12.19291 -47.33036,0.0361 c -51.11256,0.0389 -299.96576,3.74443 -436.16796,6.49468 l -84.07571,1.69767 8.70895,14.29849 c 7.59749,12.4737 8.57908,15.97674 7.69146,27.44861 -0.71551,9.24747 -3.03271,15.79226 -7.80785,22.05278 -3.7347,4.89645 -6.79037,9.71893 -6.79037,10.71662 0,0.99769 51.14285,1.07962 113.65079,0.18209 62.50793,-0.89757 190.22221,-2.34557 283.80951,-3.21777 z m 242.20015,-72.97729 c 22.34433,-25.18341 26.10693,-30.76401 29.48413,-43.73 5.8681,-22.52902 6.8958,-21.41458 -19.74747,-21.41458 h -23.61875 l -22.28104,24.13486 -22.28104,24.13485 7.6637,6.44859 c 10.01089,8.42362 17.24884,20.4291 19.43921,32.2436 0.96884,5.22588 2.65407,8.94997 3.74494,8.27579 1.09087,-0.67419 13.50921,-14.21611 27.59632,-30.09311 z m -261.24777,-22.16193 184.12698,-2.60856 19.6063,-19.41673 c 10.78344,-10.67921 19.03906,-19.98395 18.34583,-20.67721 -1.44483,-1.4448 -98.00884,-0.81557 -347.79339,2.26634 -175.20149,2.16165 -175.23903,2.16101 -179.735,-3.07802 -4.0075,-4.66984 -4.97489,-4.83378 -8.88889,-1.50631 -2.4156,2.05359 -15.82055,13.21572 -29.7888,24.8047 -13.96825,11.589 -25.82179,22.19654 -26.34118,23.57236 -0.61618,1.63223 31.59548,1.93689 92.69841,0.87673 51.50351,-0.89359 176.4999,-2.79858 277.76974,-4.2333 z m 85.86042,-60.49328 c 206.83528,-2.13435 216.82218,-2.45003 220.36318,-6.96569 8.2636,-10.5379 16.0293,-25.54948 17.5627,-33.94943 2.1158,-11.5906 -5.9551,-23.98276 -21.612,-33.18311 l -11.3807,-6.68757 -128.25392,2.13082 c -70.53968,1.17194 -195.92736,3.05729 -278.63928,4.18964 -82.71195,1.13234 -151.05414,2.72762 -151.87156,3.54504 -0.81743,0.81742 1.35733,5.67642 4.83278,10.79779 13.7729,20.29549 13.84346,38.19505 0.21435,54.39223 -3.45534,4.10641 -6.28338,7.87266 -6.28457,8.36944 -0.002,0.96534 20.61638,0.81207 355.06892,-2.63916 z m 284.36588,-72.34547 c 23.819,-26.89039 28.3102,-33.35342 31.0164,-44.63395 4.6637,-19.44031 2.3444,-39.58522 -5.4555,-47.38504 l -6.3072,-6.30723 -38.6055,40.54504 -38.6055,40.54504 7.6652,5.45811 c 10.0035,7.12312 20.3833,25.04317 20.3833,35.1906 0,4.41697 0.4627,8.03083 1.0283,8.03083 0.5656,0 13.5618,-14.14953 28.8805,-31.4434 z m -276.76243,-28.60035 145.52739,-1.6428 7.59131,-11.03357 c 4.17522,-6.0685 9.27015,-15.79195 11.32206,-21.6077 3.38656,-9.59852 3.3185,-11.41234 -0.73773,-19.65983 -2.45767,-4.99716 -9.61135,-12.98903 -15.89706,-17.7597 l -11.42857,-8.67398 -90.15873,1.61842 c -49.5873,0.89013 -175.87301,2.9093 -280.63491,4.48706 -104.76191,1.57775 -190.78755,3.13658 -191.16813,3.46407 -0.38054,0.32749 2.86759,7.33168 7.21809,15.56488 9.80007,18.54633 9.45742,33.91489 -1.0637,47.7088 -3.70275,4.85457 -6.73229,9.63728 -6.73229,10.62826 0,0.99096 63.14285,1.06984 140.31746,0.17524 77.1746,-0.89453 205.80476,-2.36569 285.84481,-3.26923 z M 1055.8989,617.3402 c 19.8905,-20.84381 36.1646,-38.5581 36.1646,-39.36508 0,-0.80696 -7.3445,-1.4672 -16.3212,-1.4672 h -16.3211 l -31.1333,34.92063 c -17.1233,19.20635 -32.81303,36.92064 -34.86611,39.36508 -3.48775,4.15261 -2.74642,4.44445 11.28991,4.44445 h 15.0227 z m -16.475,-45.82304 c 18.5956,-20.687 24.7031,-34.48932 24.7031,-55.82727 0,-12.4145 -7.1266,-28.87238 -13.009,-30.04234 -1.9402,-0.38588 -20.541,17.12323 -41.3352,38.90913 l -37.80749,39.61074 9.02238,7.43701 c 10.25602,8.45389 19.63721,25.90951 19.63721,36.53907 0,7.0642 0.1663,6.98471 10.7936,-5.15766 5.9365,-6.78284 18.5344,-20.94375 27.9954,-31.46868 z m -354.50257,-11.48596 268.72944,-3.77829 36.19047,-37.08919 c 19.90476,-20.39906 36.19046,-38.12742 36.19046,-39.39632 0,-1.36813 -106.84077,-2.3071 -262.51462,-2.3071 H 501.00245 l -7.32663,5.65633 c -17.44655,13.46918 -94.94567,78.31926 -94.94567,79.44912 0,1.60719 -22.66116,1.80787 286.19118,-2.53455 z"
       id="path1509"
       inkscape:connector-curvature="0" />
  </g>
</svg>
