<?xml version="1.0" encoding="UTF-8" standalone="no"?>
<!-- Created with Inkscape (http://www.inkscape.org/) -->

<svg
   xmlns:dc="http://purl.org/dc/elements/1.1/"
   xmlns:cc="http://creativecommons.org/ns#"
   xmlns:rdf="http://www.w3.org/1999/02/22-rdf-syntax-ns#"
   xmlns:svg="http://www.w3.org/2000/svg"
   xmlns="http://www.w3.org/2000/svg"
   xmlns:sodipodi="http://sodipodi.sourceforge.net/DTD/sodipodi-0.dtd"
   xmlns:inkscape="http://www.inkscape.org/namespaces/inkscape"
   width="1450"
   height="1450"
   viewBox="0 0 383.64582 383.64584"
   version="1.1"
   id="svg8"
   inkscape:version="0.92.3 (2405546, 2018-03-11)"
   sodipodi:docname="facebook2.svg">
  <defs
     id="defs2" />
  <sodipodi:namedview
     id="base"
     pagecolor="#ffffff"
     bordercolor="#666666"
     borderopacity="1.0"
     inkscape:pageopacity="0"
     inkscape:pageshadow="2"
     inkscape:zoom="0.49497475"
     inkscape:cx="437.23764"
     inkscape:cy="520.26911"
     inkscape:document-units="mm"
     inkscape:current-layer="layer1"
     showgrid="false"
     units="px"
     inkscape:window-width="1920"
     inkscape:window-height="1057"
     inkscape:window-x="1912"
     inkscape:window-y="-8"
     inkscape:window-maximized="1"
     inkscape:snap-global="false"
     showborder="true"
     inkscape:pagecheckerboard="false" />
  <metadata
     id="metadata5">
    <rdf:RDF>
      <cc:Work
         rdf:about="">
        <dc:format>image/svg+xml</dc:format>
        <dc:type
           rdf:resource="http://purl.org/dc/dcmitype/StillImage" />
        <dc:title></dc:title>
      </cc:Work>
    </rdf:RDF>
  </metadata>
  <g
     inkscape:label="Layer 1"
     inkscape:groupmode="layer"
     id="layer1"
     transform="translate(0,86.64585)">
    <g
       id="g838"
       style="fill:#011537;fill-opacity:1">
      <circle
         inkscape:export-ydpi="96"
         inkscape:export-xdpi="96"
         r="145.52083"
         cy="105.17707"
         cx="191.82292"
         id="path832"
         style="opacity:1;fill:#011537;fill-opacity:1;stroke-width:0.47239262;stroke-miterlimit:4;stroke-dasharray:none;paint-order:markers stroke fill" />
    </g>
    <path
       style="opacity:1;fill:#ffffff;fill-opacity:1;stroke-width:0.10383452;stroke-miterlimit:4;stroke-dasharray:none;paint-order:markers stroke fill"
       d="m 217.65803,10.686647 c -13.67243,0.02037 -16.52227,0.560875 -24.7866,4.698937 -3.75848,1.881944 -5.65597,3.24926 -8.48941,6.116939 -4.15081,4.200916 -5.36609,5.873099 -7.46001,10.26914 -4.05838,8.520221 -4.56102,11.771598 -4.88032,31.523659 L 171.76987,80.06949 H 157.4989 143.22794 l 0.13435,16.514753 0.13542,16.514237 14.19291,0.13797 14.19294,0.13798 v 43.42319 42.87025 h 34.01084 v -42.878 -43.17101 l 14.32058,-0.25993 14.32005,-0.25993 0.39171,-3.38119 c 0.80539,-6.95434 3.46642,-27.350371 3.7145,-28.470096 l 0.25787,-1.163238 -16.50235,-0.137459 -16.50236,-0.137459 0.0238,-13.263271 c 0.0161,-8.722106 0.23434,-13.992926 0.6382,-15.393895 0.93233,-3.234147 3.28057,-6.157039 6.06888,-7.553026 2.34071,-1.171895 3.15748,-1.255583 15.00632,-1.543058 6.89182,-0.167087 12.58784,-0.342796 12.65814,-0.390157 0.0702,-0.04756 0.12816,-6.851404 0.12816,-15.120009 V 11.512436 l -5.49786,-0.42168 c -3.02394,-0.232042 -10.79212,-0.413909 -17.26199,-0.404109 z"
       id="rect842"
       inkscape:connector-curvature="0" />
  </g>
</svg>
