<?xml version="1.0" encoding="UTF-8" standalone="no"?>
<!-- Created with Inkscape (http://www.inkscape.org/) -->

<svg
   xmlns:dc="http://purl.org/dc/elements/1.1/"
   xmlns:cc="http://creativecommons.org/ns#"
   xmlns:rdf="http://www.w3.org/1999/02/22-rdf-syntax-ns#"
   xmlns:svg="http://www.w3.org/2000/svg"
   xmlns="http://www.w3.org/2000/svg"
   xmlns:sodipodi="http://sodipodi.sourceforge.net/DTD/sodipodi-0.dtd"
   xmlns:inkscape="http://www.inkscape.org/namespaces/inkscape"
   width="1450"
   height="1450"
   viewBox="0 0 383.64582 383.64584"
   version="1.1"
   id="svg8"
   inkscape:version="0.92.3 (2405546, 2018-03-11)"
   sodipodi:docname="github.svg">
  <defs
     id="defs2" />
  <sodipodi:namedview
     id="base"
     pagecolor="#ffffff"
     bordercolor="#666666"
     borderopacity="1.0"
     inkscape:pageopacity="0.0"
     inkscape:pageshadow="2"
     inkscape:zoom="0.49497475"
     inkscape:cx="254.90827"
     inkscape:cy="108.91898"
     inkscape:document-units="mm"
     inkscape:current-layer="layer1"
     showgrid="false"
     units="px"
     inkscape:window-width="1920"
     inkscape:window-height="1057"
     inkscape:window-x="1912"
     inkscape:window-y="-8"
     inkscape:window-maximized="1" />
  <metadata
     id="metadata5">
    <rdf:RDF>
      <cc:Work
         rdf:about="">
        <dc:format>image/svg+xml</dc:format>
        <dc:type
           rdf:resource="http://purl.org/dc/dcmitype/StillImage" />
        <dc:title></dc:title>
      </cc:Work>
    </rdf:RDF>
  </metadata>
  <g
     inkscape:label="Layer 1"
     inkscape:groupmode="layer"
     id="layer1"
     transform="translate(0,86.64585)">
    <circle
       style="opacity:1;fill:#011537;fill-opacity:1;stroke-width:0.47239262;stroke-miterlimit:4;stroke-dasharray:none;paint-order:markers stroke fill"
       id="path832"
       cx="191.82292"
       cy="105.17706"
       r="145.52083" />
    <g
       id="g841"
       transform="matrix(0.24334263,0,0,0.24334263,-133.38599,80.874084)" />
    <g
       id="g843"
       transform="matrix(0.24334263,0,0,0.24334263,-133.38599,80.874084)" />
    <g
       id="g845"
       transform="matrix(0.24334263,0,0,0.24334263,-133.38599,80.874084)" />
    <g
       id="g847"
       transform="matrix(0.24334263,0,0,0.24334263,-133.38599,80.874084)" />
    <g
       id="g849"
       transform="matrix(0.24334263,0,0,0.24334263,-133.38599,80.874084)" />
    <g
       id="g851"
       transform="matrix(0.24334263,0,0,0.24334263,-133.38599,80.874084)" />
    <g
       id="g853"
       transform="matrix(0.24334263,0,0,0.24334263,-133.38599,80.874084)" />
    <g
       id="g855"
       transform="matrix(0.24334263,0,0,0.24334263,-133.38599,80.874084)" />
    <g
       id="g857"
       transform="matrix(0.24334263,0,0,0.24334263,-133.38599,80.874084)" />
    <g
       id="g859"
       transform="matrix(0.24334263,0,0,0.24334263,-133.38599,80.874084)" />
    <g
       id="g861"
       transform="matrix(0.24334263,0,0,0.24334263,-133.38599,80.874084)" />
    <g
       id="g863"
       transform="matrix(0.24334263,0,0,0.24334263,-133.38599,80.874084)" />
    <g
       id="g865"
       transform="matrix(0.24334263,0,0,0.24334263,-133.38599,80.874084)" />
    <g
       id="g867"
       transform="matrix(0.24334263,0,0,0.24334263,-133.38599,80.874084)" />
    <g
       id="g869"
       transform="matrix(0.24334263,0,0,0.24334263,-133.38599,80.874084)" />
    <path
       style="opacity:1;fill:#ffffff;fill-opacity:1;stroke-width:0.28122026;stroke-miterlimit:4;stroke-dasharray:none;paint-order:markers stroke fill"
       d="m 125.10554,-2.4477413 -1.72686,4.8504609 c -2.42573,6.816888 -3.08809,22.4493054 -1.20688,28.4926104 0.80944,2.601141 1.11373,4.95151 0.67351,5.223569 -2.10587,1.301464 -8.5374,12.497195 -10.80679,18.811891 -2.25916,6.285875 -2.53059,8.504656 -2.44613,20.010687 0.27273,37.068793 17.95815,59.401093 51.57305,65.123643 12.73191,2.16746 11.79681,1.2426 7.865,7.77206 -1.88994,3.13856 -3.71494,7.44295 -4.05439,9.56622 -0.51744,3.2355 -1.18698,4.09994 -4.14061,5.33405 -5.89595,2.46348 -17.28433,2.86218 -22.69791,0.7947 -5.27516,-2.01458 -11.7191,-7.42158 -13.92235,-11.68233 -5.16411,-9.98625 -18.99785,-18.49381 -26.30106,-16.17585 -3.012272,0.95607 -2.32831,3.05164 2.16728,6.64869 7.65859,6.12778 10.90422,10.23278 15.28683,19.33721 6.90499,14.34421 13.09664,18.4162 30.0497,19.75743 4.28154,0.33873 10.13629,0.21478 13.01046,-0.27478 l 5.22493,-0.89035 v 15.07941 c 0,10.39955 -0.36998,15.45092 -1.19344,16.27687 -0.92275,0.92828 7.07094,1.19342 35.95621,1.19342 29.60202,0 36.94183,-0.25439 36.12728,-1.24594 -0.61692,-0.75087 -1.18108,-11.50601 -1.42375,-27.12409 -0.3669,-23.62508 -0.58864,-26.34848 -2.54713,-31.26198 -1.17999,-2.9604 -3.33601,-6.62627 -4.7912,-8.14516 l -2.64548,-2.76131 3.8537,-0.62232 c 39.34112,-6.35644 56.41609,-22.97489 60.07383,-58.468203 1.86642,-18.111025 -1.42668,-31.671591 -10.66941,-43.930324 -2.86411,-3.798737 -2.88205,-3.898751 -1.51132,-8.956052 1.75779,-6.485199 1.0963,-20.072954 -1.33348,-27.3840424 l -1.77666,-5.3461495 -5.07409,0.5239707 c -6.24034,0.6440725 -15.50428,4.3201948 -25.53464,10.1333078 l -7.59559,4.4019274 -9.82349,-2.075695 C 209.83522,7.6005326 186.95937,7.5945126 173.20471,10.52916 l -9.86121,2.103978 -6.56381,-3.8806454 c -8.5473,-5.053309 -20.84512,-9.9168386 -26.88163,-10.6317729 z"
       id="rect2035"
       inkscape:connector-curvature="0" />
  </g>
</svg>
